<svg width="512" height="512" viewBox="0 0 512 512" fill="none" xmlns="http://www.w3.org/2000/svg">
<g clip-path="url(#clip0_0_99)">
<path d="M444.629 404.723C323.289 352.977 188.711 352.977 67.3711 404.723C57.043 409.125 45.0781 404.641 40.1406 394.562C27.4805 368.723 14.8242 342.879 2.16407 317.039C-3.12499 306.242 1.62892 293.172 12.6563 288.371C168.512 220.547 343.492 220.551 499.344 288.371C510.371 293.172 515.129 306.242 509.836 317.039C497.176 342.879 484.52 368.723 471.859 394.562C466.918 404.641 454.957 409.125 444.629 404.723Z" fill="url(#paint0_linear_0_99)"/>
<path d="M21.6055 356.726C27.7852 369.34 33.9609 381.949 40.1406 394.562C45.0781 404.644 57.043 409.125 67.3711 404.723C188.707 352.976 323.289 352.976 444.629 404.723C454.953 409.125 466.918 404.641 471.855 394.562C478.035 381.949 484.215 369.34 490.391 356.726C339.801 293.984 172.199 293.984 21.6055 356.726Z" fill="url(#paint1_radial_0_99)"/>
<path d="M271.211 366.164C207.98 364.137 144.496 374.75 83.957 398.012L50.2266 364.277C47.3164 361.93 45.2383 358.445 44.8438 354.141L42.8867 332.695L5.44141 295.199C5.16016 294.977 4.89844 294.746 4.63672 294.504C6.70703 291.926 9.40625 289.789 12.6602 288.371C59.6641 267.922 108.402 253.637 157.848 245.535L268.242 355.93C270.898 358.59 272.133 362.441 271.227 366.09L271.211 366.164Z" fill="url(#paint2_linear_0_99)"/>
<path d="M266.574 237.609C266.539 237.609 266.508 237.609 266.472 237.606C259.355 237.484 252.234 237.488 245.113 237.613C244.941 237.617 244.773 237.621 244.601 237.625C234.019 237.824 223.437 238.301 212.871 239.055C212.636 239.074 212.406 239.09 212.172 239.106C205.199 239.609 198.23 240.238 191.273 240.988C190.98 241.02 190.687 241.051 190.394 241.086C183.379 241.848 176.375 242.731 169.379 243.742C169.617 243.996 169.851 244.254 170.101 244.5L171.535 245.895C171.789 246.164 172.035 246.438 172.304 246.699L173.738 248.098C173.992 248.367 174.238 248.641 174.504 248.902L175.941 250.301C176.191 250.57 176.437 250.84 176.707 251.102L177.746 252.113C180.578 256.656 181.695 262.129 180.773 267.523L172.996 312.863C171.578 321.117 174.789 328.469 180.23 333.203L214.742 367.715C217.011 367.516 219.285 367.34 221.554 367.172C221.98 367.141 222.406 367.113 222.832 367.086C224.726 366.953 226.617 366.832 228.511 366.723C228.996 366.691 229.484 366.664 229.969 366.637C231.933 366.531 233.898 366.434 235.863 366.352C236.195 366.336 236.531 366.32 236.863 366.305C241.562 366.117 246.261 365.996 250.957 365.945C251.219 365.941 251.484 365.941 251.746 365.941C253.761 365.922 255.781 365.918 257.801 365.926C258.304 365.926 258.808 365.934 259.312 365.934C261.152 365.949 262.992 365.973 264.832 366.004C265.328 366.016 265.828 366.023 266.324 366.031C268.367 366.078 270.41 366.133 272.453 366.207C272.695 366.215 272.933 366.219 273.176 366.231C277.836 366.398 282.496 366.637 287.156 366.941C287.613 366.973 288.074 367.008 288.531 367.039C290.359 367.164 292.183 367.301 294.004 367.445C294.59 367.492 295.172 367.543 295.754 367.59C297.531 367.738 299.308 367.898 301.086 368.066C301.609 368.117 302.133 368.164 302.652 368.215C304.816 368.43 306.98 368.656 309.14 368.898C309.238 368.91 309.336 368.922 309.433 368.93C311.785 369.199 314.133 369.481 316.48 369.781C316.758 369.816 317.035 369.856 317.312 369.895C319.281 370.148 321.25 370.418 323.215 370.699C323.82 370.785 324.426 370.875 325.027 370.965C326.707 371.211 328.379 371.465 330.054 371.727C330.707 371.832 331.355 371.934 332.004 372.039C333.734 372.32 335.461 372.609 337.183 372.906C337.719 373 338.258 373.09 338.793 373.184C343.316 373.984 347.832 374.848 352.344 375.781C352.886 375.895 353.426 376.012 353.969 376.125C355.656 376.481 357.344 376.844 359.031 377.215C359.734 377.371 360.437 377.531 361.14 377.691C362.707 378.043 364.269 378.406 365.836 378.777C366.531 378.941 367.23 379.106 367.926 379.273C369.64 379.688 371.355 380.113 373.066 380.547C373.574 380.676 374.082 380.801 374.59 380.93C376.82 381.504 379.051 382.09 381.281 382.695C381.558 382.773 381.832 382.852 382.109 382.93C384.027 383.453 385.941 383.992 387.855 384.539C388.547 384.738 389.234 384.941 389.926 385.145C391.441 385.586 392.957 386.035 394.472 386.492C395.238 386.727 396 386.957 396.765 387.195C398.258 387.656 399.75 388.125 401.242 388.598C401.957 388.828 402.668 389.051 403.383 389.281C405.168 389.859 406.953 390.453 408.734 391.051C409.125 391.184 409.519 391.313 409.914 391.445C412.082 392.18 414.25 392.934 416.414 393.703C416.988 393.906 417.558 394.117 418.133 394.324C419.722 394.898 421.312 395.473 422.898 396.063C423.66 396.344 424.418 396.633 425.179 396.918C426.601 397.457 428.027 398 429.449 398.551C430.222 398.852 431 399.156 431.773 399.461C433.258 400.043 434.738 400.637 436.219 401.234C436.89 401.508 437.562 401.777 438.234 402.051C440.367 402.926 442.5 403.813 444.625 404.719C445.183 404.957 445.75 405.156 446.312 405.344C446.859 405.52 447.406 405.672 447.957 405.805C457.414 408.09 467.441 403.57 471.855 394.559C474.164 389.848 476.472 385.133 478.781 380.422L342.015 243.656C316.98 240.066 291.785 238.051 266.574 237.609Z" fill="url(#paint3_linear_0_99)"/>
<path d="M471.859 394.562C484.519 368.723 497.175 342.879 509.835 317.039C515.124 306.242 510.371 293.172 499.343 288.371C452.339 267.918 403.593 253.641 354.16 245.527C353.175 249.148 353.539 253.199 355.757 256.93L371.574 283.484C374.07 287.676 374.343 292.828 372.304 297.262L359.394 325.348C356.355 331.961 358.585 338.938 363.406 342.961L412.933 392.492C423.585 396.184 434.156 400.254 444.628 404.723C454.956 409.125 466.917 404.641 471.859 394.562Z" fill="url(#paint4_linear_0_99)"/>
<path d="M275.789 118.301L296.148 159.551C299.363 166.067 305.574 170.578 312.761 171.625L358.285 178.239C376.386 180.871 383.613 203.114 370.515 215.879L337.574 247.989C332.375 253.059 330 260.364 331.226 267.52L339.004 312.86C342.097 330.887 323.176 344.633 306.984 336.125L266.269 314.715C259.84 311.336 252.16 311.336 245.73 314.715L205.015 336.125C188.824 344.633 169.906 330.887 172.996 312.86L180.773 267.52C182 260.364 179.629 253.059 174.426 247.989L141.484 215.879C128.386 203.114 135.617 180.871 153.715 178.239L199.238 171.625C206.426 170.582 212.64 166.067 215.855 159.551L236.211 118.301C244.304 101.899 267.695 101.899 275.789 118.301Z" fill="url(#paint5_linear_0_99)"/>
<path d="M303.203 167.789C300.246 165.699 297.797 162.895 296.148 159.551L275.789 118.301C271.742 110.102 263.871 106 256 106V239.672L303.203 167.789Z" fill="url(#paint6_linear_0_99)"/>
<path d="M256 239.672L332.082 256.734C333.183 253.473 335.035 250.461 337.574 247.988L370.515 215.879C383.613 203.113 376.386 180.871 358.285 178.238L312.761 171.625C309.261 171.117 306.004 169.774 303.199 167.789L256 239.672Z" fill="url(#paint7_linear_0_99)"/>
<path d="M256 239.672L179.918 256.734C178.816 253.473 176.965 250.461 174.426 247.988L141.484 215.879C128.387 203.113 135.613 180.871 153.715 178.238L199.238 171.625C202.738 171.117 205.996 169.774 208.801 167.789L256 239.672Z" fill="url(#paint8_linear_0_99)"/>
<path d="M179.918 256.734C181.074 260.156 181.402 263.855 180.773 267.52L172.996 312.859C169.902 330.887 188.824 344.633 205.015 336.125L245.73 314.715C248.945 313.027 252.472 312.184 256 312.184V239.672L179.918 256.734Z" fill="url(#paint9_linear_0_99)"/>
<path d="M306.984 336.125C323.175 344.633 342.097 330.887 339.004 312.859L331.226 267.52C330.597 263.855 330.925 260.156 332.082 256.734L256 239.672V312.184C259.527 312.184 263.054 313.027 266.269 314.719L306.984 336.125Z" fill="url(#paint10_linear_0_99)"/>
<path d="M272.824 133.879L290.136 168.953C292.867 174.492 298.152 178.332 304.261 179.219L342.972 184.844C358.363 187.082 364.508 205.992 353.371 216.848L325.359 244.153C320.937 248.461 318.922 254.672 319.965 260.758L326.578 299.309C329.207 314.637 313.117 326.328 299.351 319.09L264.73 300.891C259.265 298.016 252.734 298.016 247.269 300.891L212.648 319.09C198.879 326.328 182.793 314.637 185.422 299.309L192.035 260.758C193.078 254.672 191.058 248.461 186.636 244.153L158.629 216.848C147.492 205.992 153.636 187.082 169.027 184.844L207.734 179.219C213.847 178.328 219.129 174.492 221.863 168.953L239.172 133.879C246.058 119.934 265.941 119.934 272.824 133.879Z" fill="url(#paint11_linear_0_99)"/>
<path d="M77.828 210.016L98.1952 233.262C101.414 236.934 106.23 238.785 111.074 238.215L141.773 234.613C153.98 233.184 162.527 246.367 156.242 256.926L140.426 283.484C137.93 287.676 137.656 292.828 139.695 297.262L152.605 325.348C157.738 336.512 147.84 348.715 135.855 346L105.711 339.168C100.953 338.086 95.9687 339.418 92.3788 342.727L69.6601 363.684C60.6288 372.016 45.9608 366.375 44.8437 354.137L42.0273 323.359C41.5819 318.496 38.7773 314.168 34.5194 311.777L7.57023 296.648C-3.14462 290.633 -2.31259 274.941 8.98038 270.094L37.3827 257.906C41.8671 255.98 45.1171 251.973 46.0741 247.188L52.1366 216.879C54.5468 204.828 69.7265 200.773 77.828 210.016Z" fill="url(#paint12_linear_0_99)"/>
<path d="M104.203 237.387C101.926 236.543 99.8475 235.145 98.1991 233.262L77.828 210.016C73.7772 205.395 67.9569 204.098 62.8475 205.461L86.0311 292.235L104.203 237.387Z" fill="url(#paint13_linear_0_99)"/>
<path d="M86.0311 292.234L138.379 290.113C138.527 287.805 139.207 285.531 140.426 283.484L156.242 256.926C162.531 246.367 153.98 233.184 141.777 234.613L111.078 238.215C108.719 238.492 106.371 238.188 104.207 237.383L86.0311 292.234Z" fill="url(#paint14_linear_0_99)"/>
<path d="M86.0312 292.234L39.6015 316.504C38.3202 314.578 36.5976 312.945 34.5194 311.777L7.57023 296.648C-3.14462 290.633 -2.31259 274.941 8.98038 270.094L37.3866 257.906C39.5663 256.969 41.4491 255.531 42.9257 253.758L86.0312 292.234Z" fill="url(#paint15_linear_0_99)"/>
<path d="M39.6016 316.504C40.9453 318.523 41.8008 320.867 42.0273 323.355L44.8438 354.137C45.9609 366.375 60.6289 372.016 69.6602 363.684L92.3789 342.727C94.1758 341.07 96.3164 339.91 98.6055 339.301L86.0312 292.23L39.6016 316.504Z" fill="url(#paint16_linear_0_99)"/>
<path d="M135.855 346C147.84 348.715 157.738 336.512 152.605 325.344L139.695 297.262C138.648 294.992 138.223 292.535 138.379 290.113L86.0311 292.23L98.6053 339.301C100.894 338.688 103.332 338.625 105.711 339.164L135.855 346Z" fill="url(#paint17_linear_0_99)"/>
<path d="M78.6054 220.641L95.9257 240.406C98.6601 243.527 102.754 245.106 106.875 244.621L132.977 241.559C143.355 240.34 150.625 251.551 145.281 260.531L131.832 283.109C129.711 286.676 129.477 291.059 131.211 294.828L142.187 318.707C146.555 328.199 138.137 338.578 127.945 336.266L102.316 330.457C98.2695 329.539 94.0312 330.672 90.9804 333.484L71.664 351.305C63.9843 358.391 51.5117 353.594 50.5625 343.188L48.1679 317.016C47.789 312.883 45.4023 309.203 41.7851 307.172L18.8671 294.305C9.75776 289.192 10.4648 275.848 20.0703 271.727L44.2187 261.363C48.0312 259.727 50.7968 256.32 51.6093 252.25L56.7656 226.481C58.8125 216.231 71.7187 212.781 78.6054 220.641Z" fill="url(#paint18_linear_0_99)"/>
<path d="M434.171 210.016L413.804 233.262C410.585 236.934 405.769 238.785 400.925 238.215L370.226 234.613C358.019 233.184 349.472 246.367 355.757 256.926L371.574 283.484C374.07 287.676 374.343 292.828 372.304 297.262L359.394 325.348C354.261 336.512 364.16 348.715 376.144 346L406.289 339.168C411.046 338.086 416.031 339.418 419.617 342.727L442.335 363.684C451.371 372.016 466.039 366.375 467.156 354.137L469.972 323.359C470.417 318.496 473.222 314.168 477.48 311.777L504.429 296.648C515.144 290.633 514.312 274.941 503.019 270.094L474.617 257.906C470.132 255.98 466.882 251.973 465.925 247.188L459.863 216.879C457.453 204.828 442.273 200.773 434.171 210.016Z" fill="url(#paint19_linear_0_99)"/>
<path d="M407.792 237.387C410.074 236.543 412.152 235.145 413.8 233.262L434.171 210.016C438.222 205.395 444.042 204.098 449.152 205.461L425.968 292.235L407.792 237.387Z" fill="url(#paint20_linear_0_99)"/>
<path d="M425.968 292.234L373.621 290.113C373.472 287.805 372.792 285.531 371.574 283.484L355.757 256.926C349.468 246.367 358.019 233.184 370.222 234.613L400.921 238.215C403.281 238.492 405.628 238.188 407.792 237.383L425.968 292.234Z" fill="url(#paint21_linear_0_99)"/>
<path d="M425.968 292.234L472.398 316.504C473.679 314.578 475.402 312.945 477.48 311.777L504.429 296.648C515.144 290.633 514.312 274.941 503.019 270.094L474.617 257.906C472.433 256.969 470.55 255.531 469.074 253.758L425.968 292.234Z" fill="url(#paint22_linear_0_99)"/>
<path d="M472.398 316.504C471.054 318.523 470.199 320.867 469.972 323.355L467.156 354.137C466.038 366.375 451.37 372.016 442.335 363.684L419.617 342.727C417.824 341.07 415.683 339.91 413.394 339.301L425.968 292.23L472.398 316.504Z" fill="url(#paint23_linear_0_99)"/>
<path d="M376.144 346C364.16 348.715 354.261 336.512 359.394 325.344L372.304 297.262C373.351 294.992 373.777 292.535 373.621 290.113L425.968 292.23L413.394 339.301C411.105 338.688 408.667 338.625 406.288 339.164L376.144 346Z" fill="url(#paint24_linear_0_99)"/>
<path d="M454.816 227.512L459.937 253.289C460.746 257.359 463.507 260.77 467.316 262.41L491.456 272.805C501.054 276.938 501.746 290.281 492.628 295.383L469.695 308.223C466.074 310.25 463.683 313.926 463.3 318.059L460.874 344.231C459.914 354.633 447.437 359.418 439.765 352.32L420.468 334.481C417.421 331.66 413.183 330.524 409.136 331.438L383.499 337.219C373.304 339.516 364.902 329.129 369.277 319.641L380.285 295.774C382.023 292.008 381.796 287.625 379.675 284.055L366.257 261.461C360.921 252.477 368.203 241.274 378.581 242.504L404.679 245.594C408.8 246.082 412.894 244.512 415.632 241.395L432.976 221.652C439.871 213.801 452.777 217.266 454.816 227.512Z" fill="url(#paint25_linear_0_99)"/>
</g>
<defs>
<linearGradient id="paint0_linear_0_99" x1="222.2" y1="229.748" x2="365.543" y2="560.442" gradientUnits="userSpaceOnUse">
<stop stop-color="#FF6E3A"/>
<stop offset="0.1596" stop-color="#FF6440"/>
<stop offset="0.4266" stop-color="#FF4B52"/>
<stop offset="0.7662" stop-color="#FF216E"/>
<stop offset="1" stop-color="#FF0084"/>
</linearGradient>
<radialGradient id="paint1_radial_0_99" cx="0" cy="0" r="1" gradientUnits="userSpaceOnUse" gradientTransform="translate(253.992 442.367) scale(281.156 122.837)">
<stop stop-color="#A64153"/>
<stop offset="0.3871" stop-color="#A83F52" stop-opacity="0.611765"/>
<stop offset="0.5898" stop-color="#B03750" stop-opacity="0.411765"/>
<stop offset="0.7497" stop-color="#BC294B" stop-opacity="0.25098"/>
<stop offset="0.8864" stop-color="#CF1645" stop-opacity="0.113725"/>
<stop offset="1" stop-color="#E4003D" stop-opacity="0"/>
</radialGradient>
<linearGradient id="paint2_linear_0_99" x1="188.331" y1="389.26" x2="-5.01945" y2="195.91" gradientUnits="userSpaceOnUse">
<stop stop-color="#E4003D" stop-opacity="0"/>
<stop offset="0.5838" stop-color="#BD294B" stop-opacity="0.584314"/>
<stop offset="1" stop-color="#A64153"/>
</linearGradient>
<linearGradient id="paint3_linear_0_99" x1="398.606" y1="425.95" x2="156.311" y2="183.656" gradientUnits="userSpaceOnUse">
<stop stop-color="#E4003D" stop-opacity="0"/>
<stop offset="0.5838" stop-color="#BD294B" stop-opacity="0.584314"/>
<stop offset="1" stop-color="#A64153"/>
</linearGradient>
<linearGradient id="paint4_linear_0_99" x1="477.517" y1="464.877" x2="422.301" y2="275.638" gradientUnits="userSpaceOnUse">
<stop stop-color="#E4003D" stop-opacity="0"/>
<stop offset="0.5838" stop-color="#BD294B" stop-opacity="0.584314"/>
<stop offset="1" stop-color="#A64153"/>
</linearGradient>
<linearGradient id="paint5_linear_0_99" x1="168.051" y1="151.432" x2="324.787" y2="308.168" gradientUnits="userSpaceOnUse">
<stop stop-color="#FFD459"/>
<stop offset="0.2296" stop-color="#FFD355"/>
<stop offset="0.4362" stop-color="#FFCF4A"/>
<stop offset="0.634" stop-color="#FFC838"/>
<stop offset="0.825" stop-color="#FFBF1F"/>
<stop offset="1" stop-color="#FFB400"/>
</linearGradient>
<linearGradient id="paint6_linear_0_99" x1="270.243" y1="178.376" x2="106.853" y2="101.177" gradientUnits="userSpaceOnUse">
<stop stop-color="#E58200" stop-opacity="0"/>
<stop offset="0.0396" stop-color="#E27F04" stop-opacity="0.039216"/>
<stop offset="0.4671" stop-color="#C15D2F" stop-opacity="0.466667"/>
<stop offset="0.8016" stop-color="#AD4949" stop-opacity="0.8"/>
<stop offset="1" stop-color="#A64153"/>
</linearGradient>
<linearGradient id="paint7_linear_0_99" x1="311.883" y1="206.388" x2="247.426" y2="51.9918" gradientUnits="userSpaceOnUse">
<stop stop-color="#E58200" stop-opacity="0"/>
<stop offset="0.0396" stop-color="#E27F04" stop-opacity="0.039216"/>
<stop offset="0.4671" stop-color="#C15D2F" stop-opacity="0.466667"/>
<stop offset="0.8016" stop-color="#AD4949" stop-opacity="0.8"/>
<stop offset="1" stop-color="#A64153"/>
</linearGradient>
<linearGradient id="paint8_linear_0_99" x1="205.24" y1="194.114" x2="269.697" y2="39.7182" gradientUnits="userSpaceOnUse">
<stop stop-color="#E58200" stop-opacity="0"/>
<stop offset="0.0396" stop-color="#E27F04" stop-opacity="0.039216"/>
<stop offset="0.4671" stop-color="#C15D2F" stop-opacity="0.466667"/>
<stop offset="0.8016" stop-color="#AD4949" stop-opacity="0.8"/>
<stop offset="1" stop-color="#A64153"/>
</linearGradient>
<linearGradient id="paint9_linear_0_99" x1="224.284" y1="294.128" x2="306.229" y2="393.062" gradientUnits="userSpaceOnUse">
<stop stop-color="#E58200" stop-opacity="0"/>
<stop offset="0.2413" stop-color="#DA760F" stop-opacity="0.243137"/>
<stop offset="0.7044" stop-color="#BC5737" stop-opacity="0.705882"/>
<stop offset="1" stop-color="#A64153"/>
</linearGradient>
<linearGradient id="paint10_linear_0_99" x1="301.331" y1="281.189" x2="394.483" y2="214.651" gradientUnits="userSpaceOnUse">
<stop stop-color="#E58200" stop-opacity="0"/>
<stop offset="0.2413" stop-color="#DA760F" stop-opacity="0.243137"/>
<stop offset="0.7044" stop-color="#BC5737" stop-opacity="0.705882"/>
<stop offset="1" stop-color="#A64153"/>
</linearGradient>
<linearGradient id="paint11_linear_0_99" x1="280.744" y1="264.337" x2="185.033" y2="138.265" gradientUnits="userSpaceOnUse">
<stop stop-color="#FFD459" stop-opacity="0"/>
<stop offset="0.1903" stop-color="#FFD55C" stop-opacity="0.192157"/>
<stop offset="0.3461" stop-color="#FFD766" stop-opacity="0.345098"/>
<stop offset="0.4896" stop-color="#FFDC78" stop-opacity="0.490196"/>
<stop offset="0.6259" stop-color="#FFE290" stop-opacity="0.627451"/>
<stop offset="0.757" stop-color="#FFEAAF" stop-opacity="0.756863"/>
<stop offset="0.8824" stop-color="#FFF4D4" stop-opacity="0.882353"/>
<stop offset="1" stop-color="white"/>
</linearGradient>
<linearGradient id="paint12_linear_0_99" x1="13.6332" y1="250.203" x2="142.555" y2="324.763" gradientUnits="userSpaceOnUse">
<stop stop-color="#FFD459"/>
<stop offset="0.2296" stop-color="#FFD355"/>
<stop offset="0.4362" stop-color="#FFCF4A"/>
<stop offset="0.634" stop-color="#FFC838"/>
<stop offset="0.825" stop-color="#FFBF1F"/>
<stop offset="1" stop-color="#FFB400"/>
</linearGradient>
<linearGradient id="paint13_linear_0_99" x1="84.6406" y1="249.971" x2="-34.807" y2="228.194" gradientUnits="userSpaceOnUse">
<stop stop-color="#E58200" stop-opacity="0"/>
<stop offset="0.0396" stop-color="#E27F04" stop-opacity="0.039216"/>
<stop offset="0.4671" stop-color="#C15D2F" stop-opacity="0.466667"/>
<stop offset="0.8016" stop-color="#AD4949" stop-opacity="0.8"/>
<stop offset="1" stop-color="#A64153"/>
</linearGradient>
<linearGradient id="paint14_linear_0_99" x1="116.528" y1="260.933" x2="47.9129" y2="171.889" gradientUnits="userSpaceOnUse">
<stop stop-color="#E58200" stop-opacity="0"/>
<stop offset="0.0396" stop-color="#E27F04" stop-opacity="0.039216"/>
<stop offset="0.4671" stop-color="#C15D2F" stop-opacity="0.466667"/>
<stop offset="0.8016" stop-color="#AD4949" stop-opacity="0.8"/>
<stop offset="1" stop-color="#A64153"/>
</linearGradient>
<linearGradient id="paint15_linear_0_99" x1="45.1834" y1="271.449" x2="60.2487" y2="160.049" gradientUnits="userSpaceOnUse">
<stop stop-color="#E58200" stop-opacity="0"/>
<stop offset="0.0396" stop-color="#E27F04" stop-opacity="0.039216"/>
<stop offset="0.4671" stop-color="#C15D2F" stop-opacity="0.466667"/>
<stop offset="0.8016" stop-color="#AD4949" stop-opacity="0.8"/>
<stop offset="1" stop-color="#A64153"/>
</linearGradient>
<linearGradient id="paint16_linear_0_99" x1="74.8814" y1="333.078" x2="145.23" y2="383.087" gradientUnits="userSpaceOnUse">
<stop stop-color="#E58200" stop-opacity="0"/>
<stop offset="0.2413" stop-color="#DA760F" stop-opacity="0.243137"/>
<stop offset="0.7044" stop-color="#BC5737" stop-opacity="0.705882"/>
<stop offset="1" stop-color="#A64153"/>
</linearGradient>
<linearGradient id="paint17_linear_0_99" x1="122.65" y1="311.318" x2="171.579" y2="251.972" gradientUnits="userSpaceOnUse">
<stop stop-color="#E58200" stop-opacity="0"/>
<stop offset="0.2413" stop-color="#DA760F" stop-opacity="0.243137"/>
<stop offset="0.7044" stop-color="#BC5737" stop-opacity="0.705882"/>
<stop offset="1" stop-color="#A64153"/>
</linearGradient>
<linearGradient id="paint18_linear_0_99" x1="106.364" y1="303.949" x2="22.3733" y2="238.711" gradientUnits="userSpaceOnUse">
<stop stop-color="#FFD459" stop-opacity="0"/>
<stop offset="0.1903" stop-color="#FFD55C" stop-opacity="0.192157"/>
<stop offset="0.3461" stop-color="#FFD766" stop-opacity="0.345098"/>
<stop offset="0.4896" stop-color="#FFDC78" stop-opacity="0.490196"/>
<stop offset="0.6259" stop-color="#FFE290" stop-opacity="0.627451"/>
<stop offset="0.757" stop-color="#FFEAAF" stop-opacity="0.756863"/>
<stop offset="0.8824" stop-color="#FFF4D4" stop-opacity="0.882353"/>
<stop offset="1" stop-color="white"/>
</linearGradient>
<linearGradient id="paint19_linear_0_99" x1="498.36" y1="250.198" x2="369.438" y2="324.758" gradientUnits="userSpaceOnUse">
<stop stop-color="#FFD459"/>
<stop offset="0.2296" stop-color="#FFD355"/>
<stop offset="0.4362" stop-color="#FFCF4A"/>
<stop offset="0.634" stop-color="#FFC838"/>
<stop offset="0.825" stop-color="#FFBF1F"/>
<stop offset="1" stop-color="#FFB400"/>
</linearGradient>
<linearGradient id="paint20_linear_0_99" x1="427.352" y1="249.966" x2="546.8" y2="228.189" gradientUnits="userSpaceOnUse">
<stop stop-color="#E58200" stop-opacity="0"/>
<stop offset="0.0396" stop-color="#E27F04" stop-opacity="0.039216"/>
<stop offset="0.4671" stop-color="#C15D2F" stop-opacity="0.466667"/>
<stop offset="0.8016" stop-color="#AD4949" stop-opacity="0.8"/>
<stop offset="1" stop-color="#A64153"/>
</linearGradient>
<linearGradient id="paint21_linear_0_99" x1="395.465" y1="260.928" x2="464.08" y2="171.884" gradientUnits="userSpaceOnUse">
<stop stop-color="#E58200" stop-opacity="0"/>
<stop offset="0.0396" stop-color="#E27F04" stop-opacity="0.039216"/>
<stop offset="0.4671" stop-color="#C15D2F" stop-opacity="0.466667"/>
<stop offset="0.8016" stop-color="#AD4949" stop-opacity="0.8"/>
<stop offset="1" stop-color="#A64153"/>
</linearGradient>
<linearGradient id="paint22_linear_0_99" x1="466.81" y1="271.444" x2="451.744" y2="160.044" gradientUnits="userSpaceOnUse">
<stop stop-color="#E58200" stop-opacity="0"/>
<stop offset="0.0396" stop-color="#E27F04" stop-opacity="0.039216"/>
<stop offset="0.4671" stop-color="#C15D2F" stop-opacity="0.466667"/>
<stop offset="0.8016" stop-color="#AD4949" stop-opacity="0.8"/>
<stop offset="1" stop-color="#A64153"/>
</linearGradient>
<linearGradient id="paint23_linear_0_99" x1="437.112" y1="333.073" x2="366.763" y2="383.082" gradientUnits="userSpaceOnUse">
<stop stop-color="#E58200" stop-opacity="0"/>
<stop offset="0.2413" stop-color="#DA760F" stop-opacity="0.243137"/>
<stop offset="0.7044" stop-color="#BC5737" stop-opacity="0.705882"/>
<stop offset="1" stop-color="#A64153"/>
</linearGradient>
<linearGradient id="paint24_linear_0_99" x1="389.343" y1="311.313" x2="340.414" y2="251.967" gradientUnits="userSpaceOnUse">
<stop stop-color="#E58200" stop-opacity="0"/>
<stop offset="0.2413" stop-color="#DA760F" stop-opacity="0.243137"/>
<stop offset="0.7044" stop-color="#BC5737" stop-opacity="0.705882"/>
<stop offset="1" stop-color="#A64153"/>
</linearGradient>
<linearGradient id="paint25_linear_0_99" x1="437.221" y1="313.54" x2="397.077" y2="215.055" gradientUnits="userSpaceOnUse">
<stop stop-color="#FFD459" stop-opacity="0"/>
<stop offset="0.1903" stop-color="#FFD55C" stop-opacity="0.192157"/>
<stop offset="0.3461" stop-color="#FFD766" stop-opacity="0.345098"/>
<stop offset="0.4896" stop-color="#FFDC78" stop-opacity="0.490196"/>
<stop offset="0.6259" stop-color="#FFE290" stop-opacity="0.627451"/>
<stop offset="0.757" stop-color="#FFEAAF" stop-opacity="0.756863"/>
<stop offset="0.8824" stop-color="#FFF4D4" stop-opacity="0.882353"/>
<stop offset="1" stop-color="white"/>
</linearGradient>
<clipPath id="clip0_0_99">
<rect width="512" height="512" fill="white"/>
</clipPath>
</defs>
</svg>
