<svg width="512" height="512" viewBox="0 0 512 512" fill="none" xmlns="http://www.w3.org/2000/svg">
<path d="M167.707 510.07L11.2464 394.406C6.87138 391.167 5.94951 384.999 9.17998 380.624L23.3362 361.48L195.641 488.859L181.485 508.003C178.254 512.378 172.082 513.304 167.707 510.07Z" fill="url(#paint0_linear_0_126)"/>
<path d="M23.3362 361.48L12.5706 376.042L12.9456 376.261L16.2151 398.078L167.707 510.07C172.082 513.304 178.25 512.378 181.485 508.003L195.641 488.859L23.3362 361.48Z" fill="url(#paint1_linear_0_126)"/>
<path d="M433.777 245.453C383.238 313.816 135.672 130.801 186.211 62.4375C236.75 -5.92576 333.137 -20.375 401.5 30.1602C469.863 80.6992 484.312 177.086 433.777 245.453Z" fill="url(#paint2_radial_0_126)"/>
<path d="M184.555 503.125L12.9457 376.262C5.81286 370.988 3.88708 361.137 8.51208 353.566L187.266 61.0077L434.832 244.023L207.551 500.707C201.668 507.351 191.688 508.402 184.555 503.125Z" fill="url(#paint3_linear_0_126)"/>
<path d="M124.762 185.703C124.762 185.703 133.797 174.601 176.16 205.918C218.524 237.234 223.301 265.187 223.301 265.187C223.301 265.187 199.5 262.679 179.61 253.308C145.293 237.144 108.602 207.566 124.762 185.703Z" fill="url(#paint4_linear_0_126)"/>
<path d="M179.61 253.308C186.914 256.75 194.742 259.261 201.727 261.07L216.547 248.902C210.278 237.871 198.406 222.363 176.16 205.918C175.043 205.09 173.949 204.3 172.879 203.531L170.614 205.39C170.614 205.39 165.852 209.308 162.418 212.144C161.223 213.133 160.813 214.664 161.168 216.039L165.668 246.05C170.27 248.679 174.961 251.117 179.61 253.308Z" fill="url(#paint5_linear_0_126)"/>
<path d="M335.676 338.367L333.946 340.344L204.477 488.07C198.774 494.578 189.368 495.84 182.809 490.996L25.0551 374.375C18.5004 369.527 16.9496 360.164 21.5004 352.804L124.762 185.707C121.579 195.172 139.575 217.722 166.868 237.898C195.817 259.297 264.977 263.929 293.926 285.332C322.059 306.129 340.305 329.437 335.676 338.367Z" fill="url(#paint6_linear_0_126)"/>
<path d="M104.473 304.898C104.473 308.324 101.696 311.105 98.2659 311.105C94.8362 311.105 92.0588 308.324 92.0588 304.898C92.0588 301.468 94.8362 298.691 98.2659 298.691C101.696 298.691 104.473 301.468 104.473 304.898Z" fill="url(#paint7_linear_0_126)"/>
<path d="M171.258 305.937C171.258 311.367 166.856 315.765 161.426 315.765C155.996 315.765 151.598 311.367 151.598 305.937C151.598 300.507 155.996 296.109 161.426 296.109C166.856 296.109 171.258 300.507 171.258 305.937Z" fill="url(#paint8_linear_0_126)"/>
<path d="M147.578 282.535C147.578 290.886 140.809 297.656 132.457 297.656C124.106 297.656 117.336 290.886 117.336 282.535C117.336 274.183 124.106 267.414 132.457 267.414C140.809 267.414 147.578 274.183 147.578 282.535Z" fill="url(#paint9_linear_0_126)"/>
<path d="M230.312 418.16C230.312 425.292 224.527 431.074 217.395 431.074C210.266 431.074 204.48 425.292 204.48 418.16C204.48 411.027 210.266 405.246 217.395 405.246C224.527 405.246 230.312 411.027 230.312 418.16Z" fill="url(#paint10_linear_0_126)"/>
<path d="M189.09 409.601C189.09 420.574 180.192 429.468 169.219 429.468C158.246 429.468 149.352 420.574 149.352 409.601C149.352 398.624 158.246 389.73 169.219 389.73C180.192 389.73 189.09 398.624 189.09 409.601Z" fill="url(#paint11_linear_0_126)"/>
<path d="M232.016 473.078L434.832 244.023L187.266 61.0077L173.594 83.3827L232.016 473.078Z" fill="url(#paint12_linear_0_126)"/>
<path d="M417.75 61.4179C415.379 64.6288 402.062 58.8046 388.004 48.414C373.949 38.0234 364.476 26.9999 366.851 23.789C369.222 20.582 382.539 26.4062 396.594 36.7968C410.652 47.1874 420.125 58.2109 417.75 61.4179Z" fill="url(#paint13_linear_0_126)"/>
<path d="M488.414 72.3554L401.258 52.582L184.211 230.793C182.977 231.809 181.227 231.945 179.848 231.129C177.938 230.004 176.141 228.828 174.477 227.598C170.192 224.43 166.141 221.203 162.367 217.977C160.567 216.437 160.59 213.652 162.418 212.145C165.852 209.309 170.613 205.391 170.613 205.391L388.68 26.3593C392.047 23.5937 396.512 22.5351 400.762 23.4961L494.676 44.7929C502.281 46.5234 507.043 54.0937 505.324 61.7031C503.598 69.3086 496.027 74.0742 488.414 72.3554Z" fill="url(#paint14_linear_0_126)"/>
<path d="M47.6097 289.582L8.51208 353.566C3.88708 361.136 5.81286 370.988 12.9457 376.261L184.555 503.125C191.688 508.402 201.672 507.351 207.551 500.707L257.262 444.57L47.6097 289.582Z" fill="url(#paint15_linear_0_126)"/>
<path d="M388.679 26.3593L383.375 30.7148L401.258 52.5859L395.961 23.2499C393.32 23.5663 390.785 24.6288 388.679 26.3593Z" fill="url(#paint16_linear_0_126)"/>
<path d="M400.761 23.4961C399.168 23.1367 397.547 23.0586 395.961 23.25L401.258 52.582L411.648 25.9648L400.761 23.4961Z" fill="url(#paint17_linear_0_126)"/>
<path d="M426.426 235.766C379.719 298.949 150.918 129.805 197.625 66.625C244.332 3.44529 333.414 -9.91018 396.594 36.7969C459.777 83.5 473.133 172.586 426.426 235.766Z" fill="url(#paint18_linear_0_126)"/>
<defs>
<linearGradient id="paint0_linear_0_126" x1="99.5855" y1="438.523" x2="86.3096" y2="456.48" gradientUnits="userSpaceOnUse">
<stop stop-color="#FFFCF8"/>
<stop offset="0.1875" stop-color="#FAF8F6"/>
<stop offset="0.4041" stop-color="#ECEEF2"/>
<stop offset="0.6353" stop-color="#D5DCEA"/>
<stop offset="0.875" stop-color="#B5C4DF"/>
<stop offset="1" stop-color="#A1B5D8"/>
</linearGradient>
<linearGradient id="paint1_linear_0_126" x1="74.8214" y1="505.225" x2="175.2" y2="255.526" gradientUnits="userSpaceOnUse">
<stop stop-color="#A1B5D8" stop-opacity="0"/>
<stop offset="0.0343" stop-color="#9FB3D5" stop-opacity="0.035294"/>
<stop offset="0.4515" stop-color="#8898AF" stop-opacity="0.45098"/>
<stop offset="0.788" stop-color="#798898" stop-opacity="0.788235"/>
<stop offset="1" stop-color="#748290"/>
</linearGradient>
<radialGradient id="paint2_radial_0_126" cx="0" cy="0" r="1" gradientUnits="userSpaceOnUse" gradientTransform="translate(351.417 34.488) rotate(36.4768) scale(268.281)">
<stop stop-color="#FFFCF8"/>
<stop offset="0.1875" stop-color="#FAF8F6"/>
<stop offset="0.4041" stop-color="#ECEEF2"/>
<stop offset="0.6353" stop-color="#D5DCEA"/>
<stop offset="0.875" stop-color="#B5C4DF"/>
<stop offset="1" stop-color="#A1B5D8"/>
</radialGradient>
<linearGradient id="paint3_linear_0_126" x1="164.535" y1="266.279" x2="334.245" y2="391.751" gradientUnits="userSpaceOnUse">
<stop stop-color="#FFFCF8"/>
<stop offset="0.1875" stop-color="#FAF8F6"/>
<stop offset="0.4041" stop-color="#ECEEF2"/>
<stop offset="0.6353" stop-color="#D5DCEA"/>
<stop offset="0.875" stop-color="#B5C4DF"/>
<stop offset="1" stop-color="#A1B5D8"/>
</linearGradient>
<linearGradient id="paint4_linear_0_126" x1="187.449" y1="207.277" x2="162.462" y2="241.073" gradientUnits="userSpaceOnUse">
<stop stop-color="#8BE1E2"/>
<stop offset="0.1873" stop-color="#87E1E1"/>
<stop offset="0.3558" stop-color="#7CE2DD"/>
<stop offset="0.5172" stop-color="#6AE2D7"/>
<stop offset="0.6741" stop-color="#50E4CE"/>
<stop offset="0.8278" stop-color="#2FE5C2"/>
<stop offset="0.9772" stop-color="#07E7B4"/>
<stop offset="1" stop-color="#00E7B2"/>
</linearGradient>
<linearGradient id="paint5_linear_0_126" x1="193.894" y1="260.849" x2="178.313" y2="186.54" gradientUnits="userSpaceOnUse">
<stop offset="0.0029" stop-color="#00E7B2" stop-opacity="0"/>
<stop offset="0.1297" stop-color="#10D3B5" stop-opacity="0.12549"/>
<stop offset="0.3255" stop-color="#23BAB9" stop-opacity="0.321569"/>
<stop offset="0.5302" stop-color="#30A8BC" stop-opacity="0.529412"/>
<stop offset="0.7478" stop-color="#389DBD" stop-opacity="0.74902"/>
<stop offset="1" stop-color="#3B9ABE"/>
</linearGradient>
<linearGradient id="paint6_linear_0_126" x1="133.411" y1="303.438" x2="251.059" y2="417.164" gradientUnits="userSpaceOnUse">
<stop stop-color="#8BE1E2"/>
<stop offset="0.1873" stop-color="#87E1E1"/>
<stop offset="0.3558" stop-color="#7CE2DD"/>
<stop offset="0.5172" stop-color="#6AE2D7"/>
<stop offset="0.6741" stop-color="#50E4CE"/>
<stop offset="0.8278" stop-color="#2FE5C2"/>
<stop offset="0.9772" stop-color="#07E7B4"/>
<stop offset="1" stop-color="#00E7B2"/>
</linearGradient>
<linearGradient id="paint7_linear_0_126" x1="213.138" y1="149.493" x2="-40.0104" y2="491.892" gradientUnits="userSpaceOnUse">
<stop offset="0.0029" stop-color="#00E7B2" stop-opacity="0"/>
<stop offset="0.1297" stop-color="#10D3B5" stop-opacity="0.12549"/>
<stop offset="0.3255" stop-color="#23BAB9" stop-opacity="0.321569"/>
<stop offset="0.5302" stop-color="#30A8BC" stop-opacity="0.529412"/>
<stop offset="0.7478" stop-color="#389DBD" stop-opacity="0.74902"/>
<stop offset="1" stop-color="#3B9ABE"/>
</linearGradient>
<linearGradient id="paint8_linear_0_126" x1="254.475" y1="180.055" x2="1.327" y2="522.454" gradientUnits="userSpaceOnUse">
<stop offset="0.0029" stop-color="#00E7B2" stop-opacity="0"/>
<stop offset="0.1297" stop-color="#10D3B5" stop-opacity="0.12549"/>
<stop offset="0.3255" stop-color="#23BAB9" stop-opacity="0.321569"/>
<stop offset="0.5302" stop-color="#30A8BC" stop-opacity="0.529412"/>
<stop offset="0.7478" stop-color="#389DBD" stop-opacity="0.74902"/>
<stop offset="1" stop-color="#3B9ABE"/>
</linearGradient>
<linearGradient id="paint9_linear_0_126" x1="224.558" y1="157.936" x2="-28.59" y2="500.336" gradientUnits="userSpaceOnUse">
<stop offset="0.0029" stop-color="#00E7B2" stop-opacity="0"/>
<stop offset="0.1297" stop-color="#10D3B5" stop-opacity="0.12549"/>
<stop offset="0.3255" stop-color="#23BAB9" stop-opacity="0.321569"/>
<stop offset="0.5302" stop-color="#30A8BC" stop-opacity="0.529412"/>
<stop offset="0.7478" stop-color="#389DBD" stop-opacity="0.74902"/>
<stop offset="1" stop-color="#3B9ABE"/>
</linearGradient>
<linearGradient id="paint10_linear_0_126" x1="321.185" y1="277.747" x2="68.0363" y2="620.146" gradientUnits="userSpaceOnUse">
<stop offset="0.0029" stop-color="#00E7B2" stop-opacity="0"/>
<stop offset="0.1297" stop-color="#10D3B5" stop-opacity="0.12549"/>
<stop offset="0.3255" stop-color="#23BAB9" stop-opacity="0.321569"/>
<stop offset="0.5302" stop-color="#30A8BC" stop-opacity="0.529412"/>
<stop offset="0.7478" stop-color="#389DBD" stop-opacity="0.74902"/>
<stop offset="1" stop-color="#3B9ABE"/>
</linearGradient>
<linearGradient id="paint11_linear_0_126" x1="285.942" y1="251.691" x2="32.7938" y2="594.09" gradientUnits="userSpaceOnUse">
<stop offset="0.0029" stop-color="#00E7B2" stop-opacity="0"/>
<stop offset="0.1297" stop-color="#10D3B5" stop-opacity="0.12549"/>
<stop offset="0.3255" stop-color="#23BAB9" stop-opacity="0.321569"/>
<stop offset="0.5302" stop-color="#30A8BC" stop-opacity="0.529412"/>
<stop offset="0.7478" stop-color="#389DBD" stop-opacity="0.74902"/>
<stop offset="1" stop-color="#3B9ABE"/>
</linearGradient>
<linearGradient id="paint12_linear_0_126" x1="253.765" y1="277.848" x2="377.377" y2="-1.89484" gradientUnits="userSpaceOnUse">
<stop stop-color="#A1B5D8" stop-opacity="0"/>
<stop offset="0.0343" stop-color="#9FB3D5" stop-opacity="0.035294"/>
<stop offset="0.4515" stop-color="#8898AF" stop-opacity="0.45098"/>
<stop offset="0.788" stop-color="#798898" stop-opacity="0.788235"/>
<stop offset="1" stop-color="#748290"/>
</linearGradient>
<linearGradient id="paint13_linear_0_126" x1="388.267" y1="48.0623" x2="410.817" y2="17.5618" gradientUnits="userSpaceOnUse">
<stop stop-color="#A1B5D8" stop-opacity="0"/>
<stop offset="0.0343" stop-color="#9FB3D5" stop-opacity="0.035294"/>
<stop offset="0.4515" stop-color="#8898AF" stop-opacity="0.45098"/>
<stop offset="0.788" stop-color="#798898" stop-opacity="0.788235"/>
<stop offset="1" stop-color="#748290"/>
</linearGradient>
<linearGradient id="paint14_linear_0_126" x1="290.051" y1="2.67192" x2="326.544" y2="115.083" gradientUnits="userSpaceOnUse">
<stop stop-color="#FF6E3A"/>
<stop offset="0.1596" stop-color="#FF6440"/>
<stop offset="0.4266" stop-color="#FF4B52"/>
<stop offset="0.7662" stop-color="#FF216E"/>
<stop offset="1" stop-color="#FF0084"/>
</linearGradient>
<linearGradient id="paint15_linear_0_126" x1="123.049" y1="406.787" x2="73.2943" y2="474.084" gradientUnits="userSpaceOnUse">
<stop stop-color="#A1B5D8" stop-opacity="0"/>
<stop offset="0.0343" stop-color="#9FB3D5" stop-opacity="0.035294"/>
<stop offset="0.4515" stop-color="#8898AF" stop-opacity="0.45098"/>
<stop offset="0.788" stop-color="#798898" stop-opacity="0.788235"/>
<stop offset="1" stop-color="#748290"/>
</linearGradient>
<linearGradient id="paint16_linear_0_126" x1="396.724" y1="37.6727" x2="384.741" y2="48.4935" gradientUnits="userSpaceOnUse">
<stop stop-color="#E4003D" stop-opacity="0"/>
<stop offset="0.5838" stop-color="#BD294B" stop-opacity="0.584314"/>
<stop offset="1" stop-color="#A64153"/>
</linearGradient>
<linearGradient id="paint17_linear_0_126" x1="408.715" y1="36.3624" x2="387.881" y2="39.5856" gradientUnits="userSpaceOnUse">
<stop stop-color="#E4003D" stop-opacity="0"/>
<stop offset="0.5838" stop-color="#BD294B" stop-opacity="0.584314"/>
<stop offset="1" stop-color="#A64153"/>
</linearGradient>
<linearGradient id="paint18_linear_0_126" x1="325.829" y1="137.628" x2="306.304" y2="-6.13583" gradientUnits="userSpaceOnUse">
<stop stop-color="white" stop-opacity="0"/>
<stop offset="0.9156" stop-color="white" stop-opacity="0.913725"/>
<stop offset="1" stop-color="white"/>
</linearGradient>
</defs>
</svg>
