<svg width="512" height="512" viewBox="0 0 512 512" fill="none" xmlns="http://www.w3.org/2000/svg">
<g clip-path="url(#clip0_0_146)">
<path d="M306.285 116.496L223.719 80.7301C218.328 78.3942 212.063 79.6051 207.926 83.7614L204.641 87.066C199.063 92.6715 190 92.6793 184.426 87.0895C183.707 86.3785 182.961 85.6637 182.196 84.9723C159.704 64.6638 124.778 65.445 103.157 86.6754C80.1765 109.23 80.1101 146.14 102.872 168.784L102.981 168.89C108.587 174.452 108.622 183.589 103.055 189.187L99.8093 192.445C95.6765 196.605 94.4968 202.874 96.864 208.253L133.059 290.632C135.758 296.764 139.575 302.331 144.325 307.057L308.707 470.576C318.75 480.564 334.976 480.521 344.965 470.482L487.245 327.452C497.233 317.409 497.191 301.182 487.151 291.194L322.769 127.671C318.019 122.945 312.433 119.16 306.285 116.496ZM164.778 148.956C153.129 160.667 134.2 160.718 122.489 149.066C110.786 137.425 110.735 118.496 122.383 106.785C134.036 95.0738 152.965 95.023 164.668 106.664C176.379 118.316 176.43 137.242 164.778 148.956Z" fill="url(#paint0_linear_0_146)"/>
<path d="M204.641 87.0661C199.067 92.6716 190.001 92.6794 184.427 87.0896C183.708 86.3786 182.966 85.6638 182.196 84.9724C159.704 64.6638 124.778 65.445 103.161 86.6755C80.1804 109.23 80.1101 146.14 102.876 168.785L102.981 168.89C108.587 174.453 108.626 183.59 103.055 189.187L99.8132 192.445C95.6765 196.605 94.5007 202.875 96.864 208.254L116.887 253.82L269.391 100.511L223.719 80.7302C218.329 78.3942 212.063 79.6052 207.93 83.7614L204.641 87.0661ZM164.778 148.957C153.13 160.668 134.2 160.718 122.489 149.066C110.786 137.425 110.735 118.496 122.384 106.785C134.036 95.0739 152.966 95.0231 164.669 106.664C176.38 118.316 176.43 137.242 164.778 148.957Z" fill="url(#paint1_radial_0_146)"/>
<path d="M99.8132 192.445C95.6765 196.605 94.5007 202.874 96.864 208.253L133.059 290.632C135.758 296.764 139.575 302.331 144.325 307.057L308.707 470.576C318.75 480.564 334.976 480.521 344.965 470.482L456.042 358.819L187.059 89.8395C186.43 89.1129 185.778 88.4059 185.114 87.7106C184.879 87.5074 184.645 87.3121 184.426 87.0895C183.707 86.3785 182.965 85.6637 182.196 84.9723C159.704 64.6638 124.778 65.445 103.161 86.6754C80.1805 109.23 80.1101 146.14 102.876 168.784L102.981 168.89C108.587 174.452 108.626 183.589 103.055 189.187L99.8132 192.445ZM122.383 106.781C134.036 95.0699 152.965 95.023 164.668 106.664C176.379 118.316 176.43 137.242 164.778 148.956C153.129 160.667 134.2 160.718 122.489 149.066C110.786 137.421 110.735 118.496 122.383 106.781Z" fill="url(#paint2_linear_0_146)"/>
<path d="M266.324 234.925L233.449 151.167C231.305 145.699 226.027 142.109 220.164 142.109H215.504C207.598 142.109 201.199 135.691 201.231 127.796C201.231 126.785 201.207 125.753 201.157 124.722C199.692 94.4527 174.508 70.2419 144.211 69.8864C112.012 69.5036 85.7976 95.484 85.7976 127.593V127.746C85.8093 135.64 79.3562 142.109 71.4617 142.109H66.8641C60.9969 142.109 55.7235 145.699 53.579 151.167L20.7041 234.925C18.2549 241.163 17.001 247.796 17.001 254.499V486.361C17.001 500.525 28.4775 512.002 42.6415 512.002H244.387C258.551 512.002 270.023 500.525 270.023 486.361V254.499C270.023 247.796 268.77 241.163 266.324 234.925ZM143.512 157.495C126.993 157.495 113.61 144.113 113.61 127.593C113.61 111.085 126.993 97.6988 143.512 97.6988C160.032 97.6988 173.414 111.085 173.414 127.593C173.418 144.113 160.032 157.495 143.512 157.495Z" fill="url(#paint3_linear_0_146)"/>
<path d="M225.688 487.439H61.3366C51.6765 487.439 43.8445 479.611 43.8445 469.947V247.28C43.8445 237.62 51.6765 229.788 61.3366 229.788H225.688C235.348 229.788 243.18 237.62 243.18 247.28V469.947C243.18 479.611 235.348 487.439 225.688 487.439Z" fill="url(#paint4_linear_0_146)"/>
<path d="M266.915 435.55L116.282 284.952C110.86 280.612 103.673 278.44 94.7312 278.44C75.0867 278.44 65.2625 287.491 65.2625 305.589V338.257C65.2625 348.057 68.1687 355.179 73.9265 359.675L183.044 468.518C213.528 463.171 241.911 451.749 266.915 435.55Z" fill="url(#paint5_linear_0_146)"/>
<path d="M270.024 352.62V433.487C233.872 457.78 190.352 471.956 143.512 471.956C136.86 471.956 130.29 471.651 123.778 471.085L97.6257 444.932C95.989 443.233 95.1804 441.362 95.1804 439.304C95.1804 438.128 95.4734 437.018 96.0593 435.987L176.794 273.807C177.966 271.159 180.169 269.835 183.395 269.835C185.77 269.835 187.915 270.643 189.844 272.261L270.024 352.62Z" fill="url(#paint6_linear_0_146)"/>
<path d="M270.024 415.725V433.467C249.379 447.346 226.329 457.913 201.633 464.424L171.262 434.065C165.512 429.565 162.61 422.436 162.61 412.643V379.979C162.61 361.87 172.426 352.823 192.067 352.823C201.016 352.823 208.204 354.999 213.622 359.335L270.024 415.725Z" fill="url(#paint7_linear_0_146)"/>
<path d="M65.2625 338.257V305.589C65.2625 287.491 75.0867 278.44 94.7312 278.44C103.677 278.44 110.86 280.612 116.286 284.952C121.704 289.296 124.419 296.175 124.419 305.589V338.257C124.419 347.679 121.704 354.557 116.286 358.897C110.86 363.237 103.677 365.409 94.7312 365.409C75.0867 365.409 65.2625 356.358 65.2625 338.257ZM80.9382 337.89C80.9382 346.378 85.532 350.62 94.7312 350.62C104.075 350.62 108.747 346.378 108.747 337.89V305.96C108.747 297.475 104.075 293.229 94.7312 293.229C85.532 293.229 80.9382 297.475 80.9382 305.96V337.89Z" fill="#FFFCF8"/>
<path d="M95.1765 439.3C95.1765 438.124 95.4695 437.018 96.0554 435.987L176.794 273.804C177.966 271.155 180.169 269.831 183.395 269.831C185.77 269.831 187.919 270.643 189.844 272.261C191.774 273.882 192.739 275.866 192.739 278.218C192.739 279.397 192.52 280.573 192.079 281.749L111.337 443.272C110.012 446.065 107.52 447.468 103.852 447.468C101.329 447.468 99.2546 446.62 97.6218 444.929C95.9929 443.237 95.1765 441.358 95.1765 439.3Z" fill="#FFFCF8"/>
<path d="M213.625 359.389C208.199 355.018 201.016 352.827 192.074 352.827C172.43 352.827 162.606 361.944 162.606 380.182V413.1C162.606 431.338 172.43 440.456 192.074 440.456C201.016 440.456 208.199 438.268 213.625 433.897C219.047 429.522 221.762 422.588 221.762 413.1V380.182C221.762 370.694 219.047 363.764 213.625 359.389ZM206.09 412.792C206.09 421.378 201.418 425.667 192.074 425.667C182.875 425.667 178.278 421.378 178.278 412.792V380.491C178.278 371.909 182.875 367.616 192.074 367.616C201.418 367.616 206.09 371.909 206.09 380.491V412.792Z" fill="#FFFCF8"/>
<path d="M215.505 142.109C207.599 142.109 201.2 135.691 201.228 127.797C201.228 126.785 201.208 125.754 201.157 124.722C199.692 94.4528 174.509 70.2419 144.208 69.8864C112.013 69.5036 85.7979 95.4841 85.7979 127.593V127.746C85.8057 135.64 79.3564 142.109 71.4619 142.109H66.8604C60.9971 142.109 55.7197 145.699 53.5791 151.168L35.3916 197.5H251.634L233.45 151.168C231.306 145.699 226.028 142.109 220.165 142.109H215.505ZM143.513 157.496C126.993 157.496 113.61 144.113 113.61 127.593C113.61 111.086 126.993 97.6989 143.513 97.6989C160.032 97.6989 173.415 111.086 173.415 127.593C173.419 144.113 160.032 157.496 143.513 157.496Z" fill="url(#paint8_radial_0_146)"/>
<path d="M167.903 144.886C162.485 152.515 153.587 157.496 143.512 157.496C128.626 157.496 116.29 146.625 113.997 132.39H85.0125C84.3328 134.371 83.2351 136.156 81.8171 137.644L141.673 197.5H220.516L167.903 144.886Z" fill="url(#paint9_linear_0_146)"/>
<path d="M105.118 25.2734C130.048 25.2734 150.368 45.4414 150.63 70.3203C159.669 71.4453 168.091 74.6992 175.368 79.5508C175.724 76.6797 175.907 73.7578 175.907 70.7969C175.903 31.7539 144.149 0 105.118 0C66.0752 0 34.3213 31.7539 34.3213 70.7969C34.3213 101.672 54.1963 127.996 81.8252 137.652C89.1221 140.199 96.958 141.586 105.118 141.586C109.028 141.586 112.86 141.262 116.603 140.645C137.356 137.258 155.099 124.793 165.646 107.484C165.646 107.477 165.646 107.477 165.646 107.477C160.165 101.469 152.278 97.6992 143.513 97.6992C142.927 97.6992 142.341 97.7188 141.767 97.7578C135.63 106.07 126.731 112.234 116.45 114.887C112.821 115.812 109.032 116.309 105.118 116.309C98.9502 116.309 93.0674 115.078 87.6963 112.852C71.208 106 59.5947 89.7227 59.5947 70.7969C59.5947 45.6953 80.0166 25.2734 105.118 25.2734Z" fill="url(#paint10_linear_0_146)"/>
</g>
<defs>
<linearGradient id="paint0_linear_0_146" x1="84.6694" y1="313.01" x2="736.033" y2="142.437" gradientUnits="userSpaceOnUse">
<stop stop-color="#FFD459"/>
<stop offset="0.2296" stop-color="#FFD355"/>
<stop offset="0.4362" stop-color="#FFCF4A"/>
<stop offset="0.634" stop-color="#FFC838"/>
<stop offset="0.825" stop-color="#FFBF1F"/>
<stop offset="1" stop-color="#FFB400"/>
</linearGradient>
<radialGradient id="paint1_radial_0_146" cx="0" cy="0" r="1" gradientUnits="userSpaceOnUse" gradientTransform="translate(144.303 128.936) rotate(-88.7795) scale(55.7451)">
<stop stop-color="#A64153"/>
<stop offset="0.1984" stop-color="#AD4949" stop-opacity="0.8"/>
<stop offset="0.5329" stop-color="#C15D2F" stop-opacity="0.466667"/>
<stop offset="0.9604" stop-color="#E27F04" stop-opacity="0.039216"/>
<stop offset="1" stop-color="#E58200" stop-opacity="0"/>
</radialGradient>
<linearGradient id="paint2_linear_0_146" x1="333.316" y1="264.803" x2="16.7046" y2="294.69" gradientUnits="userSpaceOnUse">
<stop stop-color="#E58200" stop-opacity="0"/>
<stop offset="0.0396" stop-color="#E27F04" stop-opacity="0.039216"/>
<stop offset="0.4671" stop-color="#C15D2F" stop-opacity="0.466667"/>
<stop offset="0.8016" stop-color="#AD4949" stop-opacity="0.8"/>
<stop offset="1" stop-color="#A64153"/>
</linearGradient>
<linearGradient id="paint3_linear_0_146" x1="-29.225" y1="216.425" x2="551.061" y2="557.958" gradientUnits="userSpaceOnUse">
<stop stop-color="#FF6E3A"/>
<stop offset="0.1596" stop-color="#FF6440"/>
<stop offset="0.4266" stop-color="#FF4B52"/>
<stop offset="0.7662" stop-color="#FF216E"/>
<stop offset="1" stop-color="#FF0084"/>
</linearGradient>
<linearGradient id="paint4_linear_0_146" x1="264.437" y1="443.494" x2="-176.648" y2="133.887" gradientUnits="userSpaceOnUse">
<stop stop-color="#FF6E3A"/>
<stop offset="0.1596" stop-color="#FF6440"/>
<stop offset="0.4266" stop-color="#FF4B52"/>
<stop offset="0.7662" stop-color="#FF216E"/>
<stop offset="1" stop-color="#FF0084"/>
</linearGradient>
<linearGradient id="paint5_linear_0_146" x1="147.667" y1="374.968" x2="81.2621" y2="308.563" gradientUnits="userSpaceOnUse">
<stop stop-color="#E58200" stop-opacity="0"/>
<stop offset="0.2413" stop-color="#DA760F" stop-opacity="0.243137"/>
<stop offset="0.7044" stop-color="#BC5737" stop-opacity="0.705882"/>
<stop offset="1" stop-color="#A64153"/>
</linearGradient>
<linearGradient id="paint6_linear_0_146" x1="212.649" y1="427.51" x2="109.834" y2="324.694" gradientUnits="userSpaceOnUse">
<stop stop-color="#E58200" stop-opacity="0"/>
<stop offset="0.2413" stop-color="#DA760F" stop-opacity="0.243137"/>
<stop offset="0.7044" stop-color="#BC5737" stop-opacity="0.705882"/>
<stop offset="1" stop-color="#A64153"/>
</linearGradient>
<linearGradient id="paint7_linear_0_146" x1="236.75" y1="441.107" x2="169.432" y2="373.79" gradientUnits="userSpaceOnUse">
<stop stop-color="#E58200" stop-opacity="0"/>
<stop offset="0.2413" stop-color="#DA760F" stop-opacity="0.243137"/>
<stop offset="0.7044" stop-color="#BC5737" stop-opacity="0.705882"/>
<stop offset="1" stop-color="#A64153"/>
</linearGradient>
<radialGradient id="paint8_radial_0_146" cx="0" cy="0" r="1" gradientUnits="userSpaceOnUse" gradientTransform="translate(143.853 128.261) scale(56.0436)">
<stop stop-color="#A64153"/>
<stop offset="0.4088" stop-color="#BD294B" stop-opacity="0.592157"/>
<stop offset="1" stop-color="#E4003D" stop-opacity="0"/>
</radialGradient>
<linearGradient id="paint9_linear_0_146" x1="151.313" y1="167.724" x2="93.2879" y2="107.315" gradientUnits="userSpaceOnUse">
<stop stop-color="#E58200" stop-opacity="0"/>
<stop offset="0.2413" stop-color="#DA760F" stop-opacity="0.243137"/>
<stop offset="0.7044" stop-color="#BC5737" stop-opacity="0.705882"/>
<stop offset="1" stop-color="#A64153"/>
</linearGradient>
<linearGradient id="paint10_linear_0_146" x1="34.3197" y1="70.7925" x2="175.905" y2="70.7925" gradientUnits="userSpaceOnUse">
<stop stop-color="#45425A"/>
<stop offset="1" stop-color="#2D3251"/>
</linearGradient>
<clipPath id="clip0_0_146">
<rect width="512" height="512" fill="white"/>
</clipPath>
</defs>
</svg>
