<svg width="511" height="511" viewBox="0 0 511 511" fill="none" xmlns="http://www.w3.org/2000/svg">
<g clip-path="url(#clip0_0_162)">
<path d="M510.002 183.921C510.002 86.2022 430.786 6.98608 333.067 6.98608C235.438 6.98608 156.128 86.2958 156.128 183.925C156.128 281.644 235.348 360.86 333.067 360.86C357.968 360.86 381.66 355.706 403.153 346.42C406.248 345.087 409.835 345.745 412.217 348.127L431.796 367.702C436.946 372.856 445.761 369.207 445.761 361.921V324.124C445.761 321.761 446.775 319.508 448.564 317.964C486.186 285.519 510.002 237.504 510.002 183.921Z" fill="url(#paint0_linear_0_162)"/>
<path d="M448.56 317.968C465.617 303.258 479.819 285.344 490.268 265.172L308.954 83.8592C301.843 75.7617 292.705 70.8884 282.732 70.8884C260.069 70.8884 241.703 96.0307 241.703 127.044C241.703 146.935 249.27 164.389 260.67 174.366C261.964 175.832 263.325 177.2 264.748 178.444C265.157 178.908 265.578 179.352 265.999 179.793L259.695 281.71C259.204 289.613 262.759 296.767 268.51 301.282L328.015 360.786C329.691 360.833 331.375 360.86 333.067 360.86C357.968 360.86 381.66 355.706 403.153 346.424C406.244 345.086 409.835 345.745 412.217 348.127L431.796 367.706C436.946 372.86 445.761 369.211 445.761 361.921V324.127C445.761 321.761 446.775 319.508 448.56 317.968Z" fill="url(#paint1_linear_0_162)"/>
<path d="M401.188 76.2997V85.7461C400.42 84.8299 392.022 76.2373 390.174 75.4927C389.09 72.8182 386.517 70.8962 383.476 70.8884C383.449 70.8884 383.426 70.8884 383.399 70.8884C383.375 70.8884 383.352 70.8884 383.324 70.8884C379.293 70.8962 376.077 74.2646 376.077 78.2958V84.8689C375.395 84.3387 367.578 75.9956 365.57 75.7383C365.126 71.8553 360.198 70.1243 357.477 73.1652C348.256 83.4615 342.369 109.485 342.369 127.04C342.369 146.935 349.937 164.389 361.34 174.362C362.634 175.832 363.995 177.196 365.418 178.44C365.827 178.904 366.245 179.352 366.67 179.793L360.362 281.707C359.874 289.613 363.43 296.763 369.18 301.278L426.268 358.369C427.445 359.897 428.829 361.254 430.346 362.447C431.523 363.975 432.903 365.332 434.424 366.525C435.441 367.847 436.634 369.016 437.917 370.084C441.975 369.886 445.761 366.693 445.761 361.917V324.124C445.761 321.761 446.775 319.508 448.56 317.964C486.186 285.519 510.002 237.504 510.002 183.921C510.002 180.432 509.889 176.97 509.691 173.531L409.324 73.1652C406.471 69.98 401.188 72.0268 401.188 76.2997Z" fill="url(#paint2_linear_0_162)"/>
<path d="M323.757 127.044C323.757 96.0307 305.391 70.8884 282.728 70.8884C260.069 70.8884 241.699 96.0307 241.699 127.044C241.699 149.945 251.722 169.629 266.085 178.37L259.691 281.71C258.869 294.993 269.422 306.217 282.728 306.217C296.038 306.217 306.588 294.993 305.765 281.71L299.371 178.37C313.738 169.629 323.757 149.945 323.757 127.044Z" fill="url(#paint3_linear_0_162)"/>
<path d="M424.428 127.044C424.428 109.485 418.545 83.4615 409.324 73.1652C406.471 69.98 401.188 72.0268 401.188 76.2997V134.155C401.188 137.021 398.977 139.516 396.116 139.602C393.153 139.691 390.724 137.317 390.724 134.374V78.2958C390.724 74.2646 387.504 70.8962 383.476 70.8884C383.449 70.8884 383.426 70.8884 383.399 70.8884C383.375 70.8884 383.352 70.8884 383.324 70.8884C379.293 70.8962 376.077 74.2646 376.077 78.2958V134.155C376.077 137.021 373.87 139.516 371.005 139.602C368.042 139.691 365.613 137.317 365.613 134.374V76.2997C365.613 72.0268 360.33 69.98 357.477 73.1652C348.256 83.4615 342.369 109.485 342.369 127.044C342.369 149.945 352.393 169.629 366.755 178.37L360.362 281.71C359.539 294.993 370.093 306.217 383.399 306.217C396.708 306.217 407.258 294.993 406.435 281.71L400.042 178.37C414.408 169.629 424.428 149.945 424.428 127.044Z" fill="url(#paint4_linear_0_162)"/>
<path d="M494.938 255.438C484.244 279.601 468.307 300.927 448.56 317.964C446.771 319.511 445.753 321.765 445.753 324.127V361.917C445.753 369.203 436.946 372.856 431.8 367.698L412.221 348.123C409.839 345.749 406.248 345.083 403.157 346.416C398.592 348.389 393.933 350.178 389.192 351.765C371.551 357.663 352.681 360.86 333.06 360.86C330.295 360.86 327.543 360.798 324.802 360.669C359.531 337.133 382.362 297.352 382.362 252.233C382.362 179.933 323.754 121.325 251.454 121.325C214.647 121.325 181.387 136.522 157.606 160.97C160.487 138.787 167.497 117.882 177.82 99.0482C182.003 97.0365 186.269 95.1924 190.631 93.5199C191.056 93.3523 191.489 93.1925 191.925 93.0326C192.296 92.8845 192.666 92.7558 193.037 92.6194C195.185 91.824 197.356 91.0872 199.539 90.3854C200.257 90.1515 200.978 89.9293 201.699 89.7071C202.452 89.4771 203.204 89.2548 203.953 89.0404C206.222 88.3738 208.498 87.7695 210.795 87.2081C211.555 87.0209 212.319 86.8377 213.083 86.6584H213.103C213.875 86.479 214.651 86.3075 215.422 86.1398C216.194 85.9722 216.966 85.8124 217.75 85.6525C218.483 85.5044 219.212 85.3679 219.941 85.2276C220.428 85.134 220.916 85.0404 221.403 84.9664C222.093 84.8377 222.779 84.709 223.469 84.6038C224.112 84.4985 224.748 84.3933 225.383 84.2997C228.962 83.7461 232.584 83.3016 236.225 82.9859C236.853 82.9235 237.489 82.8689 238.112 82.826C238.249 82.8182 238.385 82.8065 238.514 82.7948C239.192 82.7402 239.871 82.7013 240.537 82.6584C241.204 82.6155 241.871 82.5726 242.537 82.5414C243.859 82.4673 245.196 82.4128 246.53 82.3816C247.344 82.3504 248.159 82.3387 248.986 82.3309C249.812 82.3192 250.627 82.3075 251.454 82.3075C254.385 82.3075 257.298 82.3816 260.198 82.5297C261.641 82.6038 263.091 82.6896 264.53 82.8065C264.584 82.8065 264.646 82.8182 264.709 82.8182C266.085 82.9235 267.461 83.0482 268.83 83.1886C269.633 83.2744 270.428 83.3562 271.231 83.4537C271.952 83.5395 272.674 83.6213 273.391 83.7188C277.828 84.288 282.225 85.0287 286.545 85.941C287.114 86.058 287.687 86.1827 288.26 86.3114C288.947 86.4595 289.644 86.6194 290.346 86.787C291.032 86.9469 291.73 87.1184 292.42 87.286C294.494 87.7929 296.549 88.3465 298.584 88.9391C300.627 89.5199 302.65 90.1554 304.662 90.8143C306.674 91.481 308.662 92.1788 310.631 92.9079C311.29 93.1535 311.945 93.3952 312.603 93.6486C313.258 93.9059 313.906 94.1593 314.561 94.4244C317.812 95.7266 321.009 97.1223 324.167 98.6154C329.831 101.305 335.325 104.304 340.631 107.574C352.416 114.857 363.235 123.539 372.872 133.379L373.749 134.257L494.938 255.438Z" fill="url(#paint5_linear_0_162)"/>
<path d="M7.70758 498.95L4.63157 495.874C-2.87328 488.365 -2.87328 476.189 4.63157 468.681L11.8986 461.414L42.1675 491.683L34.9005 498.95C27.3917 506.458 15.2163 506.458 7.70758 498.95Z" fill="url(#paint6_linear_0_162)"/>
<path d="M34.9004 498.95L42.1674 491.683L11.8985 461.414L4.63148 468.681C4.35078 468.961 4.08567 469.25 3.82446 469.542V495.008C4.08567 495.3 4.35078 495.589 4.63148 495.87L7.70749 498.946C15.2162 506.458 27.3916 506.458 34.9004 498.95Z" fill="url(#paint7_linear_0_162)"/>
<path d="M138.031 398.346C147.348 392.162 151.426 380.213 142.358 371.667C138.179 367.488 136.093 365.402 131.914 361.223C123.368 352.155 111.419 356.233 105.236 365.55C76.6118 398.712 34.5535 414.388 5.93367 447.546C-0.892817 458.505 1.79334 473.593 10.2611 482.876C14.4405 487.055 16.5301 489.141 20.7056 493.32C29.9882 501.792 45.0759 504.474 56.0388 497.647C89.1927 469.028 104.869 426.969 138.031 398.346Z" fill="url(#paint8_linear_0_162)"/>
<path d="M99.1887 372.084V436.7L148.779 387.11L116.471 354.802L99.1887 372.084Z" fill="url(#paint9_linear_0_162)"/>
<path d="M128.218 401.811L101.77 375.363C95.5319 369.125 95.5319 359.008 101.77 352.771L124.273 330.268L173.313 379.313L150.81 401.811C144.573 408.049 134.456 408.049 128.218 401.811Z" fill="url(#paint10_linear_0_162)"/>
<path d="M109.372 345.18V382.966L128.218 401.811C134.456 408.049 144.573 408.049 150.811 401.811L173.313 379.309L124.273 330.268L109.372 345.164V345.18Z" fill="url(#paint11_linear_0_162)"/>
<path d="M382.361 252.229C382.361 324.525 323.753 383.129 251.457 383.129C179.161 383.129 120.557 324.525 120.557 252.229C120.557 179.933 179.161 121.325 251.457 121.325C323.753 121.325 382.361 179.933 382.361 252.229Z" fill="url(#paint12_radial_0_162)"/>
<path d="M251.457 82.3075C157.614 82.3075 81.5398 158.385 81.5398 252.225C81.5398 346.077 157.614 422.143 251.457 422.143C345.297 422.143 421.375 346.077 421.375 252.225C421.375 158.385 345.297 82.3075 251.457 82.3075ZM251.457 383.129C179.165 383.129 120.553 324.525 120.553 252.225C120.553 179.933 179.165 121.321 251.457 121.321C323.75 121.321 382.362 179.933 382.362 252.225C382.362 324.525 323.75 383.129 251.457 383.129Z" fill="url(#paint13_linear_0_162)"/>
<path d="M251.457 396.704C331.243 396.704 395.925 332.022 395.925 252.233C395.925 172.448 331.243 107.758 251.457 107.758C171.668 107.758 106.986 172.448 106.986 252.233C106.986 332.022 171.668 396.704 251.457 396.704ZM251.457 121.333C323.75 121.333 382.362 179.933 382.362 252.237C382.362 324.529 323.75 383.137 251.457 383.137C179.165 383.137 120.553 324.529 120.553 252.237C120.553 179.933 179.165 121.333 251.457 121.333Z" fill="url(#paint14_linear_0_162)"/>
</g>
<defs>
<linearGradient id="paint0_linear_0_162" x1="156.129" y1="188.551" x2="510.002" y2="188.551" gradientUnits="userSpaceOnUse">
<stop stop-color="#8BE1E2"/>
<stop offset="0.1873" stop-color="#87E1E1"/>
<stop offset="0.3558" stop-color="#7CE2DD"/>
<stop offset="0.5172" stop-color="#6AE2D7"/>
<stop offset="0.6741" stop-color="#50E4CE"/>
<stop offset="0.8278" stop-color="#2FE5C2"/>
<stop offset="0.9772" stop-color="#07E7B4"/>
<stop offset="1" stop-color="#00E7B2"/>
</linearGradient>
<linearGradient id="paint1_linear_0_162" x1="434.973" y1="338.859" x2="196.832" y2="100.718" gradientUnits="userSpaceOnUse">
<stop offset="0.0029" stop-color="#00E7B2" stop-opacity="0"/>
<stop offset="0.4308" stop-color="#1BC4B7" stop-opacity="0.427451"/>
<stop offset="1" stop-color="#3B9ABE"/>
</linearGradient>
<linearGradient id="paint2_linear_0_162" x1="487.87" y1="285.962" x2="249.729" y2="47.8213" gradientUnits="userSpaceOnUse">
<stop offset="0.0029" stop-color="#00E7B2" stop-opacity="0"/>
<stop offset="0.4308" stop-color="#1BC4B7" stop-opacity="0.427451"/>
<stop offset="1" stop-color="#3B9ABE"/>
</linearGradient>
<linearGradient id="paint3_linear_0_162" x1="241.701" y1="188.551" x2="323.76" y2="188.551" gradientUnits="userSpaceOnUse">
<stop stop-color="#FFFCF8"/>
<stop offset="0.1875" stop-color="#FAF8F6"/>
<stop offset="0.4041" stop-color="#ECEEF2"/>
<stop offset="0.6353" stop-color="#D5DCEA"/>
<stop offset="0.875" stop-color="#B5C4DF"/>
<stop offset="1" stop-color="#A1B5D8"/>
</linearGradient>
<linearGradient id="paint4_linear_0_162" x1="342.371" y1="188.551" x2="424.43" y2="188.551" gradientUnits="userSpaceOnUse">
<stop stop-color="#FFFCF8"/>
<stop offset="0.1875" stop-color="#FAF8F6"/>
<stop offset="0.4041" stop-color="#ECEEF2"/>
<stop offset="0.6353" stop-color="#D5DCEA"/>
<stop offset="0.875" stop-color="#B5C4DF"/>
<stop offset="1" stop-color="#A1B5D8"/>
</linearGradient>
<linearGradient id="paint5_linear_0_162" x1="525.336" y1="243.784" x2="362.977" y2="228.254" gradientUnits="userSpaceOnUse">
<stop offset="0.0029" stop-color="#00E7B2" stop-opacity="0"/>
<stop offset="0.4308" stop-color="#1BC4B7" stop-opacity="0.427451"/>
<stop offset="1" stop-color="#3B9ABE"/>
</linearGradient>
<linearGradient id="paint6_linear_0_162" x1="13.1085" y1="483.487" x2="21.9589" y2="492.337" gradientUnits="userSpaceOnUse">
<stop stop-color="#45425A"/>
<stop offset="1" stop-color="#2D3251"/>
</linearGradient>
<linearGradient id="paint7_linear_0_162" x1="22.9959" y1="502.442" x2="22.9959" y2="472.341" gradientUnits="userSpaceOnUse">
<stop stop-color="#2D3251" stop-opacity="0"/>
<stop offset="1" stop-color="#131830"/>
</linearGradient>
<linearGradient id="paint8_linear_0_162" x1="55.6681" y1="406.618" x2="95.1133" y2="446.063" gradientUnits="userSpaceOnUse">
<stop stop-color="#FFD459"/>
<stop offset="0.2296" stop-color="#FFD355"/>
<stop offset="0.4362" stop-color="#FFCF4A"/>
<stop offset="0.634" stop-color="#FFC838"/>
<stop offset="0.825" stop-color="#FFBF1F"/>
<stop offset="1" stop-color="#FFB400"/>
</linearGradient>
<linearGradient id="paint9_linear_0_162" x1="117.402" y1="415.795" x2="128.471" y2="354.915" gradientUnits="userSpaceOnUse">
<stop stop-color="#E58200" stop-opacity="0"/>
<stop offset="0.0396" stop-color="#E27F04" stop-opacity="0.039216"/>
<stop offset="0.4671" stop-color="#C15D2F" stop-opacity="0.466667"/>
<stop offset="0.8016" stop-color="#AD4949" stop-opacity="0.8"/>
<stop offset="1" stop-color="#A64153"/>
</linearGradient>
<linearGradient id="paint10_linear_0_162" x1="138.809" y1="360.822" x2="121.339" y2="406.244" gradientUnits="userSpaceOnUse">
<stop stop-color="#FFFCF8"/>
<stop offset="0.1875" stop-color="#FAF8F6"/>
<stop offset="0.4041" stop-color="#ECEEF2"/>
<stop offset="0.6353" stop-color="#D5DCEA"/>
<stop offset="0.875" stop-color="#B5C4DF"/>
<stop offset="1" stop-color="#A1B5D8"/>
</linearGradient>
<linearGradient id="paint11_linear_0_162" x1="137.144" y1="385.333" x2="146.739" y2="332.559" gradientUnits="userSpaceOnUse">
<stop stop-color="#A1B5D8" stop-opacity="0"/>
<stop offset="0.0343" stop-color="#9FB3D5" stop-opacity="0.035294"/>
<stop offset="0.4515" stop-color="#8898AF" stop-opacity="0.45098"/>
<stop offset="0.788" stop-color="#798898" stop-opacity="0.788235"/>
<stop offset="1" stop-color="#748290"/>
</linearGradient>
<radialGradient id="paint12_radial_0_162" cx="0" cy="0" r="1" gradientUnits="userSpaceOnUse" gradientTransform="translate(264.931 273.554) scale(158.545)">
<stop stop-color="#A1B5D8" stop-opacity="0"/>
<stop offset="0.4804" stop-color="#A0B4D6" stop-opacity="0.482353"/>
<stop offset="0.6535" stop-color="#9CAFCF" stop-opacity="0.654902"/>
<stop offset="0.7768" stop-color="#94A6C4" stop-opacity="0.776471"/>
<stop offset="0.8765" stop-color="#8A9BB3" stop-opacity="0.878431"/>
<stop offset="0.961" stop-color="#7C8B9D" stop-opacity="0.960784"/>
<stop offset="1" stop-color="#748290"/>
</radialGradient>
<linearGradient id="paint13_linear_0_162" x1="81.5384" y1="252.226" x2="421.376" y2="252.226" gradientUnits="userSpaceOnUse">
<stop stop-color="#45425A"/>
<stop offset="1" stop-color="#2D3251"/>
</linearGradient>
<linearGradient id="paint14_linear_0_162" x1="106.989" y1="252.23" x2="395.926" y2="252.23" gradientUnits="userSpaceOnUse">
<stop stop-color="#45425A"/>
<stop offset="1" stop-color="#2D3251"/>
</linearGradient>
<clipPath id="clip0_0_162">
<rect width="511" height="511" fill="white"/>
</clipPath>
</defs>
</svg>
