<svg width="511" height="511" viewBox="0 0 511 511" fill="none" xmlns="http://www.w3.org/2000/svg">
<g clip-path="url(#clip0_0_192)">
<path d="M357.422 510.483L264.533 471.988C259.227 469.789 253.266 469.789 247.964 471.988L155.071 510.483C150.65 512.315 145.785 509.063 145.785 504.276V270.389H366.712V504.276C366.712 509.063 361.847 512.315 357.422 510.483Z" fill="url(#paint0_linear_0_192)"/>
<path d="M366.712 270.389V504.276C366.712 509.067 361.843 512.311 357.426 510.479L264.533 471.984C261.636 470.791 258.553 470.241 255.484 470.362L174.385 388.74C174.346 388.701 174.295 388.662 174.256 388.619L173.274 387.629C172.545 386.838 171.913 385.956 171.371 384.982L158.366 361.629C156.12 357.598 152.085 354.896 147.504 354.354L145.781 354.151V270.389H366.712Z" fill="url(#paint1_linear_0_192)"/>
<path d="M210.28 270.389H145.781V504.276C145.781 509.063 150.646 512.315 155.071 510.483L210.28 487.602V270.389Z" fill="url(#paint2_linear_0_192)"/>
<path d="M210.28 270.389H145.781V354.151L147.504 354.354C152.085 354.896 156.12 357.598 158.366 361.629L171.371 384.982C171.913 385.956 172.545 386.838 173.274 387.629L174.256 388.619C174.295 388.662 174.346 388.701 174.385 388.74L210.28 424.865V270.389Z" fill="url(#paint3_linear_0_192)"/>
<path d="M302.213 270.389V487.602L357.422 510.483C361.847 512.315 366.712 509.063 366.712 504.276V270.389H302.213Z" fill="url(#paint4_linear_0_192)"/>
<path d="M55.9799 194.46L72.5685 173.458C75.4223 169.844 76.3658 165.076 75.1104 160.647L67.8005 134.928C65.9799 128.526 68.8025 121.715 74.6192 118.475L97.9759 105.47C102.003 103.228 104.705 99.185 105.243 94.608L108.358 68.035C109.13 61.4346 114.335 56.2299 120.935 55.458L147.508 52.3469C152.085 51.8089 156.128 49.1071 158.37 45.0798L171.375 21.7232C174.611 15.9064 181.426 13.0838 187.828 14.9045L213.543 22.2144C217.976 23.4736 222.74 22.5263 226.354 19.6725L247.356 3.08771C252.568 -1.02924 259.925 -1.02924 265.137 3.08771L286.139 19.6725C289.753 22.5263 294.517 23.4736 298.95 22.2144L324.666 14.9045C331.067 13.0838 337.882 15.9064 341.118 21.7232L354.128 45.0798C356.369 49.1071 360.412 51.8089 364.989 52.3469L391.562 55.458C398.163 56.2338 403.367 61.4385 404.139 68.035L407.25 94.608C407.788 99.1889 410.49 103.228 414.517 105.474L437.874 118.475C443.687 121.715 446.513 128.526 444.693 134.928L437.383 160.647C436.123 165.076 437.067 169.844 439.925 173.458L456.509 194.46C460.626 199.672 460.626 207.029 456.509 212.237L439.925 233.243C437.067 236.857 436.123 241.621 437.383 246.05L444.693 271.77C446.509 278.171 443.687 284.986 437.874 288.222L414.517 301.228C410.49 303.473 407.784 307.512 407.246 312.093L404.135 338.666C403.359 345.263 398.159 350.467 391.558 351.239L364.985 354.354C360.408 354.892 356.365 357.594 354.124 361.621L341.118 384.978C337.878 390.791 331.067 393.617 324.666 391.797L298.946 384.487C294.517 383.227 289.753 384.175 286.139 387.029L265.134 403.613C259.925 407.73 252.568 407.73 247.356 403.613L226.354 387.029C222.736 384.171 217.972 383.227 213.543 384.487L187.824 391.797C181.422 393.617 174.607 390.791 171.371 384.978L158.366 361.621C156.124 357.594 152.081 354.892 147.504 354.354L120.931 351.239C114.331 350.467 109.126 345.263 108.354 338.666L105.239 312.093C104.705 307.516 101.999 303.473 97.972 301.231L74.6192 288.226C68.8025 284.986 65.9799 278.175 67.8005 271.773L75.1065 246.054C76.3658 241.625 75.4223 236.857 72.5685 233.243L55.9799 212.241C51.8668 207.029 51.8668 199.672 55.9799 194.46Z" fill="url(#paint5_radial_0_192)"/>
<path d="M449.792 211.941L433.761 232.241C431.005 235.734 430.088 240.339 431.305 244.619L438.369 269.477C440.127 275.664 437.398 282.245 431.78 285.376L409.207 297.945C405.316 300.113 402.701 304.019 402.186 308.444L399.176 334.124C398.428 340.502 393.398 345.532 387.02 346.28L361.34 349.286C356.915 349.804 353.009 352.417 350.841 356.311L338.272 378.884C335.141 384.502 328.556 387.231 322.369 385.473L297.516 378.409C293.235 377.192 288.627 378.105 285.137 380.865L264.837 396.892C259.8 400.873 252.693 400.873 247.656 396.892L227.356 380.865C223.863 378.105 219.258 377.192 214.978 378.409L190.12 385.473C183.933 387.231 177.352 384.502 174.221 378.884L161.652 356.311C159.485 352.417 155.578 349.804 151.153 349.286L125.473 346.276C119.095 345.532 114.066 340.498 113.317 334.124L110.311 308.44C109.793 304.015 107.181 300.113 103.286 297.941L80.7127 285.376C75.0948 282.245 72.3658 275.664 74.1241 269.477L81.1884 244.619C82.4048 240.339 81.4925 235.734 78.7322 232.241L62.7011 211.941C58.7245 206.904 58.7245 199.797 62.7011 194.76L78.7322 174.464C81.4925 170.967 82.4048 166.362 81.1884 162.082L74.1241 137.224C72.3658 131.037 75.0948 124.456 80.7127 121.325L103.286 108.756C107.181 106.588 109.793 102.682 110.311 98.2571L113.321 72.5769C114.066 66.1987 119.095 61.1695 125.473 60.4209L151.157 57.4151C155.578 56.8966 159.485 54.2806 161.652 50.3898L174.225 27.8167C177.352 22.1988 183.937 19.4697 190.124 21.228L214.978 28.2923C219.258 29.5087 223.867 28.5964 227.36 25.8362L247.656 9.80893C252.693 5.83233 259.8 5.83233 264.837 9.80893L285.137 25.8362C288.631 28.5964 293.235 29.5087 297.516 28.2923L322.373 21.228C328.56 19.4697 335.145 22.1988 338.272 27.8167L350.841 50.3898C353.009 54.2845 356.915 56.8966 361.34 57.4151L387.02 60.4248C393.398 61.1734 398.428 66.2026 399.176 72.5808L402.186 98.261C402.701 102.686 405.316 106.592 409.207 108.76L431.78 121.329C437.398 124.456 440.127 131.041 438.369 137.228L431.305 162.082C430.088 166.366 431.001 170.97 433.761 174.464L449.792 194.76C453.769 199.797 453.769 206.904 449.792 211.941Z" fill="url(#paint6_radial_0_192)"/>
<path d="M385.032 203.349C385.032 274.475 327.371 332.132 256.249 332.132C185.122 332.132 127.465 274.475 127.465 203.349C127.465 132.226 185.122 74.5652 256.249 74.5652C327.371 74.5652 385.032 132.226 385.032 203.349Z" fill="url(#paint7_linear_0_192)"/>
<path d="M431.129 203.349C431.129 299.937 352.833 378.233 256.249 378.233C159.664 378.233 81.3638 299.937 81.3638 203.349C81.3638 106.764 159.664 28.4678 256.249 28.4678C352.833 28.4678 431.129 106.764 431.129 203.349Z" fill="url(#paint8_radial_0_192)"/>
<path d="M385.032 203.349C385.032 274.475 327.371 332.132 256.249 332.132C185.122 332.132 127.465 274.475 127.465 203.349C127.465 132.226 185.122 74.5652 256.249 74.5652C327.371 74.5652 385.032 132.226 385.032 203.349Z" fill="url(#paint9_radial_0_192)"/>
<path d="M361.18 203.349C361.18 261.306 314.202 308.284 256.249 308.284C198.292 308.284 151.313 261.306 151.313 203.349C151.313 145.395 198.292 98.417 256.249 98.417C314.202 98.417 361.18 145.395 361.18 203.349Z" fill="url(#paint10_radial_0_192)"/>
<path d="M373.301 256.635C360.771 284.3 338.716 306.729 311.332 319.754C294.638 327.695 275.956 332.144 256.237 332.144C251.742 332.144 247.313 331.91 242.939 331.458L204.876 293.395C200.295 289.801 197.473 284.113 197.855 277.824L202.876 196.725C202.541 196.378 202.202 196.019 201.882 195.653C200.748 194.659 199.668 193.571 198.635 192.405C189.559 184.468 183.543 170.577 183.543 154.756C183.543 130.074 198.155 110.066 216.182 110.066C224.124 110.066 231.395 113.953 237.056 120.39L373.301 256.635Z" fill="url(#paint11_linear_0_192)"/>
<path d="M373.301 256.635C360.771 284.3 338.716 306.729 311.332 319.754L284.974 293.395C280.404 289.801 277.57 284.113 277.964 277.828L282.974 196.725C282.646 196.378 282.307 196.023 281.98 195.657C280.853 194.659 279.765 193.571 278.732 192.409C269.668 184.468 263.64 170.581 263.64 154.756C263.64 152.448 263.773 149.941 264.019 147.353C265.266 134.273 269.547 118.721 275.664 111.879C277.831 109.466 281.753 110.846 282.1 113.934C283.695 114.14 289.917 120.776 290.463 121.197V115.969C290.463 112.76 293.024 110.078 296.233 110.066H296.346C298.767 110.078 300.822 111.606 301.675 113.739C303.149 114.327 309.831 121.162 310.439 121.891V114.374C310.439 110.978 314.646 109.345 316.915 111.879L381.866 176.83C383.714 185.493 384.681 194.483 384.681 203.696C384.685 222.569 380.611 240.495 373.301 256.635Z" fill="url(#paint12_linear_0_192)"/>
<path d="M248.837 154.756C248.837 130.078 234.217 110.074 216.19 110.074C198.159 110.074 183.543 130.078 183.543 154.756C183.543 172.978 191.516 188.639 202.946 195.594L197.859 277.82C197.204 288.389 205.598 297.321 216.19 297.321C226.779 297.321 235.173 288.389 234.521 277.82L229.43 195.594C240.861 188.639 248.837 172.978 248.837 154.756Z" fill="url(#paint13_linear_0_192)"/>
<path d="M328.938 154.756C328.938 140.783 324.256 120.078 316.919 111.883C314.65 109.349 310.443 110.978 310.443 114.378V160.413C310.443 162.694 308.689 164.682 306.408 164.748C304.054 164.818 302.12 162.928 302.12 160.588V115.965C302.12 112.76 299.558 110.082 296.35 110.07C296.33 110.07 296.311 110.07 296.291 110.07C296.272 110.07 296.252 110.07 296.229 110.07C293.024 110.078 290.463 112.76 290.463 115.965V160.413C290.463 162.694 288.705 164.682 286.428 164.748C284.069 164.818 282.135 162.928 282.135 160.588V114.378C282.135 110.978 277.933 109.349 275.664 111.883C268.326 120.078 263.644 140.783 263.644 154.756C263.644 172.978 271.617 188.639 283.048 195.594L277.96 277.82C277.305 288.389 285.699 297.321 296.291 297.321C306.88 297.321 315.274 288.389 314.619 277.82L309.531 195.594C320.966 188.639 328.938 172.978 328.938 154.756Z" fill="url(#paint14_linear_0_192)"/>
</g>
<defs>
<linearGradient id="paint0_linear_0_192" x1="182.512" y1="279.208" x2="419.919" y2="630.663" gradientUnits="userSpaceOnUse">
<stop stop-color="#FFFCF8"/>
<stop offset="0.1875" stop-color="#FAF8F6"/>
<stop offset="0.4041" stop-color="#ECEEF2"/>
<stop offset="0.6353" stop-color="#D5DCEA"/>
<stop offset="0.875" stop-color="#B5C4DF"/>
<stop offset="1" stop-color="#A1B5D8"/>
</linearGradient>
<linearGradient id="paint1_linear_0_192" x1="300.215" y1="442.899" x2="246.361" y2="282.898" gradientUnits="userSpaceOnUse">
<stop stop-color="#A1B5D8" stop-opacity="0"/>
<stop offset="0.0343" stop-color="#9FB3D5" stop-opacity="0.035294"/>
<stop offset="0.4515" stop-color="#8898AF" stop-opacity="0.45098"/>
<stop offset="0.788" stop-color="#798898" stop-opacity="0.788235"/>
<stop offset="1" stop-color="#748290"/>
</linearGradient>
<linearGradient id="paint2_linear_0_192" x1="123.723" y1="307.969" x2="283.828" y2="544.987" gradientUnits="userSpaceOnUse">
<stop stop-color="#FF6E3A"/>
<stop offset="0.1596" stop-color="#FF6440"/>
<stop offset="0.4266" stop-color="#FF4B52"/>
<stop offset="0.7662" stop-color="#FF216E"/>
<stop offset="1" stop-color="#FF0084"/>
</linearGradient>
<linearGradient id="paint3_linear_0_192" x1="275.172" y1="412.519" x2="211.913" y2="349.26" gradientUnits="userSpaceOnUse">
<stop stop-color="#E4003D" stop-opacity="0"/>
<stop offset="0.5838" stop-color="#BD294B" stop-opacity="0.584314"/>
<stop offset="1" stop-color="#A64153"/>
</linearGradient>
<linearGradient id="paint4_linear_0_192" x1="285.319" y1="306.242" x2="457.851" y2="561.657" gradientUnits="userSpaceOnUse">
<stop stop-color="#8BE1E2"/>
<stop offset="0.1873" stop-color="#87E1E1"/>
<stop offset="0.3558" stop-color="#7CE2DD"/>
<stop offset="0.5172" stop-color="#6AE2D7"/>
<stop offset="0.6741" stop-color="#50E4CE"/>
<stop offset="0.8278" stop-color="#2FE5C2"/>
<stop offset="0.9772" stop-color="#07E7B4"/>
<stop offset="1" stop-color="#00E7B2"/>
</linearGradient>
<radialGradient id="paint5_radial_0_192" cx="0" cy="0" r="1" gradientUnits="userSpaceOnUse" gradientTransform="translate(305.9 273.009) rotate(180) scale(268.849)">
<stop stop-color="#FFC738"/>
<stop offset="0.4873" stop-color="#FFC636"/>
<stop offset="0.6746" stop-color="#FFC22F"/>
<stop offset="0.8103" stop-color="#FFBB23"/>
<stop offset="0.9203" stop-color="#FFB112"/>
<stop offset="1" stop-color="#FFA700"/>
</radialGradient>
<radialGradient id="paint6_radial_0_192" cx="0" cy="0" r="1" gradientUnits="userSpaceOnUse" gradientTransform="translate(208.261 136.03) scale(259.827)">
<stop stop-color="#FFC738"/>
<stop offset="0.4873" stop-color="#FFC636"/>
<stop offset="0.6746" stop-color="#FFC22F"/>
<stop offset="0.8103" stop-color="#FFBB23"/>
<stop offset="0.9203" stop-color="#FFB112"/>
<stop offset="1" stop-color="#FFA700"/>
</radialGradient>
<linearGradient id="paint7_linear_0_192" x1="329.566" y1="276.669" x2="129.5" y2="76.6032" gradientUnits="userSpaceOnUse">
<stop stop-color="#FFF465"/>
<stop offset="1" stop-color="#FFE600"/>
</linearGradient>
<radialGradient id="paint8_radial_0_192" cx="0" cy="0" r="1" gradientUnits="userSpaceOnUse" gradientTransform="translate(256.247 203.351) scale(154.577)">
<stop stop-color="#FFFCF8"/>
<stop offset="0.9485" stop-color="#FFFCF8" stop-opacity="0.05098"/>
<stop offset="1" stop-color="#FFFCF8" stop-opacity="0"/>
</radialGradient>
<radialGradient id="paint9_radial_0_192" cx="0" cy="0" r="1" gradientUnits="userSpaceOnUse" gradientTransform="translate(256.247 203.351) scale(128.783)">
<stop stop-color="#FFC738"/>
<stop offset="0.4873" stop-color="#FFC636"/>
<stop offset="0.6746" stop-color="#FFC22F"/>
<stop offset="0.8103" stop-color="#FFBB23"/>
<stop offset="0.9203" stop-color="#FFB112"/>
<stop offset="1" stop-color="#FFA700"/>
</radialGradient>
<radialGradient id="paint10_radial_0_192" cx="0" cy="0" r="1" gradientUnits="userSpaceOnUse" gradientTransform="translate(242.489 100.119) scale(218.499)">
<stop stop-color="#FFC738"/>
<stop offset="0.4873" stop-color="#FFC636"/>
<stop offset="0.6746" stop-color="#FFC22F"/>
<stop offset="0.8103" stop-color="#FFBB23"/>
<stop offset="0.9203" stop-color="#FFB112"/>
<stop offset="1" stop-color="#FFA700"/>
</radialGradient>
<linearGradient id="paint11_linear_0_192" x1="314.91" y1="300.877" x2="150.045" y2="136.012" gradientUnits="userSpaceOnUse">
<stop stop-color="#E58200" stop-opacity="0"/>
<stop offset="0.0396" stop-color="#E27F04" stop-opacity="0.039216"/>
<stop offset="0.4671" stop-color="#C15D2F" stop-opacity="0.466667"/>
<stop offset="0.8016" stop-color="#AD4949" stop-opacity="0.8"/>
<stop offset="1" stop-color="#A64153"/>
</linearGradient>
<linearGradient id="paint12_linear_0_192" x1="357.464" y1="259.244" x2="198.445" y2="100.225" gradientUnits="userSpaceOnUse">
<stop stop-color="#E58200" stop-opacity="0"/>
<stop offset="0.0396" stop-color="#E27F04" stop-opacity="0.039216"/>
<stop offset="0.4671" stop-color="#C15D2F" stop-opacity="0.466667"/>
<stop offset="0.8016" stop-color="#AD4949" stop-opacity="0.8"/>
<stop offset="1" stop-color="#A64153"/>
</linearGradient>
<linearGradient id="paint13_linear_0_192" x1="183.542" y1="203.697" x2="248.836" y2="203.697" gradientUnits="userSpaceOnUse">
<stop stop-color="#FFFCF8"/>
<stop offset="0.1875" stop-color="#FAF8F6"/>
<stop offset="0.4041" stop-color="#ECEEF2"/>
<stop offset="0.6353" stop-color="#D5DCEA"/>
<stop offset="0.875" stop-color="#B5C4DF"/>
<stop offset="1" stop-color="#A1B5D8"/>
</linearGradient>
<linearGradient id="paint14_linear_0_192" x1="263.645" y1="203.697" x2="328.938" y2="203.697" gradientUnits="userSpaceOnUse">
<stop stop-color="#FFFCF8"/>
<stop offset="0.1875" stop-color="#FAF8F6"/>
<stop offset="0.4041" stop-color="#ECEEF2"/>
<stop offset="0.6353" stop-color="#D5DCEA"/>
<stop offset="0.875" stop-color="#B5C4DF"/>
<stop offset="1" stop-color="#A1B5D8"/>
</linearGradient>
<clipPath id="clip0_0_192">
<rect width="511" height="511" fill="white"/>
</clipPath>
</defs>
</svg>
