<svg width="512" height="512" viewBox="0 0 512 512" fill="none" xmlns="http://www.w3.org/2000/svg">
<g clip-path="url(#clip0_0_224)">
<path d="M57.5743 498.93C52.7813 494.203 49.2696 488.672 47.0391 482.766C44.3946 475.769 38.8751 470.332 31.8438 467.789C25.9063 465.641 20.3243 462.211 15.5313 457.484C-2.01555 440.187 -2.57024 412.301 14.3009 394.344C27.0548 380.773 46.086 376.867 62.4532 382.687C73.9298 386.769 86.7188 383.984 95.2696 375.309L112.031 358.305L166.906 302.637L210.234 345.344L155.359 401.012L138.598 418.016C130.047 426.691 127.445 439.523 131.691 450.937C137.746 467.219 134.113 486.305 120.727 499.25C103.012 516.379 75.1212 516.227 57.5743 498.93Z" fill="url(#paint0_linear_0_224)"/>
<path d="M115.863 354.418L166.906 302.637L210.234 345.344L155.355 401.012L142.906 413.644L115.863 354.418Z" fill="url(#paint1_linear_0_224)"/>
<path d="M145.465 377.375C146.246 373.012 144.871 368.633 141.68 365.551C141.613 365.488 141.543 365.422 141.477 365.352C140.906 364.789 140.367 364.207 139.855 363.609C137.688 361.066 134.609 359.574 131.273 359.363C123.344 358.859 115.578 355.078 110.195 347.965C102.809 338.203 102.57 324.438 109.633 314.441C110.402 313.348 111.23 312.328 112.105 311.383C122.133 300.547 127.961 286.508 130.027 271.891C141.391 191.469 195.719 89.8516 237.504 47.4648C299.254 -15.1836 400.102 -15.9102 462.746 45.8438C525.395 107.598 526.117 208.441 464.363 271.09C421.492 314.586 316.445 372.18 235.262 382.664C219.426 384.707 204.953 392.055 193.426 403.102C192.551 403.938 191.613 404.734 190.609 405.484C180.566 412.965 166.461 412.91 156.473 405.355C147.313 398.434 143.645 387.516 145.465 377.375Z" fill="url(#paint2_linear_0_224)"/>
</g>
<defs>
<linearGradient id="paint0_linear_0_224" x1="87.9087" y1="310.373" x2="132.544" y2="500.486" gradientUnits="userSpaceOnUse">
<stop stop-color="#FFFCF8"/>
<stop offset="0.1875" stop-color="#FAF8F6"/>
<stop offset="0.4041" stop-color="#ECEEF2"/>
<stop offset="0.6353" stop-color="#D5DCEA"/>
<stop offset="0.875" stop-color="#B5C4DF"/>
<stop offset="1" stop-color="#A1B5D8"/>
</linearGradient>
<linearGradient id="paint1_linear_0_224" x1="170.623" y1="375.764" x2="152.531" y2="313.951" gradientUnits="userSpaceOnUse">
<stop stop-color="#A1B5D8" stop-opacity="0"/>
<stop offset="0.0343" stop-color="#9FB3D5" stop-opacity="0.035294"/>
<stop offset="0.4515" stop-color="#8898AF" stop-opacity="0.45098"/>
<stop offset="0.788" stop-color="#798898" stop-opacity="0.788235"/>
<stop offset="1" stop-color="#748290"/>
</linearGradient>
<linearGradient id="paint2_linear_0_224" x1="214.045" y1="39.7189" x2="316.185" y2="247.853" gradientUnits="userSpaceOnUse">
<stop stop-color="#FFD459"/>
<stop offset="0.2296" stop-color="#FFD355"/>
<stop offset="0.4362" stop-color="#FFCF4A"/>
<stop offset="0.634" stop-color="#FFC838"/>
<stop offset="0.825" stop-color="#FFBF1F"/>
<stop offset="1" stop-color="#FFB400"/>
</linearGradient>
<clipPath id="clip0_0_224">
<rect width="512" height="512" fill="white"/>
</clipPath>
</defs>
</svg>
