<svg width="512" height="512" viewBox="0 0 512 512" fill="none" xmlns="http://www.w3.org/2000/svg">
<path d="M431.074 43.9453H100.957C85.582 43.9453 73.1289 56.3945 73.1289 71.7695V484.168C73.1289 499.543 85.582 511.996 100.957 511.996H431.074C446.449 511.996 458.902 499.543 458.902 484.168V71.7695C458.902 56.3945 446.449 43.9453 431.074 43.9453ZM330.613 79.8047C333.973 73.1797 340.738 68.5703 348.605 68.2617C348.883 68.2539 349.168 68.2422 349.445 68.2422C355.656 68.2422 361.246 70.9297 365.117 75.1875C368.516 78.9414 370.586 83.9258 370.586 89.3828C370.586 101.055 361.125 110.512 349.449 110.512C340.723 110.512 333.23 105.223 330.012 97.6758C328.922 95.1289 328.32 92.3242 328.32 89.3828C328.316 85.9375 329.137 82.6797 330.613 79.8047ZM163.633 79.8047C167.004 73.1875 173.758 68.5703 181.625 68.2617C181.91 68.2539 182.188 68.2422 182.477 68.2422C188.688 68.2422 194.266 70.9297 198.137 75.1875C201.535 78.9414 203.605 83.9258 203.605 89.3828C203.605 101.055 194.145 110.512 182.477 110.512C173.75 110.512 166.262 105.223 163.031 97.6758C161.941 95.1289 161.336 92.3242 161.336 89.3828C161.336 85.9375 162.16 82.6797 163.633 79.8047Z" fill="url(#paint0_linear_0_228)"/>
<path d="M186.215 143.918C184.707 141.844 183.172 141.199 180.809 141.199C178.668 141.199 176.609 142.309 176.609 145.398V196.34C176.609 197.453 177.41 198.238 178.504 198.684L269.312 289.488C269.684 290.965 271.582 291.738 273.43 291.738C275.57 291.738 277.629 290.785 277.629 288.965V262.242C277.633 262.242 277.637 262.246 277.641 262.246L304.883 289.488C305.254 290.965 307.152 291.738 309 291.738C311.141 291.738 313.199 290.785 313.199 288.965V238.023C313.199 235.941 312.293 234.773 311.027 234.223L220.219 143.418C219.551 141.82 218.031 141.199 216.379 141.199C213.367 141.199 211.781 142.23 209.801 145.953L202.309 159.934L186.215 143.918Z" fill="url(#paint1_linear_0_228)"/>
<path d="M265.422 143.098C265.02 142.035 264.223 141.199 262.965 141.199H234.762C232.941 141.199 231.039 142.148 231.039 143.973V196.34C231.039 197.535 231.859 198.348 232.938 198.77L323.742 289.578C324.117 290.996 325.781 291.738 327.387 291.738H355.59C357.492 291.738 358.363 289.836 358.363 288.094C358.363 286.285 357.57 284.723 356.199 284.367L338.039 266.207C338.02 266.16 338.008 266.113 337.988 266.066H344.258C346.16 266.066 347.031 264.324 347.031 262.82C347.031 261.258 346.27 259.875 344.953 259.512L332.238 246.801C332.184 246.652 332.129 246.508 332.059 246.371V241.27H355.59C357.332 241.27 358.363 239.527 358.363 237.469C358.363 235.938 357.684 234.281 356.227 233.906L265.422 143.098Z" fill="url(#paint2_linear_0_228)"/>
<path d="M308.926 143.387C308.586 141.855 306.73 141.199 304.797 141.199C302.738 141.199 300.598 141.992 300.598 143.895V162.488L281.715 143.781C280.348 141.852 278.973 141.199 276.672 141.199C274.531 141.199 272.473 141.992 272.473 143.973V196.34C272.473 197.453 273.277 198.238 274.367 198.684L365.176 289.488C365.547 290.965 367.445 291.738 369.297 291.738C371.434 291.738 373.492 290.785 373.492 288.965V270.102L392.73 289.133C393.852 290.859 395.531 291.738 397.418 291.738C399.559 291.738 401.617 290.785 401.617 288.965V236.52C401.617 235.344 400.832 234.598 399.73 234.195L308.926 143.387Z" fill="url(#paint3_linear_0_228)"/>
<path d="M327.543 143.402C327.199 141.859 325.285 141.199 323.414 141.199C321.277 141.199 319.219 141.992 319.219 143.895V181.922C319.219 188.516 321.32 192.988 324.73 195.785L415.539 286.594C418.809 290.539 423.969 292.211 429.902 292.211C440.125 292.211 448.047 287.379 448.047 274.543V236.516C448.047 235.355 447.246 234.617 446.156 234.207L355.352 143.402C355.008 141.859 353.09 141.199 351.223 141.199C349.082 141.199 347.023 141.992 347.023 143.895V162.426L327.543 143.402Z" fill="url(#paint4_linear_0_228)"/>
<path d="M100.957 512H431.074C446.445 512 458.906 499.539 458.906 484.172V455.402L405.953 402.453C400.863 396.852 393.52 393.336 385.355 393.336H73.1289V484.172C73.1289 499.539 85.5859 512 100.957 512Z" fill="url(#paint5_linear_0_228)"/>
<path d="M385.355 393.336H79.8281C64.4609 393.336 52 405.797 52 421.168V457.848C52 487.754 76.2461 512 106.152 512H433.844C422.434 512 413.184 502.75 413.184 491.34V421.168C413.184 405.797 400.727 393.336 385.355 393.336Z" fill="url(#paint6_linear_0_228)"/>
<path d="M211.309 228.133H413.84V245.961H211.309V228.133Z" fill="url(#paint7_linear_0_228)"/>
<path d="M211.309 291.676H413.84V309.508H211.309V291.676Z" fill="url(#paint8_linear_0_228)"/>
<path d="M211.309 355.219H372.586V373.051H211.309V355.219Z" fill="url(#paint9_linear_0_228)"/>
<path d="M159.738 262.145H126.836C122.062 262.145 118.191 258.273 118.191 253.5V220.594C118.191 215.82 122.062 211.953 126.836 211.953H159.738C164.512 211.953 168.383 215.82 168.383 220.594V253.5C168.383 258.273 164.512 262.145 159.738 262.145Z" fill="url(#paint10_linear_0_228)"/>
<path d="M159.738 325.688H126.836C122.062 325.688 118.191 321.816 118.191 317.043V284.141C118.191 279.367 122.062 275.496 126.836 275.496H159.738C164.512 275.496 168.383 279.367 168.383 284.141V317.043C168.383 321.816 164.512 325.688 159.738 325.688Z" fill="url(#paint11_linear_0_228)"/>
<path d="M159.738 389.234H126.836C122.062 389.234 118.191 385.363 118.191 380.59V347.684C118.191 342.91 122.062 339.043 126.836 339.043H159.738C164.512 339.043 168.383 342.91 168.383 347.684V380.59C168.383 385.363 164.512 389.234 159.738 389.234Z" fill="url(#paint12_linear_0_228)"/>
<path d="M431.074 43.9453H100.957C85.582 43.9453 73.1289 56.3945 73.1289 71.7695V127.891H458.902V71.7695C458.902 56.3945 446.449 43.9453 431.074 43.9453ZM182.477 110.516C173.75 110.516 166.258 105.223 163.031 97.6758C161.941 95.1289 161.336 92.3242 161.336 89.3828C161.336 85.9375 162.16 82.6797 163.633 79.8047C167.004 73.1875 173.758 68.5703 181.625 68.2617C181.91 68.2539 182.188 68.2422 182.477 68.2422C188.688 68.2422 194.266 70.9297 198.137 75.1875C201.535 78.9414 203.605 83.9258 203.605 89.3828C203.605 101.055 194.145 110.516 182.477 110.516ZM349.445 110.516C340.719 110.516 333.23 105.223 330.012 97.6758C328.922 95.1289 328.316 92.3242 328.316 89.3828C328.316 85.9375 329.137 82.6797 330.613 79.8047C333.973 73.1797 340.738 68.5703 348.605 68.2617C348.883 68.2539 349.168 68.2422 349.445 68.2422C355.656 68.2422 361.246 70.9297 365.117 75.1875C368.516 78.9414 370.586 83.9258 370.586 89.3828C370.586 101.055 361.125 110.516 349.445 110.516Z" fill="url(#paint13_linear_0_228)"/>
<path d="M230.41 107.504C230.422 107.492 230.422 107.492 230.434 107.484C230.312 107.355 230.195 107.234 230.074 107.117C234.105 105.234 238.594 104.184 243.332 104.184C245.223 104.184 247.074 104.352 248.879 104.68C248.906 104.828 248.938 104.977 248.957 105.125L274.457 130.625H292.109L205.43 43.9453H107.859C107.684 45.6289 107.594 47.332 107.594 49.0547C107.594 63.043 113.488 75.6953 122.93 84.6367L206.211 167.922C206.766 168.496 207.32 169.07 207.906 169.613C213.215 175.164 219.801 179.473 227.191 182.059C232.246 183.82 237.672 184.781 243.328 184.781C245.5 184.781 247.617 184.633 249.711 184.355C250.234 184.297 250.758 184.219 251.285 184.129C265.383 181.832 277.465 173.488 284.816 161.871L257.754 134.824L230.41 107.504ZM163.031 97.6758C161.941 95.1289 161.336 92.3242 161.336 89.3828C161.336 85.9375 162.16 82.6797 163.633 79.8047C167.004 73.1875 173.758 68.5703 181.625 68.2617C181.91 68.2539 182.188 68.2422 182.477 68.2422C188.688 68.2422 194.266 70.9297 198.137 75.1875C201.535 78.9414 203.605 83.9258 203.605 89.3828C203.605 101.055 194.145 110.512 182.477 110.512C173.75 110.516 166.258 105.223 163.031 97.6758Z" fill="url(#paint14_linear_0_228)"/>
<path d="M397.391 107.504C397.402 107.492 397.402 107.492 397.414 107.484C397.293 107.355 397.176 107.234 397.055 107.117C401.086 105.234 405.574 104.184 410.312 104.184C412.203 104.184 414.055 104.352 415.859 104.68C415.887 104.828 415.918 104.977 415.938 105.125L441.438 130.625H459.09L372.41 43.9453H274.844C274.664 45.6289 274.574 47.332 274.574 49.0547C274.574 63.043 280.469 75.6953 289.91 84.6367L373.191 167.922C373.746 168.496 374.301 169.07 374.887 169.613C380.195 175.164 386.785 179.473 394.172 182.059C399.227 183.82 404.656 184.781 410.312 184.781C412.48 184.781 414.602 184.633 416.691 184.355C417.215 184.297 417.742 184.219 418.266 184.129C432.363 181.832 444.449 173.488 451.797 161.871L424.734 134.824L397.391 107.504ZM330.012 97.6758C328.922 95.1289 328.316 92.3242 328.316 89.3828C328.316 85.9375 329.137 82.6797 330.613 79.8047C333.984 73.1875 340.738 68.5703 348.605 68.2617C348.891 68.2539 349.168 68.2422 349.457 68.2422C355.668 68.2422 361.242 70.9297 365.117 75.1875C368.516 78.9414 370.586 83.9258 370.586 89.3828C370.586 101.055 361.125 110.512 349.457 110.512C340.73 110.516 333.238 105.223 330.012 97.6758Z" fill="url(#paint15_linear_0_228)"/>
<path d="M182.477 68.2461C182.188 68.2461 181.91 68.2539 181.625 68.2656C177.402 73.7617 171.41 77.8242 164.504 79.5977C164.219 79.668 163.93 79.7461 163.633 79.8047C161.387 80.3203 159.059 80.5859 156.648 80.5859C152.379 80.5859 148.301 79.7344 144.582 78.1914C133.152 73.4453 125.109 62.1602 125.109 49.0547C125.109 47.3125 125.246 45.6094 125.523 43.9453C127.969 28.9648 140.996 17.5039 156.648 17.5039C172.301 17.5039 185.328 28.9766 187.773 43.9453H205.426C202.875 19.2891 181.969 0 156.652 0C131.32 0 110.418 19.2891 107.863 43.9453C107.684 45.6289 107.594 47.332 107.594 49.0547C107.594 70.4414 121.363 88.6797 140.516 95.3789C145.566 97.1406 150.996 98.1016 156.652 98.1016C158.82 98.1016 160.941 97.9531 163.031 97.6758C163.555 97.6172 164.082 97.5391 164.605 97.4492C178.703 95.1523 190.789 86.8086 198.141 75.1914C194.266 70.9297 188.688 68.2461 182.477 68.2461Z" fill="url(#paint16_linear_0_228)"/>
<path d="M349.445 68.2461C349.168 68.2461 348.883 68.2539 348.605 68.2656C344.383 73.7617 338.379 77.8242 331.477 79.5977C331.188 79.668 330.902 79.7344 330.613 79.8047C328.367 80.3086 326.027 80.5859 323.629 80.5859C319.352 80.5859 315.281 79.7344 311.555 78.1914C300.133 73.4453 292.078 62.1602 292.078 49.0547C292.078 47.3125 292.215 45.6094 292.492 43.9453C294.941 28.9648 307.977 17.5039 323.629 17.5039C339.27 17.5039 352.297 28.9766 354.754 43.9453H372.406C369.852 19.2891 348.949 0 323.629 0C298.301 0 277.398 19.2891 274.84 43.9453C274.664 45.6289 274.574 47.332 274.574 49.0547C274.574 70.4414 288.344 88.6797 307.484 95.3789C312.543 97.1406 317.973 98.1016 323.629 98.1016C325.789 98.1016 327.918 97.9531 330.012 97.6758C330.547 97.6055 331.059 97.5391 331.586 97.4492C345.672 95.1523 357.758 86.8086 365.117 75.1914C361.242 70.9297 355.656 68.2461 349.445 68.2461Z" fill="url(#paint17_linear_0_228)"/>
<path d="M201.566 177.961C200.695 179.387 199.586 179.863 198.477 179.863C197.445 179.863 196.336 179.387 195.621 177.961L185.008 157.836V196.34C185.008 198.16 182.945 199.113 180.809 199.113C178.75 199.113 176.609 198.16 176.609 196.34V145.398C176.609 142.309 178.668 141.199 180.809 141.199C183.82 141.199 185.48 142.23 187.465 145.953L198.555 166.949L209.805 145.953C211.785 142.23 213.371 141.199 216.379 141.199C218.598 141.199 220.578 142.309 220.578 145.398V196.34C220.578 198.16 218.52 199.113 216.379 199.113C214.32 199.113 212.184 198.16 212.184 196.34V158.312L201.566 177.961Z" fill="url(#paint18_linear_0_228)"/>
<path d="M239.438 166.789H251.637C253.379 166.789 254.41 168.375 254.41 170.195C254.41 171.699 253.539 173.445 251.637 173.445H239.438V191.664H262.965C264.707 191.664 265.738 193.406 265.738 195.469C265.738 197.211 264.867 199.113 262.965 199.113H234.762C232.941 199.113 231.039 198.16 231.039 196.34V143.973C231.039 142.148 232.941 141.199 234.762 141.199H262.965C264.867 141.199 265.738 143.102 265.738 144.844C265.738 146.902 264.707 148.648 262.965 148.648H239.438V166.789Z" fill="url(#paint19_linear_0_228)"/>
<path d="M299.805 196.023L280.871 159.977V196.34C280.871 198.16 278.809 199.113 276.672 199.113C274.613 199.113 272.473 198.16 272.473 196.34V143.973C272.473 141.992 274.535 141.199 276.672 141.199C279.684 141.199 281.109 142.309 283.008 145.953L300.598 180.258V143.895C300.598 141.992 302.738 141.199 304.797 141.199C306.934 141.199 308.996 141.992 308.996 143.895V196.34C308.996 198.16 306.934 199.113 304.797 199.113C302.738 199.113 300.914 198.082 299.805 196.023Z" fill="url(#paint20_linear_0_228)"/>
<path d="M347.023 143.895C347.023 141.992 349.082 141.199 351.223 141.199C353.281 141.199 355.422 141.992 355.422 143.895V181.922C355.422 194.754 347.496 199.59 337.277 199.59C327.137 199.59 319.215 194.754 319.215 181.922V143.895C319.215 141.992 321.277 141.199 323.414 141.199C325.473 141.199 327.613 141.992 327.613 143.895V181.922C327.613 188.895 331.258 192.141 337.277 192.141C343.379 192.141 347.023 188.895 347.023 181.922V143.895Z" fill="url(#paint21_linear_0_228)"/>
<defs>
<linearGradient id="paint0_linear_0_228" x1="138.196" y1="85.8289" x2="496.37" y2="624.244" gradientUnits="userSpaceOnUse">
<stop stop-color="#FFFCF8"/>
<stop offset="0.1875" stop-color="#FAF8F6"/>
<stop offset="0.4041" stop-color="#ECEEF2"/>
<stop offset="0.6353" stop-color="#D5DCEA"/>
<stop offset="0.875" stop-color="#B5C4DF"/>
<stop offset="1" stop-color="#A1B5D8"/>
</linearGradient>
<linearGradient id="paint1_linear_0_228" x1="223.465" y1="208.678" x2="69.918" y2="152.708" gradientUnits="userSpaceOnUse">
<stop stop-color="#A1B5D8" stop-opacity="0"/>
<stop offset="0.0343" stop-color="#9FB3D5" stop-opacity="0.035294"/>
<stop offset="0.4515" stop-color="#8898AF" stop-opacity="0.45098"/>
<stop offset="0.788" stop-color="#798898" stop-opacity="0.788235"/>
<stop offset="1" stop-color="#748290"/>
</linearGradient>
<linearGradient id="paint2_linear_0_228" x1="275.254" y1="209.064" x2="109.324" y2="146.655" gradientUnits="userSpaceOnUse">
<stop stop-color="#A1B5D8" stop-opacity="0"/>
<stop offset="0.0343" stop-color="#9FB3D5" stop-opacity="0.035294"/>
<stop offset="0.4515" stop-color="#8898AF" stop-opacity="0.45098"/>
<stop offset="0.788" stop-color="#798898" stop-opacity="0.788235"/>
<stop offset="1" stop-color="#748290"/>
</linearGradient>
<linearGradient id="paint3_linear_0_228" x1="330.503" y1="213.852" x2="183.891" y2="155.9" gradientUnits="userSpaceOnUse">
<stop stop-color="#A1B5D8" stop-opacity="0"/>
<stop offset="0.0343" stop-color="#9FB3D5" stop-opacity="0.035294"/>
<stop offset="0.4515" stop-color="#8898AF" stop-opacity="0.45098"/>
<stop offset="0.788" stop-color="#798898" stop-opacity="0.788235"/>
<stop offset="1" stop-color="#748290"/>
</linearGradient>
<linearGradient id="paint4_linear_0_228" x1="359.981" y1="207.407" x2="228.228" y2="165.305" gradientUnits="userSpaceOnUse">
<stop stop-color="#A1B5D8" stop-opacity="0"/>
<stop offset="0.0343" stop-color="#9FB3D5" stop-opacity="0.035294"/>
<stop offset="0.4515" stop-color="#8898AF" stop-opacity="0.45098"/>
<stop offset="0.788" stop-color="#798898" stop-opacity="0.788235"/>
<stop offset="1" stop-color="#748290"/>
</linearGradient>
<linearGradient id="paint5_linear_0_228" x1="371.184" y1="580.696" x2="246.914" y2="456.427" gradientUnits="userSpaceOnUse">
<stop stop-color="#A1B5D8" stop-opacity="0"/>
<stop offset="0.0343" stop-color="#9FB3D5" stop-opacity="0.035294"/>
<stop offset="0.4515" stop-color="#8898AF" stop-opacity="0.45098"/>
<stop offset="0.788" stop-color="#798898" stop-opacity="0.788235"/>
<stop offset="1" stop-color="#748290"/>
</linearGradient>
<linearGradient id="paint6_linear_0_228" x1="242.923" y1="455.825" x2="242.923" y2="537.63" gradientUnits="userSpaceOnUse">
<stop stop-color="#FFFCF8"/>
<stop offset="0.1875" stop-color="#FAF8F6"/>
<stop offset="0.4041" stop-color="#ECEEF2"/>
<stop offset="0.6353" stop-color="#D5DCEA"/>
<stop offset="0.875" stop-color="#B5C4DF"/>
<stop offset="1" stop-color="#A1B5D8"/>
</linearGradient>
<linearGradient id="paint7_linear_0_228" x1="265.69" y1="190.161" x2="471.867" y2="396.338" gradientUnits="userSpaceOnUse">
<stop stop-color="#3B395F"/>
<stop offset="0.8022" stop-color="#1B1F3A"/>
<stop offset="1" stop-color="#131830"/>
</linearGradient>
<linearGradient id="paint8_linear_0_228" x1="233.918" y1="221.934" x2="440.094" y2="428.11" gradientUnits="userSpaceOnUse">
<stop stop-color="#3B395F"/>
<stop offset="0.8022" stop-color="#1B1F3A"/>
<stop offset="1" stop-color="#131830"/>
</linearGradient>
<linearGradient id="paint9_linear_0_228" x1="191.831" y1="264.02" x2="398.008" y2="470.197" gradientUnits="userSpaceOnUse">
<stop stop-color="#3B395F"/>
<stop offset="0.8022" stop-color="#1B1F3A"/>
<stop offset="1" stop-color="#131830"/>
</linearGradient>
<linearGradient id="paint10_linear_0_228" x1="181.046" y1="274.806" x2="387.222" y2="480.982" gradientUnits="userSpaceOnUse">
<stop stop-color="#3B395F"/>
<stop offset="0.8022" stop-color="#1B1F3A"/>
<stop offset="1" stop-color="#131830"/>
</linearGradient>
<linearGradient id="paint11_linear_0_228" x1="149.273" y1="306.578" x2="355.45" y2="512.755" gradientUnits="userSpaceOnUse">
<stop stop-color="#3B395F"/>
<stop offset="0.8022" stop-color="#1B1F3A"/>
<stop offset="1" stop-color="#131830"/>
</linearGradient>
<linearGradient id="paint12_linear_0_228" x1="117.501" y1="338.351" x2="323.677" y2="544.527" gradientUnits="userSpaceOnUse">
<stop stop-color="#3B395F"/>
<stop offset="0.8022" stop-color="#1B1F3A"/>
<stop offset="1" stop-color="#131830"/>
</linearGradient>
<linearGradient id="paint13_linear_0_228" x1="258.264" y1="58.5722" x2="278.406" y2="162.258" gradientUnits="userSpaceOnUse">
<stop stop-color="#8BE1E2"/>
<stop offset="0.1873" stop-color="#87E1E1"/>
<stop offset="0.3558" stop-color="#7CE2DD"/>
<stop offset="0.5172" stop-color="#6AE2D7"/>
<stop offset="0.6741" stop-color="#50E4CE"/>
<stop offset="0.8278" stop-color="#2FE5C2"/>
<stop offset="0.9772" stop-color="#07E7B4"/>
<stop offset="1" stop-color="#00E7B2"/>
</linearGradient>
<linearGradient id="paint14_linear_0_228" x1="236.299" y1="136.424" x2="98.9303" y2="-0.944586" gradientUnits="userSpaceOnUse">
<stop offset="0.0029" stop-color="#00E7B2" stop-opacity="0"/>
<stop offset="0.4308" stop-color="#1BC4B7" stop-opacity="0.427451"/>
<stop offset="1" stop-color="#3B9ABE"/>
</linearGradient>
<linearGradient id="paint15_linear_0_228" x1="403.279" y1="136.424" x2="265.91" y2="-0.944582" gradientUnits="userSpaceOnUse">
<stop offset="0.0029" stop-color="#00E7B2" stop-opacity="0"/>
<stop offset="0.4308" stop-color="#1BC4B7" stop-opacity="0.427451"/>
<stop offset="1" stop-color="#3B9ABE"/>
</linearGradient>
<linearGradient id="paint16_linear_0_228" x1="107.595" y1="49.0508" x2="205.429" y2="49.0508" gradientUnits="userSpaceOnUse">
<stop stop-color="#45425A"/>
<stop offset="1" stop-color="#2D3251"/>
</linearGradient>
<linearGradient id="paint17_linear_0_228" x1="274.575" y1="49.0508" x2="372.409" y2="49.0508" gradientUnits="userSpaceOnUse">
<stop stop-color="#45425A"/>
<stop offset="1" stop-color="#2D3251"/>
</linearGradient>
<linearGradient id="paint18_linear_0_228" x1="198.594" y1="155.627" x2="198.594" y2="257.281" gradientUnits="userSpaceOnUse">
<stop stop-color="#FF6E3A"/>
<stop offset="0.1596" stop-color="#FF6440"/>
<stop offset="0.4266" stop-color="#FF4B52"/>
<stop offset="0.7662" stop-color="#FF216E"/>
<stop offset="1" stop-color="#FF0084"/>
</linearGradient>
<linearGradient id="paint19_linear_0_228" x1="248.388" y1="155.627" x2="248.388" y2="257.281" gradientUnits="userSpaceOnUse">
<stop stop-color="#FF6E3A"/>
<stop offset="0.1596" stop-color="#FF6440"/>
<stop offset="0.4266" stop-color="#FF4B52"/>
<stop offset="0.7662" stop-color="#FF216E"/>
<stop offset="1" stop-color="#FF0084"/>
</linearGradient>
<linearGradient id="paint20_linear_0_228" x1="290.734" y1="155.627" x2="290.734" y2="257.281" gradientUnits="userSpaceOnUse">
<stop stop-color="#FF6E3A"/>
<stop offset="0.1596" stop-color="#FF6440"/>
<stop offset="0.4266" stop-color="#FF4B52"/>
<stop offset="0.7662" stop-color="#FF216E"/>
<stop offset="1" stop-color="#FF0084"/>
</linearGradient>
<linearGradient id="paint21_linear_0_228" x1="337.319" y1="155.627" x2="337.319" y2="257.281" gradientUnits="userSpaceOnUse">
<stop stop-color="#FF6E3A"/>
<stop offset="0.1596" stop-color="#FF6440"/>
<stop offset="0.4266" stop-color="#FF4B52"/>
<stop offset="0.7662" stop-color="#FF216E"/>
<stop offset="1" stop-color="#FF0084"/>
</linearGradient>
</defs>
</svg>
