<svg width="511" height="511" viewBox="0 0 511 511" fill="none" xmlns="http://www.w3.org/2000/svg">
<g clip-path="url(#clip0_0_448)">
<path d="M372.479 116.565L372.463 349.437C372.463 359.231 364.51 367.172 354.728 367.168L37.9805 367.149C28.1871 367.145 20.2456 359.207 20.2495 349.41V301.184C20.2495 295.473 24.8811 290.841 30.5965 290.841C36.308 290.841 40.9395 286.213 40.9395 280.498L40.9473 185.453C40.9473 179.742 36.3158 175.11 30.6043 175.11C24.8928 175.11 20.2612 170.479 20.2612 164.767L20.2651 116.537C20.2651 106.744 28.2066 98.8063 38 98.8063L354.748 98.8297C364.53 98.8297 372.479 106.771 372.479 116.565Z" fill="url(#paint0_linear_0_448)"/>
<path d="M489.313 185.485L489.305 280.529C489.305 286.245 493.933 290.872 499.648 290.876C505.36 290.876 509.991 295.508 509.987 301.219V349.445C509.983 359.243 502.046 367.18 492.249 367.18L390.183 367.172C380.401 367.172 372.459 359.231 372.463 349.437L372.479 116.565C372.479 106.771 380.416 98.8297 390.202 98.8336L492.268 98.8375C502.065 98.8414 510.003 106.779 510.003 116.576L509.999 164.802C509.999 170.514 505.367 175.145 499.656 175.145C493.945 175.141 489.313 179.773 489.313 185.485Z" fill="url(#paint1_linear_0_448)"/>
<path d="M509.987 349.445L509.991 301.219C509.991 295.508 505.36 290.876 499.648 290.872C493.937 290.872 489.305 286.245 489.305 280.529L489.313 185.485C489.313 179.773 493.945 175.141 499.656 175.141C501.917 175.141 504.003 174.409 505.703 173.18L483.995 151.469C480.759 147.991 476.151 145.8 471.024 145.8L372.479 145.793L372.463 349.434C372.463 359.231 380.401 367.168 390.186 367.172L492.253 367.176C502.046 367.18 509.987 359.239 509.987 349.445Z" fill="url(#paint2_linear_0_448)"/>
<path d="M351.231 163.527L351.216 396.4C351.216 406.194 343.266 414.135 333.481 414.131L16.7329 414.112C6.93956 414.112 -0.998047 406.17 -0.998047 396.377L-0.994148 348.147C-0.994148 342.436 3.63742 337.804 9.34891 337.808C15.0604 337.808 19.692 333.176 19.692 327.465L19.6998 232.42C19.6998 226.705 15.0721 222.077 9.35671 222.073C3.64522 222.073 -0.986351 217.442 -0.982452 211.73V163.504C-0.978554 153.707 6.95905 145.769 16.7563 145.769L333.5 145.793C343.286 145.793 351.235 153.734 351.231 163.527Z" fill="url(#paint3_linear_0_448)"/>
<path d="M468.065 232.451L468.061 327.496C468.061 333.207 472.689 337.839 478.401 337.839C484.116 337.839 488.744 342.471 488.744 348.182L488.74 396.412C488.74 406.205 480.798 414.143 471.005 414.143L368.939 414.135C359.153 414.135 351.216 406.198 351.216 396.4L351.231 163.527C351.235 153.734 359.173 145.796 368.958 145.796L471.024 145.804C480.818 145.804 488.759 153.746 488.755 163.539V211.765C488.755 217.477 484.124 222.108 478.408 222.108C472.697 222.108 468.065 226.736 468.065 232.451Z" fill="url(#paint4_linear_0_448)"/>
<path d="M-0.994148 351.519L-0.998047 396.377C-0.998047 406.17 6.93956 414.112 16.7329 414.112L333.481 414.135C343.266 414.135 351.216 406.198 351.216 396.4C351.216 406.198 359.153 414.135 368.939 414.135L471.005 414.143C480.798 414.143 488.74 406.205 488.74 396.412L488.744 351.523H-0.994148V351.519Z" fill="url(#paint5_linear_0_448)"/>
<path d="M438.896 381.332H53.2903C46.8692 381.332 41.6606 376.127 41.6606 369.703V190.21C41.6606 183.785 46.8692 178.58 53.2903 178.58H438.896C445.321 178.58 450.529 183.785 450.529 190.21V369.703C450.525 376.127 445.321 381.332 438.896 381.332Z" fill="url(#paint6_linear_0_448)"/>
<path d="M351.598 198.658C349.383 198.658 347.59 196.865 347.59 194.65V188.639C347.59 186.424 349.383 184.631 351.598 184.631C353.812 184.631 355.606 186.424 355.606 188.639V194.65C355.606 196.865 353.812 198.658 351.598 198.658Z" fill="url(#paint7_linear_0_448)"/>
<path d="M351.598 359.285C349.383 359.285 347.59 357.492 347.59 355.278V343.808C347.59 341.593 349.383 339.8 351.598 339.8C353.812 339.8 355.606 341.593 355.606 343.808V355.278C355.606 357.492 353.812 359.285 351.598 359.285ZM351.598 336.342C349.383 336.342 347.59 334.545 347.59 332.334V320.861C347.59 318.646 349.383 316.853 351.598 316.853C353.812 316.853 355.606 318.646 355.606 320.861V332.334C355.606 334.545 353.812 336.342 351.598 336.342ZM351.598 313.395C349.383 313.395 347.59 311.601 347.59 309.387V297.913C347.59 295.699 349.383 293.905 351.598 293.905C353.812 293.905 355.606 295.699 355.606 297.913V309.387C355.606 311.601 353.812 313.395 351.598 313.395ZM351.598 290.447C349.383 290.447 347.59 288.65 347.59 286.44V274.966C347.59 272.751 349.383 270.958 351.598 270.958C353.812 270.958 355.606 272.751 355.606 274.966V286.44C355.606 288.65 353.812 290.447 351.598 290.447ZM351.598 267.5C349.383 267.5 347.59 265.707 347.59 263.492V252.019C347.59 249.804 349.383 248.011 351.598 248.011C353.812 248.011 355.606 249.804 355.606 252.019V263.492C355.606 265.707 353.812 267.5 351.598 267.5ZM351.598 244.553C349.383 244.553 347.59 242.759 347.59 240.545V229.071C347.59 226.857 349.383 225.063 351.598 225.063C353.812 225.063 355.606 226.857 355.606 229.071V240.545C355.606 242.759 353.812 244.553 351.598 244.553ZM351.598 221.605C349.383 221.605 347.59 219.812 347.59 217.598V206.124C347.59 203.909 349.383 202.116 351.598 202.116C353.812 202.116 355.606 203.909 355.606 206.124V217.598C355.606 219.812 353.812 221.605 351.598 221.605Z" fill="url(#paint8_linear_0_448)"/>
<path d="M351.598 376.775C349.383 376.775 347.59 374.977 347.59 372.767V366.755C347.59 364.541 349.383 362.747 351.598 362.747C353.812 362.747 355.606 364.541 355.606 366.755V372.767C355.606 374.977 353.812 376.775 351.598 376.775Z" fill="url(#paint9_linear_0_448)"/>
<path d="M465.535 320.092L390.713 245.289C388.019 243.134 384.451 242.054 380.011 242.054C370.253 242.054 365.372 246.549 365.372 255.539V271.765C365.372 276.634 366.814 280.171 369.676 282.404L423.878 336.471C439.017 333.816 453.118 328.139 465.535 320.092Z" fill="url(#paint10_linear_0_448)"/>
<path d="M467.083 278.903V319.071C449.126 331.137 427.504 338.178 404.241 338.178C400.935 338.178 397.672 338.026 394.436 337.745L381.446 324.755C380.631 323.909 380.229 322.981 380.229 321.956C380.229 321.375 380.377 320.822 380.666 320.311L420.771 239.753C421.352 238.436 422.447 237.777 424.05 237.777C425.231 237.777 426.295 238.178 427.255 238.982L467.083 278.903Z" fill="url(#paint11_linear_0_448)"/>
<path d="M467.083 310.248V319.059C456.83 325.956 445.379 331.204 433.11 334.436L418.027 319.356C415.169 317.122 413.726 313.582 413.726 308.716V292.49C413.726 283.496 418.604 279.001 428.362 279.001C432.802 279.001 436.373 280.081 439.067 282.237L467.083 310.248Z" fill="url(#paint12_linear_0_448)"/>
<path d="M365.372 271.765V255.539C365.372 246.549 370.253 242.054 380.011 242.054C384.451 242.054 388.019 243.134 390.713 245.289C393.407 247.445 394.756 250.865 394.756 255.539V271.765C394.756 276.443 393.407 279.863 390.713 282.018C388.019 284.174 384.451 285.25 380.011 285.25C370.253 285.25 365.372 280.755 365.372 271.765ZM373.157 271.582C373.157 275.8 375.442 277.905 380.011 277.905C384.65 277.905 386.97 275.8 386.97 271.582V255.722C386.97 251.508 384.65 249.399 380.011 249.399C375.442 249.399 373.157 251.508 373.157 255.722V271.582Z" fill="#FFFCF8"/>
<path d="M380.229 321.956C380.229 321.371 380.377 320.825 380.666 320.311L420.775 239.75C421.356 238.436 422.447 237.777 424.054 237.777C425.231 237.777 426.299 238.178 427.255 238.982C428.214 239.789 428.693 240.775 428.693 241.944C428.693 242.529 428.584 243.114 428.366 243.699L388.257 323.929C387.602 325.317 386.362 326.014 384.541 326.014C383.286 326.014 382.257 325.59 381.446 324.751C380.635 323.913 380.229 322.981 380.229 321.956Z" fill="#FFFCF8"/>
<path d="M439.067 282.264C436.373 280.093 432.802 279.001 428.362 279.001C418.603 279.001 413.722 283.531 413.722 292.592V308.942C413.722 317.999 418.603 322.529 428.362 322.529C432.802 322.529 436.373 321.445 439.067 319.27C441.761 317.098 443.106 313.656 443.106 308.942V292.592C443.11 287.878 441.761 284.436 439.067 282.264ZM435.325 308.79C435.325 313.055 433.001 315.184 428.362 315.184C423.793 315.184 421.508 313.055 421.508 308.79V292.744C421.508 288.482 423.793 286.35 428.362 286.35C433.005 286.35 435.325 288.482 435.325 292.744V308.79Z" fill="#FFFCF8"/>
<path d="M116.932 230.814C110.382 223.851 100.604 220.896 89.4151 220.896H61.0097C56.5145 220.896 53.4658 223.461 53.4658 226.35V332.759C53.4658 334.202 54.23 335.566 55.5516 336.572L113.107 394.124C114.335 395.757 116.694 396.919 119.711 396.919H148.121C168.503 396.919 184.23 387.129 184.23 361.129V315.391C184.23 302.845 180.561 294.085 174.483 288.365L116.932 230.814Z" fill="url(#paint13_linear_0_448)"/>
<path d="M161.641 223.769C160.23 221.769 157.13 220.896 153.937 220.896C149.766 220.896 145.431 222.502 145.431 226.354V332.599C145.431 334.167 146.218 335.414 147.438 336.334L204.994 393.886C206.456 395.886 209.59 396.923 212.643 396.923C216.974 396.923 221.146 394.997 221.146 391.305V285.056C221.146 283.422 220.389 282.198 219.193 281.321L161.641 223.769Z" fill="url(#paint14_linear_0_448)"/>
<path d="M245.298 227.913C240.588 222.28 226.276 220.412 217.653 220.412C200.479 220.412 180.581 227.477 180.581 251.227C180.581 261.122 184.027 267.738 189.138 272.595L230.58 314.038C230.775 314.248 230.978 314.455 231.181 314.658C228.191 321.036 221.165 324.092 212.518 324.092C194.701 324.092 190.853 311.414 185.072 311.414C181.06 311.414 177.692 316.708 177.692 320.56C177.692 323.321 179.419 326.424 182.538 329.305L240.089 386.86C245.684 392.833 257.231 398.201 271.863 398.201C293.048 398.201 308.456 386.97 308.456 364.018C308.456 352.198 304.456 344.478 298.67 338.985L259.532 299.847C259.454 299.761 259.372 299.675 259.29 299.59C262.717 295.586 268.834 293.722 276.358 293.722C289.999 293.722 294.171 299.82 298.506 299.82C303.321 299.82 305.567 293.882 305.567 290.673C305.567 288.619 304.541 286.9 302.853 285.465L245.298 227.913Z" fill="url(#paint15_linear_0_448)"/>
<path d="M329.594 231.664C323.263 224.946 313.056 220.896 300.307 220.896C280.888 220.896 264.678 230.685 264.678 256.685V303.391C264.678 315.96 268.44 324.732 274.51 330.451L332.066 388.003C338.596 394.934 348.214 397.882 358.853 397.882C380.841 397.882 395.446 385.527 395.446 367.87C395.446 363.94 394.6 361.656 392.826 360.396L341.048 308.615C342.99 299.293 349.309 294.825 359.235 294.701C359.411 294.868 359.602 295.024 359.804 295.172L379.348 314.724C380.658 316.592 383.317 317.476 386.939 317.476C392.717 317.476 395.446 315.87 395.446 308.65C395.446 300.923 392.459 294.229 387.145 289.215L329.594 231.664Z" fill="url(#paint16_linear_0_448)"/>
<path d="M89.4151 220.896C109.797 220.896 125.528 230.685 125.528 256.685V302.424C125.528 328.424 109.797 338.217 89.4151 338.217H61.0097C56.5145 338.217 53.4658 335.648 53.4658 332.759V226.35C53.4658 223.461 56.5145 220.896 61.0097 220.896H89.4151ZM70.4755 235.98V323.13H89.4151C101.45 323.13 108.514 316.549 108.514 302.424V256.685C108.514 242.56 101.45 235.983 89.4151 235.983H70.4755V235.98Z" fill="url(#paint17_linear_0_448)"/>
<path d="M145.431 226.35C145.431 222.498 149.766 220.896 153.937 220.896C158.273 220.896 162.444 222.498 162.444 226.35V332.599C162.444 336.287 158.273 338.213 153.937 338.213C149.766 338.213 145.431 336.287 145.431 332.599V226.35Z" fill="url(#paint18_linear_0_448)"/>
<path d="M232.74 307.079C232.74 278.673 180.581 289.746 180.581 251.227C180.581 227.477 200.479 220.412 217.653 220.412C228.085 220.412 246.865 223.141 246.865 231.968C246.865 235.18 244.616 241.118 239.801 241.118C235.469 241.118 231.294 235.017 217.653 235.017C205.937 235.017 197.59 239.512 197.59 249.625C197.59 273.375 249.754 262.623 249.754 305.317C249.754 328.264 234.347 339.5 213.161 339.5C192.296 339.5 177.692 328.588 177.692 320.56C177.692 316.708 181.06 311.414 185.072 311.414C190.85 311.414 194.701 324.092 212.518 324.092C224.074 324.092 232.74 318.634 232.74 307.079Z" fill="url(#paint19_linear_0_448)"/>
<path d="M300.951 235.98C288.592 235.98 281.691 242.56 281.691 256.685V303.387C281.691 317.512 288.592 324.092 301.27 324.092C317.641 324.092 319.087 313.016 319.73 305.956C320.05 301.781 323.422 300.338 328.073 300.338C334.015 300.338 336.74 302.104 336.74 309.165C336.74 326.822 322.136 339.176 300.148 339.176C280.729 339.176 264.678 329.387 264.678 303.387V256.685C264.678 230.685 280.888 220.896 300.307 220.896C322.296 220.896 336.74 232.931 336.74 249.944C336.74 257.165 334.015 258.771 328.237 258.771C323.099 258.771 319.89 257.005 319.73 253.153C319.407 247.535 317.481 235.98 300.951 235.98Z" fill="url(#paint20_linear_0_448)"/>
</g>
<defs>
<linearGradient id="paint0_linear_0_448" x1="93.0491" y1="129.662" x2="362.668" y2="399.318" gradientUnits="userSpaceOnUse">
<stop stop-color="#8BE1E2"/>
<stop offset="0.1873" stop-color="#87E1E1"/>
<stop offset="0.3558" stop-color="#7CE2DD"/>
<stop offset="0.5172" stop-color="#6AE2D7"/>
<stop offset="0.6741" stop-color="#50E4CE"/>
<stop offset="0.8278" stop-color="#2FE5C2"/>
<stop offset="0.9772" stop-color="#07E7B4"/>
<stop offset="1" stop-color="#00E7B2"/>
</linearGradient>
<linearGradient id="paint1_linear_0_448" x1="374.899" y1="166.664" x2="548.01" y2="339.799" gradientUnits="userSpaceOnUse">
<stop stop-color="#8BE1E2"/>
<stop offset="0.1873" stop-color="#87E1E1"/>
<stop offset="0.3558" stop-color="#7CE2DD"/>
<stop offset="0.5172" stop-color="#6AE2D7"/>
<stop offset="0.6741" stop-color="#50E4CE"/>
<stop offset="0.8278" stop-color="#2FE5C2"/>
<stop offset="0.9772" stop-color="#07E7B4"/>
<stop offset="1" stop-color="#00E7B2"/>
</linearGradient>
<linearGradient id="paint2_linear_0_448" x1="538.991" y1="269.239" x2="462.955" y2="260.293" gradientUnits="userSpaceOnUse">
<stop offset="0.0029" stop-color="#00E7B2" stop-opacity="0"/>
<stop offset="0.4308" stop-color="#1BC4B7" stop-opacity="0.427451"/>
<stop offset="1" stop-color="#3B9ABE"/>
</linearGradient>
<linearGradient id="paint3_linear_0_448" x1="71.8037" y1="176.625" x2="341.423" y2="446.282" gradientUnits="userSpaceOnUse">
<stop stop-color="#FF6E3A"/>
<stop offset="0.1596" stop-color="#FF6440"/>
<stop offset="0.4266" stop-color="#FF4B52"/>
<stop offset="0.7662" stop-color="#FF216E"/>
<stop offset="1" stop-color="#FF0084"/>
</linearGradient>
<linearGradient id="paint4_linear_0_448" x1="353.654" y1="213.627" x2="526.765" y2="386.762" gradientUnits="userSpaceOnUse">
<stop stop-color="#FF6E3A"/>
<stop offset="0.1596" stop-color="#FF6440"/>
<stop offset="0.4266" stop-color="#FF4B52"/>
<stop offset="0.7662" stop-color="#FF216E"/>
<stop offset="1" stop-color="#FF0084"/>
</linearGradient>
<linearGradient id="paint5_linear_0_448" x1="243.873" y1="367.175" x2="243.873" y2="416.387" gradientUnits="userSpaceOnUse">
<stop stop-color="#E58200" stop-opacity="0"/>
<stop offset="0.2413" stop-color="#DA760F" stop-opacity="0.243137"/>
<stop offset="0.7044" stop-color="#BC5737" stop-opacity="0.705882"/>
<stop offset="1" stop-color="#A64153"/>
</linearGradient>
<linearGradient id="paint6_linear_0_448" x1="143.091" y1="176.939" x2="411.903" y2="445.789" gradientUnits="userSpaceOnUse">
<stop stop-color="#FFFCF8"/>
<stop offset="0.1875" stop-color="#FAF8F6"/>
<stop offset="0.4041" stop-color="#ECEEF2"/>
<stop offset="0.6353" stop-color="#D5DCEA"/>
<stop offset="0.875" stop-color="#B5C4DF"/>
<stop offset="1" stop-color="#A1B5D8"/>
</linearGradient>
<linearGradient id="paint7_linear_0_448" x1="347.261" y1="187.307" x2="444.99" y2="285.05" gradientUnits="userSpaceOnUse">
<stop stop-color="#3B395F"/>
<stop offset="0.8022" stop-color="#1B1F3A"/>
<stop offset="1" stop-color="#131830"/>
</linearGradient>
<linearGradient id="paint8_linear_0_448" x1="303.034" y1="232.132" x2="397.392" y2="326.502" gradientUnits="userSpaceOnUse">
<stop stop-color="#3B395F"/>
<stop offset="0.8022" stop-color="#1B1F3A"/>
<stop offset="1" stop-color="#131830"/>
</linearGradient>
<linearGradient id="paint9_linear_0_448" x1="258.205" y1="276.353" x2="355.934" y2="374.097" gradientUnits="userSpaceOnUse">
<stop stop-color="#3B395F"/>
<stop offset="0.8022" stop-color="#1B1F3A"/>
<stop offset="1" stop-color="#131830"/>
</linearGradient>
<linearGradient id="paint10_linear_0_448" x1="406.304" y1="290.001" x2="373.319" y2="257.016" gradientUnits="userSpaceOnUse">
<stop stop-color="#A1B5D8" stop-opacity="0"/>
<stop offset="0.0343" stop-color="#9FB3D5" stop-opacity="0.035294"/>
<stop offset="0.4515" stop-color="#8898AF" stop-opacity="0.45098"/>
<stop offset="0.788" stop-color="#798898" stop-opacity="0.788235"/>
<stop offset="1" stop-color="#748290"/>
</linearGradient>
<linearGradient id="paint11_linear_0_448" x1="438.582" y1="316.1" x2="387.511" y2="265.029" gradientUnits="userSpaceOnUse">
<stop stop-color="#A1B5D8" stop-opacity="0"/>
<stop offset="0.0343" stop-color="#9FB3D5" stop-opacity="0.035294"/>
<stop offset="0.4515" stop-color="#8898AF" stop-opacity="0.45098"/>
<stop offset="0.788" stop-color="#798898" stop-opacity="0.788235"/>
<stop offset="1" stop-color="#748290"/>
</linearGradient>
<linearGradient id="paint12_linear_0_448" x1="450.554" y1="322.855" x2="417.115" y2="289.417" gradientUnits="userSpaceOnUse">
<stop stop-color="#A1B5D8" stop-opacity="0"/>
<stop offset="0.0343" stop-color="#9FB3D5" stop-opacity="0.035294"/>
<stop offset="0.4515" stop-color="#8898AF" stop-opacity="0.45098"/>
<stop offset="0.788" stop-color="#798898" stop-opacity="0.788235"/>
<stop offset="1" stop-color="#748290"/>
</linearGradient>
<linearGradient id="paint13_linear_0_448" x1="139.666" y1="329.509" x2="-4.95156" y2="228.5" gradientUnits="userSpaceOnUse">
<stop stop-color="#A1B5D8" stop-opacity="0"/>
<stop offset="0.0343" stop-color="#9FB3D5" stop-opacity="0.035294"/>
<stop offset="0.4515" stop-color="#8898AF" stop-opacity="0.45098"/>
<stop offset="0.788" stop-color="#798898" stop-opacity="0.788235"/>
<stop offset="1" stop-color="#748290"/>
</linearGradient>
<linearGradient id="paint14_linear_0_448" x1="193.416" y1="313.305" x2="47.3071" y2="248.824" gradientUnits="userSpaceOnUse">
<stop stop-color="#A1B5D8" stop-opacity="0"/>
<stop offset="0.0343" stop-color="#9FB3D5" stop-opacity="0.035294"/>
<stop offset="0.4515" stop-color="#8898AF" stop-opacity="0.45098"/>
<stop offset="0.788" stop-color="#798898" stop-opacity="0.788235"/>
<stop offset="1" stop-color="#748290"/>
</linearGradient>
<linearGradient id="paint15_linear_0_448" x1="251.879" y1="312.094" x2="132.607" y2="258.048" gradientUnits="userSpaceOnUse">
<stop stop-color="#A1B5D8" stop-opacity="0"/>
<stop offset="0.0343" stop-color="#9FB3D5" stop-opacity="0.035294"/>
<stop offset="0.4515" stop-color="#8898AF" stop-opacity="0.45098"/>
<stop offset="0.788" stop-color="#798898" stop-opacity="0.788235"/>
<stop offset="1" stop-color="#748290"/>
</linearGradient>
<linearGradient id="paint16_linear_0_448" x1="327.286" y1="307.34" x2="219.195" y2="231.677" gradientUnits="userSpaceOnUse">
<stop stop-color="#A1B5D8" stop-opacity="0"/>
<stop offset="0.0343" stop-color="#9FB3D5" stop-opacity="0.035294"/>
<stop offset="0.4515" stop-color="#8898AF" stop-opacity="0.45098"/>
<stop offset="0.788" stop-color="#798898" stop-opacity="0.788235"/>
<stop offset="1" stop-color="#748290"/>
</linearGradient>
<linearGradient id="paint17_linear_0_448" x1="53.4653" y1="279.555" x2="125.527" y2="279.555" gradientUnits="userSpaceOnUse">
<stop stop-color="#3B395F"/>
<stop offset="0.8022" stop-color="#1B1F3A"/>
<stop offset="1" stop-color="#131830"/>
</linearGradient>
<linearGradient id="paint18_linear_0_448" x1="145.431" y1="279.555" x2="162.443" y2="279.555" gradientUnits="userSpaceOnUse">
<stop stop-color="#3B395F"/>
<stop offset="0.8022" stop-color="#1B1F3A"/>
<stop offset="1" stop-color="#131830"/>
</linearGradient>
<linearGradient id="paint19_linear_0_448" x1="177.69" y1="279.957" x2="249.752" y2="279.957" gradientUnits="userSpaceOnUse">
<stop stop-color="#3B395F"/>
<stop offset="0.8022" stop-color="#1B1F3A"/>
<stop offset="1" stop-color="#131830"/>
</linearGradient>
<linearGradient id="paint20_linear_0_448" x1="264.68" y1="280.037" x2="336.742" y2="280.037" gradientUnits="userSpaceOnUse">
<stop stop-color="#3B395F"/>
<stop offset="0.8022" stop-color="#1B1F3A"/>
<stop offset="1" stop-color="#131830"/>
</linearGradient>
<clipPath id="clip0_0_448">
<rect width="511" height="511" fill="white"/>
</clipPath>
</defs>
</svg>
