<svg width="511" height="511" viewBox="0 0 511 511" fill="none" xmlns="http://www.w3.org/2000/svg">
<g clip-path="url(#clip0_0_474)">
<path d="M289.921 492.271C289.921 481.924 263.087 473.538 229.984 473.538C196.88 473.538 170.046 481.924 170.046 492.271C170.046 502.614 196.88 511 229.984 511C263.087 511 289.921 502.614 289.921 492.271Z" fill="url(#paint0_radial_0_474)"/>
<path d="M448.992 280.872C448.992 401.819 350.934 499.877 229.984 499.877C109.037 499.877 10.9785 401.819 10.9785 280.872C10.9785 280.12 10.9902 279.383 11.037 278.646C11.0721 277.734 11.1423 276.825 11.2319 275.925C16.7641 255.672 112.6 239.559 229.984 239.559C347.371 239.559 443.203 255.675 448.739 275.925C448.829 276.825 448.899 277.734 448.934 278.646C448.977 279.383 448.992 280.124 448.992 280.872Z" fill="url(#paint1_radial_0_474)"/>
<path d="M448.989 277.777C448.989 256.67 350.938 239.559 229.984 239.559C109.029 239.559 10.9785 256.67 10.9785 277.777C10.9785 298.888 109.029 315.999 229.984 315.999C350.938 315.999 448.989 298.888 448.989 277.777Z" fill="url(#paint2_linear_0_474)"/>
<path d="M435.41 277.777C435.41 260.802 343.437 247.036 229.984 247.036C116.53 247.036 24.5574 260.802 24.5574 277.777C24.5574 294.755 116.53 308.517 229.984 308.517C343.437 308.517 435.41 294.755 435.41 277.777Z" fill="url(#paint3_linear_0_474)"/>
<path d="M442.579 333.675C440.759 341.051 438.56 348.268 436.01 355.32C405.546 370.03 324.802 380.552 229.984 380.552C135.165 380.552 54.4208 370.03 23.957 355.32C21.4112 348.268 19.2085 341.051 17.3878 333.675C40.994 350.33 127.235 362.685 229.984 362.685C332.732 362.685 418.973 350.33 442.579 333.675Z" fill="url(#paint4_linear_0_474)"/>
<path d="M447.62 305.445C446.731 313.469 445.406 321.363 443.655 329.11C399.531 342.806 320.342 351.932 229.984 351.932C139.629 351.932 60.4403 342.806 16.3157 329.11C14.5652 321.363 13.2397 313.469 12.3508 305.445C55.5748 319.843 136.861 329.547 229.984 329.547C323.11 329.547 404.392 319.843 447.62 305.445Z" fill="url(#paint5_linear_0_474)"/>
<path d="M147.473 256.837C147.473 267.765 138.615 276.627 127.688 276.627C116.756 276.627 107.898 267.765 107.898 256.837C107.898 245.909 116.756 237.052 127.688 237.052C138.615 237.052 147.473 245.909 147.473 256.837Z" fill="url(#paint6_linear_0_474)"/>
<path d="M340.583 303.695C336.537 304.085 332.4 304.455 328.166 304.79C323.465 305.18 318.634 305.539 313.714 305.87C308.389 306.217 302.946 306.541 297.402 306.829C282.744 307.59 267.332 308.108 251.367 308.35C248.568 308.408 245.742 308.443 242.896 308.467C239.321 308.502 235.715 308.513 232.085 308.525H228.557C224.315 308.525 220.097 308.502 215.925 308.455C214.264 308.432 212.603 308.42 210.943 308.385C208.085 308.35 205.239 308.303 202.428 308.248C197.746 308.155 193.122 308.042 188.549 307.901C174.21 307.465 160.413 306.794 147.329 305.94C141.762 305.574 136.331 305.168 131.04 304.732C126.109 304.326 121.302 303.89 116.635 303.43C112.382 303.001 108.241 302.564 104.23 302.092C104.888 299.648 105.625 297.239 106.444 294.864C108.647 288.412 111.411 282.198 114.697 276.284C117.719 270.81 121.189 265.586 125.06 260.677C127.812 257.161 130.768 253.796 133.914 250.599C134.709 249.796 135.528 248.985 136.354 248.194C158.374 227.063 188.721 213.991 222.206 213.991C250.482 213.991 276.517 223.305 297.196 238.946C301.473 242.163 305.519 245.656 309.301 249.414C309.437 249.543 309.566 249.668 309.703 249.82C314.061 254.151 318.085 258.822 321.714 263.777C325.644 269.137 329.125 274.818 332.1 280.79C335.706 288.042 338.564 295.707 340.583 303.695Z" fill="url(#paint7_linear_0_474)"/>
<path d="M328.166 304.79C323.465 305.18 318.634 305.539 313.714 305.87C308.389 306.217 302.946 306.541 297.402 306.829C282.744 307.589 267.332 308.108 251.367 308.35C248.568 308.408 245.742 308.443 242.896 308.467C239.321 308.502 235.714 308.513 232.085 308.525H228.557C224.315 308.525 220.097 308.502 215.925 308.455C214.264 308.432 212.603 308.42 210.943 308.385C208.085 308.35 205.239 308.303 202.428 308.248C197.746 308.155 193.122 308.042 188.549 307.901C174.21 307.465 160.413 306.794 147.329 305.94C141.762 305.574 136.331 305.168 131.04 304.732C126.109 304.326 121.302 303.89 116.635 303.43C117.89 299.024 119.434 294.747 121.255 290.599C123.793 284.802 126.845 279.27 130.374 274.046C133.68 269.137 137.403 264.514 141.485 260.213C145.196 256.307 149.22 252.666 153.496 249.332C153.528 249.297 153.578 249.266 153.621 249.231C172.401 234.638 196.249 225.909 222.206 225.909C243.726 225.909 263.792 231.917 280.728 242.28C283.816 244.159 286.79 246.198 289.66 248.354C291.032 249.403 292.381 250.463 293.695 251.559C298.19 255.305 302.361 259.395 306.166 263.788C310.244 268.479 313.913 273.516 317.102 278.853C321.909 286.888 325.667 295.59 328.166 304.79Z" fill="url(#paint8_linear_0_474)"/>
<path d="M297.402 306.829C282.744 307.589 267.332 308.108 251.367 308.35C248.568 308.408 245.742 308.443 242.896 308.467C239.321 308.502 235.714 308.513 232.085 308.525H228.557C224.315 308.525 220.097 308.502 215.925 308.455C214.264 308.432 212.603 308.42 210.943 308.385C208.085 308.35 205.239 308.303 202.428 308.248C197.746 308.155 193.122 308.042 188.549 307.901C174.21 307.465 160.413 306.794 147.329 305.94C149.255 300.744 151.73 295.812 154.717 291.2C157.762 286.471 161.321 282.104 165.321 278.139C169.161 274.346 173.403 270.923 177.988 267.96C182.257 265.196 186.818 262.822 191.613 260.884C201.032 257.083 211.36 254.982 222.206 254.982C230.264 254.982 238.03 256.135 245.352 258.303C250.225 259.718 254.896 261.597 259.321 263.87C264.128 266.315 268.634 269.227 272.786 272.537C277.141 276.018 281.118 279.937 284.634 284.225C290.12 290.946 294.463 298.564 297.402 306.829Z" fill="url(#paint9_linear_0_474)"/>
<path d="M300.202 253.668C300.202 264.596 291.344 273.457 280.412 273.457C269.484 273.457 260.627 264.596 260.627 253.668C260.627 242.74 269.484 233.882 280.412 233.882C291.344 233.882 300.202 242.74 300.202 253.668Z" fill="url(#paint10_linear_0_474)"/>
<path d="M474.306 4.8226C477.328 9.66469 475.799 16.0428 470.918 18.9941L194.206 186.288C191.469 187.941 187.914 187.091 186.225 184.377C184.533 181.668 185.337 178.101 188.027 176.374L460.092 1.62573C464.891 -1.45808 471.289 -0.0194894 474.306 4.8226Z" fill="url(#paint11_linear_0_474)"/>
<path d="M499.125 30.612C501.877 35.6139 500.01 41.8985 494.973 44.5807L209.617 196.658C206.795 198.163 203.29 197.122 201.75 194.323C200.21 191.524 201.204 188.003 203.98 186.424L485.105 26.651C490.064 23.8323 496.372 25.6139 499.125 30.612Z" fill="url(#paint12_linear_0_474)"/>
<path d="M226.525 286.517H212.693V191.426C212.693 188.249 210.108 185.66 206.931 185.66C203.754 185.66 201.169 188.249 201.169 191.426V274.993H187.337V191.426C187.337 180.619 196.124 171.828 206.931 171.828C217.738 171.828 226.525 180.619 226.525 191.426V286.517Z" fill="url(#paint13_linear_0_474)"/>
<path d="M415.862 290.888C412.162 292.061 407.979 293.192 403.344 294.287C398.665 295.383 393.527 296.432 387.956 297.434C382.17 298.471 375.925 299.465 369.273 300.373C360.396 301.609 350.794 302.716 340.584 303.695C336.537 304.085 332.4 304.455 328.166 304.79C323.465 305.18 318.634 305.539 313.714 305.874C308.389 306.217 302.946 306.541 297.402 306.829C282.744 307.59 267.332 308.108 251.367 308.35C248.568 308.408 245.742 308.443 242.896 308.467C239.321 308.502 235.715 308.513 232.085 308.525H228.557C224.315 308.525 220.097 308.502 215.925 308.455C214.264 308.432 212.604 308.42 210.943 308.385C208.085 308.354 205.239 308.307 202.428 308.248C203.336 306.221 204.327 304.213 205.368 302.241C207.59 298.011 210.081 293.933 212.814 290.011C215.118 286.681 217.598 283.477 220.249 280.401C227.496 271.952 235.956 264.506 245.352 258.303C250.966 254.592 256.904 251.328 263.137 248.564C263.944 248.194 264.763 247.851 265.582 247.504C270.471 245.449 275.531 243.699 280.728 242.284C286.077 240.806 291.574 239.687 297.2 238.95C302.697 238.202 308.322 237.82 314.038 237.82C338.545 237.82 361.367 244.818 380.478 256.853C394.548 265.714 406.618 277.321 415.862 290.888Z" fill="url(#paint14_linear_0_474)"/>
<path d="M403.343 294.287C398.665 295.383 393.523 296.432 387.956 297.434C382.17 298.471 375.924 299.465 369.273 300.373C360.396 301.609 350.794 302.716 340.58 303.695C336.537 304.085 332.396 304.455 328.166 304.79C323.465 305.18 318.634 305.539 313.714 305.874C308.389 306.217 302.946 306.541 297.402 306.829C282.74 307.589 267.328 308.108 251.367 308.35C248.564 308.408 245.742 308.443 242.896 308.467C239.321 308.502 235.714 308.513 232.081 308.525H228.557C224.315 308.525 220.097 308.502 215.921 308.455C217.582 305.227 219.414 302.092 221.399 299.059C223.668 295.59 226.147 292.26 228.822 289.079C237.27 278.97 247.609 270.393 259.321 263.87C264.783 260.814 270.549 258.198 276.552 256.089C282.073 254.143 287.792 252.619 293.695 251.559C298.903 250.603 304.252 250.015 309.702 249.82C311.145 249.75 312.587 249.726 314.038 249.726H314.213C319.987 249.738 325.66 250.178 331.192 251.028C360.891 255.535 386.63 271.59 403.343 294.287Z" fill="url(#paint15_linear_0_474)"/>
<path d="M369.273 300.373C360.396 301.609 350.794 302.712 340.58 303.695C336.537 304.085 332.396 304.455 328.166 304.79C323.465 305.18 318.634 305.539 313.714 305.87C308.389 306.217 302.946 306.541 297.402 306.829C282.74 307.59 267.328 308.108 251.367 308.35C259.987 297.699 271.445 289.297 284.63 284.225C289.82 282.233 295.281 280.744 300.942 279.835C305.207 279.153 309.578 278.798 314.038 278.798C315.063 278.798 316.088 278.818 317.102 278.853C322.244 279.04 327.258 279.707 332.1 280.79C346.346 283.995 359.118 290.888 369.273 300.373Z" fill="url(#paint16_linear_0_474)"/>
<path d="M242.896 308.467C239.321 308.502 235.714 308.513 232.081 308.525H228.557C224.315 308.525 220.097 308.502 215.921 308.455C214.26 308.432 212.603 308.42 210.943 308.385C208.085 308.35 205.239 308.303 202.424 308.248C197.746 308.155 193.122 308.042 188.545 307.901C174.21 307.465 160.413 306.794 147.329 305.94C141.762 305.574 136.331 305.168 131.04 304.732C126.109 304.326 121.302 303.89 116.631 303.43C112.378 303.001 108.241 302.564 104.23 302.092C100.853 301.699 97.5668 301.297 94.3622 300.872C86.5961 299.859 79.3447 298.74 72.6936 297.562C66.643 296.478 61.0874 295.336 56.0621 294.151C51.1732 292.985 46.7951 291.777 42.955 290.521C57.2824 273.944 76.2336 261.231 97.8904 254.245C109.984 250.338 122.916 248.217 136.354 248.194H136.53C142.12 248.194 147.629 248.56 153.021 249.266C153.185 249.29 153.344 249.301 153.496 249.336C159.906 250.186 166.151 251.535 172.202 253.336C178.947 255.305 185.434 257.855 191.613 260.884C202.128 266.05 211.761 272.631 220.245 280.401C223.254 283.141 226.124 286.034 228.822 289.079C232.038 292.666 235.013 296.42 237.742 300.365C239.574 302.989 241.293 305.687 242.896 308.467Z" fill="url(#paint17_linear_0_474)"/>
<path d="M228.557 308.521C224.315 308.521 220.097 308.498 215.921 308.455C214.26 308.432 212.603 308.42 210.943 308.385C208.085 308.35 205.239 308.303 202.424 308.244C197.746 308.155 193.122 308.038 188.545 307.901C174.21 307.461 160.413 306.794 147.329 305.94C141.762 305.574 136.331 305.168 131.04 304.732C126.109 304.326 121.302 303.89 116.631 303.43C112.378 303.001 108.241 302.564 104.23 302.092C100.853 301.699 97.5669 301.297 94.3622 300.868C86.5961 299.855 79.3447 298.736 72.6937 297.562C66.643 296.478 61.0875 295.336 56.0621 294.151C73.6254 275.753 97.867 263.41 125.06 260.677C128.83 260.295 132.654 260.1 136.53 260.1C138.187 260.1 139.847 260.135 141.485 260.213C147.617 260.467 153.621 261.219 159.454 262.428C165.863 263.742 172.054 265.597 177.992 267.96C191.048 273.114 202.853 280.654 212.814 290.011C215.855 292.849 218.724 295.878 221.399 299.059C223.968 302.081 226.354 305.239 228.557 308.521Z" fill="url(#paint18_linear_0_474)"/>
<path d="M188.545 307.901C174.206 307.461 160.409 306.794 147.325 305.94C141.758 305.574 136.331 305.168 131.04 304.732C126.105 304.326 121.298 303.89 116.631 303.43C112.378 303.001 108.241 302.564 104.23 302.092C100.849 301.699 97.5668 301.297 94.3622 300.868C98.1789 298.541 102.226 296.537 106.444 294.864C111.169 292.997 116.113 291.554 121.255 290.599C126.187 289.652 131.306 289.169 136.526 289.169C136.908 289.169 137.278 289.169 137.656 289.18C143.524 289.262 149.227 289.956 154.717 291.2C167.442 294.081 178.99 299.913 188.545 307.901Z" fill="url(#paint19_linear_0_474)"/>
<path d="M249.636 308.385C243.173 308.478 236.611 308.521 229.984 308.521C224.522 308.521 219.114 308.49 213.769 308.432C216.915 301.664 223.773 296.985 231.715 296.985C239.644 296.985 246.479 301.652 249.636 308.385Z" fill="url(#paint20_linear_0_474)"/>
<path d="M431.39 283.866C425.211 288.478 412.139 292.708 393.846 296.326C393.039 294.174 392.603 291.843 392.603 289.399C392.603 278.475 401.468 269.609 412.392 269.609C421.394 269.609 429.004 275.625 431.39 283.866Z" fill="url(#paint21_linear_0_474)"/>
<path d="M207.075 173.992C196.732 173.992 188.346 182.377 188.346 192.721C188.346 201.001 193.722 208.011 201.169 210.487V191.426C201.169 188.249 203.754 185.66 206.931 185.66C210.108 185.66 212.693 188.249 212.693 191.426V210.592C220.291 208.206 225.804 201.106 225.804 192.721C225.804 182.377 217.418 173.992 207.075 173.992Z" fill="url(#paint22_radial_0_474)"/>
</g>
<defs>
<radialGradient id="paint0_radial_0_474" cx="0" cy="0" r="1" gradientUnits="userSpaceOnUse" gradientTransform="translate(229.408 486.489) scale(92.7898 33.3672)">
<stop stop-color="#FFFCF8"/>
<stop offset="0.2378" stop-color="#FCF9F7"/>
<stop offset="0.4365" stop-color="#F1F2F3"/>
<stop offset="0.621" stop-color="#E0E5ED"/>
<stop offset="0.797" stop-color="#C8D2E5"/>
<stop offset="0.9655" stop-color="#A8BBDB"/>
<stop offset="1" stop-color="#A1B5D8"/>
</radialGradient>
<radialGradient id="paint1_radial_0_474" cx="0" cy="0" r="1" gradientUnits="userSpaceOnUse" gradientTransform="translate(153.909 161.743) scale(394.207)">
<stop stop-color="#FFFCF8"/>
<stop offset="0.4554" stop-color="#FDFBF7"/>
<stop offset="0.6194" stop-color="#F6F5F5"/>
<stop offset="0.7363" stop-color="#EBEDF1"/>
<stop offset="0.8309" stop-color="#DAE0EB"/>
<stop offset="0.9118" stop-color="#C4CFE4"/>
<stop offset="0.9822" stop-color="#A9BBDB"/>
<stop offset="1" stop-color="#A1B5D8"/>
</radialGradient>
<linearGradient id="paint2_linear_0_474" x1="221.159" y1="223.016" x2="251.128" y2="408.979" gradientUnits="userSpaceOnUse">
<stop stop-color="#FFFCF8"/>
<stop offset="0.1875" stop-color="#FAF8F6"/>
<stop offset="0.4041" stop-color="#ECEEF2"/>
<stop offset="0.6353" stop-color="#D5DCEA"/>
<stop offset="0.875" stop-color="#B5C4DF"/>
<stop offset="1" stop-color="#A1B5D8"/>
</linearGradient>
<linearGradient id="paint3_linear_0_474" x1="229.984" y1="357.696" x2="229.984" y2="141.35" gradientUnits="userSpaceOnUse">
<stop stop-color="#FFFCF8"/>
<stop offset="0.1875" stop-color="#FAF8F6"/>
<stop offset="0.4041" stop-color="#ECEEF2"/>
<stop offset="0.6353" stop-color="#D5DCEA"/>
<stop offset="0.875" stop-color="#B5C4DF"/>
<stop offset="1" stop-color="#A1B5D8"/>
</linearGradient>
<linearGradient id="paint4_linear_0_474" x1="171.775" y1="357.114" x2="372.366" y2="357.114" gradientUnits="userSpaceOnUse">
<stop stop-color="#FF6E3A"/>
<stop offset="0.1596" stop-color="#FF6440"/>
<stop offset="0.4266" stop-color="#FF4B52"/>
<stop offset="0.7662" stop-color="#FF216E"/>
<stop offset="1" stop-color="#FF0084"/>
</linearGradient>
<linearGradient id="paint5_linear_0_474" x1="171.775" y1="328.689" x2="372.366" y2="328.689" gradientUnits="userSpaceOnUse">
<stop stop-color="#FF6E3A"/>
<stop offset="0.1596" stop-color="#FF6440"/>
<stop offset="0.4266" stop-color="#FF4B52"/>
<stop offset="0.7662" stop-color="#FF216E"/>
<stop offset="1" stop-color="#FF0084"/>
</linearGradient>
<linearGradient id="paint6_linear_0_474" x1="122.927" y1="238.012" x2="135.312" y2="287.014" gradientUnits="userSpaceOnUse">
<stop stop-color="#C6E56F"/>
<stop offset="0.3371" stop-color="#C4E56F"/>
<stop offset="0.4953" stop-color="#BCE36E"/>
<stop offset="0.6162" stop-color="#AFE16D"/>
<stop offset="0.7182" stop-color="#9DDD6B"/>
<stop offset="0.8083" stop-color="#85D968"/>
<stop offset="0.8899" stop-color="#68D365"/>
<stop offset="0.9635" stop-color="#46CD61"/>
<stop offset="1" stop-color="#32C95F"/>
</linearGradient>
<linearGradient id="paint7_linear_0_474" x1="163.82" y1="215.218" x2="275.325" y2="368.838" gradientUnits="userSpaceOnUse">
<stop stop-color="#FFD459"/>
<stop offset="0.2296" stop-color="#FFD355"/>
<stop offset="0.4362" stop-color="#FFCF4A"/>
<stop offset="0.634" stop-color="#FFC838"/>
<stop offset="0.825" stop-color="#FFBF1F"/>
<stop offset="1" stop-color="#FFB400"/>
</linearGradient>
<linearGradient id="paint8_linear_0_474" x1="203.204" y1="228.159" x2="236.343" y2="359.275" gradientUnits="userSpaceOnUse">
<stop stop-color="#E58200" stop-opacity="0"/>
<stop offset="0.0396" stop-color="#E27F04" stop-opacity="0.039216"/>
<stop offset="0.4671" stop-color="#C15D2F" stop-opacity="0.466667"/>
<stop offset="0.8016" stop-color="#AD4949" stop-opacity="0.8"/>
<stop offset="1" stop-color="#A64153"/>
</linearGradient>
<linearGradient id="paint9_linear_0_474" x1="200.547" y1="256.355" x2="237.338" y2="340.317" gradientUnits="userSpaceOnUse">
<stop stop-color="#E58200" stop-opacity="0"/>
<stop offset="0.0396" stop-color="#E27F04" stop-opacity="0.039216"/>
<stop offset="0.4671" stop-color="#C15D2F" stop-opacity="0.466667"/>
<stop offset="0.8016" stop-color="#AD4949" stop-opacity="0.8"/>
<stop offset="1" stop-color="#A64153"/>
</linearGradient>
<linearGradient id="paint10_linear_0_474" x1="275.655" y1="234.842" x2="288.04" y2="283.844" gradientUnits="userSpaceOnUse">
<stop stop-color="#C6E56F"/>
<stop offset="0.3371" stop-color="#C4E56F"/>
<stop offset="0.4953" stop-color="#BCE36E"/>
<stop offset="0.6162" stop-color="#AFE16D"/>
<stop offset="0.7182" stop-color="#9DDD6B"/>
<stop offset="0.8083" stop-color="#85D968"/>
<stop offset="0.8899" stop-color="#68D365"/>
<stop offset="0.9635" stop-color="#46CD61"/>
<stop offset="1" stop-color="#32C95F"/>
</linearGradient>
<linearGradient id="paint11_linear_0_474" x1="328.582" y1="92.1953" x2="337.895" y2="105.598" gradientUnits="userSpaceOnUse">
<stop stop-color="#FF6E3A"/>
<stop offset="0.1596" stop-color="#FF6440"/>
<stop offset="0.4266" stop-color="#FF4B52"/>
<stop offset="0.7662" stop-color="#FF216E"/>
<stop offset="1" stop-color="#FF0084"/>
</linearGradient>
<linearGradient id="paint12_linear_0_474" x1="348.916" y1="109.955" x2="357.493" y2="123.842" gradientUnits="userSpaceOnUse">
<stop stop-color="#FF6E3A"/>
<stop offset="0.1596" stop-color="#FF6440"/>
<stop offset="0.4266" stop-color="#FF4B52"/>
<stop offset="0.7662" stop-color="#FF216E"/>
<stop offset="1" stop-color="#FF0084"/>
</linearGradient>
<linearGradient id="paint13_linear_0_474" x1="194.165" y1="174.168" x2="211.744" y2="253.99" gradientUnits="userSpaceOnUse">
<stop stop-color="#FFD459"/>
<stop offset="0.2296" stop-color="#FFD355"/>
<stop offset="0.4362" stop-color="#FFCF4A"/>
<stop offset="0.634" stop-color="#FFC838"/>
<stop offset="0.825" stop-color="#FFBF1F"/>
<stop offset="1" stop-color="#FFB400"/>
</linearGradient>
<linearGradient id="paint14_linear_0_474" x1="263.244" y1="236.287" x2="348.311" y2="353.483" gradientUnits="userSpaceOnUse">
<stop stop-color="#FFD459"/>
<stop offset="0.2296" stop-color="#FFD355"/>
<stop offset="0.4362" stop-color="#FFCF4A"/>
<stop offset="0.634" stop-color="#FFC838"/>
<stop offset="0.825" stop-color="#FFBF1F"/>
<stop offset="1" stop-color="#FFB400"/>
</linearGradient>
<linearGradient id="paint15_linear_0_474" x1="299.751" y1="247.388" x2="326.55" y2="393.776" gradientUnits="userSpaceOnUse">
<stop stop-color="#E58200" stop-opacity="0"/>
<stop offset="0.0396" stop-color="#E27F04" stop-opacity="0.039216"/>
<stop offset="0.4671" stop-color="#C15D2F" stop-opacity="0.466667"/>
<stop offset="0.8016" stop-color="#AD4949" stop-opacity="0.8"/>
<stop offset="1" stop-color="#A64153"/>
</linearGradient>
<linearGradient id="paint16_linear_0_474" x1="301.428" y1="288.969" x2="340.042" y2="355.823" gradientUnits="userSpaceOnUse">
<stop stop-color="#E58200" stop-opacity="0"/>
<stop offset="0.0396" stop-color="#E27F04" stop-opacity="0.039216"/>
<stop offset="0.4671" stop-color="#C15D2F" stop-opacity="0.466667"/>
<stop offset="0.8016" stop-color="#AD4949" stop-opacity="0.8"/>
<stop offset="1" stop-color="#A64153"/>
</linearGradient>
<linearGradient id="paint17_linear_0_474" x1="98.0416" y1="237.133" x2="188.815" y2="362.191" gradientUnits="userSpaceOnUse">
<stop stop-color="#FFD459"/>
<stop offset="0.2296" stop-color="#FFD355"/>
<stop offset="0.4362" stop-color="#FFCF4A"/>
<stop offset="0.634" stop-color="#FFC838"/>
<stop offset="0.825" stop-color="#FFBF1F"/>
<stop offset="1" stop-color="#FFB400"/>
</linearGradient>
<linearGradient id="paint18_linear_0_474" x1="140.425" y1="261.158" x2="146.188" y2="384.204" gradientUnits="userSpaceOnUse">
<stop stop-color="#E58200" stop-opacity="0"/>
<stop offset="0.0396" stop-color="#E27F04" stop-opacity="0.039216"/>
<stop offset="0.4671" stop-color="#C15D2F" stop-opacity="0.466667"/>
<stop offset="0.8016" stop-color="#AD4949" stop-opacity="0.8"/>
<stop offset="1" stop-color="#A64153"/>
</linearGradient>
<linearGradient id="paint19_linear_0_474" x1="134.351" y1="292.439" x2="166.049" y2="345.75" gradientUnits="userSpaceOnUse">
<stop stop-color="#E58200" stop-opacity="0"/>
<stop offset="0.0396" stop-color="#E27F04" stop-opacity="0.039216"/>
<stop offset="0.4671" stop-color="#C15D2F" stop-opacity="0.466667"/>
<stop offset="0.8016" stop-color="#AD4949" stop-opacity="0.8"/>
<stop offset="1" stop-color="#A64153"/>
</linearGradient>
<linearGradient id="paint20_linear_0_474" x1="228.877" y1="297.231" x2="233.9" y2="317.103" gradientUnits="userSpaceOnUse">
<stop stop-color="#C6E56F"/>
<stop offset="0.3371" stop-color="#C4E56F"/>
<stop offset="0.4953" stop-color="#BCE36E"/>
<stop offset="0.6162" stop-color="#AFE16D"/>
<stop offset="0.7182" stop-color="#9DDD6B"/>
<stop offset="0.8083" stop-color="#85D968"/>
<stop offset="0.8899" stop-color="#68D365"/>
<stop offset="0.9635" stop-color="#46CD61"/>
<stop offset="1" stop-color="#32C95F"/>
</linearGradient>
<linearGradient id="paint21_linear_0_474" x1="407.582" y1="270.416" x2="414.573" y2="298.076" gradientUnits="userSpaceOnUse">
<stop stop-color="#C6E56F"/>
<stop offset="0.3371" stop-color="#C4E56F"/>
<stop offset="0.4953" stop-color="#BCE36E"/>
<stop offset="0.6162" stop-color="#AFE16D"/>
<stop offset="0.7182" stop-color="#9DDD6B"/>
<stop offset="0.8083" stop-color="#85D968"/>
<stop offset="0.8899" stop-color="#68D365"/>
<stop offset="0.9635" stop-color="#46CD61"/>
<stop offset="1" stop-color="#32C95F"/>
</linearGradient>
<radialGradient id="paint22_radial_0_474" cx="0" cy="0" r="1" gradientUnits="userSpaceOnUse" gradientTransform="translate(204.866 190.706) scale(13.8901)">
<stop stop-color="#A64153"/>
<stop offset="1" stop-color="#FFC738" stop-opacity="0"/>
</radialGradient>
<clipPath id="clip0_0_474">
<rect width="511" height="511" fill="white"/>
</clipPath>
</defs>
</svg>
