<svg width="512" height="512" viewBox="0 0 512 512" fill="none" xmlns="http://www.w3.org/2000/svg">
<path d="M441.414 512H70.3633C53.0977 512 39.1016 498.004 39.1016 480.738V31.2617C39.1016 13.9961 53.0977 0 70.3633 0H441.414C458.68 0 472.676 13.9961 472.676 31.2617V480.738C472.676 498.004 458.68 512 441.414 512Z" fill="url(#paint0_linear_0_498)"/>
<path d="M472.676 480.738V61.3281L444.723 33.375C439.547 27.2422 431.812 23.3477 423.164 23.3477H88.6133C73.0391 23.3477 60.4102 35.9727 60.4102 51.5469V460.453C60.4102 469.102 64.3086 476.836 70.4375 482.012L100.43 512H441.414C458.68 512 472.676 498.004 472.676 480.738Z" fill="url(#paint1_linear_0_498)"/>
<path d="M39.1016 402.289V480.738C39.1016 498.004 53.0977 512 70.3633 512H441.414C458.68 512 472.676 498.004 472.676 480.738V402.289H39.1016Z" fill="url(#paint2_linear_0_498)"/>
<path d="M363.414 6.28906C360.152 2.44531 355.289 0 349.852 0H205.555C195.727 0 187.762 7.96875 187.762 17.793V41.0781C187.762 46.5156 190.207 51.375 194.051 54.6406L297.023 157.609C300.285 161.453 305.148 163.898 310.586 163.898H454.883C464.707 163.898 472.676 155.934 472.676 146.105V122.824C472.676 117.383 470.23 112.523 466.387 109.262L363.414 6.28906Z" fill="url(#paint3_linear_0_498)"/>
<path d="M423.164 488.652H88.6133C73.0391 488.652 60.4102 476.027 60.4102 460.453V51.5469C60.4102 35.9727 73.0391 23.3477 88.6133 23.3477H423.164C438.738 23.3477 451.367 35.9727 451.367 51.5469V460.453C451.367 476.027 438.738 488.652 423.164 488.652Z" fill="url(#paint4_linear_0_498)"/>
<path d="M451.367 95.8398L378.871 23.3477H119.738V41.0781C119.738 47.8594 123.539 53.7461 129.117 56.75C129.562 57.5742 130.07 58.3633 130.633 59.1055V61.3789C130.633 73.1484 136.312 83.6172 145.074 90.1836L451.363 396.477V95.8398H451.367Z" fill="url(#paint5_linear_0_498)"/>
<path d="M88.6133 488.652H423.164C438.738 488.652 451.367 476.027 451.367 460.453V431.297L397.703 377.637C392.543 371.961 385.102 368.398 376.828 368.398H60.4102V460.449C60.4102 476.027 73.0391 488.652 88.6133 488.652Z" fill="url(#paint6_linear_0_498)"/>
<path d="M376.832 368.398H67.2031C51.625 368.398 39 381.023 39 396.602V433.777C39 464.082 63.5703 488.652 93.8789 488.652H425.969C414.406 488.652 405.031 479.277 405.031 467.715V396.602C405.031 381.023 392.406 368.398 376.832 368.398Z" fill="url(#paint7_linear_0_498)"/>
<path d="M320.137 97.3672H166.621C146.777 97.3672 130.633 81.2227 130.633 61.3789V45.5781H146.988V61.3789C146.988 72.2031 155.793 81.0117 166.621 81.0117H320.137C330.961 81.0117 339.766 72.207 339.766 61.3789V45.5781H356.121V61.3789C356.121 81.2227 339.977 97.3672 320.137 97.3672Z" fill="url(#paint8_linear_0_498)"/>
<path d="M349.223 58.8711H137.531C127.703 58.8711 119.738 50.9062 119.738 41.0781V17.793C119.738 7.96875 127.703 0 137.531 0H349.227C359.051 0 367.02 7.96875 367.02 17.793V41.0781C367.02 50.9062 359.051 58.8711 349.223 58.8711Z" fill="url(#paint9_linear_0_498)"/>
<path d="M200.449 166.84H405.699V184.914H200.449V166.84Z" fill="url(#paint10_linear_0_498)"/>
<path d="M200.449 231.238H405.699V249.309H200.449V231.238Z" fill="url(#paint11_linear_0_498)"/>
<path d="M200.449 295.637H363.887V313.707H200.449V295.637Z" fill="url(#paint12_linear_0_498)"/>
<path d="M148.184 201.309H114.84C110.004 201.309 106.078 197.387 106.078 192.551V159.203C106.078 154.367 110.004 150.445 114.84 150.445H148.184C153.023 150.445 156.945 154.367 156.945 159.203V192.551C156.945 197.387 153.023 201.309 148.184 201.309Z" fill="url(#paint13_linear_0_498)"/>
<path d="M148.184 265.707H114.84C110.004 265.707 106.078 261.785 106.078 256.945V223.602C106.078 218.762 110.004 214.84 114.84 214.84H148.184C153.023 214.84 156.945 218.762 156.945 223.602V256.945C156.945 261.785 153.023 265.707 148.184 265.707Z" fill="url(#paint14_linear_0_498)"/>
<path d="M148.184 330.105H114.84C110.004 330.105 106.078 326.184 106.078 321.344V288C106.078 283.16 110.004 279.238 114.84 279.238H148.184C153.023 279.238 156.945 283.16 156.945 288V321.344C156.945 326.184 153.023 330.105 148.184 330.105Z" fill="url(#paint15_linear_0_498)"/>
<path d="M150.418 175.879L163.938 162.355C167.082 159.223 167.082 154.133 163.938 150.988L156.398 143.449C153.258 140.309 148.168 140.309 145.035 143.449L131.512 156.973L117.988 143.449C114.855 140.309 109.766 140.309 106.625 143.449L99.0859 150.988C95.9453 154.133 95.9453 159.223 99.0859 162.355L112.609 175.879L99.0312 189.453C95.9609 192.523 95.9609 197.5 99.0312 200.57L106.82 208.359C109.891 211.43 114.867 211.43 117.934 208.359L131.512 194.781L145.09 208.359C148.16 211.43 153.137 211.43 156.203 208.359L163.996 200.57C167.062 197.5 167.062 192.523 163.996 189.453L150.418 175.879Z" fill="url(#paint16_linear_0_498)"/>
<path d="M150.418 305.719L163.938 292.195C167.082 289.062 167.082 283.973 163.938 280.828L156.398 273.289C153.258 270.148 148.168 270.148 145.035 273.289L131.512 286.812L117.988 273.289C114.855 270.148 109.766 270.148 106.625 273.289L99.0859 280.828C95.9453 283.973 95.9453 289.062 99.0859 292.195L112.609 305.719L99.0312 319.297C95.9609 322.363 95.9609 327.34 99.0312 330.41L106.82 338.199C109.891 341.27 114.867 341.27 117.934 338.199L131.512 324.621L145.09 338.199C148.16 341.27 153.137 341.27 156.203 338.199L163.996 330.41C167.062 327.34 167.062 322.363 163.996 319.297L150.418 305.719Z" fill="url(#paint17_linear_0_498)"/>
<defs>
<linearGradient id="paint0_linear_0_498" x1="12.7077" y1="12.8187" x2="534.211" y2="534.322" gradientUnits="userSpaceOnUse">
<stop stop-color="#FFD459"/>
<stop offset="0.2296" stop-color="#FFD355"/>
<stop offset="0.4362" stop-color="#FFCF4A"/>
<stop offset="0.634" stop-color="#FFC838"/>
<stop offset="0.825" stop-color="#FFBF1F"/>
<stop offset="1" stop-color="#FFB400"/>
</linearGradient>
<linearGradient id="paint1_linear_0_498" x1="469.492" y1="469.603" x2="164.434" y2="164.546" gradientUnits="userSpaceOnUse">
<stop stop-color="#E58200" stop-opacity="0"/>
<stop offset="0.0396" stop-color="#E27F04" stop-opacity="0.039216"/>
<stop offset="0.4671" stop-color="#C15D2F" stop-opacity="0.466667"/>
<stop offset="0.8016" stop-color="#AD4949" stop-opacity="0.8"/>
<stop offset="1" stop-color="#A64153"/>
</linearGradient>
<linearGradient id="paint2_linear_0_498" x1="255.889" y1="481.883" x2="255.889" y2="533.122" gradientUnits="userSpaceOnUse">
<stop stop-color="#E58200" stop-opacity="0"/>
<stop offset="0.0396" stop-color="#E27F04" stop-opacity="0.039216"/>
<stop offset="0.4671" stop-color="#C15D2F" stop-opacity="0.466667"/>
<stop offset="0.8016" stop-color="#AD4949" stop-opacity="0.8"/>
<stop offset="1" stop-color="#A64153"/>
</linearGradient>
<linearGradient id="paint3_linear_0_498" x1="357.324" y1="141.525" x2="287.547" y2="-11.8389" gradientUnits="userSpaceOnUse">
<stop stop-color="#E58200" stop-opacity="0"/>
<stop offset="0.0396" stop-color="#E27F04" stop-opacity="0.039216"/>
<stop offset="0.4671" stop-color="#C15D2F" stop-opacity="0.466667"/>
<stop offset="0.8016" stop-color="#AD4949" stop-opacity="0.8"/>
<stop offset="1" stop-color="#A64153"/>
</linearGradient>
<linearGradient id="paint4_linear_0_498" x1="128.006" y1="63.763" x2="486.359" y2="602.448" gradientUnits="userSpaceOnUse">
<stop stop-color="#FFFCF8"/>
<stop offset="0.1875" stop-color="#FAF8F6"/>
<stop offset="0.4041" stop-color="#ECEEF2"/>
<stop offset="0.6353" stop-color="#D5DCEA"/>
<stop offset="0.875" stop-color="#B5C4DF"/>
<stop offset="1" stop-color="#A1B5D8"/>
</linearGradient>
<linearGradient id="paint5_linear_0_498" x1="319.108" y1="180.62" x2="170.033" y2="-311.779" gradientUnits="userSpaceOnUse">
<stop stop-color="#A1B5D8" stop-opacity="0"/>
<stop offset="0.0343" stop-color="#9FB3D5" stop-opacity="0.035294"/>
<stop offset="0.4515" stop-color="#8898AF" stop-opacity="0.45098"/>
<stop offset="0.788" stop-color="#798898" stop-opacity="0.788235"/>
<stop offset="1" stop-color="#748290"/>
</linearGradient>
<linearGradient id="paint6_linear_0_498" x1="362.468" y1="558.272" x2="236.531" y2="432.335" gradientUnits="userSpaceOnUse">
<stop stop-color="#A1B5D8" stop-opacity="0"/>
<stop offset="0.0343" stop-color="#9FB3D5" stop-opacity="0.035294"/>
<stop offset="0.4515" stop-color="#8898AF" stop-opacity="0.45098"/>
<stop offset="0.788" stop-color="#798898" stop-opacity="0.788235"/>
<stop offset="1" stop-color="#748290"/>
</linearGradient>
<linearGradient id="paint7_linear_0_498" x1="232.486" y1="431.725" x2="232.486" y2="514.627" gradientUnits="userSpaceOnUse">
<stop stop-color="#FFFCF8"/>
<stop offset="0.1875" stop-color="#FAF8F6"/>
<stop offset="0.4041" stop-color="#ECEEF2"/>
<stop offset="0.6353" stop-color="#D5DCEA"/>
<stop offset="0.875" stop-color="#B5C4DF"/>
<stop offset="1" stop-color="#A1B5D8"/>
</linearGradient>
<linearGradient id="paint8_linear_0_498" x1="243.377" y1="82.1023" x2="243.377" y2="103.37" gradientUnits="userSpaceOnUse">
<stop stop-color="#FFD459"/>
<stop offset="0.2296" stop-color="#FFD355"/>
<stop offset="0.4362" stop-color="#FFCF4A"/>
<stop offset="0.634" stop-color="#FFC838"/>
<stop offset="0.825" stop-color="#FFBF1F"/>
<stop offset="1" stop-color="#FFB400"/>
</linearGradient>
<linearGradient id="paint9_linear_0_498" x1="243.377" y1="14.5053" x2="243.377" y2="68.9944" gradientUnits="userSpaceOnUse">
<stop stop-color="#3B395F"/>
<stop offset="0.8022" stop-color="#1B1F3A"/>
<stop offset="1" stop-color="#131830"/>
</linearGradient>
<linearGradient id="paint10_linear_0_498" x1="255.559" y1="128.362" x2="464.502" y2="337.306" gradientUnits="userSpaceOnUse">
<stop stop-color="#3B395F"/>
<stop offset="0.8022" stop-color="#1B1F3A"/>
<stop offset="1" stop-color="#131830"/>
</linearGradient>
<linearGradient id="paint11_linear_0_498" x1="223.36" y1="160.561" x2="432.303" y2="369.505" gradientUnits="userSpaceOnUse">
<stop stop-color="#3B395F"/>
<stop offset="0.8022" stop-color="#1B1F3A"/>
<stop offset="1" stop-color="#131830"/>
</linearGradient>
<linearGradient id="paint12_linear_0_498" x1="180.708" y1="203.212" x2="389.652" y2="412.156" gradientUnits="userSpaceOnUse">
<stop stop-color="#3B395F"/>
<stop offset="0.8022" stop-color="#1B1F3A"/>
<stop offset="1" stop-color="#131830"/>
</linearGradient>
<linearGradient id="paint13_linear_0_498" x1="169.778" y1="214.143" x2="378.722" y2="423.086" gradientUnits="userSpaceOnUse">
<stop stop-color="#3B395F"/>
<stop offset="0.8022" stop-color="#1B1F3A"/>
<stop offset="1" stop-color="#131830"/>
</linearGradient>
<linearGradient id="paint14_linear_0_498" x1="137.579" y1="246.341" x2="346.523" y2="455.285" gradientUnits="userSpaceOnUse">
<stop stop-color="#3B395F"/>
<stop offset="0.8022" stop-color="#1B1F3A"/>
<stop offset="1" stop-color="#131830"/>
</linearGradient>
<linearGradient id="paint15_linear_0_498" x1="105.381" y1="278.54" x2="314.324" y2="487.484" gradientUnits="userSpaceOnUse">
<stop stop-color="#3B395F"/>
<stop offset="0.8022" stop-color="#1B1F3A"/>
<stop offset="1" stop-color="#131830"/>
</linearGradient>
<linearGradient id="paint16_linear_0_498" x1="111.791" y1="156.085" x2="163.26" y2="207.554" gradientUnits="userSpaceOnUse">
<stop stop-color="#FF6E3A"/>
<stop offset="0.1596" stop-color="#FF6440"/>
<stop offset="0.4266" stop-color="#FF4B52"/>
<stop offset="0.7662" stop-color="#FF216E"/>
<stop offset="1" stop-color="#FF0084"/>
</linearGradient>
<linearGradient id="paint17_linear_0_498" x1="111.791" y1="285.925" x2="163.26" y2="337.395" gradientUnits="userSpaceOnUse">
<stop stop-color="#FF6E3A"/>
<stop offset="0.1596" stop-color="#FF6440"/>
<stop offset="0.4266" stop-color="#FF4B52"/>
<stop offset="0.7662" stop-color="#FF216E"/>
<stop offset="1" stop-color="#FF0084"/>
</linearGradient>
</defs>
</svg>
