<svg width="511" height="511" viewBox="0 0 511 511" fill="none" xmlns="http://www.w3.org/2000/svg">
<g clip-path="url(#clip0_0_533)">
<path d="M155.258 457.321L70.8883 372.95L64.9897 378.849C50.5959 393.243 27.1808 393.243 12.7871 378.849C-1.60277 364.459 -1.60277 341.04 12.7871 326.65C27.1808 312.257 50.5959 312.257 64.9897 326.65L70.8883 332.549L134.12 269.317L154.319 289.52L91.0871 352.748L175.457 437.118L155.258 457.321ZM38.8884 344.413C36.7519 344.413 34.6155 345.223 32.9897 346.849C29.7383 350.105 29.7383 355.395 32.9897 358.646C36.2412 361.898 41.5355 361.898 44.787 358.646L50.6856 352.748L44.787 346.849C43.1613 345.223 41.0248 344.413 38.8884 344.413Z" fill="url(#paint0_linear_0_533)"/>
<path d="M91.0871 352.748L70.8883 372.95L155.258 457.321L175.457 437.118L91.0871 352.748Z" fill="url(#paint1_linear_0_533)"/>
<path d="M64.9897 326.65C52.6272 314.284 33.6058 312.553 19.368 321.43L50.6857 352.748L70.8883 332.549L64.9897 326.65Z" fill="url(#paint2_linear_0_533)"/>
<path d="M134.12 269.317L104.237 299.196L124.44 319.399L154.319 289.516L134.12 269.317Z" fill="url(#paint3_linear_0_533)"/>
<path d="M486.416 113.91C485.004 111.59 483.363 109.532 481.542 107.711C469.036 95.2045 448.123 94.5885 434.942 107.77L386.798 155.914C374.993 167.719 375.036 186.826 386.829 198.643C394.065 205.898 398.007 215.282 398.537 224.869C399.079 234.46 396.209 244.245 389.812 252.261L388.244 254.226C348.393 304.179 303.063 349.508 253.11 389.36L251.153 390.919C243.137 397.317 233.344 400.194 223.753 399.652C214.167 399.118 204.779 395.18 197.527 387.945C185.711 376.151 166.604 376.108 154.798 387.913L106.654 436.058C93.4731 449.239 94.0968 470.159 106.604 482.666C108.416 484.478 110.483 486.124 112.795 487.531C171.364 523.297 246.21 517.769 298.888 473.785C367.816 428.015 426.899 368.931 472.673 300.003L472.681 299.995C516.661 247.317 522.189 172.471 486.416 113.91Z" fill="url(#paint4_radial_0_533)"/>
<path d="M333.515 158.058C333.515 70.764 262.751 7.62939e-06 175.461 7.62939e-06C88.2489 7.62939e-06 17.3992 70.8459 17.3992 158.058C17.4031 245.352 88.167 316.116 175.457 316.116C197.703 316.116 218.869 311.512 238.069 303.22C240.833 302.023 244.038 302.615 246.167 304.74L263.656 322.229C268.26 326.834 276.132 323.574 276.132 317.064V283.302C276.132 281.189 277.036 279.177 278.634 277.797C312.241 248.814 333.515 205.922 333.515 158.058Z" fill="url(#paint5_radial_0_533)"/>
<path d="M278.631 277.801C293.866 264.662 306.553 248.658 315.886 230.639L153.921 68.6704C147.567 61.4385 139.403 57.0837 130.494 57.0837C110.253 57.0837 93.8434 79.5437 93.8434 107.247C93.8434 125.017 100.604 140.612 110.787 149.52C111.945 150.83 113.161 152.05 114.428 153.161C114.795 153.579 115.169 153.976 115.547 154.37L109.914 245.411C109.477 252.471 112.654 258.861 117.789 262.892L170.943 316.046C172.444 316.089 173.949 316.116 175.457 316.116C197.703 316.116 218.869 311.512 238.069 303.22C240.829 302.023 244.038 302.615 246.163 304.74L263.652 322.229C268.256 326.834 276.128 323.574 276.128 317.064V283.302C276.128 281.192 277.036 279.177 278.631 277.801Z" fill="url(#paint6_linear_0_533)"/>
<path d="M236.311 61.918V70.3546C235.625 69.5359 228.128 61.8595 226.475 61.1968C225.508 58.8069 223.208 57.0915 220.49 57.0837C220.467 57.0837 220.444 57.0837 220.424 57.0837C220.401 57.0837 220.377 57.0837 220.354 57.0837C216.755 57.0915 213.878 60.1012 213.878 63.6997V69.571C213.274 69.0993 206.288 61.6451 204.494 61.4151C204.101 57.9453 199.695 56.3975 197.266 59.1149C189.028 68.3157 183.773 91.5632 183.773 107.243C183.773 125.013 190.533 140.608 200.717 149.516C201.874 150.83 203.087 152.046 204.358 153.161C204.724 153.575 205.099 153.972 205.477 154.366L199.843 245.407C199.407 252.467 202.584 258.857 207.722 262.892L258.72 313.89C259.769 315.255 261.005 316.467 262.362 317.532C263.414 318.896 264.646 320.108 266.003 321.177C266.915 322.358 267.98 323.399 269.126 324.358C272.751 324.179 276.132 321.325 276.132 317.06V283.298C276.132 281.189 277.036 279.173 278.634 277.797C312.241 248.81 333.519 205.918 333.519 158.054C333.519 154.939 333.418 151.848 333.239 148.772L243.578 59.1188C241.032 56.2728 236.311 58.1012 236.311 61.918Z" fill="url(#paint7_linear_0_533)"/>
<path d="M167.145 107.247C167.145 79.5437 150.736 57.0837 130.494 57.0837C110.253 57.0837 93.8434 79.5437 93.8434 107.247C93.8434 127.703 102.795 145.29 115.625 153.095L109.914 245.411C109.181 257.274 118.604 267.302 130.494 267.302C142.381 267.302 151.808 257.274 151.071 245.411L145.36 153.095C158.194 145.29 167.145 127.703 167.145 107.247Z" fill="url(#paint8_linear_0_533)"/>
<path d="M257.075 107.247C257.075 91.5632 251.816 68.3157 243.582 59.1188C241.032 56.2728 236.315 58.1012 236.315 61.918V113.602C236.315 116.16 234.342 118.39 231.785 118.468C229.137 118.546 226.966 116.425 226.966 113.797V63.6997C226.966 60.1012 224.093 57.0915 220.49 57.0837C220.471 57.0837 220.447 57.0837 220.424 57.0837C220.401 57.0837 220.377 57.0837 220.358 57.0837C216.755 57.0915 213.882 60.1012 213.882 63.6997V113.602C213.882 116.16 211.909 118.39 209.352 118.468C206.705 118.546 204.533 116.425 204.533 113.797V61.918C204.533 58.1012 199.816 56.2728 197.266 59.1188C189.032 68.3157 183.773 91.5632 183.773 107.247C183.773 127.703 192.724 145.29 205.559 153.095L199.843 245.411C199.11 257.274 208.537 267.302 220.424 267.302C232.311 267.302 241.738 257.274 241.005 245.411L235.29 153.095C248.124 145.29 257.075 127.703 257.075 107.247Z" fill="url(#paint9_linear_0_533)"/>
</g>
<defs>
<linearGradient id="paint0_linear_0_533" x1="88.7272" y1="294.84" x2="88.7272" y2="406.697" gradientUnits="userSpaceOnUse">
<stop stop-color="#FFD459"/>
<stop offset="0.2296" stop-color="#FFD355"/>
<stop offset="0.4362" stop-color="#FFCF4A"/>
<stop offset="0.634" stop-color="#FFC838"/>
<stop offset="0.825" stop-color="#FFBF1F"/>
<stop offset="1" stop-color="#FFB400"/>
</linearGradient>
<linearGradient id="paint1_linear_0_533" x1="94.8819" y1="376.743" x2="47.1781" y2="329.04" gradientUnits="userSpaceOnUse">
<stop stop-color="#E58200" stop-opacity="0"/>
<stop offset="0.0396" stop-color="#E27F04" stop-opacity="0.039216"/>
<stop offset="0.4671" stop-color="#C15D2F" stop-opacity="0.466667"/>
<stop offset="0.8016" stop-color="#AD4949" stop-opacity="0.8"/>
<stop offset="1" stop-color="#A64153"/>
</linearGradient>
<linearGradient id="paint2_linear_0_533" x1="46.0688" y1="333.747" x2="84.9236" y2="346.508" gradientUnits="userSpaceOnUse">
<stop stop-color="#E58200" stop-opacity="0"/>
<stop offset="0.3273" stop-color="#CD6920" stop-opacity="0.32549"/>
<stop offset="0.7671" stop-color="#B14C45" stop-opacity="0.768627"/>
<stop offset="1" stop-color="#A64153"/>
</linearGradient>
<linearGradient id="paint3_linear_0_533" x1="149.893" y1="314.97" x2="102.759" y2="267.836" gradientUnits="userSpaceOnUse">
<stop stop-color="#E58200" stop-opacity="0"/>
<stop offset="0.3273" stop-color="#CD6920" stop-opacity="0.32549"/>
<stop offset="0.7671" stop-color="#B14C45" stop-opacity="0.768627"/>
<stop offset="1" stop-color="#A64153"/>
</linearGradient>
<radialGradient id="paint4_radial_0_533" cx="0" cy="0" r="1" gradientUnits="userSpaceOnUse" gradientTransform="translate(203.556 194.518) scale(326.422)">
<stop stop-color="#FF6E3A"/>
<stop offset="0.1874" stop-color="#FF6A3D"/>
<stop offset="0.3792" stop-color="#FF5E45"/>
<stop offset="0.5732" stop-color="#FF4953"/>
<stop offset="0.7686" stop-color="#FF2C66"/>
<stop offset="0.9633" stop-color="#FF087F"/>
<stop offset="1" stop-color="#FF0084"/>
</radialGradient>
<radialGradient id="paint5_radial_0_533" cx="0" cy="0" r="1" gradientUnits="userSpaceOnUse" gradientTransform="translate(158.784 134.52) scale(184.754)">
<stop stop-color="#3B395F"/>
<stop offset="0.5234" stop-color="#39385D"/>
<stop offset="0.7119" stop-color="#343356"/>
<stop offset="0.8463" stop-color="#2A2B4B"/>
<stop offset="0.9541" stop-color="#1B1F3A"/>
<stop offset="1" stop-color="#131830"/>
</radialGradient>
<linearGradient id="paint6_linear_0_533" x1="266.493" y1="296.464" x2="53.761" y2="83.7314" gradientUnits="userSpaceOnUse">
<stop stop-color="#3B395F" stop-opacity="0"/>
<stop offset="0.0633" stop-color="#37355A" stop-opacity="0.062745"/>
<stop offset="0.4033" stop-color="#232543" stop-opacity="0.403922"/>
<stop offset="0.7232" stop-color="#171B35" stop-opacity="0.721569"/>
<stop offset="1" stop-color="#131830"/>
</linearGradient>
<linearGradient id="paint7_linear_0_533" x1="313.746" y1="249.211" x2="101.014" y2="36.4785" gradientUnits="userSpaceOnUse">
<stop stop-color="#3B395F" stop-opacity="0"/>
<stop offset="0.0633" stop-color="#37355A" stop-opacity="0.062745"/>
<stop offset="0.4033" stop-color="#232543" stop-opacity="0.403922"/>
<stop offset="0.7232" stop-color="#171B35" stop-opacity="0.721569"/>
<stop offset="1" stop-color="#131830"/>
</linearGradient>
<linearGradient id="paint8_linear_0_533" x1="93.843" y1="162.193" x2="167.146" y2="162.193" gradientUnits="userSpaceOnUse">
<stop stop-color="#FFFCF8"/>
<stop offset="0.1875" stop-color="#FAF8F6"/>
<stop offset="0.4041" stop-color="#ECEEF2"/>
<stop offset="0.6353" stop-color="#D5DCEA"/>
<stop offset="0.875" stop-color="#B5C4DF"/>
<stop offset="1" stop-color="#A1B5D8"/>
</linearGradient>
<linearGradient id="paint9_linear_0_533" x1="183.772" y1="162.193" x2="257.075" y2="162.193" gradientUnits="userSpaceOnUse">
<stop stop-color="#FFFCF8"/>
<stop offset="0.1875" stop-color="#FAF8F6"/>
<stop offset="0.4041" stop-color="#ECEEF2"/>
<stop offset="0.6353" stop-color="#D5DCEA"/>
<stop offset="0.875" stop-color="#B5C4DF"/>
<stop offset="1" stop-color="#A1B5D8"/>
</linearGradient>
<clipPath id="clip0_0_533">
<rect width="511" height="511" fill="white"/>
</clipPath>
</defs>
</svg>
