<svg width="512" height="512" viewBox="0 0 512 512" fill="none" xmlns="http://www.w3.org/2000/svg">
<g clip-path="url(#clip0_0_544)">
<path d="M377.062 512H134.004C109.148 512 89 491.852 89 466.996V45.0039C89 20.1484 109.148 0 134.004 0H377.062C401.918 0 422.07 20.1484 422.07 45.0039V466.996C422.07 491.852 401.918 512 377.062 512Z" fill="url(#paint0_linear_0_544)"/>
<path d="M89 426.441V466.996C89 491.852 109.148 512 134.004 512H377.062C401.918 512 422.07 491.852 422.07 466.996V426.441H89Z" fill="url(#paint1_linear_0_544)"/>
<path d="M106.961 426.441H404.105C407.992 426.441 411.141 423.289 411.141 419.406V71.9375C411.141 68.0547 407.992 64.9023 404.105 64.9023H106.961C103.074 64.9023 99.9258 68.0547 99.9258 71.9375V419.406C99.9258 423.289 103.078 426.441 106.961 426.441Z" fill="url(#paint2_linear_0_544)"/>
<path d="M329.191 99.7422C327.813 97.2188 325.137 95.5078 322.059 95.5078H315.094C309.934 90.1992 302.23 87.5156 294.344 89.2188L294.305 89.2266C292.734 89.5664 291.156 89.7305 289.59 89.7305C288.289 89.7305 286.996 89.6172 285.723 89.3906C283.563 89.0117 281.473 88.3164 279.516 87.3281C279.516 87.3281 279.516 87.3281 279.508 87.3281C277.969 86.5469 276.527 85.5664 275.188 84.4336C274.664 83.8906 274.113 83.3789 273.551 82.9023C273.277 82.6172 272.996 82.3477 272.734 82.0508C268.289 76.9336 262.086 74.3672 255.875 74.3672C250.742 74.3672 245.602 76.1328 241.453 79.6562C239.668 79.332 237.832 79.1523 235.949 79.1523C227.477 79.1523 219.816 82.6172 214.297 88.2031C213.691 88.1562 213.086 88.1211 212.484 88.1211C206.066 88.1211 200.094 90.9219 195.945 95.5078H188.695C184.207 95.5078 180.57 99.1445 180.57 103.633V124.473C179.398 125.262 178.145 125.953 176.813 126.52L176.781 126.531C164.414 131.789 159.457 146.691 166.207 158.309L166.23 158.352C167.469 160.484 168.305 162.777 168.781 165.125C168.754 165.234 168.715 165.34 168.699 165.457C168.168 169.406 167.891 173.441 167.891 177.535C167.891 190.238 170.527 202.32 175.277 213.277C175.203 213.855 175.309 214.461 175.633 215.008C179.828 222.039 184.965 228.441 190.855 234.062L353.004 396.215C367.504 411.527 387.332 421.742 409.52 423.898C410.531 422.68 411.141 421.113 411.141 419.406V181.691L329.191 99.7422Z" fill="url(#paint3_linear_0_544)"/>
<path d="M411.141 310.148C395.363 294.359 377.91 276.906 377.617 276.637C373.77 272.375 368.223 269.68 362.031 269.68H149.039C137.441 269.68 128.035 279.082 128.035 290.684V326.84C128.035 333.035 130.734 338.582 134.996 342.426C135.484 342.969 211.539 419.023 212.082 419.512C215.926 423.777 221.473 426.473 227.668 426.473H411.141V310.148Z" fill="url(#paint4_linear_0_544)"/>
<path d="M362.027 347.848H149.039C137.441 347.848 128.035 338.441 128.035 326.84V290.684C128.035 279.082 137.441 269.68 149.039 269.68H362.027C373.629 269.68 383.031 279.082 383.031 290.684V326.84C383.031 338.441 373.629 347.848 362.027 347.848Z" fill="url(#paint5_linear_0_544)"/>
<path d="M281.105 469.219C281.105 483.34 269.656 494.789 255.535 494.789C241.414 494.789 229.965 483.34 229.965 469.219C229.965 455.098 241.414 443.648 255.535 443.648C269.656 443.648 281.105 455.098 281.105 469.219Z" fill="url(#paint6_linear_0_544)"/>
<path d="M303.582 41.1602H202.34C196.969 41.1602 192.613 36.8086 192.613 31.4336C192.613 26.0625 196.969 21.707 202.34 21.707H303.582C308.953 21.707 313.309 26.0625 313.309 31.4336C313.309 36.8086 308.953 41.1602 303.582 41.1602Z" fill="url(#paint7_linear_0_544)"/>
<path d="M330.184 103.633V213.586C322.609 226.652 311.715 237.547 298.645 245.121H212.105C199.039 237.551 188.141 226.652 180.57 213.586V103.633C180.57 99.1445 184.207 95.5078 188.691 95.5078H322.059C326.543 95.5078 330.184 99.1445 330.184 103.633Z" fill="url(#paint8_linear_0_544)"/>
<path d="M344.711 159.523L344.684 159.578C343.141 162.145 342.164 164.941 341.742 167.805C341.437 169.871 341.422 171.961 341.699 174.031C341.098 188.398 336.977 201.867 330.184 213.586C329.113 215.43 327.98 217.23 326.785 218.98C325.281 220.504 324.004 222.23 322.996 224.117C316.281 232.543 308.023 239.688 298.645 245.121C294.203 247.695 289.516 249.883 284.621 251.641C282.457 251.992 280.355 252.656 278.387 253.617C271.059 255.645 263.344 256.719 255.375 256.719C247.004 256.719 238.906 255.527 231.246 253.301C231.242 253.301 231.242 253.301 231.242 253.301C229.281 252.312 227.191 251.617 225.031 251.238C220.531 249.555 216.215 247.504 212.105 245.121C202.375 239.48 193.844 232 187 223.148C186.027 221.277 184.793 219.547 183.328 218.027C182.367 216.574 181.445 215.098 180.57 213.582C173.586 201.539 169.43 187.648 169.008 172.82C169.316 170.758 169.328 168.668 169.051 166.598C168.672 163.738 167.727 160.93 166.23 158.352L166.203 158.309C159.457 146.688 164.414 131.789 176.777 126.531L176.812 126.516C179.539 125.359 181.957 123.691 183.969 121.648C185.473 120.129 186.75 118.398 187.754 116.512C189.121 113.98 189.996 111.172 190.297 108.211C191.477 96.5664 201.316 88.1211 212.484 88.1211C214.152 88.1211 215.844 88.3086 217.547 88.6992V88.707C220.414 89.3672 223.328 89.4414 226.133 88.9883C228.297 88.6367 230.398 87.9727 232.363 87.0117C234.926 85.7617 237.262 84.0156 239.227 81.8203C243.668 76.8477 249.773 74.3672 255.875 74.3672C262.082 74.3672 268.285 76.9336 272.734 82.0508C274.664 84.2695 276.969 86.043 279.508 87.3281H279.512C281.469 88.3164 283.562 89.0117 285.723 89.3906C286.996 89.6133 288.289 89.7305 289.59 89.7305C291.156 89.7305 292.734 89.5664 294.305 89.2266L294.344 89.2188C307.473 86.3828 320.121 95.6992 321.309 109.082L321.312 109.133C321.574 112.098 322.418 114.926 323.754 117.48C324.727 119.352 325.961 121.078 327.426 122.602C329.406 124.68 331.812 126.391 334.531 127.59L334.582 127.613C346.867 133.043 351.613 148.008 344.711 159.523Z" fill="url(#paint9_linear_0_544)"/>
<path d="M266.387 109.59C266.387 126.402 252.758 140.027 235.949 140.027C219.137 140.027 205.512 126.402 205.512 109.59C205.512 92.7812 219.137 79.1523 235.949 79.1523C252.758 79.1523 266.387 92.7812 266.387 109.59Z" fill="url(#paint10_linear_0_544)"/>
<path d="M333.406 132.668C333.406 149.48 319.777 163.105 302.969 163.105C286.156 163.105 272.531 149.48 272.531 132.668C272.531 115.859 286.156 102.23 302.969 102.23C319.777 102.23 333.406 115.859 333.406 132.668Z" fill="url(#paint11_linear_0_544)"/>
<path d="M339.469 170.316C339.469 216.758 301.82 254.406 255.375 254.406C208.934 254.406 171.285 216.758 171.285 170.316C171.285 123.871 208.934 86.2227 255.375 86.2227C301.82 86.2227 339.469 123.871 339.469 170.316Z" fill="url(#paint12_radial_0_544)"/>
<path d="M190.309 143.859C189.449 143 188.059 143 187.199 143.859C186.344 144.719 186.344 146.109 187.199 146.965C188.059 147.824 189.449 147.824 190.309 146.965C191.168 146.109 191.168 144.719 190.309 143.859Z" fill="#FFB211"/>
<path d="M209.418 129.957C208.059 128.598 205.855 128.598 204.496 129.957C203.137 131.316 203.137 133.52 204.496 134.879C205.855 136.238 208.059 136.238 209.418 134.879C210.777 133.52 210.777 131.316 209.418 129.957Z" fill="#FFB211"/>
<path d="M197.57 128.066C195.477 125.977 192.09 125.977 189.996 128.066C187.906 130.156 187.906 133.547 189.996 135.637C192.09 137.727 195.477 137.727 197.57 135.637C199.66 133.547 199.66 130.156 197.57 128.066Z" fill="#FFB211"/>
<path d="M321.219 134.41C318.793 133.711 316.258 135.105 315.555 137.531C314.851 139.957 316.25 142.496 318.676 143.195C321.101 143.898 323.637 142.5 324.34 140.074C325.043 137.648 323.644 135.113 321.219 134.41Z" fill="#FFB211"/>
<path d="M306.383 139.75C302.652 138.668 298.75 140.82 297.672 144.551C296.59 148.285 298.738 152.184 302.473 153.266C306.203 154.344 310.106 152.195 311.184 148.465C312.266 144.73 310.117 140.832 306.383 139.75Z" fill="#FFB211"/>
<path d="M333.406 170.316C333.406 213.41 298.473 248.344 255.375 248.344C212.281 248.344 177.348 213.41 177.348 170.316C177.348 127.223 212.281 92.2852 255.375 92.2852C298.473 92.2852 333.406 127.223 333.406 170.316Z" fill="url(#paint13_radial_0_544)"/>
<path d="M335.512 195.855L179.852 133.309C174.367 144.473 171.285 157.035 171.285 170.316C171.285 216.758 208.934 254.406 255.375 254.406C292.914 254.406 324.699 229.809 335.512 195.855Z" fill="url(#paint14_linear_0_544)"/>
<path d="M328.746 129.203L172.367 183.793C178.816 223.828 213.523 254.406 255.375 254.406C301.82 254.406 339.469 216.758 339.469 170.316C339.469 155.383 335.57 141.359 328.746 129.203Z" fill="url(#paint15_linear_0_544)"/>
<path d="M342.867 168.992C342.867 164.895 342.59 160.863 342.055 156.91C341.828 155.203 340.07 154.148 338.445 154.715L177.094 211.043C175.465 211.609 174.75 213.527 175.633 215.008C191.328 241.313 220.066 258.934 252.922 258.934C302.598 258.934 342.867 218.664 342.867 168.992Z" fill="url(#paint16_linear_0_544)"/>
<path d="M177.094 211.039L243.137 187.984L172.309 163.262C170.684 162.695 168.926 163.75 168.699 165.457C168.164 169.41 167.887 173.441 167.887 177.535C167.887 190.238 170.527 202.32 175.277 213.277C175.406 212.293 176.066 211.398 177.094 211.039Z" fill="url(#paint17_linear_0_544)"/>
<path d="M338.445 154.715L306.215 165.965V207.703L327.359 219.488C337.145 205.094 342.863 187.711 342.863 168.992C342.863 164.895 342.586 160.863 342.055 156.91C341.828 155.203 340.07 154.148 338.445 154.715Z" fill="url(#paint18_linear_0_544)"/>
<path d="M342.055 156.902C341.824 155.199 340.07 154.148 338.449 154.715L177.094 211.039C176.066 211.398 175.406 212.293 175.277 213.277L238.836 197.008C258.457 191.988 279.23 194.211 297.348 203.266L307.105 208.145C310.613 209.898 314.875 208.684 316.934 205.348L339.52 168.711C341.68 165.211 342.613 161.078 342.07 157.004C342.066 156.969 342.059 156.938 342.055 156.902Z" fill="url(#paint19_linear_0_544)"/>
<path d="M239.613 142.957C239.297 142.438 238.902 142.121 238.473 142.121C237.438 142.121 236.602 143.914 236.602 146.121C236.602 148.035 237.23 149.633 238.074 150.023L275.188 187.137C275.504 187.66 275.898 187.973 276.328 187.973C277.363 187.973 278.199 186.184 278.199 183.977C278.199 182.062 277.57 180.465 276.727 180.074L239.613 142.957Z" fill="url(#paint20_linear_0_544)"/>
<path d="M275.223 150.469C274.906 149.949 274.512 149.633 274.082 149.633C273.047 149.633 272.211 151.422 272.211 153.633C272.211 155.547 272.84 157.145 273.68 157.535L310.797 194.648C311.113 195.172 311.508 195.484 311.938 195.484C312.973 195.484 313.809 193.695 313.809 191.488C313.809 189.574 313.18 187.977 312.336 187.582L275.223 150.469Z" fill="url(#paint21_linear_0_544)"/>
<path d="M245.406 163.605C244.09 162.105 242.508 161.379 241.754 161.973C240.941 162.613 241.391 164.535 242.758 166.273C243.086 166.688 243.434 167.055 243.789 167.363L280.906 204.48C282.223 205.98 283.801 206.707 284.559 206.113C285.367 205.473 284.922 203.547 283.555 201.812L245.406 163.605Z" fill="url(#paint22_linear_0_544)"/>
<path d="M275.258 166.957C273.945 165.453 272.363 164.727 271.609 165.32C270.797 165.961 271.246 167.887 272.609 169.621L310.762 207.828C312.078 209.328 313.656 210.055 314.41 209.461C315.223 208.82 314.774 206.895 313.41 205.16C313.082 204.746 312.731 204.379 312.375 204.07L275.258 166.957Z" fill="url(#paint23_linear_0_544)"/>
<path d="M268.695 142.406C267.953 141.684 266.105 142.387 264.566 143.969C263.027 145.551 262.379 147.418 263.121 148.141L300.977 185.996C301.719 186.719 303.566 186.02 305.105 184.434C306.645 182.852 307.293 180.984 306.551 180.262L268.695 142.406Z" fill="url(#paint24_linear_0_544)"/>
<path d="M255.895 174.133C255.152 173.41 253.305 174.109 251.766 175.695C250.227 177.277 249.578 179.145 250.32 179.867L288.176 217.723C288.918 218.441 290.766 217.742 292.305 216.16C293.844 214.578 294.492 212.711 293.75 211.988L255.895 174.133Z" fill="url(#paint25_linear_0_544)"/>
<path d="M255.856 155.918C255.336 155.211 254.289 154.5 252.973 154.051C250.883 153.34 248.918 153.555 248.586 154.531C248.387 155.113 248.813 155.832 249.625 156.473L286.738 193.586C287.254 194.293 288.305 195 289.621 195.449C291.711 196.164 293.676 195.949 294.008 194.969C294.207 194.387 293.781 193.668 292.969 193.031L255.856 155.918Z" fill="url(#paint26_linear_0_544)"/>
<path d="M235.723 166.059C234.98 165.336 233.133 166.035 231.594 167.617C230.055 169.203 229.406 171.07 230.144 171.789L268.004 209.648C268.742 210.367 270.594 209.668 272.133 208.086C273.672 206.5 274.32 204.633 273.578 203.914L235.723 166.059Z" fill="url(#paint27_linear_0_544)"/>
<path d="M263.418 162.609C263.102 162.09 262.707 161.773 262.277 161.773C261.242 161.773 260.406 163.566 260.406 165.773C260.406 167.687 261.035 169.285 261.879 169.676L298.992 206.789C299.309 207.312 299.703 207.629 300.133 207.629C301.168 207.629 302.004 205.836 302.004 203.629C302.004 201.715 301.375 200.117 300.535 199.727L263.418 162.609Z" fill="url(#paint28_linear_0_544)"/>
<path d="M240.344 146.121C240.344 143.91 239.504 142.121 238.473 142.121C237.438 142.121 236.602 143.91 236.602 146.121C236.602 148.328 237.438 150.117 238.473 150.117C239.504 150.117 240.344 148.328 240.344 146.121Z" fill="url(#paint29_linear_0_544)"/>
<path d="M264.148 165.773C264.148 163.566 263.309 161.773 262.277 161.773C261.242 161.773 260.406 163.566 260.406 165.773C260.406 167.98 261.242 169.77 262.277 169.77C263.309 169.77 264.148 167.98 264.148 165.773Z" fill="url(#paint30_linear_0_544)"/>
<path d="M275.953 153.633C275.953 151.426 275.113 149.633 274.082 149.633C273.047 149.633 272.211 151.426 272.211 153.633C272.211 155.84 273.047 157.629 274.082 157.629C275.113 157.629 275.953 155.84 275.953 153.633Z" fill="url(#paint31_linear_0_544)"/>
<path d="M245.699 163.957C247.063 165.691 247.512 167.617 246.699 168.254C245.891 168.895 244.121 168.008 242.758 166.273C241.391 164.535 240.945 162.613 241.754 161.973C242.566 161.332 244.332 162.223 245.699 163.957Z" fill="url(#paint32_linear_0_544)"/>
<path d="M275.551 167.305C276.918 169.039 277.367 170.965 276.555 171.602C275.742 172.242 273.977 171.355 272.609 169.621C271.246 167.887 270.797 165.961 271.609 165.32C272.422 164.68 274.184 165.57 275.551 167.305Z" fill="url(#paint33_linear_0_544)"/>
<path d="M267.25 146.578C265.711 148.16 263.863 148.859 263.121 148.137C262.379 147.418 263.027 145.551 264.566 143.969C266.105 142.383 267.953 141.684 268.695 142.406C269.437 143.125 268.789 144.992 267.25 146.578Z" fill="url(#paint34_linear_0_544)"/>
<path d="M254.449 178.305C252.91 179.887 251.062 180.586 250.32 179.867C249.578 179.145 250.227 177.277 251.766 175.695C253.305 174.109 255.152 173.414 255.895 174.133C256.637 174.852 255.988 176.719 254.449 178.305Z" fill="url(#paint35_linear_0_544)"/>
<path d="M251.766 157.594C249.676 156.883 248.25 155.512 248.586 154.535C248.918 153.555 250.883 153.34 252.973 154.055C255.062 154.766 256.484 156.137 256.152 157.113C255.82 158.09 253.855 158.309 251.766 157.594Z" fill="url(#paint36_linear_0_544)"/>
<path d="M234.277 170.227C232.738 171.812 230.887 172.512 230.145 171.789C229.406 171.07 230.051 169.203 231.594 167.617C233.133 166.035 234.98 165.336 235.723 166.059C236.461 166.777 235.816 168.645 234.277 170.227Z" fill="url(#paint37_linear_0_544)"/>
<path d="M156.082 319.539V297.988C156.082 285.992 163.266 281.473 172.668 281.473C182 281.473 189.328 285.992 189.328 297.988V319.539C189.328 331.531 182 336.051 172.668 336.051C163.262 336.051 156.082 331.531 156.082 319.539ZM181.48 297.988C181.48 291.469 178.148 288.434 172.668 288.434C167.113 288.434 163.93 291.469 163.93 297.988V319.539C163.93 326.055 167.113 329.09 172.668 329.09C178.148 329.09 181.48 326.055 181.48 319.539V297.988Z" fill="white"/>
<path d="M198.516 283.992C198.516 282.656 199.551 281.473 201.105 281.473H215.176C224.508 281.473 232.207 285.102 232.207 296.582C232.207 305.395 227.691 309.762 221.766 311.242L232.133 330.719C232.355 331.09 232.43 331.531 232.43 331.832C232.43 333.828 229.91 335.828 227.691 335.828C226.355 335.828 225.32 334.941 224.578 333.535L213.766 312.355H206.289V333.016C206.289 334.719 204.363 335.605 202.363 335.605C200.438 335.605 198.512 334.719 198.512 333.016V283.992H198.516ZM206.289 288.434V306.059H215.176C220.73 306.059 224.359 303.691 224.359 297.246C224.359 290.805 220.73 288.434 215.176 288.434H206.289Z" fill="white"/>
<path d="M256.496 281.473C265.902 281.473 273.16 285.992 273.16 297.988V319.09C273.16 331.086 265.902 335.605 256.496 335.605H243.391C241.316 335.605 239.91 334.422 239.91 333.086V283.992C239.91 282.656 241.316 281.473 243.391 281.473H256.496ZM247.758 288.434V328.645H256.496C262.051 328.645 265.309 325.609 265.309 319.09V297.988C265.309 291.469 262.051 288.434 256.496 288.434H247.758Z" fill="white"/>
<path d="M290.191 305.395H301.598C303.227 305.395 304.188 306.875 304.188 308.578C304.188 309.984 303.375 311.613 301.598 311.613H290.191V328.645H312.188C313.816 328.645 314.777 330.273 314.777 332.199C314.777 333.828 313.965 335.605 312.188 335.605H285.824C284.121 335.605 282.344 334.719 282.344 333.016V284.066C282.344 282.363 284.121 281.473 285.824 281.473H312.188C313.961 281.473 314.777 283.25 314.777 284.879C314.777 286.805 313.816 288.434 312.188 288.434H290.191V305.395Z" fill="white"/>
<path d="M321.074 283.992C321.074 282.656 322.109 281.473 323.664 281.473H337.734C347.066 281.473 354.766 285.102 354.766 296.582C354.766 305.395 350.25 309.762 344.324 311.242L354.691 330.719C354.914 331.09 354.988 331.531 354.988 331.832C354.988 333.828 352.469 335.828 350.25 335.828C348.914 335.828 347.879 334.941 347.137 333.535L336.324 312.355H328.848V333.016C328.848 334.719 326.922 335.605 324.922 335.605C322.996 335.605 321.07 334.719 321.07 333.016V283.992H321.074ZM328.848 288.434V306.059H337.734C343.289 306.059 346.918 303.691 346.918 297.246C346.918 290.805 343.289 288.434 337.734 288.434H328.848Z" fill="white"/>
</g>
<defs>
<linearGradient id="paint0_linear_0_544" x1="201.059" y1="256" x2="479.663" y2="256" gradientUnits="userSpaceOnUse">
<stop stop-color="#45425A"/>
<stop offset="1" stop-color="#2D3251"/>
</linearGradient>
<linearGradient id="paint1_linear_0_544" x1="255.535" y1="465.144" x2="255.535" y2="505.182" gradientUnits="userSpaceOnUse">
<stop stop-color="#2D3251" stop-opacity="0"/>
<stop offset="1" stop-color="#131830"/>
</linearGradient>
<linearGradient id="paint2_linear_0_544" x1="119.916" y1="84.2057" x2="387.044" y2="402.247" gradientUnits="userSpaceOnUse">
<stop stop-color="#8BE1E2"/>
<stop offset="0.1873" stop-color="#87E1E1"/>
<stop offset="0.3558" stop-color="#7CE2DD"/>
<stop offset="0.5172" stop-color="#6AE2D7"/>
<stop offset="0.6741" stop-color="#50E4CE"/>
<stop offset="0.8278" stop-color="#2FE5C2"/>
<stop offset="0.9772" stop-color="#07E7B4"/>
<stop offset="1" stop-color="#00E7B2"/>
</linearGradient>
<linearGradient id="paint3_linear_0_544" x1="378.73" y1="285.401" x2="191.507" y2="98.1789" gradientUnits="userSpaceOnUse">
<stop offset="0.0029" stop-color="#00E7B2" stop-opacity="0"/>
<stop offset="0.4308" stop-color="#1BC4B7" stop-opacity="0.427451"/>
<stop offset="1" stop-color="#3B9ABE"/>
</linearGradient>
<linearGradient id="paint4_linear_0_544" x1="285.704" y1="404.745" x2="258.096" y2="258.674" gradientUnits="userSpaceOnUse">
<stop offset="0.0029" stop-color="#00E7B2" stop-opacity="0"/>
<stop offset="0.4308" stop-color="#1BC4B7" stop-opacity="0.427451"/>
<stop offset="1" stop-color="#3B9ABE"/>
</linearGradient>
<linearGradient id="paint5_linear_0_544" x1="255.535" y1="272.852" x2="255.535" y2="363.526" gradientUnits="userSpaceOnUse">
<stop stop-color="#FF6E3A"/>
<stop offset="0.1596" stop-color="#FF6440"/>
<stop offset="0.4266" stop-color="#FF4B52"/>
<stop offset="0.7662" stop-color="#FF216E"/>
<stop offset="1" stop-color="#FF0084"/>
</linearGradient>
<linearGradient id="paint6_linear_0_544" x1="265.17" y1="478.856" x2="222.421" y2="436.107" gradientUnits="userSpaceOnUse">
<stop stop-color="#45425A"/>
<stop offset="1" stop-color="#2D3251"/>
</linearGradient>
<linearGradient id="paint7_linear_0_544" x1="252.96" y1="40.1569" x2="252.96" y2="23.3048" gradientUnits="userSpaceOnUse">
<stop stop-color="#45425A"/>
<stop offset="1" stop-color="#2D3251"/>
</linearGradient>
<linearGradient id="paint8_linear_0_544" x1="227.544" y1="107.114" x2="254.351" y2="155.703" gradientUnits="userSpaceOnUse">
<stop stop-color="#FFD459"/>
<stop offset="0.2296" stop-color="#FFD355"/>
<stop offset="0.4362" stop-color="#FFCF4A"/>
<stop offset="0.634" stop-color="#FFC838"/>
<stop offset="0.825" stop-color="#FFBF1F"/>
<stop offset="1" stop-color="#FFB400"/>
</linearGradient>
<linearGradient id="paint9_linear_0_544" x1="223.223" y1="112.254" x2="277.556" y2="198.899" gradientUnits="userSpaceOnUse">
<stop stop-color="#C6E56F"/>
<stop offset="0.3371" stop-color="#C4E56F"/>
<stop offset="0.4953" stop-color="#BCE36E"/>
<stop offset="0.6162" stop-color="#AFE16D"/>
<stop offset="0.7182" stop-color="#9DDD6B"/>
<stop offset="0.8083" stop-color="#85D968"/>
<stop offset="0.8899" stop-color="#68D365"/>
<stop offset="0.9635" stop-color="#46CD61"/>
<stop offset="1" stop-color="#32C95F"/>
</linearGradient>
<linearGradient id="paint10_linear_0_544" x1="208.636" y1="82.2771" x2="251.798" y2="125.44" gradientUnits="userSpaceOnUse">
<stop stop-color="#FF6E3A"/>
<stop offset="0.1596" stop-color="#FF6440"/>
<stop offset="0.4266" stop-color="#FF4B52"/>
<stop offset="0.7662" stop-color="#FF216E"/>
<stop offset="1" stop-color="#FF0084"/>
</linearGradient>
<linearGradient id="paint11_linear_0_544" x1="275.654" y1="105.356" x2="318.817" y2="148.518" gradientUnits="userSpaceOnUse">
<stop stop-color="#FF6E3A"/>
<stop offset="0.1596" stop-color="#FF6440"/>
<stop offset="0.4266" stop-color="#FF4B52"/>
<stop offset="0.7662" stop-color="#FF216E"/>
<stop offset="1" stop-color="#FF0084"/>
</linearGradient>
<radialGradient id="paint12_radial_0_544" cx="0" cy="0" r="1" gradientUnits="userSpaceOnUse" gradientTransform="translate(232.559 138.561) scale(91.1853)">
<stop stop-color="#FFD459"/>
<stop offset="0.2296" stop-color="#FFD355"/>
<stop offset="0.4362" stop-color="#FFCF4A"/>
<stop offset="0.634" stop-color="#FFC838"/>
<stop offset="0.825" stop-color="#FFBF1F"/>
<stop offset="1" stop-color="#FFB400"/>
</radialGradient>
<radialGradient id="paint13_radial_0_544" cx="0" cy="0" r="1" gradientUnits="userSpaceOnUse" gradientTransform="translate(263.408 183.027) scale(104.094)">
<stop stop-color="#FFD459" stop-opacity="0"/>
<stop offset="0.4062" stop-color="#FFD45B" stop-opacity="0.407843"/>
<stop offset="0.5525" stop-color="#FFD662" stop-opacity="0.552941"/>
<stop offset="0.6568" stop-color="#FFD96D" stop-opacity="0.654902"/>
<stop offset="0.7412" stop-color="#FFDE7E" stop-opacity="0.741176"/>
<stop offset="0.8134" stop-color="#FFE394" stop-opacity="0.811765"/>
<stop offset="0.8774" stop-color="#FFEAB0" stop-opacity="0.878431"/>
<stop offset="0.9353" stop-color="#FFF3D0" stop-opacity="0.937255"/>
<stop offset="0.9867" stop-color="#FFFCF4" stop-opacity="0.988235"/>
<stop offset="1" stop-color="white"/>
</radialGradient>
<linearGradient id="paint14_linear_0_544" x1="251.636" y1="179.097" x2="236.956" y2="213.563" gradientUnits="userSpaceOnUse">
<stop stop-color="#E58200" stop-opacity="0"/>
<stop offset="0.0396" stop-color="#E27F04" stop-opacity="0.039216"/>
<stop offset="0.4671" stop-color="#C15D2F" stop-opacity="0.466667"/>
<stop offset="0.8016" stop-color="#AD4949" stop-opacity="0.8"/>
<stop offset="1" stop-color="#A64153"/>
</linearGradient>
<linearGradient id="paint15_linear_0_544" x1="255.255" y1="169.989" x2="268.339" y2="204.775" gradientUnits="userSpaceOnUse">
<stop stop-color="#E58200" stop-opacity="0"/>
<stop offset="0.0396" stop-color="#E27F04" stop-opacity="0.039216"/>
<stop offset="0.4671" stop-color="#C15D2F" stop-opacity="0.466667"/>
<stop offset="0.8016" stop-color="#AD4949" stop-opacity="0.8"/>
<stop offset="1" stop-color="#A64153"/>
</linearGradient>
<linearGradient id="paint16_linear_0_544" x1="256.141" y1="182.247" x2="317.091" y2="266.509" gradientUnits="userSpaceOnUse">
<stop stop-color="#FFFCF8"/>
<stop offset="0.1875" stop-color="#FAF8F6"/>
<stop offset="0.4041" stop-color="#ECEEF2"/>
<stop offset="0.6353" stop-color="#D5DCEA"/>
<stop offset="0.875" stop-color="#B5C4DF"/>
<stop offset="1" stop-color="#A1B5D8"/>
</linearGradient>
<linearGradient id="paint17_linear_0_544" x1="186.556" y1="169.319" x2="224.618" y2="221.939" gradientUnits="userSpaceOnUse">
<stop stop-color="#FFFCF8"/>
<stop offset="0.1875" stop-color="#FAF8F6"/>
<stop offset="0.4041" stop-color="#ECEEF2"/>
<stop offset="0.6353" stop-color="#D5DCEA"/>
<stop offset="0.875" stop-color="#B5C4DF"/>
<stop offset="1" stop-color="#A1B5D8"/>
</linearGradient>
<linearGradient id="paint18_linear_0_544" x1="348.461" y1="206.241" x2="271.415" y2="129.195" gradientUnits="userSpaceOnUse">
<stop stop-color="#A1B5D8" stop-opacity="0"/>
<stop offset="0.0343" stop-color="#9FB3D5" stop-opacity="0.035294"/>
<stop offset="0.4515" stop-color="#8898AF" stop-opacity="0.45098"/>
<stop offset="0.788" stop-color="#798898" stop-opacity="0.788235"/>
<stop offset="1" stop-color="#748290"/>
</linearGradient>
<linearGradient id="paint19_linear_0_544" x1="258.448" y1="183.607" x2="265.15" y2="229.323" gradientUnits="userSpaceOnUse">
<stop stop-color="#FFFCF8"/>
<stop offset="0.1875" stop-color="#FAF8F6"/>
<stop offset="0.4041" stop-color="#ECEEF2"/>
<stop offset="0.6353" stop-color="#D5DCEA"/>
<stop offset="0.875" stop-color="#B5C4DF"/>
<stop offset="1" stop-color="#A1B5D8"/>
</linearGradient>
<linearGradient id="paint20_linear_0_544" x1="245.196" y1="152.844" x2="225.697" y2="133.345" gradientUnits="userSpaceOnUse">
<stop stop-color="#E58200" stop-opacity="0"/>
<stop offset="0.0396" stop-color="#E27F04" stop-opacity="0.039216"/>
<stop offset="0.4671" stop-color="#C15D2F" stop-opacity="0.466667"/>
<stop offset="0.8016" stop-color="#AD4949" stop-opacity="0.8"/>
<stop offset="1" stop-color="#A64153"/>
</linearGradient>
<linearGradient id="paint21_linear_0_544" x1="280.674" y1="160.225" x2="263.422" y2="142.973" gradientUnits="userSpaceOnUse">
<stop stop-color="#E58200" stop-opacity="0"/>
<stop offset="0.0396" stop-color="#E27F04" stop-opacity="0.039216"/>
<stop offset="0.4671" stop-color="#C15D2F" stop-opacity="0.466667"/>
<stop offset="0.8016" stop-color="#AD4949" stop-opacity="0.8"/>
<stop offset="1" stop-color="#A64153"/>
</linearGradient>
<linearGradient id="paint22_linear_0_544" x1="251.736" y1="172.623" x2="234.581" y2="155.468" gradientUnits="userSpaceOnUse">
<stop stop-color="#E58200" stop-opacity="0"/>
<stop offset="0.0396" stop-color="#E27F04" stop-opacity="0.039216"/>
<stop offset="0.4671" stop-color="#C15D2F" stop-opacity="0.466667"/>
<stop offset="0.8016" stop-color="#AD4949" stop-opacity="0.8"/>
<stop offset="1" stop-color="#A64153"/>
</linearGradient>
<linearGradient id="paint23_linear_0_544" x1="281.107" y1="175.488" x2="265.267" y2="159.648" gradientUnits="userSpaceOnUse">
<stop stop-color="#E58200" stop-opacity="0"/>
<stop offset="0.0396" stop-color="#E27F04" stop-opacity="0.039216"/>
<stop offset="0.4671" stop-color="#C15D2F" stop-opacity="0.466667"/>
<stop offset="0.8016" stop-color="#AD4949" stop-opacity="0.8"/>
<stop offset="1" stop-color="#A64153"/>
</linearGradient>
<linearGradient id="paint24_linear_0_544" x1="272.799" y1="152.164" x2="251.99" y2="131.355" gradientUnits="userSpaceOnUse">
<stop stop-color="#E58200" stop-opacity="0"/>
<stop offset="0.0396" stop-color="#E27F04" stop-opacity="0.039216"/>
<stop offset="0.4671" stop-color="#C15D2F" stop-opacity="0.466667"/>
<stop offset="0.8016" stop-color="#AD4949" stop-opacity="0.8"/>
<stop offset="1" stop-color="#A64153"/>
</linearGradient>
<linearGradient id="paint25_linear_0_544" x1="259.591" y1="183.482" x2="243.936" y2="167.827" gradientUnits="userSpaceOnUse">
<stop stop-color="#E58200" stop-opacity="0"/>
<stop offset="0.0396" stop-color="#E27F04" stop-opacity="0.039216"/>
<stop offset="0.4671" stop-color="#C15D2F" stop-opacity="0.466667"/>
<stop offset="0.8016" stop-color="#AD4949" stop-opacity="0.8"/>
<stop offset="1" stop-color="#A64153"/>
</linearGradient>
<linearGradient id="paint26_linear_0_544" x1="259.124" y1="162.579" x2="241.769" y2="145.223" gradientUnits="userSpaceOnUse">
<stop stop-color="#E58200" stop-opacity="0"/>
<stop offset="0.0396" stop-color="#E27F04" stop-opacity="0.039216"/>
<stop offset="0.4671" stop-color="#C15D2F" stop-opacity="0.466667"/>
<stop offset="0.8016" stop-color="#AD4949" stop-opacity="0.8"/>
<stop offset="1" stop-color="#A64153"/>
</linearGradient>
<linearGradient id="paint27_linear_0_544" x1="238.148" y1="174.137" x2="226.09" y2="162.079" gradientUnits="userSpaceOnUse">
<stop stop-color="#E58200" stop-opacity="0"/>
<stop offset="0.0396" stop-color="#E27F04" stop-opacity="0.039216"/>
<stop offset="0.4671" stop-color="#C15D2F" stop-opacity="0.466667"/>
<stop offset="0.8016" stop-color="#AD4949" stop-opacity="0.8"/>
<stop offset="1" stop-color="#A64153"/>
</linearGradient>
<linearGradient id="paint28_linear_0_544" x1="269.788" y1="173.284" x2="249.173" y2="152.669" gradientUnits="userSpaceOnUse">
<stop stop-color="#E58200" stop-opacity="0"/>
<stop offset="0.0396" stop-color="#E27F04" stop-opacity="0.039216"/>
<stop offset="0.4671" stop-color="#C15D2F" stop-opacity="0.466667"/>
<stop offset="0.8016" stop-color="#AD4949" stop-opacity="0.8"/>
<stop offset="1" stop-color="#A64153"/>
</linearGradient>
<linearGradient id="paint29_linear_0_544" x1="236.601" y1="146.12" x2="240.344" y2="146.12" gradientUnits="userSpaceOnUse">
<stop stop-color="#C08552"/>
<stop offset="0.2109" stop-color="#AA7247"/>
<stop offset="0.4564" stop-color="#97633F"/>
<stop offset="0.7138" stop-color="#8D5A3A"/>
<stop offset="1" stop-color="#895738"/>
</linearGradient>
<linearGradient id="paint30_linear_0_544" x1="260.406" y1="165.773" x2="264.148" y2="165.773" gradientUnits="userSpaceOnUse">
<stop stop-color="#C08552"/>
<stop offset="0.2109" stop-color="#AA7247"/>
<stop offset="0.4564" stop-color="#97633F"/>
<stop offset="0.7138" stop-color="#8D5A3A"/>
<stop offset="1" stop-color="#895738"/>
</linearGradient>
<linearGradient id="paint31_linear_0_544" x1="272.21" y1="153.632" x2="275.953" y2="153.632" gradientUnits="userSpaceOnUse">
<stop stop-color="#C08552"/>
<stop offset="0.2109" stop-color="#AA7247"/>
<stop offset="0.4564" stop-color="#97633F"/>
<stop offset="0.7138" stop-color="#8D5A3A"/>
<stop offset="1" stop-color="#895738"/>
</linearGradient>
<linearGradient id="paint32_linear_0_544" x1="242.676" y1="166.27" x2="245.617" y2="163.955" gradientUnits="userSpaceOnUse">
<stop stop-color="#C08552"/>
<stop offset="0.2109" stop-color="#AA7247"/>
<stop offset="0.4564" stop-color="#97633F"/>
<stop offset="0.7138" stop-color="#8D5A3A"/>
<stop offset="1" stop-color="#895738"/>
</linearGradient>
<linearGradient id="paint33_linear_0_544" x1="272.53" y1="169.62" x2="275.471" y2="167.305" gradientUnits="userSpaceOnUse">
<stop stop-color="#C08552"/>
<stop offset="0.2109" stop-color="#AA7247"/>
<stop offset="0.4564" stop-color="#97633F"/>
<stop offset="0.7138" stop-color="#8D5A3A"/>
<stop offset="1" stop-color="#895738"/>
</linearGradient>
<linearGradient id="paint34_linear_0_544" x1="264.581" y1="143.899" x2="267.265" y2="146.508" gradientUnits="userSpaceOnUse">
<stop stop-color="#C08552"/>
<stop offset="0.2109" stop-color="#AA7247"/>
<stop offset="0.4564" stop-color="#97633F"/>
<stop offset="0.7138" stop-color="#8D5A3A"/>
<stop offset="1" stop-color="#895738"/>
</linearGradient>
<linearGradient id="paint35_linear_0_544" x1="251.783" y1="175.627" x2="254.466" y2="178.236" gradientUnits="userSpaceOnUse">
<stop stop-color="#C08552"/>
<stop offset="0.2109" stop-color="#AA7247"/>
<stop offset="0.4564" stop-color="#97633F"/>
<stop offset="0.7138" stop-color="#8D5A3A"/>
<stop offset="1" stop-color="#895738"/>
</linearGradient>
<linearGradient id="paint36_linear_0_544" x1="252.958" y1="154.108" x2="251.75" y2="157.65" gradientUnits="userSpaceOnUse">
<stop stop-color="#C08552"/>
<stop offset="0.2109" stop-color="#AA7247"/>
<stop offset="0.4564" stop-color="#97633F"/>
<stop offset="0.7138" stop-color="#8D5A3A"/>
<stop offset="1" stop-color="#895738"/>
</linearGradient>
<linearGradient id="paint37_linear_0_544" x1="231.608" y1="167.552" x2="234.292" y2="170.161" gradientUnits="userSpaceOnUse">
<stop stop-color="#C08552"/>
<stop offset="0.2109" stop-color="#AA7247"/>
<stop offset="0.4564" stop-color="#97633F"/>
<stop offset="0.7138" stop-color="#8D5A3A"/>
<stop offset="1" stop-color="#895738"/>
</linearGradient>
<clipPath id="clip0_0_544">
<rect width="512" height="512" fill="white"/>
</clipPath>
</defs>
</svg>
