<svg width="512" height="512" viewBox="0 0 512 512" fill="none" xmlns="http://www.w3.org/2000/svg">
<path d="M442.895 173.949C440.953 167.152 434.738 162.465 427.672 162.465H84.3281C77.2617 162.465 71.0469 167.152 69.1055 173.949L0 415.797V458.996C0 465.18 5.01172 470.191 11.1953 470.191H500.805C506.988 470.191 512 465.18 512 458.996V415.797L442.895 173.949Z" fill="url(#paint0_linear_0_594)"/>
<path d="M280.062 415.797C279.664 428.762 269.059 439.152 256 439.152C242.941 439.152 232.336 428.762 231.938 415.797H0V458.996C0 465.18 5.01172 470.191 11.1953 470.191H500.805C506.988 470.191 512 465.18 512 458.996V415.797H280.062Z" fill="url(#paint1_linear_0_594)"/>
<path d="M0 444.359V458.996C0 465.18 5.01172 470.191 11.1953 470.191H500.805C506.988 470.191 512 465.18 512 458.996V444.359H0Z" fill="url(#paint2_linear_0_594)"/>
<path d="M512 415.797H0L69.1055 173.949C71.0469 167.152 77.2617 162.465 84.3281 162.465H427.672C434.738 162.465 440.953 167.152 442.895 173.949L512 415.797Z" fill="url(#paint3_linear_0_594)"/>
<path d="M479.434 301.82L9.54688 382.395L41.3711 271L450.582 200.836L479.434 301.82Z" fill="url(#paint4_linear_0_594)"/>
<path d="M487.715 330.805L0.410156 414.359L6.74609 392.195L481.973 310.707L487.715 330.805Z" fill="url(#paint5_linear_0_594)"/>
<path d="M448.039 191.953L44.1719 261.203L50.5078 239.027L442.148 171.883C442.449 172.547 442.699 173.238 442.898 173.953L448.039 191.953Z" fill="url(#paint6_linear_0_594)"/>
<path d="M112.047 343.395L101.617 282.566C101.473 281.707 101.844 280.887 102.738 280.102C103.633 279.32 104.863 278.793 106.426 278.523L131.836 274.168C140.52 272.68 147.727 273.113 153.453 275.473C159.18 277.836 162.641 282.508 163.836 289.488L163.965 290.227C165.16 297.207 163.371 302.797 158.59 306.988C153.809 311.184 146.988 314.039 138.125 315.559L121.969 318.328L125.859 341.023C126.027 342.008 125.488 342.902 124.242 343.715C122.996 344.527 121.414 345.098 119.504 345.426C117.68 345.738 116.024 345.723 114.535 345.379C113.043 345.035 112.215 344.375 112.047 343.395ZM120.645 310.609L136.805 307.84C141.754 306.992 145.406 305.34 147.758 302.887C150.109 300.438 150.945 297.219 150.262 293.238L150.074 292.133C149.391 288.152 147.535 285.414 144.504 283.914C141.477 282.414 137.484 282.09 132.535 282.938L116.375 285.711L120.645 310.609Z" fill="white"/>
<path d="M183.063 331.215L172.633 270.387C172.457 269.348 172.992 268.449 174.254 267.699C175.508 266.949 177.094 266.406 179.004 266.078C180.914 265.754 182.59 265.734 184.027 266.023C185.461 266.313 186.27 266.98 186.449 268.02L196.879 328.848C197.043 329.828 196.504 330.727 195.258 331.539C194.012 332.352 192.434 332.922 190.524 333.25C188.699 333.562 187.039 333.547 185.551 333.203C184.059 332.859 183.231 332.199 183.063 331.215Z" fill="white"/>
<path d="M207.883 327.34C207.684 326.176 207.965 324.961 208.734 323.695L240.164 264.484L204.852 270.539C203.461 270.777 202.281 270.555 201.316 269.867C200.348 269.184 199.762 268.23 199.551 267.004C199.352 265.84 199.57 264.762 200.203 263.77C200.84 262.777 201.895 262.156 203.371 261.902L251.973 253.57C254.926 253.063 256.562 253.727 256.875 255.566C257.066 256.668 256.75 257.953 255.926 259.418L224.484 318.535L263.965 311.766C265.355 311.527 266.539 311.781 267.516 312.527C268.492 313.277 269.078 314.199 269.266 315.301C269.453 316.406 269.211 317.473 268.539 318.5C267.867 319.531 266.836 320.164 265.445 320.402L212.672 329.449C209.805 329.941 208.211 329.238 207.883 327.34Z" fill="white"/>
<path d="M274.078 315.992C273.879 314.828 274.16 313.613 274.93 312.344L306.36 253.137L271.047 259.191C269.656 259.43 268.477 259.207 267.512 258.52C266.543 257.836 265.953 256.879 265.742 255.652C265.543 254.488 265.762 253.414 266.399 252.422C267.031 251.43 268.086 250.805 269.563 250.551L318.168 242.219C321.121 241.715 322.754 242.379 323.07 244.215C323.258 245.32 322.942 246.602 322.121 248.066L290.676 307.184L330.156 300.414C331.547 300.176 332.731 300.434 333.707 301.18C334.684 301.926 335.27 302.852 335.457 303.953C335.649 305.055 335.406 306.121 334.735 307.152C334.059 308.18 333.028 308.813 331.637 309.051L278.867 318.102C276 318.594 274.403 317.891 274.078 315.992Z" fill="white"/>
<path d="M339.586 303.535C339.524 303.168 339.52 302.887 339.578 302.687L355.242 238.695C355.969 236.305 358.867 234.672 363.938 233.805C369.098 232.918 372.41 233.406 373.867 235.27L409.879 290.391C410.117 290.746 410.254 291.02 410.289 291.211C410.484 292.363 409.641 293.535 407.762 294.715C405.879 295.895 403.805 296.68 401.535 297.07C398.793 297.539 396.977 297.164 396.086 295.945L388.434 283.707L356.406 289.199L353.324 303.242C352.953 304.703 351.465 305.652 348.863 306.102C346.781 306.457 344.766 306.395 342.809 305.91C340.848 305.43 339.777 304.637 339.586 303.535ZM358.215 280.945L384.078 276.508L365.609 247.211L358.215 280.945Z" fill="white"/>
<path d="M442.895 113.719C440.953 106.918 434.738 102.234 427.672 102.234H84.3281C77.2617 102.234 71.0469 106.918 69.1055 113.719L0 355.566V398.762C0 404.945 5.01172 409.957 11.1953 409.957H500.805C506.988 409.957 512 404.945 512 398.762V355.566L442.895 113.719Z" fill="url(#paint7_linear_0_594)"/>
<path d="M280.062 355.566C279.664 368.527 269.059 378.918 256 378.918C242.941 378.918 232.336 368.527 231.938 355.566H0V398.762C0 404.945 5.01172 409.957 11.1953 409.957H500.805C506.988 409.957 512 404.945 512 398.762V355.566H280.062Z" fill="url(#paint8_linear_0_594)"/>
<path d="M0 384.125V398.762C0 404.945 5.01172 409.957 11.1953 409.957H500.805C506.988 409.957 512 404.945 512 398.762V384.125H0Z" fill="url(#paint9_linear_0_594)"/>
<path d="M512 355.566H0L69.1055 113.719C71.0469 106.918 77.2617 102.234 84.3281 102.234H427.672C434.738 102.234 440.953 106.918 442.895 113.719L512 355.566Z" fill="url(#paint10_linear_0_594)"/>
<path d="M479.434 241.59L9.54688 322.164L41.3711 210.77L450.582 140.605L479.434 241.59Z" fill="url(#paint11_linear_0_594)"/>
<path d="M487.715 270.57L0.410156 354.129L6.74609 331.961L481.973 250.473L487.715 270.57Z" fill="url(#paint12_linear_0_594)"/>
<path d="M448.039 131.719L44.1719 200.969L50.5078 178.793L442.148 111.652C442.449 112.312 442.699 113.008 442.898 113.719L448.039 131.719Z" fill="url(#paint13_linear_0_594)"/>
<path d="M112.047 283.16L101.617 222.332C101.473 221.477 101.844 220.656 102.738 219.871C103.633 219.086 104.863 218.563 106.426 218.293L131.836 213.938C140.52 212.445 147.727 212.883 153.453 215.242C159.18 217.602 162.641 222.273 163.836 229.258L163.965 229.992C165.16 236.977 163.371 242.566 158.59 246.758C153.809 250.949 146.988 253.805 138.125 255.324L121.969 258.098L125.859 280.793C126.027 281.773 125.488 282.672 124.242 283.48C122.996 284.297 121.414 284.867 119.504 285.191C117.68 285.508 116.024 285.492 114.535 285.148C113.043 284.805 112.215 284.141 112.047 283.16ZM120.645 250.379L136.805 247.609C141.754 246.758 145.406 245.109 147.758 242.656C150.109 240.203 150.945 236.988 150.262 233.004L150.074 231.902C149.391 227.922 147.535 225.18 144.504 223.68C141.477 222.184 137.484 221.859 132.535 222.707L116.375 225.477L120.645 250.379Z" fill="white"/>
<path d="M183.063 270.984L172.633 210.156C172.457 209.113 172.992 208.219 174.254 207.465C175.508 206.715 177.094 206.176 179.004 205.848C180.914 205.52 182.59 205.5 184.027 205.789C185.461 206.082 186.27 206.746 186.449 207.789L196.879 268.617C197.043 269.598 196.504 270.492 195.258 271.305C194.012 272.121 192.434 272.687 190.524 273.016C188.699 273.328 187.039 273.316 185.551 272.969C184.059 272.629 183.231 271.965 183.063 270.984Z" fill="white"/>
<path d="M207.883 267.105C207.684 265.945 207.965 264.73 208.734 263.461L240.164 204.254L204.852 210.309C203.461 210.547 202.281 210.324 201.316 209.637C200.348 208.949 199.762 207.996 199.551 206.77C199.352 205.605 199.57 204.531 200.203 203.535C200.84 202.547 201.895 201.922 203.371 201.668L251.973 193.336C254.926 192.832 256.562 193.496 256.875 195.332C257.066 196.438 256.75 197.719 255.926 199.184L224.484 258.305L263.965 251.535C265.355 251.297 266.539 251.551 267.516 252.297C268.492 253.043 269.078 253.969 269.266 255.07C269.453 256.172 269.211 257.238 268.539 258.27C267.867 259.297 266.836 259.934 265.445 260.172L212.672 269.219C209.805 269.711 208.211 269.008 207.883 267.105Z" fill="white"/>
<path d="M274.078 255.758C273.879 254.594 274.16 253.379 274.93 252.113L306.359 192.902L271.047 198.957C269.656 199.195 268.476 198.973 267.512 198.289C266.543 197.602 265.953 196.648 265.742 195.422C265.543 194.258 265.762 193.18 266.398 192.188C267.031 191.195 268.086 190.574 269.562 190.32L318.168 181.988C321.121 181.48 322.754 182.145 323.07 183.984C323.258 185.086 322.941 186.371 322.121 187.836L290.676 246.953L330.16 240.184C331.547 239.945 332.73 240.203 333.711 240.945C334.687 241.695 335.269 242.617 335.461 243.723C335.648 244.824 335.406 245.891 334.734 246.918C334.059 247.949 333.027 248.582 331.641 248.82L278.867 257.871C276 258.359 274.402 257.656 274.078 255.758Z" fill="white"/>
<path d="M339.586 243.305C339.524 242.938 339.52 242.652 339.578 242.453L355.242 178.465C355.969 176.07 358.867 174.441 363.938 173.57C369.098 172.684 372.41 173.176 373.867 175.039L409.879 230.156C410.117 230.512 410.254 230.785 410.289 230.977C410.484 232.133 409.641 233.301 407.762 234.48C405.879 235.664 403.805 236.449 401.535 236.836C398.793 237.305 396.977 236.934 396.086 235.711L388.434 223.477L356.406 228.969L353.324 243.008C352.953 244.469 351.465 245.422 348.863 245.867C346.781 246.223 344.766 246.164 342.809 245.68C340.848 245.195 339.777 244.406 339.586 243.305ZM358.215 220.711L384.078 216.277L365.609 186.98L358.215 220.711Z" fill="white"/>
<path d="M442.895 53.4844C440.953 46.6875 434.738 42 427.672 42H84.3281C77.2617 42 71.0469 46.6875 69.1055 53.4844L0 295.332V338.531C0 344.715 5.01172 349.727 11.1953 349.727H500.805C506.988 349.727 512 344.715 512 338.531V295.332L442.895 53.4844Z" fill="url(#paint14_linear_0_594)"/>
<path d="M280.062 295.332C279.664 308.297 269.059 318.688 256 318.688C242.941 318.688 232.336 308.297 231.938 295.332H0V338.531C0 344.715 5.01172 349.727 11.1953 349.727H500.805C506.988 349.727 512 344.715 512 338.531V295.332H280.062Z" fill="url(#paint15_linear_0_594)"/>
<path d="M0 323.895V338.531C0 344.715 5.01172 349.727 11.1953 349.727H500.805C506.988 349.727 512 344.715 512 338.531V323.895H0Z" fill="url(#paint16_linear_0_594)"/>
<path d="M512 295.332H0L69.1055 53.4844C71.0469 46.6875 77.2617 42 84.3281 42H427.672C434.738 42 440.953 46.6875 442.895 53.4844L512 295.332Z" fill="url(#paint17_linear_0_594)"/>
<path d="M479.434 181.355L9.54688 261.93L41.3711 150.535L450.582 80.3711L479.434 181.355Z" fill="url(#paint18_linear_0_594)"/>
<path d="M487.715 210.34L0.410156 293.895L6.74609 271.73L481.973 190.242L487.715 210.34Z" fill="url(#paint19_linear_0_594)"/>
<path d="M448.039 71.4883L44.1719 140.738L50.5078 118.562L442.148 51.418C442.449 52.082 442.699 52.7734 442.898 53.4883L448.039 71.4883Z" fill="url(#paint20_linear_0_594)"/>
<path d="M112.047 222.93L101.617 162.102C101.473 161.242 101.844 160.422 102.738 159.637C103.633 158.855 104.863 158.328 106.426 158.059L131.836 153.703C140.52 152.215 147.727 152.648 153.453 155.008C159.18 157.371 162.641 162.043 163.836 169.023L163.965 169.762C165.16 176.742 163.371 182.332 158.59 186.523C153.809 190.719 146.988 193.574 138.125 195.094L121.969 197.863L125.859 220.559C126.027 221.543 125.488 222.437 124.242 223.25C122.996 224.062 121.414 224.633 119.504 224.961C117.68 225.273 116.024 225.262 114.535 224.914C113.043 224.57 112.215 223.91 112.047 222.93ZM120.645 190.148L136.805 187.375C141.754 186.527 145.406 184.875 147.758 182.422C150.109 179.973 150.945 176.754 150.262 172.773L150.074 171.668C149.391 167.687 147.535 164.949 144.504 163.449C141.477 161.949 137.484 161.625 132.535 162.473L116.375 165.246L120.645 190.148Z" fill="white"/>
<path d="M183.063 210.754L172.633 149.922C172.457 148.883 172.992 147.984 174.254 147.234C175.508 146.484 177.094 145.941 179.004 145.613C180.914 145.289 182.59 145.27 184.027 145.559C185.461 145.848 186.27 146.516 186.449 147.555L196.879 208.383C197.043 209.363 196.504 210.262 195.258 211.074C194.012 211.887 192.434 212.457 190.524 212.785C188.699 213.098 187.039 213.082 185.551 212.738C184.059 212.395 183.231 211.734 183.063 210.754Z" fill="white"/>
<path d="M207.883 206.875C207.684 205.711 207.965 204.496 208.734 203.23L240.164 144.02L204.852 150.074C203.461 150.312 202.281 150.09 201.316 149.406C200.348 148.719 199.762 147.766 199.551 146.539C199.352 145.375 199.57 144.297 200.203 143.305C200.84 142.312 201.895 141.691 203.371 141.437L251.973 133.105C254.926 132.598 256.562 133.262 256.875 135.102C257.066 136.203 256.75 137.488 255.926 138.953L224.484 198.07L263.965 191.301C265.355 191.062 266.539 191.316 267.516 192.062C268.492 192.812 269.078 193.734 269.266 194.84C269.453 195.941 269.211 197.008 268.539 198.035C267.867 199.066 266.836 199.699 265.445 199.937L212.672 208.984C209.805 209.477 208.211 208.773 207.883 206.875Z" fill="white"/>
<path d="M274.078 195.527C273.879 194.363 274.16 193.148 274.93 191.879L306.359 132.672L271.047 138.727C269.656 138.965 268.476 138.742 267.512 138.055C266.543 137.371 265.953 136.414 265.742 135.187C265.543 134.027 265.762 132.949 266.398 131.957C267.031 130.965 268.086 130.34 269.562 130.09L318.168 121.754C321.121 121.25 322.754 121.914 323.07 123.75C323.258 124.855 322.941 126.137 322.121 127.602L290.676 186.723L330.16 179.953C331.547 179.715 332.73 179.969 333.711 180.715C334.687 181.461 335.269 182.387 335.461 183.488C335.648 184.59 335.406 185.656 334.734 186.688C334.059 187.719 333.027 188.352 331.641 188.59L278.867 197.637C276 198.129 274.402 197.426 274.078 195.527Z" fill="white"/>
<path d="M339.586 183.07C339.524 182.703 339.52 182.422 339.578 182.223L355.242 118.23C355.969 115.84 358.867 114.207 363.938 113.34C369.098 112.453 372.41 112.941 373.867 114.805L409.879 169.926C410.117 170.281 410.254 170.555 410.289 170.746C410.484 171.902 409.641 173.07 407.762 174.25C405.879 175.43 403.805 176.215 401.535 176.605C398.793 177.074 396.977 176.699 396.086 175.48L388.434 163.242L356.406 168.734L353.324 182.777C352.953 184.238 351.465 185.188 348.863 185.637C346.781 185.992 344.766 185.93 342.809 185.445C340.848 184.965 339.777 184.172 339.586 183.07ZM358.215 160.48L384.078 156.043L365.609 126.746L358.215 160.48Z" fill="white"/>
<defs>
<linearGradient id="paint0_linear_0_594" x1="256" y1="362.006" x2="256" y2="408.23" gradientUnits="userSpaceOnUse">
<stop stop-color="#FFD459"/>
<stop offset="0.2296" stop-color="#FFD355"/>
<stop offset="0.4362" stop-color="#FFCF4A"/>
<stop offset="0.634" stop-color="#FFC838"/>
<stop offset="0.825" stop-color="#FFBF1F"/>
<stop offset="1" stop-color="#FFB400"/>
</linearGradient>
<linearGradient id="paint1_linear_0_594" x1="219.79" y1="347.249" x2="299.075" y2="546.987" gradientUnits="userSpaceOnUse">
<stop stop-color="#FFD459"/>
<stop offset="0.2296" stop-color="#FFD355"/>
<stop offset="0.4362" stop-color="#FFCF4A"/>
<stop offset="0.634" stop-color="#FFC838"/>
<stop offset="0.825" stop-color="#FFBF1F"/>
<stop offset="1" stop-color="#FFB400"/>
</linearGradient>
<linearGradient id="paint2_linear_0_594" x1="256" y1="452.204" x2="256" y2="492.621" gradientUnits="userSpaceOnUse">
<stop stop-color="#E58200" stop-opacity="0"/>
<stop offset="0.0396" stop-color="#E27F04" stop-opacity="0.039216"/>
<stop offset="0.4671" stop-color="#C15D2F" stop-opacity="0.466667"/>
<stop offset="0.8016" stop-color="#AD4949" stop-opacity="0.8"/>
<stop offset="1" stop-color="#A64153"/>
</linearGradient>
<linearGradient id="paint3_linear_0_594" x1="200.929" y1="235.093" x2="277.153" y2="457.04" gradientUnits="userSpaceOnUse">
<stop stop-color="#FFD459"/>
<stop offset="0.2296" stop-color="#FFD355"/>
<stop offset="0.4362" stop-color="#FFCF4A"/>
<stop offset="0.634" stop-color="#FFC838"/>
<stop offset="0.825" stop-color="#FFBF1F"/>
<stop offset="1" stop-color="#FFB400"/>
</linearGradient>
<linearGradient id="paint4_linear_0_594" x1="206.125" y1="244.034" x2="285.333" y2="401.472" gradientUnits="userSpaceOnUse">
<stop stop-color="#C6E56F"/>
<stop offset="0.1273" stop-color="#BFE46E"/>
<stop offset="0.312" stop-color="#ACE06C"/>
<stop offset="0.5318" stop-color="#8CDA69"/>
<stop offset="0.7763" stop-color="#60D264"/>
<stop offset="1" stop-color="#32C95F"/>
</linearGradient>
<linearGradient id="paint5_linear_0_594" x1="43.7103" y1="201.555" x2="508.179" y2="580.168" gradientUnits="userSpaceOnUse">
<stop stop-color="#FF6E3A"/>
<stop offset="0.1596" stop-color="#FF6440"/>
<stop offset="0.4266" stop-color="#FF4B52"/>
<stop offset="0.7662" stop-color="#FF216E"/>
<stop offset="1" stop-color="#FF0084"/>
</linearGradient>
<linearGradient id="paint6_linear_0_594" x1="167.594" y1="154.946" x2="554.711" y2="470.504" gradientUnits="userSpaceOnUse">
<stop stop-color="#FF6E3A"/>
<stop offset="0.1596" stop-color="#FF6440"/>
<stop offset="0.4266" stop-color="#FF4B52"/>
<stop offset="0.7662" stop-color="#FF216E"/>
<stop offset="1" stop-color="#FF0084"/>
</linearGradient>
<linearGradient id="paint7_linear_0_594" x1="256" y1="301.774" x2="256" y2="347.998" gradientUnits="userSpaceOnUse">
<stop stop-color="#FFD459"/>
<stop offset="0.2296" stop-color="#FFD355"/>
<stop offset="0.4362" stop-color="#FFCF4A"/>
<stop offset="0.634" stop-color="#FFC838"/>
<stop offset="0.825" stop-color="#FFBF1F"/>
<stop offset="1" stop-color="#FFB400"/>
</linearGradient>
<linearGradient id="paint8_linear_0_594" x1="219.79" y1="287.017" x2="299.075" y2="486.755" gradientUnits="userSpaceOnUse">
<stop stop-color="#FFD459"/>
<stop offset="0.2296" stop-color="#FFD355"/>
<stop offset="0.4362" stop-color="#FFCF4A"/>
<stop offset="0.634" stop-color="#FFC838"/>
<stop offset="0.825" stop-color="#FFBF1F"/>
<stop offset="1" stop-color="#FFB400"/>
</linearGradient>
<linearGradient id="paint9_linear_0_594" x1="256" y1="391.972" x2="256" y2="432.388" gradientUnits="userSpaceOnUse">
<stop stop-color="#E58200" stop-opacity="0"/>
<stop offset="0.0396" stop-color="#E27F04" stop-opacity="0.039216"/>
<stop offset="0.4671" stop-color="#C15D2F" stop-opacity="0.466667"/>
<stop offset="0.8016" stop-color="#AD4949" stop-opacity="0.8"/>
<stop offset="1" stop-color="#A64153"/>
</linearGradient>
<linearGradient id="paint10_linear_0_594" x1="200.929" y1="174.861" x2="277.153" y2="396.808" gradientUnits="userSpaceOnUse">
<stop stop-color="#FFD459"/>
<stop offset="0.2296" stop-color="#FFD355"/>
<stop offset="0.4362" stop-color="#FFCF4A"/>
<stop offset="0.634" stop-color="#FFC838"/>
<stop offset="0.825" stop-color="#FFBF1F"/>
<stop offset="1" stop-color="#FFB400"/>
</linearGradient>
<linearGradient id="paint11_linear_0_594" x1="206.125" y1="183.801" x2="285.333" y2="341.24" gradientUnits="userSpaceOnUse">
<stop stop-color="#C6E56F"/>
<stop offset="0.1273" stop-color="#BFE46E"/>
<stop offset="0.312" stop-color="#ACE06C"/>
<stop offset="0.5318" stop-color="#8CDA69"/>
<stop offset="0.7763" stop-color="#60D264"/>
<stop offset="1" stop-color="#32C95F"/>
</linearGradient>
<linearGradient id="paint12_linear_0_594" x1="43.7103" y1="141.323" x2="508.179" y2="519.935" gradientUnits="userSpaceOnUse">
<stop stop-color="#FF6E3A"/>
<stop offset="0.1596" stop-color="#FF6440"/>
<stop offset="0.4266" stop-color="#FF4B52"/>
<stop offset="0.7662" stop-color="#FF216E"/>
<stop offset="1" stop-color="#FF0084"/>
</linearGradient>
<linearGradient id="paint13_linear_0_594" x1="167.594" y1="94.7133" x2="554.711" y2="410.272" gradientUnits="userSpaceOnUse">
<stop stop-color="#FF6E3A"/>
<stop offset="0.1596" stop-color="#FF6440"/>
<stop offset="0.4266" stop-color="#FF4B52"/>
<stop offset="0.7662" stop-color="#FF216E"/>
<stop offset="1" stop-color="#FF0084"/>
</linearGradient>
<linearGradient id="paint14_linear_0_594" x1="256" y1="241.542" x2="256" y2="287.766" gradientUnits="userSpaceOnUse">
<stop stop-color="#FFD459"/>
<stop offset="0.2296" stop-color="#FFD355"/>
<stop offset="0.4362" stop-color="#FFCF4A"/>
<stop offset="0.634" stop-color="#FFC838"/>
<stop offset="0.825" stop-color="#FFBF1F"/>
<stop offset="1" stop-color="#FFB400"/>
</linearGradient>
<linearGradient id="paint15_linear_0_594" x1="219.79" y1="226.784" x2="299.075" y2="426.523" gradientUnits="userSpaceOnUse">
<stop stop-color="#FFD459"/>
<stop offset="0.2296" stop-color="#FFD355"/>
<stop offset="0.4362" stop-color="#FFCF4A"/>
<stop offset="0.634" stop-color="#FFC838"/>
<stop offset="0.825" stop-color="#FFBF1F"/>
<stop offset="1" stop-color="#FFB400"/>
</linearGradient>
<linearGradient id="paint16_linear_0_594" x1="256" y1="331.74" x2="256" y2="372.156" gradientUnits="userSpaceOnUse">
<stop stop-color="#E58200" stop-opacity="0"/>
<stop offset="0.0396" stop-color="#E27F04" stop-opacity="0.039216"/>
<stop offset="0.4671" stop-color="#C15D2F" stop-opacity="0.466667"/>
<stop offset="0.8016" stop-color="#AD4949" stop-opacity="0.8"/>
<stop offset="1" stop-color="#A64153"/>
</linearGradient>
<linearGradient id="paint17_linear_0_594" x1="200.929" y1="114.628" x2="277.153" y2="336.575" gradientUnits="userSpaceOnUse">
<stop stop-color="#FFD459"/>
<stop offset="0.2296" stop-color="#FFD355"/>
<stop offset="0.4362" stop-color="#FFCF4A"/>
<stop offset="0.634" stop-color="#FFC838"/>
<stop offset="0.825" stop-color="#FFBF1F"/>
<stop offset="1" stop-color="#FFB400"/>
</linearGradient>
<linearGradient id="paint18_linear_0_594" x1="206.125" y1="123.569" x2="285.333" y2="281.008" gradientUnits="userSpaceOnUse">
<stop stop-color="#8BE1E2"/>
<stop offset="0.1873" stop-color="#87E1E1"/>
<stop offset="0.3558" stop-color="#7CE2DD"/>
<stop offset="0.5172" stop-color="#6AE2D7"/>
<stop offset="0.6741" stop-color="#50E4CE"/>
<stop offset="0.8278" stop-color="#2FE5C2"/>
<stop offset="0.9772" stop-color="#07E7B4"/>
<stop offset="1" stop-color="#00E7B2"/>
</linearGradient>
<linearGradient id="paint19_linear_0_594" x1="43.7103" y1="81.0907" x2="508.179" y2="459.703" gradientUnits="userSpaceOnUse">
<stop stop-color="#FF6E3A"/>
<stop offset="0.1596" stop-color="#FF6440"/>
<stop offset="0.4266" stop-color="#FF4B52"/>
<stop offset="0.7662" stop-color="#FF216E"/>
<stop offset="1" stop-color="#FF0084"/>
</linearGradient>
<linearGradient id="paint20_linear_0_594" x1="167.594" y1="34.4809" x2="554.711" y2="350.039" gradientUnits="userSpaceOnUse">
<stop stop-color="#FF6E3A"/>
<stop offset="0.1596" stop-color="#FF6440"/>
<stop offset="0.4266" stop-color="#FF4B52"/>
<stop offset="0.7662" stop-color="#FF216E"/>
<stop offset="1" stop-color="#FF0084"/>
</linearGradient>
</defs>
</svg>
