<svg width="512" height="512" viewBox="0 0 512 512" fill="none" xmlns="http://www.w3.org/2000/svg">
<path d="M156.496 90.8008C161.684 90.8008 166.379 92.8984 169.781 96.2969C173.188 99.6992 175.289 104.395 175.289 109.582V169.277C175.289 180.516 182.152 190.609 192.605 194.734L192.613 194.738C199.07 197.289 206.258 197.289 212.715 194.738L219.988 191.867C226.449 189.316 233.637 189.316 240.094 191.867L247.359 194.738C253.816 197.289 261.004 197.289 267.465 194.738L274.734 191.867C281.195 189.316 288.383 189.316 294.844 191.867L302.105 194.738C308.566 197.289 315.754 197.289 322.211 194.738L329.484 191.867C335.941 189.316 343.129 189.316 349.59 191.867L356.852 194.734C363.312 197.289 370.5 197.289 376.961 194.734L384.219 191.867C390.68 189.316 397.867 189.316 404.328 191.867L411.59 194.734C418.047 197.289 425.238 197.289 431.699 194.734L438.957 191.867C445.418 189.316 452.605 189.316 459.066 191.867L466.328 194.734C472.785 197.289 479.977 197.289 486.438 194.734C496.883 190.609 503.75 180.516 503.75 169.281V135.871C503.75 110.98 483.57 90.8008 458.676 90.8008H156.496Z" fill="url(#paint0_linear_0_632)"/>
<path d="M111.992 90.8008C98.0078 90.8008 86.6719 102.137 86.6719 116.117L86.6992 486.691C86.6992 500.668 98.0273 512 112.004 512H412.215C426.191 512 437.523 500.668 437.523 486.691L438.082 109.598C438.082 99.2148 446.496 90.8008 456.879 90.8008H111.992Z" fill="url(#paint1_linear_0_632)"/>
<path d="M378.496 90.8008H111.992C98.0078 90.8008 86.6719 102.137 86.6719 116.117L86.6992 486.691C86.6992 500.668 98.0273 512 112.004 512H412.215C426.191 512 437.523 500.668 437.523 486.691L438 150.301L378.496 90.8008Z" fill="url(#paint2_linear_0_632)"/>
<path d="M378.598 493.203L378.039 25.3086C378.039 11.332 366.707 0 352.73 0H52.5195C38.543 0 27.2148 11.332 27.2148 25.3086L27.1875 486.68C27.1875 500.664 38.5234 512 52.5078 512H397.395C387.016 512 378.598 503.586 378.598 493.203Z" fill="url(#paint3_linear_0_632)"/>
<path d="M352.906 0.00390625H53.0703C52.25 0.00390625 51.4336 0.0351562 50.625 0.078125C37.5352 1.05078 27.2148 11.9688 27.2148 25.3086V104.758L163.527 241.074C169.543 243.008 176.059 242.816 181.969 240.484L189.227 237.617C195.688 235.062 202.875 235.062 209.336 237.617L216.598 240.484C223.055 243.035 230.246 243.035 236.707 240.484L243.965 237.617C250.426 235.062 257.613 235.062 264.074 237.617L271.332 240.484C277.793 243.035 284.984 243.035 291.441 240.484L298.703 237.613C305.164 235.062 312.352 235.062 318.812 237.613L326.082 240.484C332.539 243.035 339.73 243.035 346.188 240.484L353.453 237.613C359.91 235.062 367.098 235.062 373.559 237.613L378.043 239.383V25.3086C378.039 11.3867 366.801 0.0976562 352.906 0.00390625Z" fill="url(#paint4_linear_0_632)"/>
<path d="M355.25 0.00390625C350.062 0.00390625 345.367 2.10156 341.965 5.5C338.559 8.90625 336.461 13.5977 336.461 18.7891V78.4844C336.461 89.7188 329.594 99.8125 319.141 103.938L319.133 103.941C312.676 106.492 305.488 106.492 299.031 103.941L291.758 101.07C285.297 98.5195 278.109 98.5195 271.652 101.07L264.387 103.941C257.93 106.492 250.742 106.492 244.281 103.941L237.012 101.07C230.551 98.5195 223.363 98.5195 216.902 101.07L209.641 103.941C203.18 106.492 195.996 106.492 189.535 103.941L182.266 101.07C175.805 98.5195 168.617 98.5195 162.156 101.07L154.895 103.941C148.438 106.492 141.246 106.492 134.785 103.941L127.527 101.074C121.066 98.5195 113.879 98.5195 107.418 101.074L100.156 103.941C93.6992 106.492 86.5078 106.492 80.0469 103.941L72.7891 101.074C66.3281 98.5195 59.1406 98.5195 52.6797 101.074L45.4219 103.941C38.9609 106.492 31.7695 106.492 25.3125 103.941C14.8633 99.8125 8 89.7188 8 78.4844V45.0781C8 20.1836 28.1797 0.00390625 53.0703 0.00390625H355.25Z" fill="url(#paint5_linear_0_632)"/>
<path d="M27.1914 441.727L27.1875 486.68C27.1875 500.664 38.5234 512 52.5078 512H412.219C426.195 512 437.523 500.668 437.523 486.691L437.59 441.727H27.1914Z" fill="url(#paint6_linear_0_632)"/>
<path d="M74.5312 323.445H279.777V341.516H74.5312V323.445Z" fill="url(#paint7_linear_0_632)"/>
<path d="M74.5312 387.844H279.777V405.914H74.5312V387.844Z" fill="url(#paint8_linear_0_632)"/>
<path d="M74.5312 452.242H237.969V470.312H74.5312V452.242Z" fill="url(#paint9_linear_0_632)"/>
<path d="M358.773 278.59L222.152 141.969C220.496 139.086 217.055 136.703 211.824 134.82C206.457 132.895 200.734 131.586 194.676 130.859L186.672 123.723C186.512 122.594 185.852 121.57 184.621 120.664C183.211 119.625 181.688 119.102 180.055 119.102C178.27 119.102 176.742 119.625 175.48 120.664C174.219 121.707 173.586 122.895 173.586 124.23V130.695C161.547 132.035 151.477 136.047 143.375 142.738C135.273 149.426 131.223 159.23 131.223 172.141C131.223 176.738 131.742 180.93 132.785 184.711C133.824 188.496 135.531 191.797 137.914 194.613C140.289 197.434 142.559 199.844 144.715 201.844C144.828 201.953 144.953 202.059 145.074 202.164L173.586 230.742V268.039C167 267.594 161.199 265.891 156.184 262.922C151.164 259.957 147.227 257.176 144.355 254.578C141.484 251.984 139.168 250.684 137.406 250.684C134.742 250.684 132.383 252.094 130.312 254.91C128.242 257.73 127.211 260.547 127.211 263.367C127.211 267.984 129.891 272.535 135.227 277.02L259.016 400.809C310.895 385.328 350.559 337.598 358.773 278.59Z" fill="url(#paint10_linear_0_632)"/>
<path d="M223.773 224.098C221.555 218.684 218.266 214.195 213.906 210.637C209.543 207.074 205.402 204.293 201.484 202.293C197.57 200.289 192.656 198.176 186.742 195.949V150.762C192.688 151.207 198.324 152.695 203.648 155.223C208.973 157.75 212.23 159.012 213.414 159.012C216.41 159.012 218.812 157.562 220.609 154.664C222.406 151.766 223.309 148.98 223.309 146.305C223.309 141.398 219.48 137.574 211.824 134.82C204.168 132.074 195.805 130.551 186.742 130.25V124.23C186.742 122.891 186.035 121.703 184.625 120.664C183.211 119.625 181.688 119.102 180.055 119.102C178.27 119.102 176.746 119.625 175.484 120.664C174.219 121.703 173.586 122.891 173.586 124.23V130.695C161.547 132.031 151.477 136.047 143.375 142.734C135.273 149.422 131.227 159.227 131.227 172.137C131.227 176.738 131.746 180.926 132.785 184.711C133.824 188.492 135.535 191.793 137.914 194.609C140.289 197.43 142.559 199.84 144.715 201.844C146.867 203.844 149.914 205.777 153.855 207.629C157.793 209.48 160.953 210.895 163.332 211.855C165.707 212.82 169.129 214.121 173.586 215.75V268.035C167 267.59 161.199 265.887 156.184 262.918C151.164 259.953 147.227 257.176 144.355 254.574C141.484 251.98 139.168 250.68 137.406 250.68C134.742 250.68 132.383 252.09 130.312 254.91C128.242 257.73 127.211 260.547 127.211 263.363C127.211 269.359 131.707 275.242 140.699 281.008C149.691 286.777 160.656 289.734 173.586 289.887V296.668C173.586 297.984 174.215 299.152 175.48 300.176C176.742 301.191 178.27 301.703 180.051 301.703C181.684 301.703 183.207 301.191 184.621 300.172C186.035 299.148 186.738 297.98 186.738 296.664V289.215C199.156 287.426 208.984 282.613 216.23 274.785C223.473 266.953 227.098 256.398 227.098 243.117C227.098 235.852 225.988 229.508 223.773 224.098ZM174.926 191.723C167.715 189.051 162.309 186.195 158.703 183.156C155.098 180.117 153.297 175.703 153.297 169.914C153.297 159.215 160.504 152.969 174.926 151.188V191.723ZM185.406 267.594V220.648C191.648 223.316 196.477 226.512 199.898 230.215C203.316 233.922 205.027 239.039 205.027 245.566C205.027 257.879 198.484 265.223 185.406 267.594Z" fill="url(#paint11_linear_0_632)"/>
<defs>
<linearGradient id="paint0_linear_0_632" x1="490.53" y1="313.267" x2="351.996" y2="162.687" gradientUnits="userSpaceOnUse">
<stop stop-color="#FFFCF8"/>
<stop offset="0.1875" stop-color="#FAF8F6"/>
<stop offset="0.4041" stop-color="#ECEEF2"/>
<stop offset="0.6353" stop-color="#D5DCEA"/>
<stop offset="0.875" stop-color="#B5C4DF"/>
<stop offset="1" stop-color="#A1B5D8"/>
</linearGradient>
<linearGradient id="paint1_linear_0_632" x1="258.788" y1="280.884" x2="502.729" y2="526.33" gradientUnits="userSpaceOnUse">
<stop stop-color="#FFFCF8"/>
<stop offset="0.1875" stop-color="#FAF8F6"/>
<stop offset="0.4041" stop-color="#ECEEF2"/>
<stop offset="0.6353" stop-color="#D5DCEA"/>
<stop offset="0.875" stop-color="#B5C4DF"/>
<stop offset="1" stop-color="#A1B5D8"/>
</linearGradient>
<linearGradient id="paint2_linear_0_632" x1="428.298" y1="301.4" x2="257.42" y2="301.4" gradientUnits="userSpaceOnUse">
<stop stop-color="#A1B5D8" stop-opacity="0"/>
<stop offset="0.0343" stop-color="#9FB3D5" stop-opacity="0.035294"/>
<stop offset="0.4515" stop-color="#8898AF" stop-opacity="0.45098"/>
<stop offset="0.788" stop-color="#798898" stop-opacity="0.788235"/>
<stop offset="1" stop-color="#748290"/>
</linearGradient>
<linearGradient id="paint3_linear_0_632" x1="51.8786" y1="89.4183" x2="553.313" y2="643.556" gradientUnits="userSpaceOnUse">
<stop stop-color="#FFFCF8"/>
<stop offset="0.1875" stop-color="#FAF8F6"/>
<stop offset="0.4041" stop-color="#ECEEF2"/>
<stop offset="0.6353" stop-color="#D5DCEA"/>
<stop offset="0.875" stop-color="#B5C4DF"/>
<stop offset="1" stop-color="#A1B5D8"/>
</linearGradient>
<linearGradient id="paint4_linear_0_632" x1="221.435" y1="155.225" x2="148.431" y2="-199.881" gradientUnits="userSpaceOnUse">
<stop stop-color="#A1B5D8" stop-opacity="0"/>
<stop offset="0.0343" stop-color="#9FB3D5" stop-opacity="0.035294"/>
<stop offset="0.4515" stop-color="#8898AF" stop-opacity="0.45098"/>
<stop offset="0.788" stop-color="#798898" stop-opacity="0.788235"/>
<stop offset="1" stop-color="#748290"/>
</linearGradient>
<linearGradient id="paint5_linear_0_632" x1="181.626" y1="48.2494" x2="181.626" y2="-13.5071" gradientUnits="userSpaceOnUse">
<stop stop-color="#FFFCF8"/>
<stop offset="0.1875" stop-color="#FAF8F6"/>
<stop offset="0.4041" stop-color="#ECEEF2"/>
<stop offset="0.6353" stop-color="#D5DCEA"/>
<stop offset="0.875" stop-color="#B5C4DF"/>
<stop offset="1" stop-color="#A1B5D8"/>
</linearGradient>
<linearGradient id="paint6_linear_0_632" x1="232.39" y1="486.902" x2="232.39" y2="540.11" gradientUnits="userSpaceOnUse">
<stop stop-color="#A1B5D8" stop-opacity="0"/>
<stop offset="0.0343" stop-color="#9FB3D5" stop-opacity="0.035294"/>
<stop offset="0.4515" stop-color="#8898AF" stop-opacity="0.45098"/>
<stop offset="0.788" stop-color="#798898" stop-opacity="0.788235"/>
<stop offset="1" stop-color="#748290"/>
</linearGradient>
<linearGradient id="paint7_linear_0_632" x1="129.64" y1="284.966" x2="338.584" y2="493.91" gradientUnits="userSpaceOnUse">
<stop stop-color="#FFD459"/>
<stop offset="0.2296" stop-color="#FFD355"/>
<stop offset="0.4362" stop-color="#FFCF4A"/>
<stop offset="0.634" stop-color="#FFC838"/>
<stop offset="0.825" stop-color="#FFBF1F"/>
<stop offset="1" stop-color="#FFB400"/>
</linearGradient>
<linearGradient id="paint8_linear_0_632" x1="97.4413" y1="317.165" x2="306.385" y2="526.109" gradientUnits="userSpaceOnUse">
<stop stop-color="#FFD459"/>
<stop offset="0.2296" stop-color="#FFD355"/>
<stop offset="0.4362" stop-color="#FFCF4A"/>
<stop offset="0.634" stop-color="#FFC838"/>
<stop offset="0.825" stop-color="#FFBF1F"/>
<stop offset="1" stop-color="#FFB400"/>
</linearGradient>
<linearGradient id="paint9_linear_0_632" x1="54.79" y1="359.816" x2="263.734" y2="568.76" gradientUnits="userSpaceOnUse">
<stop stop-color="#FFD459"/>
<stop offset="0.2296" stop-color="#FFD355"/>
<stop offset="0.4362" stop-color="#FFCF4A"/>
<stop offset="0.634" stop-color="#FFC838"/>
<stop offset="0.825" stop-color="#FFBF1F"/>
<stop offset="1" stop-color="#FFB400"/>
</linearGradient>
<linearGradient id="paint10_linear_0_632" x1="257.173" y1="287.83" x2="10.0439" y2="40.701" gradientUnits="userSpaceOnUse">
<stop stop-color="#A1B5D8" stop-opacity="0"/>
<stop offset="0.0343" stop-color="#9FB3D5" stop-opacity="0.035294"/>
<stop offset="0.4515" stop-color="#8898AF" stop-opacity="0.45098"/>
<stop offset="0.788" stop-color="#798898" stop-opacity="0.788235"/>
<stop offset="1" stop-color="#748290"/>
</linearGradient>
<linearGradient id="paint11_linear_0_632" x1="155.808" y1="189.984" x2="236.552" y2="257.343" gradientUnits="userSpaceOnUse">
<stop stop-color="#45425A"/>
<stop offset="1" stop-color="#2D3251"/>
</linearGradient>
</defs>
</svg>
