<svg width="512" height="512" viewBox="0 0 512 512" fill="none" xmlns="http://www.w3.org/2000/svg">
<path d="M425.043 133.223L424.598 133.441C409.488 140.816 391.801 140.73 376.762 133.211C361.527 125.777 343.727 125.777 328.504 133.211L328.492 133.223C313.258 140.656 295.457 140.656 280.223 133.223L280.211 133.211C264.988 125.777 247.188 125.777 231.953 133.211L231.941 133.223C216.719 140.656 198.902 140.656 183.68 133.223H183.668C176.059 129.5 167.801 127.637 159.539 127.637C151.195 127.637 142.848 129.539 135.156 133.344C120.055 140.809 102.285 140.613 87.1406 133.223C75.9922 127.781 63 135.898 63 148.305V437.156C63 457.09 79.1602 473.254 99.0977 473.254H413.086C433.023 473.254 449.184 457.09 449.184 437.156V148.305C449.184 135.898 436.191 127.781 425.043 133.223Z" fill="url(#paint0_linear_0_645)"/>
<path d="M425.043 133.223L424.598 133.441C409.488 140.816 391.801 140.73 376.762 133.211C361.527 125.777 343.727 125.777 328.504 133.211L328.492 133.223C313.258 140.656 295.457 140.656 280.223 133.223L280.211 133.211C264.988 125.777 247.188 125.777 231.953 133.211L231.941 133.223C216.719 140.656 198.902 140.656 183.68 133.223H183.668C176.059 129.5 167.801 127.637 159.539 127.637C151.195 127.637 142.848 129.539 135.156 133.344C120.055 140.809 102.285 140.613 87.1406 133.223C75.9922 127.781 63 135.898 63 148.305V437.156C63 457.09 79.1602 473.254 99.0977 473.254H413.086C433.023 473.254 449.184 457.09 449.184 437.156V148.305C449.184 135.898 436.191 127.781 425.043 133.223Z" fill="url(#paint1_linear_0_645)"/>
<path d="M224.969 173.738C224.969 77.7852 192.43 0 152.293 0C112.156 0 79.6211 77.7852 79.6211 173.738C79.6211 269.695 112.156 347.48 152.293 347.48C192.43 347.48 224.969 269.695 224.969 173.738Z" fill="url(#paint2_linear_0_645)"/>
<path d="M224.969 173.738C224.969 77.7852 192.43 0 152.293 0V347.48C192.43 347.48 224.969 269.695 224.969 173.738Z" fill="url(#paint3_linear_0_645)"/>
<path d="M173.148 71.6602H131.438C125.375 71.6602 120.461 76.5742 120.461 82.6367C120.461 88.6992 125.375 93.6133 131.438 93.6133H173.148C179.211 93.6133 184.125 88.6992 184.125 82.6367C184.125 76.5742 179.211 71.6602 173.148 71.6602Z" fill="url(#paint4_linear_0_645)"/>
<path d="M173.148 132.395H131.438C125.375 132.395 120.461 137.309 120.461 143.371C120.461 149.434 125.375 154.348 131.438 154.348H173.148C179.211 154.348 184.125 149.434 184.125 143.371C184.125 137.309 179.211 132.395 173.148 132.395Z" fill="url(#paint5_linear_0_645)"/>
<path d="M173.148 193.133H131.438C125.375 193.133 120.461 198.047 120.461 204.109C120.461 210.172 125.375 215.086 131.438 215.086H173.148C179.211 215.086 184.125 210.172 184.125 204.109C184.125 198.047 179.211 193.133 173.148 193.133Z" fill="url(#paint6_linear_0_645)"/>
<path d="M173.148 253.867H131.438C125.375 253.867 120.461 258.781 120.461 264.844C120.461 270.906 125.375 275.82 131.438 275.82H173.148C179.211 275.82 184.125 270.906 184.125 264.844C184.125 258.781 179.211 253.867 173.148 253.867Z" fill="url(#paint7_linear_0_645)"/>
<path d="M360.715 82.9766C360.574 83.375 360.43 83.7734 360.293 84.1719C356.344 94.7422 347.223 102.57 347.129 105.328C347.031 108.191 346.309 109.988 346.309 109.988C318.945 218.184 196.918 334.27 196.918 334.27C192.145 339.949 183.562 340.473 178.891 334.332C178.609 333.969 178.473 333.793 178.195 333.43C174.824 329.059 169.164 327.859 164.246 330.23C163.844 330.422 163.641 330.523 163.234 330.719C153.566 335.324 143.422 324.629 147.012 315.031C147.145 314.598 147.215 314.375 147.352 313.938C149.016 308.66 147.105 302.941 142.723 299.938C142.367 299.688 142.184 299.566 141.82 299.316C134.133 294.016 135.082 282.77 142.559 277.93C146.687 274.297 148.734 272.438 152.793 268.648C153.32 267.922 153.93 267.25 154.617 266.633C154.734 265.926 154.797 265.203 154.789 264.465C154.793 264.008 154.789 263.785 154.785 263.328C154.742 258.484 157.062 254.609 160.379 252.316C209.758 201.461 246.59 141.363 271.852 75.8164C271.855 75.8047 271.855 75.8008 271.855 75.793C272.156 75.0391 272.441 74.2812 272.723 73.5273C273.918 71.125 275.895 69.0391 278.687 67.6875L279.734 67.1836C284.812 64.7305 287.715 59.2734 286.91 53.6875L286.746 52.5391C285.137 41.4063 297.523 33.6719 306.82 39.9922L307.785 40.6445C312.449 43.8125 318.629 43.5938 323.059 40.1094L323.973 39.3945C332.809 32.4375 345.703 39.2891 344.879 50.5078L344.797 51.6641C344.383 57.2891 347.66 62.5352 352.895 64.6289L353.977 65.0586C360.297 67.5859 362.98 73.9375 361.859 79.6367C361.484 80.7539 361.102 81.8672 360.715 82.9766Z" fill="url(#paint8_linear_0_645)"/>
<path d="M178.891 334.332C178.609 333.969 178.473 333.793 178.195 333.43C174.824 329.059 169.164 327.859 164.246 330.23C163.844 330.422 163.641 330.523 163.234 330.719C163.234 330.719 246.223 276.387 310.43 116.305C323.516 83.6797 334.867 61.2109 344.59 46.582C344.871 47.8125 344.977 49.125 344.879 50.5078L344.793 51.6641C344.383 57.2891 347.656 62.5352 352.895 64.6289L353.973 65.0586C360.293 67.5859 362.977 73.9375 361.855 79.6367C361.484 80.7578 361.102 81.8711 360.715 82.9766C360.578 83.375 360.434 83.7734 360.293 84.1719C356.344 94.7422 347.223 102.57 347.129 105.328C347.031 108.191 346.309 109.988 346.309 109.988C318.945 218.188 196.922 334.27 196.922 334.27C192.145 339.949 183.562 340.473 178.891 334.332Z" fill="url(#paint9_linear_0_645)"/>
<path d="M154.617 266.633C154.734 265.926 154.797 265.203 154.789 264.465C154.789 264.008 154.789 263.785 154.785 263.328C154.738 258.484 157.062 254.609 160.379 252.316C209.754 201.461 246.59 141.363 271.852 75.8164C271.855 75.8047 271.855 75.8008 271.855 75.793C272.152 75.0391 272.441 74.2812 272.723 73.5273C273.914 71.125 275.895 69.0391 278.688 67.6875L279.734 67.1836C284.809 64.7305 287.711 59.2734 286.91 53.6875L286.742 52.5391C285.777 45.8516 289.863 40.3984 295.293 38.4727C292.258 50.5469 283.266 66.8984 276.758 82.8516C221.926 217.242 142.559 277.93 142.559 277.93C146.687 274.297 148.734 272.438 152.793 268.648C153.32 267.922 153.93 267.25 154.617 266.633Z" fill="url(#paint10_linear_0_645)"/>
<path d="M147.012 315.031C147.012 315.031 232.609 255.973 288.691 104.746C298.613 77.9961 306.793 57.8477 313.539 42.7891C316.863 43.1797 320.297 42.2773 323.055 40.1094L323.973 39.3906C331.719 33.293 342.586 37.8125 344.586 46.582C334.863 61.2109 323.512 83.6797 310.43 116.301C246.223 276.383 163.234 330.715 163.234 330.715C153.566 335.324 143.422 324.629 147.012 315.031Z" fill="url(#paint11_linear_0_645)"/>
<path d="M147.352 313.938C149.012 308.66 147.105 302.941 142.723 299.938C142.367 299.688 142.184 299.566 141.82 299.316C134.129 294.016 135.078 282.77 142.559 277.93C142.559 277.93 221.922 217.242 276.758 82.8516C283.262 66.9024 292.25 50.5547 295.289 38.4805C298.898 37.1953 303.102 37.4649 306.82 39.9922L307.781 40.6445C309.543 41.8399 311.523 42.5508 313.539 42.7891C306.793 57.8477 298.613 77.9961 288.695 104.746C232.609 255.969 147.012 315.031 147.012 315.031C147.145 314.598 147.215 314.375 147.352 313.938Z" fill="url(#paint12_linear_0_645)"/>
<path d="M326.668 116.422C335.965 122.742 348.352 115.008 346.742 103.875L346.578 102.719C345.774 97.1406 348.676 91.6836 353.754 89.2266L354.801 88.7188C357.551 87.3906 359.52 85.3399 360.715 82.9766C361.258 81.9141 361.637 80.7891 361.856 79.6367C362.977 73.9375 360.293 67.586 353.973 65.0547L352.895 64.625C347.656 62.5313 344.383 57.2891 344.793 51.6602L344.879 50.5039C345.703 39.2891 332.809 32.4336 323.973 39.3906L323.059 40.1094C318.625 43.5938 312.445 43.8086 307.781 40.6445L306.82 39.9883C297.52 33.668 285.137 41.4063 286.742 52.5391L286.906 53.6875C287.711 59.2695 284.809 64.7305 279.735 67.1836L278.684 67.6875C275.895 69.0391 273.914 71.125 272.723 73.5274C272.363 74.2539 272.07 75.0156 271.856 75.793C271.856 75.7969 271.856 75.8047 271.848 75.8164C270.219 81.7461 272.832 88.6797 279.512 91.3516L280.594 91.7852C285.828 93.8789 289.106 99.1211 288.692 104.742L288.61 105.906C287.781 117.125 300.68 123.977 309.516 117.02L310.43 116.301C314.86 112.813 321.039 112.598 325.703 115.77L326.668 116.422Z" fill="url(#paint13_radial_0_645)"/>
<path d="M320.383 89.836C323.883 92.2149 328.543 89.3008 327.937 85.1133L327.875 84.6797C327.574 82.5782 328.664 80.5235 330.578 79.5977L330.969 79.4063C332.004 78.9102 332.746 78.1367 333.195 77.2461C333.398 76.8477 333.543 76.4219 333.625 75.9883C334.047 73.8438 333.035 71.4532 330.656 70.5L330.25 70.3399C328.281 69.5508 327.047 67.5782 327.203 65.461L327.234 65.0274C327.543 60.8047 322.691 58.2227 319.363 60.8438L319.019 61.1133C317.351 62.4258 315.027 62.5039 313.269 61.3125L312.91 61.0664C309.41 58.6875 304.746 61.6016 305.351 65.7891L305.414 66.2227C305.719 68.3242 304.625 70.3789 302.715 71.3047L302.32 71.4922C301.269 72.0039 300.523 72.7891 300.074 73.6914C299.937 73.9649 299.828 74.25 299.746 74.543V74.5547C299.133 76.7852 300.113 79.3946 302.629 80.3985L303.035 80.5625C305.008 81.3516 306.242 83.3242 306.086 85.4414L306.055 85.8789C305.742 90.1016 310.598 92.6797 313.922 90.0625L314.266 89.793C315.937 88.4766 318.262 88.3946 320.016 89.5899L320.383 89.836Z" fill="url(#paint14_linear_0_645)"/>
<path d="M199.992 331.277C209.773 321.633 241.422 289.52 273.297 247.32H273.301C286.688 229.598 300.109 210.086 311.977 189.723C233.957 247.262 173.535 265.281 150.918 270.398C149.703 271.523 148.648 272.492 147.578 273.465C150.559 274.949 152.777 277.699 153.508 281.246C153.52 281.301 153.531 281.355 153.535 281.41C153.582 281.629 153.613 281.793 153.648 281.984H153.656C153.68 282.098 153.703 282.215 153.734 282.363C153.758 282.5 153.785 282.629 153.82 282.762C153.848 282.867 153.867 282.973 153.898 283.082C153.91 283.129 153.922 283.176 153.941 283.223C153.969 283.348 154.004 283.473 154.047 283.59C154.102 283.758 154.152 283.926 154.215 284.09C154.23 284.145 154.25 284.195 154.266 284.246H154.273C154.352 284.445 154.426 284.637 154.512 284.828C154.562 284.949 154.621 285.074 154.684 285.199C154.711 285.266 154.746 285.324 154.777 285.383C154.785 285.402 154.789 285.418 154.801 285.438C154.809 285.441 154.809 285.453 154.812 285.461C154.891 285.617 154.973 285.766 155.062 285.906C155.152 286.059 155.246 286.211 155.34 286.355C155.418 286.48 155.504 286.605 155.59 286.727C155.809 287.035 156.043 287.324 156.293 287.609C156.402 287.734 156.523 287.863 156.641 287.984C156.762 288.105 156.883 288.227 157.008 288.344C157.133 288.457 157.258 288.578 157.391 288.684L199.992 331.277Z" fill="url(#paint15_linear_0_645)"/>
<path d="M427.387 136.238C427.09 136.539 426.785 136.832 426.484 137.129C418.301 144.895 406.668 147.93 405.375 150.367C404.031 152.895 402.59 154.195 402.59 154.195C330.543 239.422 169.961 290.215 169.961 290.215C163.18 293.223 155.238 289.934 153.731 282.363C153.641 281.914 153.598 281.695 153.504 281.246C152.395 275.84 147.832 272.281 142.371 272.254C141.926 272.25 141.699 272.254 141.246 272.246C130.539 272.148 126.117 258.082 133.551 251.035C133.859 250.703 134.02 250.535 134.336 250.203C138.145 246.187 138.938 240.211 136.32 235.59C136.106 235.207 135.996 235.02 135.777 234.637C131.195 226.496 136.981 216.809 145.82 215.738C151.129 214.285 153.781 213.516 159.094 211.887C159.883 211.465 160.727 211.125 161.613 210.875C162.031 210.293 162.406 209.668 162.723 209C162.926 208.594 163.02 208.391 163.215 207.977C165.301 203.605 169.09 201.141 173.074 200.535C239.754 176.496 299.219 138.648 350.668 90.8242C350.68 90.8164 350.684 90.8086 350.684 90.8047C351.285 90.2578 351.875 89.7031 352.457 89.1484C354.586 87.5156 357.277 86.5078 360.379 86.5195L361.539 86.5234C367.18 86.5468 372.184 82.9101 373.91 77.539L374.266 76.4375C377.703 65.7265 392.227 64.207 397.809 73.9687L398.391 74.9765C401.191 79.8672 406.84 82.3867 412.352 81.1953L413.488 80.9531C424.481 78.5781 433.063 90.3906 427.398 100.109L426.816 101.113C423.977 105.988 424.621 112.137 428.41 116.316L429.191 117.176C433.762 122.223 433.387 129.105 429.879 133.738C429.055 134.582 428.223 135.414 427.387 136.238Z" fill="url(#paint16_linear_0_645)"/>
<path d="M153.734 282.363C153.641 281.914 153.598 281.695 153.504 281.246C152.395 275.84 147.832 272.281 142.371 272.254C141.926 272.25 141.699 272.254 141.25 272.246C141.25 272.246 239.656 259.824 367.582 144.133C393.652 120.555 413.707 105.34 428.863 96.457C428.574 97.6875 428.098 98.918 427.398 100.113L426.816 101.113C423.977 105.992 424.621 112.141 428.41 116.32L429.191 117.176C433.762 122.223 433.387 129.109 429.883 133.738C429.055 134.578 428.223 135.414 427.391 136.238C427.09 136.535 426.785 136.828 426.484 137.125C418.301 144.895 406.672 147.926 405.375 150.363C404.035 152.895 402.594 154.191 402.594 154.191C330.543 239.422 169.961 290.215 169.961 290.215C163.18 293.227 155.238 289.934 153.734 282.363Z" fill="url(#paint17_linear_0_645)"/>
<path d="M161.613 210.879C162.031 210.293 162.406 209.672 162.723 209.004C162.926 208.594 163.02 208.391 163.215 207.98C165.301 203.609 169.09 201.145 173.074 200.539C239.754 176.5 299.219 138.648 350.668 90.8281C350.68 90.8203 350.684 90.8125 350.684 90.8086C351.285 90.2578 351.875 89.707 352.457 89.1523C354.586 87.5195 357.277 86.5117 360.379 86.5195L361.539 86.5273C367.18 86.5468 372.184 82.914 373.91 77.5429L374.266 76.4414C376.328 70.0078 382.395 66.8945 388.117 67.5468C380.09 77.0664 364.84 87.8164 351.992 99.3007C243.766 196.016 145.824 215.742 145.824 215.742C151.129 214.285 153.781 213.516 159.094 211.891C159.883 211.465 160.727 211.129 161.613 210.879Z" fill="url(#paint18_linear_0_645)"/>
<path d="M133.551 251.039C133.551 251.039 236.383 235.508 353.117 124.211C373.766 104.523 389.953 90.0039 402.621 79.4336C405.441 81.2422 408.922 81.9375 412.351 81.1992L413.488 80.957C423.125 78.875 430.91 87.7031 428.859 96.4609C413.707 105.344 393.648 120.555 367.578 144.133C239.656 259.824 141.25 272.246 141.25 272.246C130.539 272.148 126.117 258.086 133.551 251.039Z" fill="url(#paint19_linear_0_645)"/>
<path d="M134.336 250.203C138.145 246.188 138.938 240.211 136.32 235.59C136.105 235.211 135.996 235.02 135.777 234.637C131.195 226.5 136.98 216.809 145.824 215.738C145.824 215.738 243.77 196.016 351.992 99.2969C364.84 87.8203 380.086 77.0703 388.113 67.5547C391.922 67.9805 395.582 70.0703 397.812 73.9688L398.391 74.9805C399.449 76.8242 400.914 78.3359 402.625 79.4297C389.957 90.0039 373.766 104.523 353.117 124.211C236.383 235.508 133.551 251.039 133.551 251.039C133.863 250.703 134.02 250.535 134.336 250.203Z" fill="url(#paint20_linear_0_645)"/>
<path d="M382.121 151.359C387.703 161.121 402.226 159.602 405.668 148.891L406.023 147.785C407.75 142.418 412.754 138.785 418.391 138.805H419.555C422.609 138.82 425.277 137.844 427.391 136.238C428.344 135.527 429.176 134.68 429.883 133.742C433.387 129.109 433.762 122.227 429.191 117.18L428.41 116.32C424.621 112.141 423.976 105.992 426.816 101.117L427.398 100.113C433.062 90.3945 424.48 78.582 413.488 80.957L412.351 81.2031C406.84 82.3906 401.191 79.8711 398.391 74.9804L397.812 73.9726C392.226 64.2109 377.703 65.7304 374.266 76.4414L373.91 77.5429C372.183 82.914 367.18 86.5507 361.543 86.5273L360.379 86.5234C357.277 86.5117 354.586 87.5195 352.457 89.1523C351.816 89.6484 351.219 90.207 350.687 90.8086C350.683 90.8125 350.68 90.8203 350.672 90.8281C346.601 95.4414 345.91 102.82 350.742 108.148L351.523 109.016C355.308 113.191 355.953 119.34 353.117 124.211L352.531 125.219C346.871 134.937 355.453 146.754 366.441 144.379L367.582 144.133C373.094 142.941 378.742 145.457 381.543 150.352L382.121 151.359Z" fill="url(#paint21_radial_0_645)"/>
<path d="M388.133 124.711C390.234 128.383 395.703 127.813 396.996 123.781L397.133 123.363C397.781 121.344 399.664 119.977 401.785 119.984H402.223C403.371 119.992 404.375 119.621 405.172 119.02C405.531 118.75 405.844 118.434 406.109 118.078C407.43 116.336 407.57 113.746 405.848 111.844L405.555 111.523C404.129 109.949 403.887 107.633 404.957 105.801L405.176 105.422C407.305 101.762 404.074 97.3164 399.938 98.211L399.512 98.3008C397.438 98.75 395.313 97.8008 394.258 95.961L394.039 95.582C391.938 91.9063 386.469 92.4805 385.176 96.5117L385.043 96.9258C384.395 98.9492 382.512 100.316 380.387 100.309L379.949 100.305C378.781 100.301 377.77 100.68 376.969 101.297C376.727 101.48 376.5 101.691 376.301 101.918C376.301 101.922 376.297 101.922 376.293 101.926C374.766 103.66 374.504 106.441 376.32 108.445L376.613 108.77C378.039 110.344 378.281 112.656 377.215 114.492L376.996 114.871C374.863 118.527 378.094 122.977 382.231 122.082L382.66 121.992C384.734 121.543 386.859 122.488 387.914 124.332L388.133 124.711Z" fill="url(#paint22_linear_0_645)"/>
<path d="M425.043 171.973L424.598 172.191C409.488 179.563 391.801 179.48 376.762 171.961C361.527 164.527 343.727 164.527 328.504 171.961L328.492 171.973C313.258 179.406 295.457 179.406 280.223 171.973L280.211 171.961C264.988 164.527 247.188 164.527 231.953 171.961L231.941 171.973C216.719 179.406 198.902 179.406 183.68 171.973H183.668C176.059 168.25 167.801 166.387 159.539 166.387C151.195 166.387 142.848 168.289 135.156 172.09C120.055 179.559 102.285 179.363 87.1406 171.973C75.9922 166.531 63 174.648 63 187.051V475.902C63 495.84 79.1641 512 99.0977 512H413.09C433.023 512 449.184 495.84 449.184 475.902V187.051C449.184 174.648 436.191 166.531 425.043 171.973Z" fill="url(#paint23_linear_0_645)"/>
<path d="M63 379.23V475.902C63 495.84 79.1641 512 99.0977 512H413.09C433.023 512 449.184 495.84 449.184 475.902V379.23H63Z" fill="url(#paint24_linear_0_645)"/>
<path d="M425.043 171.973L424.598 172.191C409.488 179.563 391.801 179.48 376.762 171.961C361.527 164.527 343.727 164.527 328.504 171.961L328.492 171.973C313.258 179.406 295.457 179.406 280.223 171.973L280.211 171.961C264.988 164.527 247.188 164.527 231.953 171.961L231.941 171.973C216.719 179.406 198.902 179.406 183.68 171.973H183.668C176.059 168.25 167.801 166.387 159.539 166.387C151.195 166.387 142.848 168.289 135.156 172.09C120.055 179.559 102.285 179.363 87.1406 171.973C85.2227 171.035 83.25 170.512 81.3008 170.328L421.887 510.914C437.566 506.988 449.184 492.805 449.184 475.902V187.051C449.184 174.648 436.191 166.531 425.043 171.973Z" fill="url(#paint25_linear_0_645)"/>
<path d="M168.219 207.477C168.219 214.789 162.289 220.723 154.973 220.723C147.656 220.723 141.727 214.789 141.727 207.477C141.727 200.16 147.656 194.23 154.973 194.23C162.289 194.23 168.219 200.16 168.219 207.477Z" fill="url(#paint26_linear_0_645)"/>
<path d="M358.387 207.477C358.387 214.789 352.457 220.723 345.141 220.723C337.824 220.723 331.895 214.789 331.895 207.477C331.895 200.16 337.824 194.23 345.141 194.23C352.457 194.23 358.387 200.16 358.387 207.477Z" fill="url(#paint27_linear_0_645)"/>
<path d="M449.184 474.773V299.07L358.348 208.234C357.953 215.195 352.199 220.723 345.141 220.723C341.93 220.723 338.988 219.578 336.695 217.676V274.66C336.695 302.551 323.434 327.387 302.902 343.242L168.062 209.41C167.125 215.805 161.629 220.723 154.973 220.723C151.094 220.723 147.617 219.043 145.195 216.387V274.66C145.195 304.859 158.043 332.098 178.539 351.25L339.289 512H411.961C432.52 512 449.184 495.332 449.184 474.773Z" fill="url(#paint28_linear_0_645)"/>
<path d="M250.059 379.523C192.238 379.523 145.195 332.48 145.195 274.66V207.531C145.195 202.5 149.273 198.422 154.309 198.422C159.344 198.422 163.422 202.5 163.422 207.531V274.66C163.422 322.43 202.285 361.297 250.059 361.297C297.832 361.297 336.695 322.43 336.695 274.66V207.531C336.695 202.5 340.773 198.422 345.809 198.422C350.844 198.422 354.922 202.5 354.922 207.531V274.66C354.918 332.48 307.879 379.523 250.059 379.523Z" fill="url(#paint29_linear_0_645)"/>
<defs>
<linearGradient id="paint0_linear_0_645" x1="256.093" y1="144.372" x2="256.093" y2="283.63" gradientUnits="userSpaceOnUse">
<stop stop-color="#FF6E3A"/>
<stop offset="0.1596" stop-color="#FF6440"/>
<stop offset="0.4266" stop-color="#FF4B52"/>
<stop offset="0.7662" stop-color="#FF216E"/>
<stop offset="1" stop-color="#FF0084"/>
</linearGradient>
<linearGradient id="paint1_linear_0_645" x1="256.093" y1="85.5353" x2="256.093" y2="175.727" gradientUnits="userSpaceOnUse">
<stop stop-color="#E58200" stop-opacity="0"/>
<stop offset="0.2413" stop-color="#DA760F" stop-opacity="0.243137"/>
<stop offset="0.7044" stop-color="#BC5737" stop-opacity="0.705882"/>
<stop offset="1" stop-color="#A64153"/>
</linearGradient>
<linearGradient id="paint2_linear_0_645" x1="81.6651" y1="148.212" x2="193.886" y2="188.774" gradientUnits="userSpaceOnUse">
<stop stop-color="#FFD459"/>
<stop offset="0.1792" stop-color="#FFD152"/>
<stop offset="0.4408" stop-color="#FFCA3E"/>
<stop offset="0.7513" stop-color="#FFBF1F"/>
<stop offset="1" stop-color="#FFB400"/>
</linearGradient>
<linearGradient id="paint3_linear_0_645" x1="167.167" y1="173.74" x2="232.154" y2="173.74" gradientUnits="userSpaceOnUse">
<stop stop-color="#E58200" stop-opacity="0"/>
<stop offset="0.1923" stop-color="#DE7B09" stop-opacity="0.192157"/>
<stop offset="0.5014" stop-color="#CD6920" stop-opacity="0.501961"/>
<stop offset="0.8866" stop-color="#B04B46" stop-opacity="0.886275"/>
<stop offset="1" stop-color="#A64153"/>
</linearGradient>
<linearGradient id="paint4_linear_0_645" x1="152.294" y1="93.2391" x2="152.294" y2="49.6363" gradientUnits="userSpaceOnUse">
<stop stop-color="#E58200" stop-opacity="0"/>
<stop offset="0.0396" stop-color="#E27F04" stop-opacity="0.039216"/>
<stop offset="0.4671" stop-color="#C15D2F" stop-opacity="0.466667"/>
<stop offset="0.8016" stop-color="#AD4949" stop-opacity="0.8"/>
<stop offset="1" stop-color="#A64153"/>
</linearGradient>
<linearGradient id="paint5_linear_0_645" x1="152.294" y1="152.73" x2="152.294" y2="121.964" gradientUnits="userSpaceOnUse">
<stop stop-color="#E58200" stop-opacity="0"/>
<stop offset="0.0396" stop-color="#E27F04" stop-opacity="0.039216"/>
<stop offset="0.4671" stop-color="#C15D2F" stop-opacity="0.466667"/>
<stop offset="0.8016" stop-color="#AD4949" stop-opacity="0.8"/>
<stop offset="1" stop-color="#A64153"/>
</linearGradient>
<linearGradient id="paint6_linear_0_645" x1="152.294" y1="212.221" x2="152.294" y2="174.811" gradientUnits="userSpaceOnUse">
<stop stop-color="#E58200" stop-opacity="0"/>
<stop offset="0.0396" stop-color="#E27F04" stop-opacity="0.039216"/>
<stop offset="0.4671" stop-color="#C15D2F" stop-opacity="0.466667"/>
<stop offset="0.8016" stop-color="#AD4949" stop-opacity="0.8"/>
<stop offset="1" stop-color="#A64153"/>
</linearGradient>
<linearGradient id="paint7_linear_0_645" x1="152.294" y1="278.472" x2="152.294" y2="227.945" gradientUnits="userSpaceOnUse">
<stop stop-color="#E58200" stop-opacity="0"/>
<stop offset="0.0396" stop-color="#E27F04" stop-opacity="0.039216"/>
<stop offset="0.4671" stop-color="#C15D2F" stop-opacity="0.466667"/>
<stop offset="0.8016" stop-color="#AD4949" stop-opacity="0.8"/>
<stop offset="1" stop-color="#A64153"/>
</linearGradient>
<linearGradient id="paint8_linear_0_645" x1="238.225" y1="179.459" x2="290.686" y2="213.836" gradientUnits="userSpaceOnUse">
<stop stop-color="#FFD459"/>
<stop offset="0.2296" stop-color="#FFD355"/>
<stop offset="0.4362" stop-color="#FFCF4A"/>
<stop offset="0.634" stop-color="#FFC838"/>
<stop offset="0.825" stop-color="#FFBF1F"/>
<stop offset="1" stop-color="#FFB400"/>
</linearGradient>
<linearGradient id="paint9_linear_0_645" x1="287.952" y1="210.779" x2="240.748" y2="180.102" gradientUnits="userSpaceOnUse">
<stop stop-color="#E58200" stop-opacity="0"/>
<stop offset="0.0396" stop-color="#E27F04" stop-opacity="0.039216"/>
<stop offset="0.4671" stop-color="#C15D2F" stop-opacity="0.466667"/>
<stop offset="0.8016" stop-color="#AD4949" stop-opacity="0.8"/>
<stop offset="1" stop-color="#A64153"/>
</linearGradient>
<linearGradient id="paint10_linear_0_645" x1="214.919" y1="155.843" x2="254.159" y2="179.063" gradientUnits="userSpaceOnUse">
<stop stop-color="#E58200" stop-opacity="0"/>
<stop offset="0.0396" stop-color="#E27F04" stop-opacity="0.039216"/>
<stop offset="0.4671" stop-color="#C15D2F" stop-opacity="0.466667"/>
<stop offset="0.8016" stop-color="#AD4949" stop-opacity="0.8"/>
<stop offset="1" stop-color="#A64153"/>
</linearGradient>
<linearGradient id="paint11_linear_0_645" x1="270.687" y1="201.121" x2="221.739" y2="168.284" gradientUnits="userSpaceOnUse">
<stop stop-color="#E58200" stop-opacity="0"/>
<stop offset="0.0396" stop-color="#E27F04" stop-opacity="0.039216"/>
<stop offset="0.4671" stop-color="#C15D2F" stop-opacity="0.466667"/>
<stop offset="0.8016" stop-color="#AD4949" stop-opacity="0.8"/>
<stop offset="1" stop-color="#A64153"/>
</linearGradient>
<linearGradient id="paint12_linear_0_645" x1="215.311" y1="168.178" x2="297.815" y2="227.385" gradientUnits="userSpaceOnUse">
<stop stop-color="#E58200" stop-opacity="0"/>
<stop offset="0.0396" stop-color="#E27F04" stop-opacity="0.039216"/>
<stop offset="0.4671" stop-color="#C15D2F" stop-opacity="0.466667"/>
<stop offset="0.8016" stop-color="#AD4949" stop-opacity="0.8"/>
<stop offset="1" stop-color="#A64153"/>
</linearGradient>
<radialGradient id="paint13_radial_0_645" cx="0" cy="0" r="1" gradientUnits="userSpaceOnUse" gradientTransform="translate(316.742 78.2072) scale(43.5307)">
<stop stop-color="#FFD459"/>
<stop offset="0.2296" stop-color="#FFD355"/>
<stop offset="0.4362" stop-color="#FFCF4A"/>
<stop offset="0.634" stop-color="#FFC838"/>
<stop offset="0.825" stop-color="#FFBF1F"/>
<stop offset="1" stop-color="#FFB400"/>
</radialGradient>
<linearGradient id="paint14_linear_0_645" x1="271.863" y1="77.0542" x2="352.604" y2="74.2265" gradientUnits="userSpaceOnUse">
<stop stop-color="#BE3F45" stop-opacity="0"/>
<stop offset="1" stop-color="#BE3F45"/>
</linearGradient>
<linearGradient id="paint15_linear_0_645" x1="257.117" y1="298.08" x2="231.001" y2="234.571" gradientUnits="userSpaceOnUse">
<stop stop-color="#BE3F45" stop-opacity="0"/>
<stop offset="1" stop-color="#BE3F45"/>
</linearGradient>
<linearGradient id="paint16_linear_0_645" x1="274.886" y1="169.081" x2="306.946" y2="222.988" gradientUnits="userSpaceOnUse">
<stop stop-color="#FFD459"/>
<stop offset="0.2296" stop-color="#FFD355"/>
<stop offset="0.4362" stop-color="#FFCF4A"/>
<stop offset="0.634" stop-color="#FFC838"/>
<stop offset="0.825" stop-color="#FFBF1F"/>
<stop offset="1" stop-color="#FFB400"/>
</linearGradient>
<linearGradient id="paint17_linear_0_645" x1="305.83" y1="219.041" x2="276.872" y2="170.766" gradientUnits="userSpaceOnUse">
<stop stop-color="#E58200" stop-opacity="0"/>
<stop offset="0.0396" stop-color="#E27F04" stop-opacity="0.039216"/>
<stop offset="0.4671" stop-color="#C15D2F" stop-opacity="0.466667"/>
<stop offset="0.8016" stop-color="#AD4949" stop-opacity="0.8"/>
<stop offset="1" stop-color="#A64153"/>
</linearGradient>
<linearGradient id="paint18_linear_0_645" x1="264.304" y1="137.636" x2="289.379" y2="175.716" gradientUnits="userSpaceOnUse">
<stop stop-color="#E58200" stop-opacity="0"/>
<stop offset="0.0396" stop-color="#E27F04" stop-opacity="0.039216"/>
<stop offset="0.4671" stop-color="#C15D2F" stop-opacity="0.466667"/>
<stop offset="0.8016" stop-color="#AD4949" stop-opacity="0.8"/>
<stop offset="1" stop-color="#A64153"/>
</linearGradient>
<linearGradient id="paint19_linear_0_645" x1="294.552" y1="202.788" x2="264.975" y2="151.807" gradientUnits="userSpaceOnUse">
<stop stop-color="#E58200" stop-opacity="0"/>
<stop offset="0.0396" stop-color="#E27F04" stop-opacity="0.039216"/>
<stop offset="0.4671" stop-color="#C15D2F" stop-opacity="0.466667"/>
<stop offset="0.8016" stop-color="#AD4949" stop-opacity="0.8"/>
<stop offset="1" stop-color="#A64153"/>
</linearGradient>
<linearGradient id="paint20_linear_0_645" x1="259.246" y1="148.891" x2="307.408" y2="238.29" gradientUnits="userSpaceOnUse">
<stop stop-color="#E58200" stop-opacity="0"/>
<stop offset="0.0396" stop-color="#E27F04" stop-opacity="0.039216"/>
<stop offset="0.4671" stop-color="#C15D2F" stop-opacity="0.466667"/>
<stop offset="0.8016" stop-color="#AD4949" stop-opacity="0.8"/>
<stop offset="1" stop-color="#A64153"/>
</linearGradient>
<radialGradient id="paint21_radial_0_645" cx="0" cy="0" r="1" gradientUnits="userSpaceOnUse" gradientTransform="translate(389.965 112.666) scale(43.9242)">
<stop stop-color="#FFD459"/>
<stop offset="0.2296" stop-color="#FFD355"/>
<stop offset="0.4362" stop-color="#FFCF4A"/>
<stop offset="0.634" stop-color="#FFC838"/>
<stop offset="0.825" stop-color="#FFBF1F"/>
<stop offset="1" stop-color="#FFB400"/>
</radialGradient>
<linearGradient id="paint22_linear_0_645" x1="350.039" y1="91.8193" x2="423.833" y2="124.701" gradientUnits="userSpaceOnUse">
<stop stop-color="#BE3F45" stop-opacity="0"/>
<stop offset="1" stop-color="#BE3F45"/>
</linearGradient>
<linearGradient id="paint23_linear_0_645" x1="261.624" y1="339.192" x2="540.188" y2="339.192" gradientUnits="userSpaceOnUse">
<stop stop-color="#FF6E3A"/>
<stop offset="0.1596" stop-color="#FF6440"/>
<stop offset="0.4266" stop-color="#FF4B52"/>
<stop offset="0.7662" stop-color="#FF216E"/>
<stop offset="1" stop-color="#FF0084"/>
</linearGradient>
<linearGradient id="paint24_linear_0_645" x1="256.093" y1="468.686" x2="256.093" y2="507.94" gradientUnits="userSpaceOnUse">
<stop stop-color="#E58200" stop-opacity="0"/>
<stop offset="0.2413" stop-color="#DA760F" stop-opacity="0.243137"/>
<stop offset="0.7044" stop-color="#BC5737" stop-opacity="0.705882"/>
<stop offset="1" stop-color="#A64153"/>
</linearGradient>
<linearGradient id="paint25_linear_0_645" x1="310.13" y1="306.233" x2="221.563" y2="51.7189" gradientUnits="userSpaceOnUse">
<stop stop-color="#E58200" stop-opacity="0"/>
<stop offset="0.2413" stop-color="#DA760F" stop-opacity="0.243137"/>
<stop offset="0.7044" stop-color="#BC5737" stop-opacity="0.705882"/>
<stop offset="1" stop-color="#A64153"/>
</linearGradient>
<linearGradient id="paint26_linear_0_645" x1="155.353" y1="207.476" x2="174.462" y2="207.476" gradientUnits="userSpaceOnUse">
<stop stop-color="#3B395F"/>
<stop offset="0.8022" stop-color="#1B1F3A"/>
<stop offset="1" stop-color="#131830"/>
</linearGradient>
<linearGradient id="paint27_linear_0_645" x1="345.521" y1="207.476" x2="364.629" y2="207.476" gradientUnits="userSpaceOnUse">
<stop stop-color="#3B395F"/>
<stop offset="0.8022" stop-color="#1B1F3A"/>
<stop offset="1" stop-color="#131830"/>
</linearGradient>
<linearGradient id="paint28_linear_0_645" x1="434.034" y1="445.375" x2="87.0009" y2="98.3423" gradientUnits="userSpaceOnUse">
<stop stop-color="#E58200" stop-opacity="0"/>
<stop offset="0.2413" stop-color="#DA760F" stop-opacity="0.243137"/>
<stop offset="0.7044" stop-color="#BC5737" stop-opacity="0.705882"/>
<stop offset="1" stop-color="#A64153"/>
</linearGradient>
<linearGradient id="paint29_linear_0_645" x1="250.058" y1="198.42" x2="250.058" y2="379.522" gradientUnits="userSpaceOnUse">
<stop stop-color="#8BE1E2"/>
<stop offset="0.1873" stop-color="#87E1E1"/>
<stop offset="0.3558" stop-color="#7CE2DD"/>
<stop offset="0.5172" stop-color="#6AE2D7"/>
<stop offset="0.6741" stop-color="#50E4CE"/>
<stop offset="0.8278" stop-color="#2FE5C2"/>
<stop offset="0.9772" stop-color="#07E7B4"/>
<stop offset="1" stop-color="#00E7B2"/>
</linearGradient>
</defs>
</svg>
