<svg width="512" height="512" viewBox="0 0 512 512" fill="none" xmlns="http://www.w3.org/2000/svg">
<path d="M401.859 432.094L297.152 319.297L289.332 310.859L270.84 290.945C263.02 282.535 249.707 282.535 241.887 290.945L110.867 432.094C151.047 472.273 203.703 492.352 256.363 492.352C309.023 492.352 361.68 472.273 401.859 432.094Z" fill="url(#paint0_radial_0_690)"/>
<path d="M401.859 432.094L297.152 319.297L289.332 310.859L270.84 290.945C263.02 282.535 249.707 282.535 241.887 290.945L110.867 432.094C151.047 472.273 203.703 492.352 256.363 492.352C309.023 492.352 361.68 472.273 401.859 432.094Z" fill="url(#paint1_linear_0_690)"/>
<path d="M344.457 370.258L401.855 432.094C321.504 512.445 191.223 512.445 110.871 432.094L168.27 370.258C223.879 396.598 288.848 396.598 344.457 370.258Z" fill="url(#paint2_radial_0_690)"/>
<path d="M406.555 428.758C413.059 435.668 412.699 446.582 405.711 453.004C320.113 531.664 192.613 531.664 107.016 453.004C100.027 446.582 99.668 435.668 106.172 428.758C112.547 421.984 123.184 421.551 130.063 427.809C204.238 495.254 308.492 495.254 382.664 427.809C389.543 421.551 400.18 421.984 406.555 428.758Z" fill="url(#paint3_radial_0_690)"/>
<path d="M249.793 357.789C249.793 369.645 240.18 379.254 228.324 379.254C216.469 379.254 206.859 369.645 206.859 357.789C206.859 345.934 216.469 336.32 228.324 336.32C240.18 336.32 249.793 345.934 249.793 357.789Z" fill="url(#paint4_linear_0_690)"/>
<path d="M308.906 357.789C308.906 369.645 299.293 379.254 287.438 379.254C275.582 379.254 265.973 369.645 265.973 357.789C265.973 345.934 275.582 336.32 287.438 336.32C299.293 336.32 308.906 345.934 308.906 357.789Z" fill="url(#paint5_linear_0_690)"/>
<path d="M199.965 419.938C199.965 431.793 190.352 441.402 178.496 441.402C166.641 441.402 157.031 431.793 157.031 419.938C157.031 408.082 166.641 398.469 178.496 398.469C190.352 398.469 199.965 408.082 199.965 419.938Z" fill="url(#paint6_linear_0_690)"/>
<path d="M277.828 436.547C277.828 448.402 268.219 458.012 256.363 458.012C244.508 458.012 234.895 448.402 234.895 436.547C234.895 424.691 244.508 415.078 256.363 415.078C268.219 415.078 277.828 424.691 277.828 436.547Z" fill="url(#paint7_linear_0_690)"/>
<path d="M355.695 419.938C355.695 431.793 346.086 441.402 334.23 441.402C322.375 441.402 312.762 431.793 312.762 419.938C312.762 408.082 322.375 398.469 334.23 398.469C346.086 398.469 355.695 408.082 355.695 419.938Z" fill="url(#paint8_linear_0_690)"/>
<path d="M225.691 443.203C223.52 445.504 220.445 446.941 217.039 446.941C210.465 446.941 205.117 441.594 205.117 435.02C205.117 431.613 206.555 428.539 208.855 426.363L232.316 402.902C234.488 400.605 237.562 399.168 240.969 399.168C247.543 399.168 252.891 404.516 252.891 411.086C252.891 414.492 251.453 417.566 249.156 419.742L225.691 443.203Z" fill="url(#paint9_linear_0_690)"/>
<path d="M228.961 435.02C228.961 441.594 223.613 446.941 217.039 446.941C210.469 446.941 205.117 441.594 205.117 435.02C205.117 428.445 210.469 423.098 217.039 423.098C223.613 423.098 228.961 428.445 228.961 435.02ZM223.145 435.02C223.145 431.652 220.406 428.914 217.039 428.914C213.672 428.914 210.934 431.652 210.934 435.02C210.934 438.387 213.672 441.125 217.039 441.125C220.406 441.125 223.145 438.387 223.145 435.02Z" fill="url(#paint10_linear_0_690)"/>
<path d="M306.328 443.203C304.152 445.504 301.078 446.941 297.672 446.941C291.098 446.941 285.75 441.594 285.75 435.02C285.75 431.613 287.191 428.539 289.488 426.363L312.949 402.902C315.125 400.605 318.199 399.168 321.605 399.168C328.176 399.168 333.523 404.516 333.523 411.086C333.523 414.492 332.086 417.566 329.789 419.742L306.328 443.203Z" fill="url(#paint11_linear_0_690)"/>
<path d="M309.594 435.02C309.594 441.594 304.246 446.941 297.672 446.941C291.102 446.941 285.754 441.594 285.754 435.02C285.754 428.445 291.102 423.098 297.672 423.098C304.246 423.098 309.594 428.445 309.594 435.02ZM303.781 435.02C303.781 431.652 301.039 428.914 297.672 428.914C294.305 428.914 291.566 431.652 291.566 435.02C291.566 438.387 294.309 441.125 297.672 441.125C301.039 441.125 303.781 438.387 303.781 435.02Z" fill="url(#paint12_linear_0_690)"/>
<path d="M193.547 390.164C191.371 392.461 188.297 393.898 184.891 393.898C178.316 393.898 172.973 388.551 172.973 381.977C172.973 378.574 174.41 375.496 176.707 373.324L200.168 349.863C202.344 347.563 205.418 346.125 208.824 346.125C215.398 346.125 220.742 351.473 220.742 358.047C220.742 361.453 219.305 364.527 217.008 366.699L193.547 390.164Z" fill="url(#paint13_linear_0_690)"/>
<path d="M196.812 381.977C196.812 388.551 191.465 393.898 184.895 393.898C178.32 393.898 172.973 388.551 172.973 381.977C172.973 375.402 178.32 370.055 184.895 370.055C191.465 370.055 196.812 375.406 196.812 381.977ZM191 381.977C191 378.609 188.258 375.871 184.895 375.871C181.527 375.871 178.785 378.609 178.785 381.977C178.785 385.344 181.527 388.082 184.895 388.082C188.258 388.082 191 385.344 191 381.977Z" fill="url(#paint14_linear_0_690)"/>
<path d="M265.875 400.609C263.703 402.91 260.629 404.348 257.223 404.348C250.648 404.348 245.301 399 245.301 392.426C245.301 389.02 246.738 385.945 249.035 383.77L272.5 360.309C274.672 358.012 277.746 356.574 281.152 356.574C287.727 356.574 293.074 361.922 293.074 368.492C293.074 371.898 291.637 374.973 289.34 377.148L265.875 400.609Z" fill="url(#paint15_linear_0_690)"/>
<path d="M269.145 392.426C269.145 399 263.797 404.344 257.223 404.344C250.648 404.344 245.301 398.996 245.301 392.426C245.301 385.852 250.648 380.504 257.223 380.504C263.797 380.504 269.145 385.852 269.145 392.426ZM263.328 392.426C263.328 389.059 260.59 386.32 257.223 386.32C253.855 386.32 251.117 389.059 251.117 392.426C251.117 395.793 253.855 398.531 257.223 398.531C260.59 398.531 263.328 395.793 263.328 392.426Z" fill="url(#paint16_linear_0_690)"/>
<path d="M285.52 306.766L270.836 290.949C270.32 290.391 269.781 289.871 269.215 289.391L249.039 309.566C246.742 311.742 245.301 314.812 245.301 318.219C245.301 324.793 250.648 330.141 257.219 330.141C260.629 330.141 263.703 328.703 265.879 326.406L285.52 306.766Z" fill="url(#paint17_linear_0_690)"/>
<path d="M269.145 318.219C269.145 324.793 263.797 330.141 257.223 330.141C250.648 330.141 245.301 324.793 245.301 318.219C245.301 311.645 250.648 306.301 257.223 306.301C263.797 306.301 269.145 311.648 269.145 318.219ZM263.328 318.219C263.328 314.852 260.59 312.113 257.223 312.113C253.855 312.113 251.117 314.855 251.117 318.219C251.117 321.586 253.855 324.324 257.223 324.324C260.59 324.328 263.328 321.586 263.328 318.219Z" fill="url(#paint18_linear_0_690)"/>
<path d="M351.027 377.344L334.816 359.875L321.367 373.324C319.07 375.5 317.629 378.57 317.629 381.977C317.629 388.551 322.977 393.898 329.551 393.898C332.957 393.898 336.035 392.461 338.207 390.164L351.027 377.344Z" fill="url(#paint19_linear_0_690)"/>
<path d="M341.473 381.977C341.473 388.551 336.125 393.898 329.551 393.898C322.977 393.898 317.633 388.551 317.633 381.977C317.633 375.402 322.98 370.055 329.551 370.055C336.125 370.055 341.473 375.406 341.473 381.977ZM335.656 381.977C335.656 378.609 332.918 375.871 329.551 375.871C326.184 375.871 323.445 378.609 323.445 381.977C323.445 385.344 326.188 388.082 329.551 388.082C332.918 388.082 335.656 385.344 335.656 381.977Z" fill="url(#paint20_linear_0_690)"/>
<path d="M403.816 430.133L291.02 325.426L282.586 317.605L262.668 299.113C254.262 291.293 254.262 277.98 262.668 270.164L403.816 139.141C443.996 179.32 464.078 231.98 464.078 284.637C464.078 337.297 443.996 389.953 403.816 430.133Z" fill="url(#paint21_radial_0_690)"/>
<path d="M403.816 430.133L291.02 325.426L282.586 317.605L262.668 299.113C254.262 291.293 254.262 277.98 262.668 270.164L272.34 261.184L425.316 404.875C418.934 413.719 411.777 422.176 403.816 430.133Z" fill="url(#paint22_linear_0_690)"/>
<path d="M341.984 372.73L403.816 430.129C484.172 349.777 484.172 219.496 403.816 139.145L341.984 196.543C368.32 252.152 368.32 317.121 341.984 372.73Z" fill="url(#paint23_radial_0_690)"/>
<path d="M400.484 434.828C407.394 441.332 418.309 440.973 424.73 433.984C503.391 348.387 503.391 220.887 424.73 135.289C418.309 128.301 407.394 127.941 400.484 134.445C393.711 140.82 393.277 151.457 399.535 158.336C466.98 232.512 466.98 336.766 399.535 410.937C393.277 417.82 393.711 428.453 400.484 434.828Z" fill="url(#paint24_radial_0_690)"/>
<path d="M350.98 256.598C350.98 268.453 341.367 278.066 329.512 278.066C317.656 278.066 308.047 268.453 308.047 256.598C308.047 244.742 317.656 235.133 329.512 235.133C341.367 235.133 350.98 244.742 350.98 256.598Z" fill="url(#paint25_linear_0_690)"/>
<path d="M350.98 315.711C350.98 327.566 341.367 337.18 329.512 337.18C317.656 337.18 308.047 327.566 308.047 315.711C308.047 303.855 317.656 294.246 329.512 294.246C341.367 294.246 350.98 303.855 350.98 315.711Z" fill="url(#paint26_linear_0_690)"/>
<path d="M413.129 206.773C413.129 218.629 403.52 228.238 391.664 228.238C379.809 228.238 370.195 218.629 370.195 206.773C370.195 194.914 379.809 185.305 391.664 185.305C403.52 185.305 413.129 194.914 413.129 206.773Z" fill="url(#paint27_linear_0_690)"/>
<path d="M429.738 284.637C429.738 296.492 420.129 306.105 408.273 306.105C396.418 306.105 386.805 296.492 386.805 284.637C386.805 272.781 396.418 263.172 408.273 263.172C420.129 263.172 429.738 272.781 429.738 284.637Z" fill="url(#paint28_linear_0_690)"/>
<path d="M413.129 362.504C413.129 374.359 403.52 383.973 391.664 383.973C379.809 383.973 370.195 374.359 370.195 362.504C370.195 350.648 379.809 341.039 391.664 341.039C403.52 341.039 413.129 350.648 413.129 362.504Z" fill="url(#paint29_linear_0_690)"/>
<path d="M414.93 253.969C417.23 251.793 418.668 248.719 418.668 245.312C418.668 238.738 413.316 233.395 406.746 233.395C403.34 233.395 400.266 234.832 398.09 237.129L374.629 260.59C372.332 262.766 370.895 265.84 370.895 269.246C370.895 275.82 376.242 281.164 382.812 281.164C386.219 281.164 389.293 279.727 391.469 277.43L414.93 253.969Z" fill="url(#paint30_linear_0_690)"/>
<path d="M394.824 245.312C394.824 238.738 400.172 233.395 406.746 233.395C413.316 233.395 418.664 238.742 418.664 245.312C418.664 251.887 413.316 257.234 406.746 257.234C400.172 257.234 394.824 251.887 394.824 245.312ZM412.852 245.312C412.852 241.945 410.113 239.207 406.746 239.207C403.379 239.207 400.641 241.945 400.641 245.312C400.641 248.68 403.379 251.418 406.746 251.418C410.113 251.418 412.852 248.68 412.852 245.312Z" fill="url(#paint31_linear_0_690)"/>
<path d="M414.93 334.602C417.23 332.426 418.668 329.355 418.668 325.945C418.668 319.375 413.316 314.027 406.746 314.027C403.34 314.027 400.266 315.465 398.09 317.762L374.629 341.223C372.332 343.398 370.895 346.473 370.895 349.879C370.895 356.453 376.242 361.801 382.812 361.801C386.219 361.801 389.293 360.363 391.469 358.062L414.93 334.602Z" fill="url(#paint32_linear_0_690)"/>
<path d="M394.824 325.945C394.824 319.375 400.172 314.027 406.746 314.027C413.316 314.027 418.664 319.375 418.664 325.945C418.664 332.52 413.316 337.867 406.746 337.867C400.172 337.867 394.824 332.52 394.824 325.945ZM412.852 325.945C412.852 322.582 410.113 319.84 406.746 319.84C403.379 319.84 400.641 322.582 400.641 325.945C400.641 329.312 403.379 332.055 406.746 332.055C410.113 332.055 412.852 329.312 412.852 325.945Z" fill="url(#paint33_linear_0_690)"/>
<path d="M361.887 221.82C364.188 219.648 365.625 216.574 365.625 213.168C365.625 206.594 360.277 201.246 353.703 201.246C350.297 201.246 347.223 202.684 345.047 204.98L321.586 228.441C319.289 230.617 317.852 233.691 317.852 237.098C317.852 243.672 323.199 249.02 329.77 249.02C333.176 249.02 336.25 247.582 338.426 245.281L361.887 221.82Z" fill="url(#paint34_linear_0_690)"/>
<path d="M341.781 213.168C341.781 206.594 347.129 201.246 353.703 201.246C360.277 201.246 365.621 206.594 365.621 213.168C365.621 219.738 360.273 225.086 353.703 225.086C347.129 225.086 341.781 219.742 341.781 213.168ZM359.809 213.168C359.809 209.801 357.07 207.062 353.703 207.062C350.336 207.062 347.598 209.801 347.598 213.168C347.598 216.531 350.336 219.273 353.703 219.273C357.07 219.273 359.809 216.535 359.809 213.168Z" fill="url(#paint35_linear_0_690)"/>
<path d="M372.336 294.152C374.633 291.977 376.07 288.902 376.07 285.496C376.07 278.922 370.723 273.574 364.152 273.574C360.746 273.574 357.672 275.012 355.496 277.312L332.035 300.773C329.738 302.949 328.297 306.02 328.297 309.426C328.297 316 333.645 321.348 340.219 321.348C343.625 321.348 346.699 319.91 348.871 317.613L372.336 294.152Z" fill="url(#paint36_linear_0_690)"/>
<path d="M352.23 285.496C352.23 278.922 357.578 273.574 364.148 273.574C370.723 273.574 376.07 278.922 376.07 285.496C376.07 292.07 370.723 297.418 364.148 297.418C357.578 297.418 352.23 292.07 352.23 285.496ZM370.258 285.496C370.258 282.129 367.516 279.391 364.152 279.391C360.785 279.391 358.047 282.129 358.047 285.496C358.047 288.863 360.785 291.602 364.152 291.602C367.516 291.602 370.258 288.863 370.258 285.496Z" fill="url(#paint37_linear_0_690)"/>
<path d="M278.492 313.793L262.676 299.109C262.117 298.594 261.598 298.055 261.117 297.492L281.293 277.312C283.469 275.016 286.539 273.574 289.945 273.574C296.52 273.574 301.867 278.922 301.867 285.496C301.867 288.902 300.43 291.977 298.133 294.152L278.492 313.793Z" fill="url(#paint38_linear_0_690)"/>
<path d="M278.023 285.496C278.023 278.922 283.371 273.574 289.945 273.574C296.52 273.574 301.867 278.922 301.867 285.496C301.867 292.07 296.52 297.418 289.945 297.418C283.371 297.418 278.023 292.07 278.023 285.496ZM296.051 285.496C296.051 282.129 293.312 279.391 289.945 279.391C286.578 279.391 283.84 282.129 283.84 285.496C283.84 288.863 286.582 291.602 289.945 291.602C293.312 291.602 296.051 288.863 296.051 285.496Z" fill="url(#paint39_linear_0_690)"/>
<path d="M349.066 379.305L331.602 363.09L345.051 349.645C347.227 347.344 350.297 345.902 353.703 345.902C360.277 345.902 365.621 351.25 365.621 357.824C365.621 361.23 364.188 364.309 361.887 366.484L349.066 379.305Z" fill="url(#paint40_linear_0_690)"/>
<path d="M341.781 357.824C341.781 351.254 347.129 345.906 353.703 345.906C360.277 345.906 365.621 351.254 365.621 357.824C365.621 364.398 360.273 369.746 353.703 369.746C347.129 369.746 341.781 364.398 341.781 357.824ZM359.809 357.824C359.809 354.457 357.07 351.719 353.703 351.719C350.336 351.719 347.598 354.461 347.598 357.824C347.598 361.191 350.336 363.93 353.703 363.93C357.07 363.934 359.809 361.191 359.809 357.824Z" fill="url(#paint41_linear_0_690)"/>
<path d="M108.906 430.133L221.707 325.426L230.141 317.605L250.055 299.113C258.465 291.293 258.465 277.98 250.055 270.164L108.906 139.141C68.7305 179.32 48.6484 231.98 48.6484 284.637C48.6484 337.297 68.7305 389.953 108.906 430.133Z" fill="url(#paint42_radial_0_690)"/>
<path d="M108.906 430.133L221.707 325.426L230.141 317.605L250.055 299.113C258.465 291.293 258.465 277.98 250.055 270.164L240.383 261.184L87.4102 404.875C93.793 413.719 100.949 422.176 108.906 430.133Z" fill="url(#paint43_linear_0_690)"/>
<path d="M170.742 372.73L108.906 430.129C28.5547 349.777 28.5547 219.496 108.906 139.145L170.742 196.543C144.406 252.152 144.406 317.121 170.742 372.73Z" fill="url(#paint44_radial_0_690)"/>
<path d="M112.242 434.828C105.332 441.332 94.418 440.973 87.9961 433.984C9.33594 348.387 9.33594 220.887 87.9961 135.289C94.418 128.301 105.332 127.941 112.242 134.445C119.016 140.82 119.449 151.457 113.191 158.336C45.7461 232.512 45.7461 336.766 113.191 410.937C119.449 417.82 119.016 428.453 112.242 434.828Z" fill="url(#paint45_radial_0_690)"/>
<path d="M204.68 256.598C204.68 268.453 195.07 278.066 183.215 278.066C171.359 278.066 161.746 268.453 161.746 256.598C161.746 244.742 171.359 235.133 183.215 235.133C195.07 235.133 204.68 244.742 204.68 256.598Z" fill="url(#paint46_linear_0_690)"/>
<path d="M204.68 315.711C204.68 327.566 195.07 337.18 183.215 337.18C171.359 337.18 161.746 327.566 161.746 315.711C161.746 303.855 171.359 294.246 183.215 294.246C195.07 294.246 204.68 303.855 204.68 315.711Z" fill="url(#paint47_linear_0_690)"/>
<path d="M142.531 206.773C142.531 218.629 132.918 228.238 121.062 228.238C109.207 228.238 99.5977 218.629 99.5977 206.773C99.5977 194.914 109.207 185.305 121.062 185.305C132.918 185.305 142.531 194.914 142.531 206.773Z" fill="url(#paint48_linear_0_690)"/>
<path d="M125.922 284.637C125.922 296.492 116.309 306.105 104.453 306.105C92.5977 306.105 82.9883 296.492 82.9883 284.637C82.9883 272.781 92.5977 263.172 104.453 263.172C116.309 263.172 125.922 272.781 125.922 284.637Z" fill="url(#paint49_linear_0_690)"/>
<path d="M142.531 362.504C142.531 374.359 132.918 383.973 121.062 383.973C109.207 383.973 99.5977 374.359 99.5977 362.504C99.5977 350.648 109.207 341.039 121.062 341.039C132.918 341.039 142.531 350.648 142.531 362.504Z" fill="url(#paint50_linear_0_690)"/>
<path d="M97.7969 253.969C95.4961 251.793 94.0586 248.719 94.0586 245.312C94.0586 238.738 99.4062 233.395 105.98 233.395C109.387 233.395 112.461 234.832 114.637 237.129L138.098 260.59C140.395 262.766 141.832 265.84 141.832 269.246C141.832 275.82 136.484 281.164 129.914 281.164C126.508 281.164 123.434 279.727 121.258 277.43L97.7969 253.969Z" fill="url(#paint51_linear_0_690)"/>
<path d="M105.98 257.234C99.4062 257.234 94.0625 251.887 94.0625 245.312C94.0625 238.738 99.4102 233.395 105.98 233.395C112.555 233.395 117.902 238.742 117.902 245.312C117.902 251.887 112.555 257.234 105.98 257.234ZM105.98 251.418C109.348 251.418 112.086 248.68 112.086 245.312C112.086 241.945 109.348 239.207 105.98 239.207C102.617 239.207 99.875 241.945 99.875 245.312C99.875 248.68 102.613 251.418 105.98 251.418Z" fill="url(#paint52_linear_0_690)"/>
<path d="M97.7969 334.602C95.4961 332.426 94.0586 329.355 94.0586 325.945C94.0586 319.375 99.4062 314.027 105.98 314.027C109.387 314.027 112.461 315.465 114.637 317.762L138.098 341.223C140.395 343.398 141.832 346.473 141.832 349.879C141.832 356.453 136.484 361.801 129.914 361.801C126.508 361.801 123.434 360.363 121.258 358.062L97.7969 334.602Z" fill="url(#paint53_linear_0_690)"/>
<path d="M105.98 337.867C99.4062 337.867 94.0625 332.52 94.0625 325.949C94.0625 319.375 99.4102 314.027 105.98 314.027C112.555 314.027 117.902 319.375 117.902 325.949C117.902 332.52 112.555 337.867 105.98 337.867ZM105.98 332.055C109.348 332.055 112.086 329.312 112.086 325.949C112.086 322.582 109.348 319.844 105.98 319.844C102.617 319.844 99.875 322.582 99.875 325.949C99.875 329.312 102.613 332.055 105.98 332.055Z" fill="url(#paint54_linear_0_690)"/>
<path d="M150.84 221.82C148.539 219.648 147.102 216.574 147.102 213.168C147.102 206.594 152.449 201.246 159.023 201.246C162.43 201.246 165.504 202.684 167.676 204.98L191.141 228.441C193.438 230.617 194.875 233.691 194.875 237.098C194.875 243.672 189.527 249.02 182.957 249.02C179.551 249.02 176.477 247.582 174.301 245.281L150.84 221.82Z" fill="url(#paint55_linear_0_690)"/>
<path d="M159.023 225.086C152.449 225.086 147.102 219.738 147.102 213.168C147.102 206.594 152.449 201.246 159.023 201.246C165.594 201.246 170.945 206.594 170.945 213.168C170.945 219.738 165.598 225.086 159.023 225.086ZM159.023 219.273C162.391 219.273 165.129 216.531 165.129 213.168C165.129 209.801 162.391 207.062 159.023 207.062C155.656 207.062 152.918 209.801 152.918 213.168C152.918 216.531 155.656 219.273 159.023 219.273Z" fill="url(#paint56_linear_0_690)"/>
<path d="M140.391 294.152C138.094 291.977 136.656 288.902 136.656 285.496C136.656 278.922 142.004 273.574 148.574 273.574C151.98 273.574 155.055 275.012 157.23 277.312L180.691 300.773C182.988 302.949 184.43 306.02 184.43 309.426C184.43 316 179.082 321.348 172.508 321.348C169.102 321.348 166.027 319.91 163.855 317.613L140.391 294.152Z" fill="url(#paint57_linear_0_690)"/>
<path d="M148.574 297.418C142 297.418 136.656 292.07 136.656 285.496C136.656 278.926 142.004 273.578 148.574 273.578C155.148 273.578 160.496 278.926 160.496 285.496C160.496 292.07 155.148 297.418 148.574 297.418ZM148.574 291.602C151.941 291.602 154.68 288.863 154.68 285.496C154.68 282.133 151.941 279.391 148.574 279.391C145.207 279.391 142.469 282.133 142.469 285.496C142.469 288.863 145.207 291.602 148.574 291.602Z" fill="url(#paint58_linear_0_690)"/>
<path d="M234.234 313.793L250.051 299.109C250.609 298.594 251.129 298.055 251.609 297.492L231.434 277.312C229.258 275.016 226.188 273.574 222.781 273.574C216.207 273.574 210.859 278.922 210.859 285.496C210.859 288.902 212.297 291.977 214.594 294.152L234.234 313.793Z" fill="url(#paint59_linear_0_690)"/>
<path d="M222.781 297.418C216.207 297.418 210.859 292.07 210.859 285.496C210.859 278.926 216.207 273.578 222.781 273.578C229.355 273.578 234.703 278.926 234.703 285.496C234.703 292.07 229.355 297.418 222.781 297.418ZM222.781 291.602C226.148 291.602 228.887 288.863 228.887 285.496C228.887 282.133 226.148 279.391 222.781 279.391C219.414 279.391 216.676 282.133 216.676 285.496C216.676 288.863 219.414 291.602 222.781 291.602Z" fill="url(#paint60_linear_0_690)"/>
<path d="M163.656 379.305L181.125 363.09L167.676 349.645C165.5 347.344 162.43 345.902 159.023 345.902C152.449 345.902 147.102 351.25 147.102 357.824C147.102 361.23 148.539 364.309 150.84 366.484L163.656 379.305Z" fill="url(#paint61_linear_0_690)"/>
<path d="M159.023 369.746C152.449 369.746 147.102 364.398 147.102 357.828C147.102 351.254 152.449 345.906 159.023 345.906C165.594 345.906 170.945 351.254 170.945 357.828C170.945 364.398 165.598 369.746 159.023 369.746ZM159.023 363.934C162.391 363.934 165.129 361.191 165.129 357.828C165.129 354.461 162.391 351.723 159.023 351.723C155.656 351.723 152.918 354.461 152.918 357.828C152.918 361.191 155.656 363.934 159.023 363.934Z" fill="url(#paint62_linear_0_690)"/>
<path d="M393.344 88.7695V176.457C393.344 177.836 392.223 178.957 390.844 178.957C389.461 178.957 388.34 177.836 388.34 176.457V113.125C388.34 111.059 385.84 110.02 384.379 111.484C383.941 111.918 383.699 112.508 383.699 113.125V152.523C383.699 153.312 383.059 153.953 382.27 153.953C381.48 153.953 380.84 153.312 380.84 152.523V143.953C380.84 142.57 379.723 141.453 378.34 141.453C376.961 141.453 375.84 142.57 375.84 143.953V158.238C375.84 159.816 374.562 161.098 372.984 161.098C371.406 161.098 370.125 159.816 370.125 158.238V144.5C370.125 137.18 361.277 133.516 356.102 138.691L351.426 143.363C342.59 152.203 337.621 164.191 337.621 176.691V195.922C337.621 199.176 334.988 201.812 331.734 201.816H331.73C328.477 201.82 325.836 199.184 325.836 195.93L325.832 178.945C325.832 177.234 323.77 176.379 322.559 177.59C320.77 179.379 319.762 181.805 319.762 184.34V186.234C319.762 189.316 317.266 191.816 314.18 191.816H314.094C313.082 191.816 312.262 190.996 312.262 189.984V189.906C312.262 188.207 310.234 187.336 309.016 188.512C302.391 194.891 287.152 209.852 277.715 219.125C272.574 224.184 265.691 227.074 258.48 227.211L255.559 227.266L385.844 94.6602L393.344 88.7695Z" fill="#FFE7A5"/>
<path d="M401.859 79.9062L297.152 192.703L289.332 201.141L270.84 221.055C263.02 229.465 249.707 229.465 241.887 221.055L110.867 79.9062C151.047 39.7266 203.703 19.6484 256.363 19.6484C309.023 19.6484 361.68 39.7266 401.859 79.9062Z" fill="url(#paint63_radial_0_690)"/>
<path d="M344.457 141.742L401.855 79.9062C321.504 -0.445312 191.223 -0.445312 110.871 79.9062L168.27 141.742C223.879 115.402 288.848 115.402 344.457 141.742Z" fill="url(#paint64_radial_0_690)"/>
<path d="M406.555 83.2422C413.059 76.332 412.699 65.418 405.711 58.9961C320.113 -19.6641 192.613 -19.6641 107.016 58.9961C100.027 65.418 99.668 76.332 106.172 83.2422C112.547 90.0156 123.184 90.4492 130.063 84.1914C204.238 16.7461 308.492 16.7461 382.664 84.1914C389.543 90.4492 400.18 90.0156 406.555 83.2422Z" fill="url(#paint65_radial_0_690)"/>
<path d="M297.148 192.703L289.332 201.141L244.91 201.129L213.676 169.898C209.484 165.977 206.855 160.406 206.855 154.207C206.855 142.355 216.473 132.746 228.324 132.746C234.523 132.746 240.094 135.367 244.016 139.559L297.148 192.703Z" fill="url(#paint66_linear_0_690)"/>
<path d="M249.793 154.211C249.793 166.066 240.18 175.68 228.324 175.68C216.469 175.68 206.859 166.066 206.859 154.211C206.859 142.355 216.469 132.746 228.324 132.746C240.18 132.746 249.793 142.355 249.793 154.211Z" fill="url(#paint67_linear_0_690)"/>
<path d="M325.605 162.047L296.402 193.512L272.789 169.902C268.594 165.977 265.969 160.406 265.969 154.215C265.969 142.355 275.582 132.746 287.438 132.746C293.633 132.746 299.203 135.371 303.125 139.566L325.605 162.047Z" fill="url(#paint68_linear_0_690)"/>
<path d="M308.906 154.211C308.906 166.066 299.293 175.68 287.438 175.68C275.582 175.68 265.973 166.066 265.973 154.211C265.973 142.355 275.582 132.746 287.438 132.746C299.293 132.746 308.906 142.355 308.906 154.211Z" fill="url(#paint69_linear_0_690)"/>
<path d="M255.762 138.992L194.184 77.4141C190.266 73.2227 184.688 70.5977 178.496 70.5977C166.641 70.5977 157.031 80.207 157.031 92.0625C157.031 98.2539 159.656 103.832 163.848 107.75L195.078 138.98L255.762 138.992Z" fill="url(#paint70_linear_0_690)"/>
<path d="M199.965 92.0625C199.965 103.918 190.352 113.531 178.496 113.531C166.641 113.531 157.031 103.918 157.031 92.0625C157.031 80.207 166.641 70.5977 178.496 70.5977C190.352 70.5977 199.965 80.207 199.965 92.0625Z" fill="url(#paint71_linear_0_690)"/>
<path d="M333.625 122.383L272.051 60.8047C268.133 56.6133 262.555 53.9883 256.363 53.9883C244.508 53.9883 234.895 63.5977 234.895 75.4531C234.895 81.6445 237.523 87.2227 241.715 91.1406L272.945 122.371L333.625 122.383Z" fill="url(#paint72_linear_0_690)"/>
<path d="M277.828 75.4531C277.828 87.3086 268.219 96.9219 256.363 96.9219C244.508 96.9219 234.895 87.3086 234.895 75.4531C234.895 63.5977 244.508 53.9883 256.363 53.9883C268.219 53.9883 277.828 63.5977 277.828 75.4531Z" fill="url(#paint73_linear_0_690)"/>
<path d="M378.055 105.555L348.848 137.016L319.578 107.75C315.391 103.828 312.766 98.2539 312.766 92.0625C312.766 80.207 322.375 70.5938 334.227 70.5938C340.422 70.5938 346 73.2188 349.914 77.4141L378.055 105.555Z" fill="url(#paint74_linear_0_690)"/>
<path d="M355.695 92.0625C355.695 103.918 346.086 113.531 334.23 113.531C322.375 113.531 312.762 103.918 312.762 92.0625C312.762 80.207 322.375 70.5977 334.23 70.5977C346.086 70.5977 355.695 80.207 355.695 92.0625Z" fill="url(#paint75_linear_0_690)"/>
<path d="M225.691 68.7969C223.52 66.4961 220.445 65.0586 217.039 65.0586C210.465 65.0586 205.117 70.4062 205.117 76.9805C205.117 80.3867 206.555 83.4609 208.855 85.6367L232.316 109.098C234.488 111.395 237.562 112.832 240.969 112.832C247.543 112.832 252.891 107.484 252.891 100.914C252.891 97.5078 251.453 94.4336 249.156 92.2578L225.691 68.7969Z" fill="url(#paint76_linear_0_690)"/>
<path d="M217.039 88.9023C210.465 88.9023 205.117 83.5547 205.117 76.9805C205.117 70.4062 210.465 65.0586 217.039 65.0586C223.609 65.0586 228.961 70.4062 228.961 76.9805C228.961 83.5547 223.613 88.9023 217.039 88.9023ZM217.039 70.875C213.672 70.875 210.934 73.6133 210.934 76.9805C210.934 80.3477 213.672 83.0859 217.039 83.0859C220.406 83.0859 223.145 80.3477 223.145 76.9805C223.145 73.6133 220.406 70.875 217.039 70.875Z" fill="url(#paint77_linear_0_690)"/>
<path d="M306.328 68.7969C304.152 66.4961 301.078 65.0586 297.672 65.0586C291.098 65.0586 285.75 70.4062 285.75 76.9805C285.75 80.3867 287.191 83.4609 289.488 85.6367L312.949 109.098C315.125 111.395 318.199 112.832 321.605 112.832C328.176 112.832 333.523 107.484 333.523 100.914C333.523 97.5078 332.086 94.4336 329.789 92.2578L306.328 68.7969Z" fill="url(#paint78_linear_0_690)"/>
<path d="M297.672 88.9023C291.102 88.9023 285.754 83.5547 285.754 76.9805C285.754 70.4062 291.102 65.0586 297.672 65.0586C304.246 65.0586 309.594 70.4062 309.594 76.9805C309.594 83.5547 304.246 88.9023 297.672 88.9023ZM297.672 70.875C294.305 70.875 291.566 73.6133 291.566 76.9805C291.566 80.3477 294.309 83.0859 297.672 83.0859C301.039 83.0859 303.781 80.3477 303.781 76.9805C303.781 73.6133 301.039 70.875 297.672 70.875Z" fill="url(#paint79_linear_0_690)"/>
<path d="M193.547 121.836C191.371 119.539 188.297 118.102 184.891 118.102C178.316 118.102 172.973 123.449 172.973 130.023C172.973 133.426 174.41 136.504 176.707 138.676L200.168 162.137C202.344 164.438 205.418 165.875 208.824 165.875C215.398 165.875 220.742 160.527 220.742 153.953C220.742 150.551 219.305 147.477 217.008 145.301L193.547 121.836Z" fill="url(#paint80_linear_0_690)"/>
<path d="M184.891 141.945C178.316 141.945 172.973 136.594 172.973 130.023C172.973 123.449 178.32 118.102 184.891 118.102C191.465 118.102 196.812 123.449 196.812 130.023C196.812 136.594 191.465 141.945 184.891 141.945ZM184.891 123.918C181.523 123.918 178.785 126.656 178.785 130.023C178.785 133.391 181.527 136.129 184.891 136.129C188.258 136.129 190.996 133.387 190.996 130.023C191 126.656 188.258 123.918 184.891 123.918Z" fill="url(#paint81_linear_0_690)"/>
<path d="M265.875 111.391C263.703 109.09 260.629 107.652 257.223 107.652C250.648 107.652 245.301 113 245.301 119.574C245.301 122.98 246.738 126.055 249.035 128.23L272.5 151.691C274.672 153.988 277.746 155.426 281.152 155.426C287.727 155.426 293.074 150.078 293.074 143.508C293.074 140.102 291.637 137.027 289.34 134.852L265.875 111.391Z" fill="url(#paint82_linear_0_690)"/>
<path d="M257.223 131.496C250.648 131.496 245.301 126.148 245.301 119.574C245.301 113.004 250.648 107.656 257.223 107.656C263.797 107.656 269.141 113.004 269.141 119.574C269.141 126.148 263.797 131.496 257.223 131.496ZM257.223 113.469C253.855 113.469 251.117 116.207 251.117 119.574C251.117 122.941 253.855 125.68 257.223 125.68C260.59 125.68 263.328 122.941 263.328 119.574C263.328 116.207 260.59 113.469 257.223 113.469Z" fill="url(#paint83_linear_0_690)"/>
<path d="M285.52 205.234L270.836 221.051C270.32 221.609 269.781 222.129 269.215 222.609L249.039 202.434C246.742 200.258 245.301 197.188 245.301 193.781C245.301 187.207 250.648 181.859 257.219 181.859C260.629 181.859 263.703 183.297 265.879 185.594L285.52 205.234Z" fill="url(#paint84_linear_0_690)"/>
<path d="M257.223 205.699C250.648 205.699 245.301 200.352 245.301 193.781C245.301 187.207 250.648 181.859 257.223 181.859C263.797 181.859 269.141 187.207 269.141 193.781C269.141 200.352 263.797 205.699 257.223 205.699ZM257.223 187.672C253.855 187.672 251.117 190.414 251.117 193.777C251.117 197.145 253.855 199.887 257.223 199.887C260.59 199.887 263.328 197.145 263.328 193.777C263.328 190.414 260.59 187.672 257.223 187.672Z" fill="url(#paint85_linear_0_690)"/>
<path d="M351.027 134.656L334.816 152.125L321.367 138.676C319.07 136.5 317.629 133.43 317.629 130.023C317.629 123.449 322.977 118.102 329.551 118.102C332.957 118.102 336.035 119.539 338.207 121.836L351.027 134.656Z" fill="url(#paint86_linear_0_690)"/>
<path d="M329.551 141.945C322.977 141.945 317.633 136.594 317.633 130.023C317.633 123.449 322.98 118.102 329.551 118.102C336.125 118.102 341.473 123.449 341.473 130.023C341.473 136.594 336.125 141.945 329.551 141.945ZM329.551 123.918C326.184 123.918 323.445 126.656 323.445 130.023C323.445 133.391 326.188 136.129 329.551 136.129C332.918 136.129 335.656 133.387 335.656 130.023C335.656 126.656 332.918 123.918 329.551 123.918Z" fill="url(#paint87_linear_0_690)"/>
<defs>
<radialGradient id="paint0_radial_0_690" cx="0" cy="0" r="1" gradientUnits="userSpaceOnUse" gradientTransform="translate(256.363 388.495) scale(126.403)">
<stop stop-color="#FFD459"/>
<stop offset="0.2296" stop-color="#FFD355"/>
<stop offset="0.4362" stop-color="#FFCF4A"/>
<stop offset="0.634" stop-color="#FFC838"/>
<stop offset="0.825" stop-color="#FFBF1F"/>
<stop offset="1" stop-color="#FFB400"/>
</radialGradient>
<linearGradient id="paint1_linear_0_690" x1="256.363" y1="342.783" x2="256.363" y2="250.141" gradientUnits="userSpaceOnUse">
<stop stop-color="#E58200" stop-opacity="0"/>
<stop offset="0.0396" stop-color="#E27F04" stop-opacity="0.039216"/>
<stop offset="0.4671" stop-color="#C15D2F" stop-opacity="0.466667"/>
<stop offset="0.8016" stop-color="#AD4949" stop-opacity="0.8"/>
<stop offset="1" stop-color="#A64153"/>
</linearGradient>
<radialGradient id="paint2_radial_0_690" cx="0" cy="0" r="1" gradientUnits="userSpaceOnUse" gradientTransform="translate(258.185 384.863) scale(211.364 112.699)">
<stop stop-color="#E58200" stop-opacity="0"/>
<stop offset="0.3392" stop-color="#E38002" stop-opacity="0.337255"/>
<stop offset="0.5322" stop-color="#DD7A0B" stop-opacity="0.533333"/>
<stop offset="0.6884" stop-color="#D26F19" stop-opacity="0.690196"/>
<stop offset="0.8249" stop-color="#C35F2C" stop-opacity="0.823529"/>
<stop offset="0.9475" stop-color="#B04B46" stop-opacity="0.94902"/>
<stop offset="1" stop-color="#A64153"/>
</radialGradient>
<radialGradient id="paint3_radial_0_690" cx="0" cy="0" r="1" gradientUnits="userSpaceOnUse" gradientTransform="translate(251.006 322.496) scale(190.22)">
<stop stop-color="#FF5D00"/>
<stop offset="0.4516" stop-color="#FF5F02"/>
<stop offset="0.6142" stop-color="#FF6608"/>
<stop offset="0.7302" stop-color="#FF7113"/>
<stop offset="0.8239" stop-color="#FF8223"/>
<stop offset="0.9042" stop-color="#FF9838"/>
<stop offset="0.974" stop-color="#FFB351"/>
<stop offset="1" stop-color="#FFBF5C"/>
</radialGradient>
<linearGradient id="paint4_linear_0_690" x1="216.674" y1="369.438" x2="244.34" y2="341.772" gradientUnits="userSpaceOnUse">
<stop stop-color="#FF6E3A"/>
<stop offset="0.1596" stop-color="#FF6440"/>
<stop offset="0.4266" stop-color="#FF4B52"/>
<stop offset="0.7662" stop-color="#FF216E"/>
<stop offset="1" stop-color="#FF0084"/>
</linearGradient>
<linearGradient id="paint5_linear_0_690" x1="275.788" y1="369.438" x2="303.454" y2="341.772" gradientUnits="userSpaceOnUse">
<stop stop-color="#FF6E3A"/>
<stop offset="0.1596" stop-color="#FF6440"/>
<stop offset="0.4266" stop-color="#FF4B52"/>
<stop offset="0.7662" stop-color="#FF216E"/>
<stop offset="1" stop-color="#FF0084"/>
</linearGradient>
<linearGradient id="paint6_linear_0_690" x1="166.846" y1="431.588" x2="194.512" y2="403.922" gradientUnits="userSpaceOnUse">
<stop stop-color="#FF6E3A"/>
<stop offset="0.1596" stop-color="#FF6440"/>
<stop offset="0.4266" stop-color="#FF4B52"/>
<stop offset="0.7662" stop-color="#FF216E"/>
<stop offset="1" stop-color="#FF0084"/>
</linearGradient>
<linearGradient id="paint7_linear_0_690" x1="244.713" y1="448.197" x2="272.379" y2="420.531" gradientUnits="userSpaceOnUse">
<stop stop-color="#FF6E3A"/>
<stop offset="0.1596" stop-color="#FF6440"/>
<stop offset="0.4266" stop-color="#FF4B52"/>
<stop offset="0.7662" stop-color="#FF216E"/>
<stop offset="1" stop-color="#FF0084"/>
</linearGradient>
<linearGradient id="paint8_linear_0_690" x1="322.579" y1="431.588" x2="350.245" y2="403.922" gradientUnits="userSpaceOnUse">
<stop stop-color="#FF6E3A"/>
<stop offset="0.1596" stop-color="#FF6440"/>
<stop offset="0.4266" stop-color="#FF4B52"/>
<stop offset="0.7662" stop-color="#FF216E"/>
<stop offset="1" stop-color="#FF0084"/>
</linearGradient>
<linearGradient id="paint9_linear_0_690" x1="241.121" y1="410.937" x2="206.212" y2="445.846" gradientUnits="userSpaceOnUse">
<stop stop-color="#FFBF5C" stop-opacity="0"/>
<stop offset="1" stop-color="#FFBF5C"/>
</linearGradient>
<linearGradient id="paint10_linear_0_690" x1="215.075" y1="436.983" x2="229.392" y2="422.666" gradientUnits="userSpaceOnUse">
<stop stop-color="#3B395F"/>
<stop offset="0.0633" stop-color="#37355A"/>
<stop offset="0.4033" stop-color="#232543"/>
<stop offset="0.7232" stop-color="#171B35"/>
<stop offset="1" stop-color="#131830"/>
</linearGradient>
<linearGradient id="paint11_linear_0_690" x1="321.756" y1="410.937" x2="286.847" y2="445.846" gradientUnits="userSpaceOnUse">
<stop stop-color="#FFBF5C" stop-opacity="0"/>
<stop offset="1" stop-color="#FFBF5C"/>
</linearGradient>
<linearGradient id="paint12_linear_0_690" x1="295.71" y1="436.983" x2="310.026" y2="422.666" gradientUnits="userSpaceOnUse">
<stop stop-color="#3B395F"/>
<stop offset="0.0633" stop-color="#37355A"/>
<stop offset="0.4033" stop-color="#232543"/>
<stop offset="0.7232" stop-color="#171B35"/>
<stop offset="1" stop-color="#131830"/>
</linearGradient>
<linearGradient id="paint13_linear_0_690" x1="208.975" y1="357.895" x2="174.066" y2="392.804" gradientUnits="userSpaceOnUse">
<stop stop-color="#FFBF5C" stop-opacity="0"/>
<stop offset="1" stop-color="#FFBF5C"/>
</linearGradient>
<linearGradient id="paint14_linear_0_690" x1="182.929" y1="383.941" x2="197.245" y2="369.625" gradientUnits="userSpaceOnUse">
<stop stop-color="#C6E56F"/>
<stop offset="0.3371" stop-color="#C4E56F"/>
<stop offset="0.4953" stop-color="#BCE36E"/>
<stop offset="0.6162" stop-color="#AFE16D"/>
<stop offset="0.7182" stop-color="#9DDD6B"/>
<stop offset="0.8083" stop-color="#85D968"/>
<stop offset="0.8899" stop-color="#68D365"/>
<stop offset="0.9635" stop-color="#46CD61"/>
<stop offset="1" stop-color="#32C95F"/>
</linearGradient>
<linearGradient id="paint15_linear_0_690" x1="281.304" y1="368.343" x2="246.396" y2="403.252" gradientUnits="userSpaceOnUse">
<stop stop-color="#FFBF5C" stop-opacity="0"/>
<stop offset="1" stop-color="#FFBF5C"/>
</linearGradient>
<linearGradient id="paint16_linear_0_690" x1="255.259" y1="394.388" x2="269.575" y2="380.072" gradientUnits="userSpaceOnUse">
<stop stop-color="#C6E56F"/>
<stop offset="0.3371" stop-color="#C4E56F"/>
<stop offset="0.4953" stop-color="#BCE36E"/>
<stop offset="0.6162" stop-color="#AFE16D"/>
<stop offset="0.7182" stop-color="#9DDD6B"/>
<stop offset="0.8083" stop-color="#85D968"/>
<stop offset="0.8899" stop-color="#68D365"/>
<stop offset="0.9635" stop-color="#46CD61"/>
<stop offset="1" stop-color="#32C95F"/>
</linearGradient>
<linearGradient id="paint17_linear_0_690" x1="271.817" y1="303.629" x2="247.097" y2="328.349" gradientUnits="userSpaceOnUse">
<stop stop-color="#FFBF5C" stop-opacity="0"/>
<stop offset="1" stop-color="#FFBF5C"/>
</linearGradient>
<linearGradient id="paint18_linear_0_690" x1="255.259" y1="320.183" x2="269.575" y2="305.867" gradientUnits="userSpaceOnUse">
<stop stop-color="#3B395F"/>
<stop offset="0.0633" stop-color="#37355A"/>
<stop offset="0.4033" stop-color="#232543"/>
<stop offset="0.7232" stop-color="#171B35"/>
<stop offset="1" stop-color="#131830"/>
</linearGradient>
<linearGradient id="paint19_linear_0_690" x1="338.751" y1="372.782" x2="319.826" y2="391.708" gradientUnits="userSpaceOnUse">
<stop stop-color="#FFBF5C" stop-opacity="0"/>
<stop offset="1" stop-color="#FFBF5C"/>
</linearGradient>
<linearGradient id="paint20_linear_0_690" x1="327.588" y1="383.941" x2="341.905" y2="369.625" gradientUnits="userSpaceOnUse">
<stop stop-color="#C6E56F"/>
<stop offset="0.3371" stop-color="#C4E56F"/>
<stop offset="0.4953" stop-color="#BCE36E"/>
<stop offset="0.6162" stop-color="#AFE16D"/>
<stop offset="0.7182" stop-color="#9DDD6B"/>
<stop offset="0.8083" stop-color="#85D968"/>
<stop offset="0.8899" stop-color="#68D365"/>
<stop offset="0.9635" stop-color="#46CD61"/>
<stop offset="1" stop-color="#32C95F"/>
</linearGradient>
<radialGradient id="paint21_radial_0_690" cx="0" cy="0" r="1" gradientUnits="userSpaceOnUse" gradientTransform="translate(360.221 284.638) rotate(90) scale(126.403)">
<stop stop-color="#FFD459"/>
<stop offset="0.2296" stop-color="#FFD355"/>
<stop offset="0.4362" stop-color="#FFCF4A"/>
<stop offset="0.634" stop-color="#FFC838"/>
<stop offset="0.825" stop-color="#FFBF1F"/>
<stop offset="1" stop-color="#FFB400"/>
</radialGradient>
<linearGradient id="paint22_linear_0_690" x1="333.266" y1="350.117" x2="312.439" y2="370.944" gradientUnits="userSpaceOnUse">
<stop stop-color="#E58200" stop-opacity="0"/>
<stop offset="0.0396" stop-color="#E27F04" stop-opacity="0.039216"/>
<stop offset="0.4671" stop-color="#C15D2F" stop-opacity="0.466667"/>
<stop offset="0.8016" stop-color="#AD4949" stop-opacity="0.8"/>
<stop offset="1" stop-color="#A64153"/>
</linearGradient>
<radialGradient id="paint23_radial_0_690" cx="0" cy="0" r="1" gradientUnits="userSpaceOnUse" gradientTransform="translate(356.588 286.459) rotate(90) scale(211.364 112.699)">
<stop stop-color="#E58200" stop-opacity="0"/>
<stop offset="0.3392" stop-color="#E38002" stop-opacity="0.337255"/>
<stop offset="0.5322" stop-color="#DD7A0B" stop-opacity="0.533333"/>
<stop offset="0.6884" stop-color="#D26F19" stop-opacity="0.690196"/>
<stop offset="0.8249" stop-color="#C35F2C" stop-opacity="0.823529"/>
<stop offset="0.9475" stop-color="#B04B46" stop-opacity="0.94902"/>
<stop offset="1" stop-color="#A64153"/>
</radialGradient>
<radialGradient id="paint24_radial_0_690" cx="0" cy="0" r="1" gradientUnits="userSpaceOnUse" gradientTransform="translate(294.221 279.28) rotate(90) scale(190.22)">
<stop stop-color="#FF5D00"/>
<stop offset="0.4516" stop-color="#FF5F02"/>
<stop offset="0.6142" stop-color="#FF6608"/>
<stop offset="0.7302" stop-color="#FF7113"/>
<stop offset="0.8239" stop-color="#FF8223"/>
<stop offset="0.9042" stop-color="#FF9838"/>
<stop offset="0.974" stop-color="#FFB351"/>
<stop offset="1" stop-color="#FFBF5C"/>
</radialGradient>
<linearGradient id="paint25_linear_0_690" x1="341.164" y1="244.948" x2="313.498" y2="272.614" gradientUnits="userSpaceOnUse">
<stop stop-color="#FF6E3A"/>
<stop offset="0.1596" stop-color="#FF6440"/>
<stop offset="0.4266" stop-color="#FF4B52"/>
<stop offset="0.7662" stop-color="#FF216E"/>
<stop offset="1" stop-color="#FF0084"/>
</linearGradient>
<linearGradient id="paint26_linear_0_690" x1="341.164" y1="304.062" x2="313.498" y2="331.728" gradientUnits="userSpaceOnUse">
<stop stop-color="#FF6E3A"/>
<stop offset="0.1596" stop-color="#FF6440"/>
<stop offset="0.4266" stop-color="#FF4B52"/>
<stop offset="0.7662" stop-color="#FF216E"/>
<stop offset="1" stop-color="#FF0084"/>
</linearGradient>
<linearGradient id="paint27_linear_0_690" x1="403.314" y1="195.121" x2="375.648" y2="222.787" gradientUnits="userSpaceOnUse">
<stop stop-color="#FF6E3A"/>
<stop offset="0.1596" stop-color="#FF6440"/>
<stop offset="0.4266" stop-color="#FF4B52"/>
<stop offset="0.7662" stop-color="#FF216E"/>
<stop offset="1" stop-color="#FF0084"/>
</linearGradient>
<linearGradient id="paint28_linear_0_690" x1="419.923" y1="272.987" x2="392.257" y2="300.653" gradientUnits="userSpaceOnUse">
<stop stop-color="#FF6E3A"/>
<stop offset="0.1596" stop-color="#FF6440"/>
<stop offset="0.4266" stop-color="#FF4B52"/>
<stop offset="0.7662" stop-color="#FF216E"/>
<stop offset="1" stop-color="#FF0084"/>
</linearGradient>
<linearGradient id="paint29_linear_0_690" x1="403.314" y1="350.853" x2="375.648" y2="378.519" gradientUnits="userSpaceOnUse">
<stop stop-color="#FF6E3A"/>
<stop offset="0.1596" stop-color="#FF6440"/>
<stop offset="0.4266" stop-color="#FF4B52"/>
<stop offset="0.7662" stop-color="#FF216E"/>
<stop offset="1" stop-color="#FF0084"/>
</linearGradient>
<linearGradient id="paint30_linear_0_690" x1="382.662" y1="269.396" x2="417.571" y2="234.487" gradientUnits="userSpaceOnUse">
<stop stop-color="#FFBF5C" stop-opacity="0"/>
<stop offset="1" stop-color="#FFBF5C"/>
</linearGradient>
<linearGradient id="paint31_linear_0_690" x1="408.708" y1="243.35" x2="394.392" y2="257.666" gradientUnits="userSpaceOnUse">
<stop stop-color="#3B395F"/>
<stop offset="0.0633" stop-color="#37355A"/>
<stop offset="0.4033" stop-color="#232543"/>
<stop offset="0.7232" stop-color="#171B35"/>
<stop offset="1" stop-color="#131830"/>
</linearGradient>
<linearGradient id="paint32_linear_0_690" x1="382.662" y1="350.03" x2="417.571" y2="315.121" gradientUnits="userSpaceOnUse">
<stop stop-color="#FFBF5C" stop-opacity="0"/>
<stop offset="1" stop-color="#FFBF5C"/>
</linearGradient>
<linearGradient id="paint33_linear_0_690" x1="408.708" y1="323.984" x2="394.392" y2="338.3" gradientUnits="userSpaceOnUse">
<stop stop-color="#3B395F"/>
<stop offset="0.0633" stop-color="#37355A"/>
<stop offset="0.4033" stop-color="#232543"/>
<stop offset="0.7232" stop-color="#171B35"/>
<stop offset="1" stop-color="#131830"/>
</linearGradient>
<linearGradient id="paint34_linear_0_690" x1="329.621" y1="237.249" x2="364.529" y2="202.34" gradientUnits="userSpaceOnUse">
<stop stop-color="#FFBF5C" stop-opacity="0"/>
<stop offset="1" stop-color="#FFBF5C"/>
</linearGradient>
<linearGradient id="paint35_linear_0_690" x1="355.666" y1="211.203" x2="341.35" y2="225.519" gradientUnits="userSpaceOnUse">
<stop stop-color="#C6E56F"/>
<stop offset="0.3371" stop-color="#C4E56F"/>
<stop offset="0.4953" stop-color="#BCE36E"/>
<stop offset="0.6162" stop-color="#AFE16D"/>
<stop offset="0.7182" stop-color="#9DDD6B"/>
<stop offset="0.8083" stop-color="#85D968"/>
<stop offset="0.8899" stop-color="#68D365"/>
<stop offset="0.9635" stop-color="#46CD61"/>
<stop offset="1" stop-color="#32C95F"/>
</linearGradient>
<linearGradient id="paint36_linear_0_690" x1="340.068" y1="309.579" x2="374.977" y2="274.67" gradientUnits="userSpaceOnUse">
<stop stop-color="#FFBF5C" stop-opacity="0"/>
<stop offset="1" stop-color="#FFBF5C"/>
</linearGradient>
<linearGradient id="paint37_linear_0_690" x1="366.114" y1="283.533" x2="351.798" y2="297.849" gradientUnits="userSpaceOnUse">
<stop stop-color="#C6E56F"/>
<stop offset="0.3371" stop-color="#C4E56F"/>
<stop offset="0.4953" stop-color="#BCE36E"/>
<stop offset="0.6162" stop-color="#AFE16D"/>
<stop offset="0.7182" stop-color="#9DDD6B"/>
<stop offset="0.8083" stop-color="#85D968"/>
<stop offset="0.8899" stop-color="#68D365"/>
<stop offset="0.9635" stop-color="#46CD61"/>
<stop offset="1" stop-color="#32C95F"/>
</linearGradient>
<linearGradient id="paint38_linear_0_690" x1="275.354" y1="300.092" x2="300.074" y2="275.372" gradientUnits="userSpaceOnUse">
<stop stop-color="#FFBF5C" stop-opacity="0"/>
<stop offset="1" stop-color="#FFBF5C"/>
</linearGradient>
<linearGradient id="paint39_linear_0_690" x1="291.909" y1="283.533" x2="277.593" y2="297.849" gradientUnits="userSpaceOnUse">
<stop stop-color="#3B395F"/>
<stop offset="0.0633" stop-color="#37355A"/>
<stop offset="0.4033" stop-color="#232543"/>
<stop offset="0.7232" stop-color="#171B35"/>
<stop offset="1" stop-color="#131830"/>
</linearGradient>
<linearGradient id="paint40_linear_0_690" x1="344.508" y1="367.025" x2="363.433" y2="348.1" gradientUnits="userSpaceOnUse">
<stop stop-color="#FFBF5C" stop-opacity="0"/>
<stop offset="1" stop-color="#FFBF5C"/>
</linearGradient>
<linearGradient id="paint41_linear_0_690" x1="355.666" y1="355.863" x2="341.35" y2="370.179" gradientUnits="userSpaceOnUse">
<stop stop-color="#C6E56F"/>
<stop offset="0.3371" stop-color="#C4E56F"/>
<stop offset="0.4953" stop-color="#BCE36E"/>
<stop offset="0.6162" stop-color="#AFE16D"/>
<stop offset="0.7182" stop-color="#9DDD6B"/>
<stop offset="0.8083" stop-color="#85D968"/>
<stop offset="0.8899" stop-color="#68D365"/>
<stop offset="0.9635" stop-color="#46CD61"/>
<stop offset="1" stop-color="#32C95F"/>
</linearGradient>
<radialGradient id="paint42_radial_0_690" cx="0" cy="0" r="1" gradientUnits="userSpaceOnUse" gradientTransform="translate(152.506 284.638) rotate(90) scale(126.403)">
<stop stop-color="#FFD459"/>
<stop offset="0.2296" stop-color="#FFD355"/>
<stop offset="0.4362" stop-color="#FFCF4A"/>
<stop offset="0.634" stop-color="#FFC838"/>
<stop offset="0.825" stop-color="#FFBF1F"/>
<stop offset="1" stop-color="#FFB400"/>
</radialGradient>
<linearGradient id="paint43_linear_0_690" x1="179.46" y1="350.117" x2="200.288" y2="370.944" gradientUnits="userSpaceOnUse">
<stop stop-color="#E58200" stop-opacity="0"/>
<stop offset="0.0396" stop-color="#E27F04" stop-opacity="0.039216"/>
<stop offset="0.4671" stop-color="#C15D2F" stop-opacity="0.466667"/>
<stop offset="0.8016" stop-color="#AD4949" stop-opacity="0.8"/>
<stop offset="1" stop-color="#A64153"/>
</linearGradient>
<radialGradient id="paint44_radial_0_690" cx="0" cy="0" r="1" gradientUnits="userSpaceOnUse" gradientTransform="translate(156.139 286.459) rotate(90) scale(211.364 112.699)">
<stop stop-color="#E58200" stop-opacity="0"/>
<stop offset="0.3392" stop-color="#E38002" stop-opacity="0.337255"/>
<stop offset="0.5322" stop-color="#DD7A0B" stop-opacity="0.533333"/>
<stop offset="0.6884" stop-color="#D26F19" stop-opacity="0.690196"/>
<stop offset="0.8249" stop-color="#C35F2C" stop-opacity="0.823529"/>
<stop offset="0.9475" stop-color="#B04B46" stop-opacity="0.94902"/>
<stop offset="1" stop-color="#A64153"/>
</radialGradient>
<radialGradient id="paint45_radial_0_690" cx="0" cy="0" r="1" gradientUnits="userSpaceOnUse" gradientTransform="translate(218.505 279.28) rotate(90) scale(190.22)">
<stop stop-color="#FF5D00"/>
<stop offset="0.4516" stop-color="#FF5F02"/>
<stop offset="0.6142" stop-color="#FF6608"/>
<stop offset="0.7302" stop-color="#FF7113"/>
<stop offset="0.8239" stop-color="#FF8223"/>
<stop offset="0.9042" stop-color="#FF9838"/>
<stop offset="0.974" stop-color="#FFB351"/>
<stop offset="1" stop-color="#FFBF5C"/>
</radialGradient>
<linearGradient id="paint46_linear_0_690" x1="171.563" y1="244.948" x2="199.229" y2="272.614" gradientUnits="userSpaceOnUse">
<stop stop-color="#FF6E3A"/>
<stop offset="0.1596" stop-color="#FF6440"/>
<stop offset="0.4266" stop-color="#FF4B52"/>
<stop offset="0.7662" stop-color="#FF216E"/>
<stop offset="1" stop-color="#FF0084"/>
</linearGradient>
<linearGradient id="paint47_linear_0_690" x1="171.563" y1="304.062" x2="199.229" y2="331.728" gradientUnits="userSpaceOnUse">
<stop stop-color="#FF6E3A"/>
<stop offset="0.1596" stop-color="#FF6440"/>
<stop offset="0.4266" stop-color="#FF4B52"/>
<stop offset="0.7662" stop-color="#FF216E"/>
<stop offset="1" stop-color="#FF0084"/>
</linearGradient>
<linearGradient id="paint48_linear_0_690" x1="109.413" y1="195.121" x2="137.079" y2="222.787" gradientUnits="userSpaceOnUse">
<stop stop-color="#FF6E3A"/>
<stop offset="0.1596" stop-color="#FF6440"/>
<stop offset="0.4266" stop-color="#FF4B52"/>
<stop offset="0.7662" stop-color="#FF216E"/>
<stop offset="1" stop-color="#FF0084"/>
</linearGradient>
<linearGradient id="paint49_linear_0_690" x1="92.8036" y1="272.987" x2="120.47" y2="300.653" gradientUnits="userSpaceOnUse">
<stop stop-color="#FF6E3A"/>
<stop offset="0.1596" stop-color="#FF6440"/>
<stop offset="0.4266" stop-color="#FF4B52"/>
<stop offset="0.7662" stop-color="#FF216E"/>
<stop offset="1" stop-color="#FF0084"/>
</linearGradient>
<linearGradient id="paint50_linear_0_690" x1="109.413" y1="350.853" x2="137.079" y2="378.519" gradientUnits="userSpaceOnUse">
<stop stop-color="#FF6E3A"/>
<stop offset="0.1596" stop-color="#FF6440"/>
<stop offset="0.4266" stop-color="#FF4B52"/>
<stop offset="0.7662" stop-color="#FF216E"/>
<stop offset="1" stop-color="#FF0084"/>
</linearGradient>
<linearGradient id="paint51_linear_0_690" x1="130.064" y1="269.396" x2="95.155" y2="234.487" gradientUnits="userSpaceOnUse">
<stop stop-color="#FFBF5C" stop-opacity="0"/>
<stop offset="1" stop-color="#FFBF5C"/>
</linearGradient>
<linearGradient id="paint52_linear_0_690" x1="104.018" y1="243.35" x2="118.334" y2="257.666" gradientUnits="userSpaceOnUse">
<stop stop-color="#3B395F"/>
<stop offset="0.0633" stop-color="#37355A"/>
<stop offset="0.4033" stop-color="#232543"/>
<stop offset="0.7232" stop-color="#171B35"/>
<stop offset="1" stop-color="#131830"/>
</linearGradient>
<linearGradient id="paint53_linear_0_690" x1="130.064" y1="350.03" x2="95.155" y2="315.121" gradientUnits="userSpaceOnUse">
<stop stop-color="#FFBF5C" stop-opacity="0"/>
<stop offset="1" stop-color="#FFBF5C"/>
</linearGradient>
<linearGradient id="paint54_linear_0_690" x1="104.018" y1="323.984" x2="118.334" y2="338.3" gradientUnits="userSpaceOnUse">
<stop stop-color="#3B395F"/>
<stop offset="0.0633" stop-color="#37355A"/>
<stop offset="0.4033" stop-color="#232543"/>
<stop offset="0.7232" stop-color="#171B35"/>
<stop offset="1" stop-color="#131830"/>
</linearGradient>
<linearGradient id="paint55_linear_0_690" x1="183.106" y1="237.249" x2="148.197" y2="202.34" gradientUnits="userSpaceOnUse">
<stop stop-color="#FFBF5C" stop-opacity="0"/>
<stop offset="1" stop-color="#FFBF5C"/>
</linearGradient>
<linearGradient id="paint56_linear_0_690" x1="157.06" y1="211.203" x2="171.376" y2="225.519" gradientUnits="userSpaceOnUse">
<stop stop-color="#C6E56F"/>
<stop offset="0.3371" stop-color="#C4E56F"/>
<stop offset="0.4953" stop-color="#BCE36E"/>
<stop offset="0.6162" stop-color="#AFE16D"/>
<stop offset="0.7182" stop-color="#9DDD6B"/>
<stop offset="0.8083" stop-color="#85D968"/>
<stop offset="0.8899" stop-color="#68D365"/>
<stop offset="0.9635" stop-color="#46CD61"/>
<stop offset="1" stop-color="#32C95F"/>
</linearGradient>
<linearGradient id="paint57_linear_0_690" x1="172.658" y1="309.579" x2="137.749" y2="274.67" gradientUnits="userSpaceOnUse">
<stop stop-color="#FFBF5C" stop-opacity="0"/>
<stop offset="1" stop-color="#FFBF5C"/>
</linearGradient>
<linearGradient id="paint58_linear_0_690" x1="146.612" y1="283.533" x2="160.928" y2="297.849" gradientUnits="userSpaceOnUse">
<stop stop-color="#C6E56F"/>
<stop offset="0.3371" stop-color="#C4E56F"/>
<stop offset="0.4953" stop-color="#BCE36E"/>
<stop offset="0.6162" stop-color="#AFE16D"/>
<stop offset="0.7182" stop-color="#9DDD6B"/>
<stop offset="0.8083" stop-color="#85D968"/>
<stop offset="0.8899" stop-color="#68D365"/>
<stop offset="0.9635" stop-color="#46CD61"/>
<stop offset="1" stop-color="#32C95F"/>
</linearGradient>
<linearGradient id="paint59_linear_0_690" x1="237.372" y1="300.092" x2="212.652" y2="275.372" gradientUnits="userSpaceOnUse">
<stop stop-color="#FFBF5C" stop-opacity="0"/>
<stop offset="1" stop-color="#FFBF5C"/>
</linearGradient>
<linearGradient id="paint60_linear_0_690" x1="220.817" y1="283.533" x2="235.133" y2="297.849" gradientUnits="userSpaceOnUse">
<stop stop-color="#3B395F"/>
<stop offset="0.0633" stop-color="#37355A"/>
<stop offset="0.4033" stop-color="#232543"/>
<stop offset="0.7232" stop-color="#171B35"/>
<stop offset="1" stop-color="#131830"/>
</linearGradient>
<linearGradient id="paint61_linear_0_690" x1="168.219" y1="367.025" x2="149.293" y2="348.1" gradientUnits="userSpaceOnUse">
<stop stop-color="#FFBF5C" stop-opacity="0"/>
<stop offset="1" stop-color="#FFBF5C"/>
</linearGradient>
<linearGradient id="paint62_linear_0_690" x1="157.06" y1="355.863" x2="171.376" y2="370.179" gradientUnits="userSpaceOnUse">
<stop stop-color="#C6E56F"/>
<stop offset="0.3371" stop-color="#C4E56F"/>
<stop offset="0.4953" stop-color="#BCE36E"/>
<stop offset="0.6162" stop-color="#AFE16D"/>
<stop offset="0.7182" stop-color="#9DDD6B"/>
<stop offset="0.8083" stop-color="#85D968"/>
<stop offset="0.8899" stop-color="#68D365"/>
<stop offset="0.9635" stop-color="#46CD61"/>
<stop offset="1" stop-color="#32C95F"/>
</linearGradient>
<radialGradient id="paint63_radial_0_690" cx="0" cy="0" r="1" gradientUnits="userSpaceOnUse" gradientTransform="translate(256.363 123.505) scale(126.403)">
<stop stop-color="#FFD459"/>
<stop offset="0.2296" stop-color="#FFD355"/>
<stop offset="0.4362" stop-color="#FFCF4A"/>
<stop offset="0.634" stop-color="#FFC838"/>
<stop offset="0.825" stop-color="#FFBF1F"/>
<stop offset="1" stop-color="#FFB400"/>
</radialGradient>
<radialGradient id="paint64_radial_0_690" cx="0" cy="0" r="1" gradientUnits="userSpaceOnUse" gradientTransform="translate(258.185 127.139) scale(211.364 112.699)">
<stop stop-color="#E58200" stop-opacity="0"/>
<stop offset="0.3392" stop-color="#E38002" stop-opacity="0.337255"/>
<stop offset="0.5322" stop-color="#DD7A0B" stop-opacity="0.533333"/>
<stop offset="0.6884" stop-color="#D26F19" stop-opacity="0.690196"/>
<stop offset="0.8249" stop-color="#C35F2C" stop-opacity="0.823529"/>
<stop offset="0.9475" stop-color="#B04B46" stop-opacity="0.94902"/>
<stop offset="1" stop-color="#A64153"/>
</radialGradient>
<radialGradient id="paint65_radial_0_690" cx="0" cy="0" r="1" gradientUnits="userSpaceOnUse" gradientTransform="translate(251.006 189.504) scale(190.22)">
<stop stop-color="#FF5D00"/>
<stop offset="0.4516" stop-color="#FF5F02"/>
<stop offset="0.6142" stop-color="#FF6608"/>
<stop offset="0.7302" stop-color="#FF7113"/>
<stop offset="0.8239" stop-color="#FF8223"/>
<stop offset="0.9042" stop-color="#FF9838"/>
<stop offset="0.974" stop-color="#FFB351"/>
<stop offset="1" stop-color="#FFBF5C"/>
</radialGradient>
<linearGradient id="paint66_linear_0_690" x1="252.888" y1="178.772" x2="209.708" y2="135.593" gradientUnits="userSpaceOnUse">
<stop stop-color="#E58200" stop-opacity="0"/>
<stop offset="0.0396" stop-color="#E27F04" stop-opacity="0.039216"/>
<stop offset="0.4671" stop-color="#C15D2F" stop-opacity="0.466667"/>
<stop offset="0.8016" stop-color="#AD4949" stop-opacity="0.8"/>
<stop offset="1" stop-color="#A64153"/>
</linearGradient>
<linearGradient id="paint67_linear_0_690" x1="216.674" y1="142.562" x2="244.34" y2="170.228" gradientUnits="userSpaceOnUse">
<stop stop-color="#FF6E3A"/>
<stop offset="0.1596" stop-color="#FF6440"/>
<stop offset="0.4266" stop-color="#FF4B52"/>
<stop offset="0.7662" stop-color="#FF216E"/>
<stop offset="1" stop-color="#FF0084"/>
</linearGradient>
<linearGradient id="paint68_linear_0_690" x1="305.584" y1="172.359" x2="263.347" y2="130.122" gradientUnits="userSpaceOnUse">
<stop stop-color="#E58200" stop-opacity="0"/>
<stop offset="0.0396" stop-color="#E27F04" stop-opacity="0.039216"/>
<stop offset="0.4671" stop-color="#C15D2F" stop-opacity="0.466667"/>
<stop offset="0.8016" stop-color="#AD4949" stop-opacity="0.8"/>
<stop offset="1" stop-color="#A64153"/>
</linearGradient>
<linearGradient id="paint69_linear_0_690" x1="275.788" y1="142.562" x2="303.454" y2="170.228" gradientUnits="userSpaceOnUse">
<stop stop-color="#FF6E3A"/>
<stop offset="0.1596" stop-color="#FF6440"/>
<stop offset="0.4266" stop-color="#FF4B52"/>
<stop offset="0.7662" stop-color="#FF216E"/>
<stop offset="1" stop-color="#FF0084"/>
</linearGradient>
<linearGradient id="paint70_linear_0_690" x1="204.086" y1="117.652" x2="163.645" y2="77.2099" gradientUnits="userSpaceOnUse">
<stop stop-color="#E58200" stop-opacity="0"/>
<stop offset="0.0396" stop-color="#E27F04" stop-opacity="0.039216"/>
<stop offset="0.4671" stop-color="#C15D2F" stop-opacity="0.466667"/>
<stop offset="0.8016" stop-color="#AD4949" stop-opacity="0.8"/>
<stop offset="1" stop-color="#A64153"/>
</linearGradient>
<linearGradient id="paint71_linear_0_690" x1="166.846" y1="80.4119" x2="194.512" y2="108.078" gradientUnits="userSpaceOnUse">
<stop stop-color="#FF6E3A"/>
<stop offset="0.1596" stop-color="#FF6440"/>
<stop offset="0.4266" stop-color="#FF4B52"/>
<stop offset="0.7662" stop-color="#FF216E"/>
<stop offset="1" stop-color="#FF0084"/>
</linearGradient>
<linearGradient id="paint72_linear_0_690" x1="279.383" y1="98.473" x2="245.073" y2="64.1634" gradientUnits="userSpaceOnUse">
<stop stop-color="#E58200" stop-opacity="0"/>
<stop offset="0.0396" stop-color="#E27F04" stop-opacity="0.039216"/>
<stop offset="0.4671" stop-color="#C15D2F" stop-opacity="0.466667"/>
<stop offset="0.8016" stop-color="#AD4949" stop-opacity="0.8"/>
<stop offset="1" stop-color="#A64153"/>
</linearGradient>
<linearGradient id="paint73_linear_0_690" x1="244.713" y1="63.8029" x2="272.379" y2="91.4688" gradientUnits="userSpaceOnUse">
<stop stop-color="#FF6E3A"/>
<stop offset="0.1596" stop-color="#FF6440"/>
<stop offset="0.4266" stop-color="#FF4B52"/>
<stop offset="0.7662" stop-color="#FF216E"/>
<stop offset="1" stop-color="#FF0084"/>
</linearGradient>
<linearGradient id="paint74_linear_0_690" x1="354.558" y1="112.392" x2="315.181" y2="73.016" gradientUnits="userSpaceOnUse">
<stop stop-color="#E58200" stop-opacity="0"/>
<stop offset="0.0396" stop-color="#E27F04" stop-opacity="0.039216"/>
<stop offset="0.4671" stop-color="#C15D2F" stop-opacity="0.466667"/>
<stop offset="0.8016" stop-color="#AD4949" stop-opacity="0.8"/>
<stop offset="1" stop-color="#A64153"/>
</linearGradient>
<linearGradient id="paint75_linear_0_690" x1="322.579" y1="80.4119" x2="350.245" y2="108.078" gradientUnits="userSpaceOnUse">
<stop stop-color="#FF6E3A"/>
<stop offset="0.1596" stop-color="#FF6440"/>
<stop offset="0.4266" stop-color="#FF4B52"/>
<stop offset="0.7662" stop-color="#FF216E"/>
<stop offset="1" stop-color="#FF0084"/>
</linearGradient>
<linearGradient id="paint76_linear_0_690" x1="241.121" y1="101.063" x2="206.212" y2="66.1542" gradientUnits="userSpaceOnUse">
<stop stop-color="#FFBF5C" stop-opacity="0"/>
<stop offset="1" stop-color="#FFBF5C"/>
</linearGradient>
<linearGradient id="paint77_linear_0_690" x1="215.075" y1="75.0173" x2="229.392" y2="89.3335" gradientUnits="userSpaceOnUse">
<stop stop-color="#3B395F"/>
<stop offset="0.0633" stop-color="#37355A"/>
<stop offset="0.4033" stop-color="#232543"/>
<stop offset="0.7232" stop-color="#171B35"/>
<stop offset="1" stop-color="#131830"/>
</linearGradient>
<linearGradient id="paint78_linear_0_690" x1="321.756" y1="101.063" x2="286.847" y2="66.1542" gradientUnits="userSpaceOnUse">
<stop stop-color="#FFBF5C" stop-opacity="0"/>
<stop offset="1" stop-color="#FFBF5C"/>
</linearGradient>
<linearGradient id="paint79_linear_0_690" x1="295.71" y1="75.0173" x2="310.026" y2="89.3335" gradientUnits="userSpaceOnUse">
<stop stop-color="#3B395F"/>
<stop offset="0.0633" stop-color="#37355A"/>
<stop offset="0.4033" stop-color="#232543"/>
<stop offset="0.7232" stop-color="#171B35"/>
<stop offset="1" stop-color="#131830"/>
</linearGradient>
<linearGradient id="paint80_linear_0_690" x1="208.975" y1="154.105" x2="174.066" y2="119.196" gradientUnits="userSpaceOnUse">
<stop stop-color="#FFBF5C" stop-opacity="0"/>
<stop offset="1" stop-color="#FFBF5C"/>
</linearGradient>
<linearGradient id="paint81_linear_0_690" x1="182.929" y1="128.059" x2="197.245" y2="142.375" gradientUnits="userSpaceOnUse">
<stop stop-color="#C6E56F"/>
<stop offset="0.3371" stop-color="#C4E56F"/>
<stop offset="0.4953" stop-color="#BCE36E"/>
<stop offset="0.6162" stop-color="#AFE16D"/>
<stop offset="0.7182" stop-color="#9DDD6B"/>
<stop offset="0.8083" stop-color="#85D968"/>
<stop offset="0.8899" stop-color="#68D365"/>
<stop offset="0.9635" stop-color="#46CD61"/>
<stop offset="1" stop-color="#32C95F"/>
</linearGradient>
<linearGradient id="paint82_linear_0_690" x1="281.304" y1="143.657" x2="246.396" y2="108.748" gradientUnits="userSpaceOnUse">
<stop stop-color="#FFBF5C" stop-opacity="0"/>
<stop offset="1" stop-color="#FFBF5C"/>
</linearGradient>
<linearGradient id="paint83_linear_0_690" x1="255.259" y1="117.611" x2="269.575" y2="131.928" gradientUnits="userSpaceOnUse">
<stop stop-color="#C6E56F"/>
<stop offset="0.3371" stop-color="#C4E56F"/>
<stop offset="0.4953" stop-color="#BCE36E"/>
<stop offset="0.6162" stop-color="#AFE16D"/>
<stop offset="0.7182" stop-color="#9DDD6B"/>
<stop offset="0.8083" stop-color="#85D968"/>
<stop offset="0.8899" stop-color="#68D365"/>
<stop offset="0.9635" stop-color="#46CD61"/>
<stop offset="1" stop-color="#32C95F"/>
</linearGradient>
<linearGradient id="paint84_linear_0_690" x1="271.817" y1="208.371" x2="247.097" y2="183.651" gradientUnits="userSpaceOnUse">
<stop stop-color="#FFBF5C" stop-opacity="0"/>
<stop offset="1" stop-color="#FFBF5C"/>
</linearGradient>
<linearGradient id="paint85_linear_0_690" x1="255.259" y1="191.816" x2="269.575" y2="206.133" gradientUnits="userSpaceOnUse">
<stop stop-color="#3B395F"/>
<stop offset="0.0633" stop-color="#37355A"/>
<stop offset="0.4033" stop-color="#232543"/>
<stop offset="0.7232" stop-color="#171B35"/>
<stop offset="1" stop-color="#131830"/>
</linearGradient>
<linearGradient id="paint86_linear_0_690" x1="338.751" y1="139.218" x2="319.826" y2="120.292" gradientUnits="userSpaceOnUse">
<stop stop-color="#FFBF5C" stop-opacity="0"/>
<stop offset="1" stop-color="#FFBF5C"/>
</linearGradient>
<linearGradient id="paint87_linear_0_690" x1="327.588" y1="128.059" x2="341.905" y2="142.375" gradientUnits="userSpaceOnUse">
<stop stop-color="#C6E56F"/>
<stop offset="0.3371" stop-color="#C4E56F"/>
<stop offset="0.4953" stop-color="#BCE36E"/>
<stop offset="0.6162" stop-color="#AFE16D"/>
<stop offset="0.7182" stop-color="#9DDD6B"/>
<stop offset="0.8083" stop-color="#85D968"/>
<stop offset="0.8899" stop-color="#68D365"/>
<stop offset="0.9635" stop-color="#46CD61"/>
<stop offset="1" stop-color="#32C95F"/>
</linearGradient>
</defs>
</svg>
