<svg width="512" height="512" viewBox="0 0 512 512" fill="none" xmlns="http://www.w3.org/2000/svg">
<path d="M511.969 210.301C511.977 210.121 512 209.941 512 209.762C512 177.406 397.387 151.176 256 151.176C114.617 151.176 0 177.406 0 209.762C0 209.938 0.0234375 210.113 0.0273438 210.289C0.0234375 210.402 0 210.516 0 210.633C0 264.309 20.5352 313.676 54.9453 352.762C55.8125 353.746 56.6914 354.727 57.5742 355.699C100.59 402.988 165.27 430.066 233.309 430.887C240.797 430.977 248.363 431.023 256 431.023C263.637 431.023 271.203 430.977 278.691 430.887C346.73 430.066 411.41 402.988 454.426 355.699C455.309 354.727 456.188 353.746 457.055 352.762C491.465 313.676 512 264.309 512 210.633C512 210.52 511.977 210.41 511.969 210.301Z" fill="url(#paint0_radial_0_835)"/>
<path d="M512 209.762C512 177.406 397.387 151.176 256 151.176C114.613 151.176 0 177.406 0 209.762C0 242.117 114.613 268.344 256 268.344C397.387 268.344 512 242.117 512 209.762Z" fill="url(#paint1_linear_0_835)"/>
<path d="M478.656 205.129C478.656 182.258 378.969 163.719 256 163.719C133.031 163.719 33.3438 182.258 33.3438 205.129C33.3438 227.996 133.031 246.535 256 246.535C378.969 246.535 478.656 227.996 478.656 205.129Z" fill="url(#paint2_linear_0_835)"/>
<path d="M256 246.535C331.34 246.535 397.934 239.574 438.223 228.926C432.441 219.168 421.812 212.621 409.648 212.621C405.273 212.621 401.102 213.477 397.277 215.012C391.43 201.574 378.039 192.172 362.445 192.172C349.688 192.172 338.41 198.469 331.527 208.121C324.504 200.27 314.305 195.324 302.941 195.324C297.895 195.324 293.074 196.312 288.66 198.086C281.906 182.562 266.441 171.707 248.434 171.707C225.52 171.707 206.734 189.289 204.77 211.691C199.125 207.258 192.016 204.605 184.281 204.605C179.91 204.605 175.738 205.461 171.914 206.996C166.066 193.555 152.676 184.156 137.082 184.156C117.02 184.156 100.605 199.711 99.2109 219.414C97.3398 218.953 95.3867 218.703 93.375 218.703C85.2344 218.703 78.0469 222.734 73.6523 228.895C113.934 239.559 180.582 246.535 256 246.535Z" fill="url(#paint3_linear_0_835)"/>
<path d="M237.691 225.418C233.535 224.949 229.789 227.938 229.32 232.094C228.852 236.25 231.84 239.996 235.992 240.465C240.148 240.934 243.898 237.945 244.367 233.793C244.836 229.637 241.848 225.887 237.691 225.418Z" fill="#4C6606"/>
<path d="M193.984 218.566C189.828 218.098 186.082 221.086 185.613 225.238C185.145 229.395 188.133 233.141 192.285 233.609C196.441 234.078 200.188 231.09 200.656 226.938C201.125 222.781 198.137 219.035 193.984 218.566Z" fill="#FF5D00"/>
<path d="M125.535 210.488C121.379 210.02 117.633 213.004 117.164 217.16C116.695 221.316 119.684 225.062 123.84 225.531C127.992 226 131.742 223.012 132.211 218.859C132.68 214.703 129.691 210.957 125.535 210.488Z" fill="#FF931E"/>
<path d="M283.758 211.43C279.605 210.961 275.855 213.949 275.387 218.105C274.918 222.258 277.906 226.008 282.063 226.477C286.215 226.945 289.965 223.957 290.434 219.801C290.902 215.648 287.914 211.898 283.758 211.43Z" fill="#FF931E"/>
<path d="M360.344 202.309C356.191 201.84 352.441 204.828 351.973 208.984C351.504 213.137 354.492 216.887 358.648 217.355C362.801 217.824 366.551 214.836 367.02 210.68C367.488 206.527 364.5 202.777 360.344 202.309Z" fill="#FFEE95"/>
<path d="M403.039 219.113C398.883 218.645 395.137 221.633 394.668 225.789C394.199 229.945 397.188 233.691 401.34 234.16C405.496 234.629 409.242 231.641 409.711 227.488C410.18 223.332 407.191 219.582 403.039 219.113Z" fill="#FF5D00"/>
<path d="M323.559 225.926C319.402 225.461 315.652 228.445 315.187 232.602C314.719 236.758 317.703 240.504 321.859 240.973C326.016 241.441 329.762 238.453 330.23 234.301C330.699 230.145 327.711 226.395 323.559 225.926Z" fill="#4C6606"/>
<path d="M250.965 187.152C246.813 186.684 243.063 189.672 242.594 193.828C242.125 197.98 245.113 201.73 249.27 202.199C253.426 202.668 257.172 199.68 257.641 195.523C258.109 191.371 255.121 187.621 250.965 187.152Z" fill="#FFEE95"/>
<path d="M463.746 220.059C444.375 229.371 407.422 237.051 360.48 241.691C359.375 241.816 358.273 241.914 357.156 242.023C356.051 242.125 354.934 242.234 353.816 242.332C338.117 243.77 321.375 244.863 303.871 245.582C317.484 224.586 327.152 195.402 335.992 166.473C337.219 162.43 338.445 158.387 339.652 154.375C363.574 156.273 385.895 158.949 406.008 162.285V162.316L463.746 220.059Z" fill="url(#paint4_linear_0_835)"/>
<path d="M321.062 234.875C321.062 238.398 320.402 241.762 319.176 244.844C314.922 245.074 310.609 245.285 306.258 245.473C297.66 245.836 288.863 246.113 279.914 246.293C276.367 246.367 272.797 246.422 269.207 246.457H269.195C267.547 242.941 266.621 239.02 266.621 234.875C266.621 219.836 278.809 207.648 293.836 207.648C308.875 207.648 321.062 219.836 321.062 234.875Z" fill="url(#paint5_linear_0_835)"/>
<path d="M314.633 230.004C314.633 236.27 311.363 241.848 306.258 245.473C297.66 245.836 288.863 246.113 279.914 246.293C274.113 242.723 270.301 236.754 270.301 230.004C270.301 219.098 280.223 210.246 292.465 210.246C304.711 210.246 314.633 219.094 314.633 230.004Z" fill="url(#paint6_linear_0_835)"/>
<path d="M426.816 118.473C425.73 87.543 389.074 70.8672 365.059 90.3906C362.152 92.75 359.93 95.2578 358.781 97.9024C350.508 117.035 343.555 141.66 335.992 166.473C327.156 195.406 317.484 224.586 303.867 245.578C323.887 244.766 342.883 243.445 360.48 241.695C370.84 219.258 385.691 195.754 399.445 173.461C409.32 157.449 418.617 142.059 425.27 128.145C426.504 125.547 426.941 122.215 426.816 118.473Z" fill="url(#paint7_linear_0_835)"/>
<path d="M128.391 239.051C125.074 238.621 121.828 238.18 118.656 237.715C117.219 237.504 115.805 237.297 114.402 237.074C113.805 236.984 113.207 236.895 112.609 236.797C111.805 236.676 110.988 236.543 110.191 236.422C108.125 236.078 106.09 235.734 104.09 235.395C98.8516 234.488 93.8242 233.527 89.0742 232.52C89.0625 232.52 89.0625 232.52 89.0508 232.52C87.5938 232.211 86.1563 231.902 84.7422 231.582C69.4688 228.168 57.0938 224.297 48.3203 220.078C47.8867 218.863 47.5586 217.625 47.3477 216.344C45.4219 204.875 69.9102 211.902 71.082 212.23C70.1641 211.789 53.0898 203.469 41.6445 193.887C35.6641 188.883 31.2227 183.535 31.4102 178.781C31.9531 164.793 54.1094 169.016 54.5625 169.102C53.9961 168.695 18.5469 142.805 26.4492 134.094C34.3047 125.43 48.2617 136.703 48.6367 137.012C48.4375 136.691 44.0195 129.652 41.2109 122.062C41.1563 121.937 41.1133 121.816 41.0703 121.684C41.0586 121.652 41.0469 121.621 41.0352 121.574C40.9023 121.234 40.793 120.891 40.6719 120.559C40.5938 120.293 40.5039 120.051 40.4297 119.797C40.3047 119.43 40.207 119.09 40.1094 118.734C39.8086 117.73 39.5664 116.715 39.3672 115.738C39.3359 115.543 39.2891 115.344 39.2578 115.145C39.2227 114.957 39.1914 114.758 39.168 114.57C39.1367 114.383 39.1133 114.184 39.0898 113.996C39.0586 113.773 39.0352 113.566 39.0156 113.355C39.0039 113.187 38.9922 113.035 38.9805 112.867C38.9492 112.492 38.9375 112.129 38.9375 111.773C38.9375 111.598 38.9375 111.41 38.9492 111.246C38.9492 111.066 38.9609 110.891 38.9688 110.715C38.9805 110.551 38.9922 110.383 39.0156 110.219C39.0469 109.977 39.082 109.754 39.1133 109.531C39.1563 109.27 39.2148 109.004 39.2813 108.762C39.3125 108.629 39.3438 108.496 39.3906 108.363C39.4023 108.34 39.4023 108.309 39.4102 108.297C39.5 107.996 39.6094 107.711 39.7422 107.422C39.7969 107.293 39.8633 107.148 39.9414 107.016C40.0078 106.883 40.0859 106.75 40.1758 106.629C40.2383 106.52 40.3047 106.406 40.3828 106.297C40.3945 106.285 40.4063 106.266 40.418 106.254C41.3672 104.926 42.8281 103.965 44.9258 103.5C60.0195 100.141 72.1758 129.348 72.6055 130.375C72.4297 129.238 68.2969 103.113 85.7344 111.988C103.051 120.797 100.09 153.824 99.9141 155.703C100.453 154.066 109.105 128.508 118.664 148.965C121.945 155.98 123.074 164.145 123.105 171.902C123.172 187.133 119.074 200.855 118.875 201.531C119.328 200.832 131.086 183.031 136.266 205.797C138.789 216.863 134.047 229.195 128.391 239.051Z" fill="url(#paint8_linear_0_835)"/>
<path d="M110.191 236.422C108.125 236.082 106.09 235.738 104.09 235.395C98.8516 234.488 93.8242 233.527 89.0742 232.52C89.0625 232.52 89.0625 232.52 89.0508 232.52C87.5938 232.211 86.1563 231.902 84.7422 231.582C69.4688 228.168 57.0938 224.301 48.3203 220.078C47.8867 218.863 47.5586 217.625 47.3477 216.344C45.4023 204.73 70.5313 212.078 71.1133 212.246C70.707 212.055 53.2695 203.625 41.6445 193.891C35.6641 188.883 31.2227 183.535 31.4102 178.785C31.9531 164.793 54.1094 169.016 54.5625 169.105C53.9961 168.695 18.5469 142.805 26.4492 134.098C34.3047 125.434 48.2617 136.703 48.6367 137.012C48.4375 136.691 44.0195 129.652 41.2109 122.062C41.1563 121.941 41.1133 121.82 41.0703 121.688C41.0586 121.652 41.0469 121.621 41.0352 121.574C40.9023 121.234 40.793 120.891 40.6719 120.559C40.5938 120.293 40.5039 120.051 40.4297 119.797C40.3047 119.434 40.207 119.09 40.1094 118.734C39.8086 117.73 39.5664 116.715 39.3672 115.742C39.3359 115.543 39.2891 115.344 39.2578 115.145C39.2227 114.957 39.1914 114.758 39.168 114.57C39.1367 114.383 39.1133 114.184 39.0898 113.996C39.0586 113.777 39.0352 113.566 39.0156 113.355C39.0039 113.191 38.9922 113.035 38.9805 112.871C38.9492 112.496 38.9375 112.129 38.9375 111.777C38.9375 111.598 38.9375 111.41 38.9492 111.246C38.9492 111.07 38.9609 110.891 38.9688 110.715C38.9805 110.551 38.9922 110.383 39.0156 110.219C39.0469 109.977 39.082 109.754 39.1133 109.535C39.1563 109.27 39.2148 109.004 39.2813 108.762C39.3125 108.629 39.3438 108.496 39.3906 108.363C39.4023 108.34 39.4023 108.309 39.4102 108.297C39.5 108 39.6094 107.711 39.7422 107.426C39.7969 107.293 39.8633 107.148 39.9414 107.016C40.0078 106.883 40.0859 106.75 40.1758 106.629C40.2383 106.52 40.3047 106.41 40.3828 106.297C40.3945 106.289 40.4063 106.266 40.418 106.254C46.8906 114.562 56.0195 127.008 65.8984 142.742C72.4844 153.242 79.4141 165.199 86.0977 178.367C94.9649 195.789 103.418 215.328 110.191 236.422Z" fill="url(#paint9_linear_0_835)"/>
<path d="M85.25 229.66C86.3125 230.633 87.6055 231.582 89.0508 232.52C87.5937 232.211 86.1562 231.902 84.7422 231.582C82.0352 228.391 82.0898 226.773 85.25 229.66Z" fill="url(#paint10_linear_0_835)"/>
<path d="M110.699 230.645C111.352 232.688 111.992 234.742 112.609 236.797C111.801 236.676 110.984 236.543 110.188 236.422C108.125 236.082 106.09 235.738 104.09 235.395C103.824 234.676 103.57 233.969 103.305 233.25C102.012 229.926 100.785 226.59 99.5274 223.25C99.1953 222.422 98.918 221.582 98.5859 220.754L97.6016 218.266L97.5586 218.133C96.3516 215.086 93.8789 212.695 90.7617 211.461C67.3594 202.168 55.6094 182.551 64.4414 190.895C71.7578 197.812 86.8516 205.117 93.6914 208.234L91.6914 203.371C90.3555 200.066 89.0391 196.754 87.6797 193.473C86.9727 191.824 85.9883 189.559 85.0586 187.438C83.8008 184.543 81.9102 181.934 79.5117 179.879C78.9258 179.348 78.3203 178.871 77.6797 178.43C54.7813 162.652 45.9961 137.789 53.5234 149.07C59.5899 158.152 73.3125 169.633 79.6797 174.719C79.5469 174.41 79.4024 174.102 79.2695 173.801C77.8125 170.543 76.4727 167.227 74.9805 163.977C73.4805 160.738 72.0078 157.48 70.5508 154.211L69.4766 151.746C69.1133 150.926 68.7617 150.098 68.3633 149.301C67.6016 147.68 66.8242 146.066 66.0742 144.43C65.9766 144.207 65.875 144 65.7774 143.777C65.6016 143.379 65.6758 143.004 65.8984 142.738C66.2969 142.207 67.1914 142.031 67.6758 142.715C67.8203 142.902 67.9531 143.102 68.0977 143.301C69.1563 144.77 70.1758 146.262 71.2149 147.742C71.7422 148.484 72.2188 149.246 72.7031 150.008L74.1524 152.297C76.0625 155.355 77.9766 158.43 79.8438 161.523C80.8281 163.047 81.6445 164.66 82.5313 166.23C83.4024 167.809 84.2852 169.391 85.1367 170.969L85.7109 172.02C86.5977 163.355 87.832 147.09 85.8008 137.055C83.2266 124.262 93.7344 145.852 90.0664 171.887C89.8008 173.777 89.7774 175.68 90 177.535C90.2774 179.879 90.9375 182.176 91.9766 184.32C93.0703 186.586 94.2109 188.918 94.8945 190.332C95.293 191.137 95.6563 191.965 96.0117 192.797L97.0938 195.27L99.2578 200.242L100.707 203.656C103.516 195.711 107.547 182.906 107.77 174.32V174.23C107.902 169.512 108.852 170.109 109.348 173.965C110.055 179.57 109.801 192.055 104.688 205.203C103.613 207.969 103.625 210.973 104.664 213.668L105.293 215.328C105.945 217.004 106.609 218.684 107.184 220.398C108.355 223.812 109.563 227.219 110.699 230.645Z" fill="url(#paint11_linear_0_835)"/>
<path d="M118.656 237.715C117.219 237.504 115.805 237.297 114.402 237.074C117.121 230.832 120.312 222.324 120.566 216.398C120.953 207.668 125.496 221.328 118.656 237.715Z" fill="url(#paint12_linear_0_835)"/>
<path d="M142.688 231.992C142.688 231.992 142.051 232.531 140.867 233.461C139.098 234.844 136.16 237.063 132.457 239.563C131.086 239.395 129.738 239.23 128.391 239.055C125.074 238.621 121.828 238.18 118.656 237.715C117.43 237.539 116.215 237.352 115.008 237.164C114.809 237.141 114.602 237.109 114.402 237.074C113.805 236.988 113.207 236.898 112.613 236.801C111.805 236.676 110.988 236.547 110.191 236.422H110.18C108.113 236.082 106.09 235.738 104.09 235.395C98.8555 234.488 93.8242 233.527 89.0742 232.523C89.0625 232.523 89.0625 232.523 89.0508 232.523C87.5938 232.215 86.1562 231.902 84.7422 231.582C83.7266 231.352 82.7188 231.117 81.7266 230.887C80.332 230.566 78.9727 230.234 77.6367 229.902C65.6016 226.918 55.6914 223.625 48.3203 220.078C43.7773 217.902 40.2109 215.648 37.6797 213.297C37.9336 213.238 38.0977 213.207 38.1328 213.195C38.0859 213.195 37.8555 213.164 37.4922 213.117C35.6992 212.863 30.4727 212.07 25.5664 210.41C25.4688 210.379 25.3672 210.344 25.2695 210.313C25.2344 210.301 25.2148 210.289 25.1797 210.277C24.9141 210.18 24.6602 210.09 24.3945 209.992C24.1953 209.926 24.0078 209.848 23.8203 209.77C23.5469 209.672 23.2813 209.563 23.0234 209.449C22.2852 209.141 21.5547 208.797 20.8711 208.445C20.7383 208.367 20.5938 208.301 20.4727 208.223C20.3398 208.145 20.207 208.078 20.0742 208.004C19.9414 207.926 19.8086 207.848 19.6875 207.758C19.5469 207.684 19.4141 207.594 19.2695 207.496C19.168 207.43 19.0586 207.363 18.9609 207.285C18.7266 207.121 18.4961 206.953 18.2852 206.777C18.1758 206.688 18.0781 206.602 17.9648 206.523C17.8672 206.434 17.7656 206.348 17.668 206.246C17.5703 206.16 17.4805 206.07 17.3906 205.98C17.2578 205.848 17.1367 205.715 17.0273 205.586C16.8828 205.43 16.7617 205.273 16.6406 205.109C16.5742 205.031 16.5195 204.945 16.4531 204.855C16.4531 204.832 16.4297 204.82 16.4297 204.813C16.2891 204.613 16.1758 204.402 16.0664 204.191C16.0117 204.094 15.9688 203.984 15.9219 203.871C15.8672 203.762 15.8359 203.664 15.7891 203.543C15.7578 203.453 15.7227 203.352 15.7031 203.254C15.7031 203.242 15.6914 203.23 15.6914 203.211C15.3594 202.004 15.4922 200.668 16.2227 199.176C20.0898 191.398 33.5469 192.91 40.8984 194.414C43.6172 194.965 45.4922 195.52 45.7578 195.598C45.5508 195.465 44.125 194.645 42.4219 193.387C37.7695 189.973 31.0273 183.32 41.1055 178.813C48.7852 175.375 57.957 179.484 64.7109 183.926C70.1797 187.527 74.0469 191.352 74.2344 191.539C74.082 191.297 70.9414 186.469 70.1367 182.313C69.3398 178.27 70.7422 174.875 79.25 176.977C80.9961 177.406 82.7109 178.004 84.3906 178.746C99.1523 185.188 110.5 201.773 110.887 202.348C110.711 201.785 105.684 186.027 121.895 193.961C135.102 200.445 140.504 220.945 142.117 228.848C142.27 229.598 142.391 230.238 142.48 230.738C142.633 231.539 142.688 231.992 142.688 231.992Z" fill="url(#paint13_linear_0_835)"/>
<path d="M142.688 231.992C142.688 231.992 142.051 232.531 140.867 233.461C139.098 234.844 136.16 237.062 132.457 239.562C131.086 239.395 129.738 239.23 128.391 239.055C125.074 238.621 121.828 238.18 118.656 237.715C117.43 237.539 116.215 237.352 115.008 237.164C114.809 237.141 114.602 237.109 114.402 237.074C113.805 236.988 113.207 236.898 112.613 236.801C111.805 236.676 110.988 236.547 110.191 236.422H110.18C108.113 236.082 106.09 235.738 104.09 235.395C98.8555 234.488 93.8242 233.527 89.0742 232.523C89.0625 232.523 89.0625 232.523 89.0508 232.523C87.5938 232.215 86.1562 231.902 84.7422 231.582C83.7266 231.352 82.7188 231.117 81.7266 230.887C80.332 230.566 78.9727 230.234 77.6367 229.902C65.6016 226.918 55.6914 223.625 48.3203 220.078C43.7773 217.902 40.2109 215.648 37.6797 213.297C37.9336 213.238 38.0977 213.207 38.1328 213.195C38.0859 213.195 37.8555 213.164 37.4922 213.117C35.6992 212.863 30.4727 212.07 25.5664 210.41C25.4688 210.379 25.3672 210.344 25.2695 210.312C25.2344 210.301 25.2148 210.289 25.1797 210.277C24.9141 210.18 24.6602 210.09 24.3945 209.992C24.1953 209.926 24.0078 209.848 23.8203 209.77C23.5469 209.672 23.2812 209.562 23.0234 209.449C22.2852 209.141 21.5547 208.797 20.8711 208.445C20.7383 208.367 20.5938 208.301 20.4727 208.223C20.3398 208.145 20.207 208.078 20.0742 208.004C19.9414 207.926 19.8086 207.848 19.6875 207.758C19.5469 207.684 19.4141 207.594 19.2695 207.496C19.168 207.43 19.0586 207.363 18.9609 207.285C18.7266 207.121 18.4961 206.953 18.2852 206.777C18.1758 206.687 18.0781 206.602 17.9648 206.523C17.8672 206.434 17.7656 206.348 17.668 206.246C17.5703 206.16 17.4805 206.07 17.3906 205.98C17.2578 205.848 17.1367 205.715 17.0273 205.586C16.8828 205.43 16.7617 205.273 16.6406 205.109C16.5742 205.031 16.5195 204.945 16.4531 204.855C16.4531 204.832 16.4297 204.82 16.4297 204.812C16.2891 204.613 16.1758 204.402 16.0664 204.191C16.0117 204.094 15.9688 203.984 15.9219 203.871C15.8672 203.762 15.8359 203.664 15.7891 203.543C15.7578 203.453 15.7227 203.352 15.7031 203.254C15.7031 203.242 15.6914 203.23 15.6914 203.211C20.4336 203.297 26.4336 203.531 33.4375 204.039C38.457 204.402 43.9922 204.914 49.9375 205.621C75.8711 208.723 109.598 215.633 142.484 230.738C142.633 231.539 142.688 231.992 142.688 231.992Z" fill="url(#paint14_linear_0_835)"/>
<path d="M142.688 231.992C142.688 231.992 142.051 232.531 140.867 233.461C139.906 233.109 138.953 232.766 137.98 232.445L134.082 231.086L134.059 231.074C132.668 230.586 131.129 230.785 129.859 231.605C124.367 235.117 118.898 236.652 115.008 237.164C114.809 237.141 114.598 237.105 114.398 237.074C113.805 236.984 113.207 236.898 112.609 236.797C111.801 236.676 110.984 236.543 110.188 236.422C110.508 236.324 110.93 236.234 111.473 236.148C116.41 235.394 123.43 231.703 128.047 228.996C126.156 228.355 124.266 227.691 122.379 227.051C119.758 226.211 117.152 225.34 114.543 224.477C113.891 224.266 113.238 224.023 112.586 223.824L110.621 223.207L110.523 223.172C108.113 222.422 105.484 222.742 103.219 224.012C95.207 228.531 87.0859 230.355 81.7227 230.887C80.332 230.566 78.9727 230.234 77.6367 229.902C77.7891 229.879 77.9453 229.859 78.1211 229.836C85.8125 228.797 97.5156 223.285 102.707 220.687L98.8164 219.535C96.1875 218.742 93.5586 217.914 90.9297 217.137C89.6016 216.762 87.7695 216.266 86.043 215.789C83.1172 214.984 80.0117 214.973 77.0586 215.844C56.4961 221.934 37.3125 215.148 47.7344 216.109C56.1211 216.863 69.668 214.199 75.8008 212.852C75.5469 212.785 75.3047 212.707 75.0508 212.652C72.3984 211.945 69.7578 211.137 67.082 210.453C64.4063 209.789 61.7461 209.094 59.0703 208.375L57.0703 207.836C56.4102 207.648 55.7461 207.469 55.0703 207.316C53.7227 206.984 52.375 206.664 51.0391 206.32C50.8594 206.277 50.6836 206.234 50.5078 206.187C50.1758 206.102 49.9883 205.879 49.9336 205.613C49.8125 205.117 50.1445 204.488 50.7852 204.531C50.9609 204.543 51.1484 204.555 51.3359 204.562C52.7305 204.641 54.1211 204.75 55.5156 204.852C56.2188 204.883 56.9063 204.973 57.6016 205.062L59.668 205.293C62.4414 205.625 65.2031 205.977 67.9648 206.355C69.3594 206.508 70.7188 206.797 72.1016 207.016C73.4688 207.258 74.8398 207.492 76.2109 207.758L77.1055 207.922C72.3438 203.195 63.1836 194.562 56.1758 190.918C47.2461 186.266 65.3047 190.418 79.1406 205.25C81.4141 207.68 84.3203 209.383 87.5273 210.121C89.4141 210.562 91.3711 211.016 92.543 211.293C93.2266 211.437 93.9023 211.625 94.5625 211.812L96.5859 212.363L100.609 213.469L103.359 214.266C99.957 208.727 94.2227 200.098 89.1836 195.801C82.2773 189.922 97.0625 196.629 106.223 212.629C107.352 214.605 109.164 216.055 111.285 216.742L112.586 217.16C113.914 217.59 115.238 218.012 116.543 218.496C119.164 219.449 121.793 220.375 124.402 221.348C126.578 222.211 128.754 223.074 130.93 223.957C128.531 219.184 124.512 211.934 120.633 208.519C115.086 203.625 128.203 208.809 134.301 223.848C134.777 225.019 135.672 225.937 136.789 226.445C137.805 226.887 138.809 227.34 139.828 227.781L142.113 228.844C142.27 229.594 142.391 230.234 142.48 230.73C142.633 231.539 142.688 231.992 142.688 231.992Z" fill="url(#paint15_linear_0_835)"/>
<path d="M502.277 171.191C502.277 171.215 502.27 171.234 502.27 171.246C502.246 171.391 502.223 171.523 502.191 171.656C502.156 171.82 502.113 171.965 502.07 172.129C502.023 172.285 501.969 172.441 501.914 172.594C501.805 172.902 501.672 173.211 501.516 173.523C501.508 173.547 501.484 173.566 501.484 173.59C501.406 173.723 501.328 173.867 501.262 173.996C501.121 174.242 500.965 174.496 500.789 174.738C500.645 174.949 500.5 175.156 500.348 175.379C500.227 175.523 500.105 175.676 499.98 175.82C499.848 175.977 499.727 176.129 499.594 176.285C499.465 176.43 499.332 176.582 499.188 176.727C498.91 177.023 498.613 177.324 498.301 177.621C498.172 177.754 498.027 177.875 497.895 178.008C497.707 178.176 497.52 178.34 497.332 178.496C497.164 178.637 496.988 178.793 496.824 178.926C496.645 179.078 496.469 179.211 496.293 179.355C496.117 179.5 495.93 179.645 495.742 179.785C494.824 180.48 493.828 181.18 492.812 181.84C492.457 182.074 492.094 182.305 491.719 182.539C491.453 182.691 491.188 182.859 490.922 183.023C490.559 183.234 490.203 183.445 489.84 183.652C489.797 183.676 489.75 183.699 489.707 183.719C489.574 183.797 489.441 183.887 489.297 183.953C481.098 188.582 471.973 191.766 471.574 191.906C472.113 191.887 492.336 191.023 492.027 203.102C491.906 207.832 484.383 210.703 475.176 212.449C460.746 215.191 442.18 215.156 441.703 215.156C441.969 215.27 449.57 218.836 453.582 224.23C430.023 232.641 391.426 239.348 344.406 243.125C340.727 243.434 336.992 243.711 333.211 243.965C331.809 244.066 330.395 244.164 328.969 244.254C327.246 244.363 325.512 244.473 323.766 244.574C325.125 232.008 329.863 207.434 346.152 195.664C368.152 179.773 363.898 201.953 363.734 202.793C364.109 202.074 372.938 185.176 387.039 171.641C392.309 166.582 398.309 161.984 404.875 158.879C429.105 147.398 415.305 175.387 414.941 176.117C415.473 175.434 439.242 144.813 460.668 148.137C482.051 151.453 457.75 171.09 457.078 171.629C457.848 171.234 490.902 153.938 500.734 166.117C502.082 167.801 502.531 169.5 502.277 171.191Z" fill="url(#paint16_linear_0_835)"/>
<path d="M502.277 171.191C502.277 171.215 502.27 171.234 502.27 171.246C502.246 171.391 502.223 171.523 502.191 171.656C502.156 171.82 502.113 171.965 502.07 172.129C502.023 172.285 501.969 172.441 501.914 172.594C501.805 172.902 501.672 173.211 501.516 173.523C501.508 173.547 501.484 173.566 501.484 173.59C501.406 173.723 501.328 173.867 501.262 173.996C501.121 174.242 500.965 174.496 500.789 174.738C500.645 174.949 500.5 175.156 500.348 175.379C500.227 175.523 500.105 175.676 499.98 175.82C499.848 175.977 499.727 176.129 499.594 176.285C499.465 176.43 499.332 176.582 499.188 176.727C498.91 177.023 498.613 177.324 498.301 177.621C498.172 177.754 498.027 177.875 497.895 178.008C497.707 178.176 497.52 178.34 497.332 178.496C497.164 178.637 496.988 178.793 496.824 178.926C496.645 179.078 496.469 179.211 496.293 179.355C496.117 179.5 495.93 179.645 495.742 179.785C494.824 180.48 493.828 181.18 492.812 181.84C492.457 182.074 492.094 182.305 491.719 182.539C491.453 182.691 491.188 182.859 490.922 183.023C490.559 183.234 490.203 183.445 489.84 183.652C489.797 183.676 489.75 183.699 489.707 183.719C489.574 183.797 489.441 183.887 489.297 183.953C481.098 188.582 471.973 191.766 471.574 191.906C472.113 191.887 492.336 191.023 492.027 203.102C491.906 207.832 484.383 210.703 475.176 212.449C460.746 215.191 442.18 215.156 441.703 215.156C441.969 215.27 449.57 218.836 453.582 224.23C430.023 232.641 391.426 239.348 344.406 243.125C340.727 243.434 336.992 243.711 333.211 243.965C375.137 216.66 418.59 198.117 452.965 186.094C453.109 186.039 453.254 185.996 453.395 185.941C473.559 178.926 490.578 174.152 502.277 171.191Z" fill="url(#paint17_linear_0_835)"/>
<path d="M384.582 221.039L379.145 223.879C387.18 225.473 405.246 228.633 416.629 227.34C430.375 225.77 405.469 234.984 379.035 228.391C375.512 227.504 371.621 227.992 368.262 229.805L368.117 229.883L365.375 231.363C364.469 231.848 363.574 232.391 362.668 232.875C359.035 234.898 355.418 236.941 351.773 238.93C349.309 240.324 346.855 241.738 344.402 243.129C340.723 243.441 336.988 243.715 333.207 243.973C331.805 244.07 330.391 244.168 328.965 244.258C329.539 243.871 330.125 243.473 330.711 243.086C332.246 242.059 333.363 240.543 333.828 238.855C339.805 217.172 357.883 205.914 350.758 214.199C345.785 219.98 341.32 230.797 338.754 237.848C341.738 235.949 344.734 234.07 347.738 232.199C351.34 230.035 354.988 227.926 358.613 225.781C360.414 224.699 362.258 223.703 364.105 222.687L365.918 221.691C368.867 220.066 371.223 217.559 372.492 214.586C382.746 190.605 402.938 176.793 394.027 186.816C387.531 194.145 380.844 207.359 376.969 215.734L380.812 213.758L386.449 210.93L389.277 209.527C390.219 209.051 391.156 208.574 392.117 208.145C393.773 207.383 396.516 206.121 399.191 204.895C403.711 202.828 407.609 199.613 410.449 195.656C415.344 188.84 420.895 183.027 426.055 178.398C439.113 166.684 449.723 162.562 441.07 169.105C437.578 171.746 433.777 175.379 430.066 179.305C423.746 185.988 417.711 193.523 413.91 198.453L415.191 197.922C417.125 197.117 419.07 196.344 421.016 195.559C422.973 194.785 424.895 193.945 426.883 193.262C430.84 191.824 434.797 190.418 438.75 189.027L441.715 188.012C442.707 187.668 443.691 187.316 444.707 187.027C446.707 186.418 448.707 185.801 450.719 185.215C450.82 185.18 450.918 185.16 451.02 185.125C451.195 185.082 451.359 185.027 451.527 184.984C452.312 184.75 452.863 185.215 452.953 185.789C452.973 185.887 452.973 185.988 452.961 186.098C452.93 186.461 452.707 186.816 452.246 187.039C451.992 187.16 451.746 187.281 451.492 187.402C449.602 188.309 447.715 189.191 445.824 190.078C444.871 190.508 443.945 190.973 443.004 191.445L440.211 192.84C436.465 194.684 432.719 196.52 428.961 198.309C425.215 200.109 421.523 202.066 417.801 203.902C417.445 204.066 417.105 204.242 416.75 204.422C425.922 204.066 446.121 202.883 458.168 199.004C473.129 194.187 446.551 209.613 415.488 208.762C411.035 208.641 406.527 209.715 402.43 211.77C400.008 212.973 397.445 214.266 395.578 215.203C391.906 217.129 388.238 219.094 384.582 221.039Z" fill="url(#paint18_linear_0_835)"/>
<path d="M179.434 232.012C179.434 236.246 178.461 240.258 176.746 243.828C172.523 243.527 168.359 243.195 164.27 242.855C153.617 241.957 143.418 240.91 133.738 239.715C133.309 239.672 132.875 239.617 132.457 239.562C131.086 239.395 129.738 239.23 128.391 239.055C127.527 238.941 126.664 238.832 125.816 238.723C125.262 236.578 124.973 234.324 124.973 232.016C124.973 216.977 137.164 204.785 152.203 204.785C167.242 204.785 179.434 216.973 179.434 232.012Z" fill="url(#paint19_linear_0_835)"/>
<path d="M173 227.141C173 233.551 169.574 239.242 164.27 242.855C153.617 241.957 143.418 240.91 133.738 239.715C130.578 236.301 128.668 231.914 128.668 227.141C128.668 216.223 138.59 207.383 150.832 207.383C163.066 207.383 173 216.223 173 227.141Z" fill="url(#paint20_linear_0_835)"/>
<defs>
<radialGradient id="paint0_radial_0_835" cx="0" cy="0" r="1" gradientUnits="userSpaceOnUse" gradientTransform="translate(168.105 110.326) scale(393.406 352.825)">
<stop stop-color="#FFFCF8"/>
<stop offset="0.4554" stop-color="#FDFBF7"/>
<stop offset="0.6194" stop-color="#F6F5F5"/>
<stop offset="0.7363" stop-color="#EBEDF1"/>
<stop offset="0.8309" stop-color="#DAE0EB"/>
<stop offset="0.9118" stop-color="#C4CFE4"/>
<stop offset="0.9822" stop-color="#A9BBDB"/>
<stop offset="1" stop-color="#A1B5D8"/>
</radialGradient>
<linearGradient id="paint1_linear_0_835" x1="256" y1="155.169" x2="256" y2="314.282" gradientUnits="userSpaceOnUse">
<stop stop-color="#FFFCF8"/>
<stop offset="0.1875" stop-color="#FAF8F6"/>
<stop offset="0.4041" stop-color="#ECEEF2"/>
<stop offset="0.6353" stop-color="#D5DCEA"/>
<stop offset="0.875" stop-color="#B5C4DF"/>
<stop offset="1" stop-color="#A1B5D8"/>
</linearGradient>
<linearGradient id="paint2_linear_0_835" x1="256" y1="259.867" x2="256" y2="117.238" gradientUnits="userSpaceOnUse">
<stop stop-color="#FFFCF8"/>
<stop offset="0.1875" stop-color="#FAF8F6"/>
<stop offset="0.4041" stop-color="#ECEEF2"/>
<stop offset="0.6353" stop-color="#D5DCEA"/>
<stop offset="0.875" stop-color="#B5C4DF"/>
<stop offset="1" stop-color="#A1B5D8"/>
</linearGradient>
<linearGradient id="paint3_linear_0_835" x1="255.94" y1="193.905" x2="255.94" y2="252.028" gradientUnits="userSpaceOnUse">
<stop stop-color="#C6E56F"/>
<stop offset="0.3371" stop-color="#C4E56F"/>
<stop offset="0.4953" stop-color="#BCE36E"/>
<stop offset="0.6162" stop-color="#AFE16D"/>
<stop offset="0.7182" stop-color="#9DDD6B"/>
<stop offset="0.8083" stop-color="#85D968"/>
<stop offset="0.8899" stop-color="#68D365"/>
<stop offset="0.9635" stop-color="#46CD61"/>
<stop offset="1" stop-color="#32C95F"/>
</linearGradient>
<linearGradient id="paint4_linear_0_835" x1="395.227" y1="244.222" x2="354.184" y2="203.179" gradientUnits="userSpaceOnUse">
<stop stop-color="#A1B5D8" stop-opacity="0"/>
<stop offset="0.0343" stop-color="#9FB3D5" stop-opacity="0.035294"/>
<stop offset="0.4515" stop-color="#8898AF" stop-opacity="0.45098"/>
<stop offset="0.788" stop-color="#798898" stop-opacity="0.788235"/>
<stop offset="1" stop-color="#748290"/>
</linearGradient>
<linearGradient id="paint5_linear_0_835" x1="266.619" y1="227.052" x2="321.065" y2="227.052" gradientUnits="userSpaceOnUse">
<stop stop-color="#FF6E3A"/>
<stop offset="0.1596" stop-color="#FF6440"/>
<stop offset="0.4266" stop-color="#FF4B52"/>
<stop offset="0.7662" stop-color="#FF216E"/>
<stop offset="1" stop-color="#FF0084"/>
</linearGradient>
<linearGradient id="paint6_linear_0_835" x1="289.412" y1="227.944" x2="248.982" y2="200.693" gradientUnits="userSpaceOnUse">
<stop offset="0.0013" stop-color="#E7EEED" stop-opacity="0"/>
<stop offset="0.7731" stop-color="#F9FBFA" stop-opacity="0.772549"/>
<stop offset="1" stop-color="white"/>
</linearGradient>
<linearGradient id="paint7_linear_0_835" x1="344.242" y1="161.119" x2="374.36" y2="174.504" gradientUnits="userSpaceOnUse">
<stop stop-color="#FFD459"/>
<stop offset="0.2296" stop-color="#FFD355"/>
<stop offset="0.4362" stop-color="#FFCF4A"/>
<stop offset="0.634" stop-color="#FFC838"/>
<stop offset="0.825" stop-color="#FFBF1F"/>
<stop offset="1" stop-color="#FFB400"/>
</linearGradient>
<linearGradient id="paint8_linear_0_835" x1="25.3029" y1="171.141" x2="136.963" y2="171.141" gradientUnits="userSpaceOnUse">
<stop stop-color="#C6E56F"/>
<stop offset="0.3371" stop-color="#C4E56F"/>
<stop offset="0.4953" stop-color="#BCE36E"/>
<stop offset="0.6162" stop-color="#AFE16D"/>
<stop offset="0.7182" stop-color="#9DDD6B"/>
<stop offset="0.8083" stop-color="#85D968"/>
<stop offset="0.8899" stop-color="#68D365"/>
<stop offset="0.9635" stop-color="#46CD61"/>
<stop offset="1" stop-color="#32C95F"/>
</linearGradient>
<linearGradient id="paint9_linear_0_835" x1="60.3473" y1="183.515" x2="111.916" y2="141.524" gradientUnits="userSpaceOnUse">
<stop offset="0.0029" stop-color="#00E7B2" stop-opacity="0"/>
<stop offset="0.4308" stop-color="#1BC4B7" stop-opacity="0.427451"/>
<stop offset="1" stop-color="#3B9ABE"/>
</linearGradient>
<linearGradient id="paint10_linear_0_835" x1="84.4052" y1="229.987" x2="88.5136" y2="230.957" gradientUnits="userSpaceOnUse">
<stop stop-color="#97A03B"/>
<stop offset="1" stop-color="#6C7D47"/>
</linearGradient>
<linearGradient id="paint11_linear_0_835" x1="34.7969" y1="216.294" x2="109.571" y2="176.882" gradientUnits="userSpaceOnUse">
<stop stop-color="#C6E56F"/>
<stop offset="0.3371" stop-color="#C4E56F"/>
<stop offset="0.4953" stop-color="#BCE36E"/>
<stop offset="0.6162" stop-color="#AFE16D"/>
<stop offset="0.7182" stop-color="#9DDD6B"/>
<stop offset="0.8083" stop-color="#85D968"/>
<stop offset="0.8899" stop-color="#68D365"/>
<stop offset="0.9635" stop-color="#46CD61"/>
<stop offset="1" stop-color="#32C95F"/>
</linearGradient>
<linearGradient id="paint12_linear_0_835" x1="118.529" y1="225.541" x2="121.416" y2="226.223" gradientUnits="userSpaceOnUse">
<stop stop-color="#97A03B"/>
<stop offset="1" stop-color="#6C7D47"/>
</linearGradient>
<linearGradient id="paint13_linear_0_835" x1="15.5158" y1="207.946" x2="142.69" y2="207.946" gradientUnits="userSpaceOnUse">
<stop stop-color="#C6E56F"/>
<stop offset="0.3371" stop-color="#C4E56F"/>
<stop offset="0.4953" stop-color="#BCE36E"/>
<stop offset="0.6162" stop-color="#AFE16D"/>
<stop offset="0.7182" stop-color="#9DDD6B"/>
<stop offset="0.8083" stop-color="#85D968"/>
<stop offset="0.8899" stop-color="#68D365"/>
<stop offset="0.9635" stop-color="#46CD61"/>
<stop offset="1" stop-color="#32C95F"/>
</linearGradient>
<linearGradient id="paint14_linear_0_835" x1="78.3085" y1="222.157" x2="83.3181" y2="196.215" gradientUnits="userSpaceOnUse">
<stop offset="0.0029" stop-color="#00E7B2" stop-opacity="0"/>
<stop offset="0.4308" stop-color="#1BC4B7" stop-opacity="0.427451"/>
<stop offset="1" stop-color="#3B9ABE"/>
</linearGradient>
<linearGradient id="paint15_linear_0_835" x1="88.4843" y1="244.612" x2="101.64" y2="193.411" gradientUnits="userSpaceOnUse">
<stop stop-color="#C6E56F"/>
<stop offset="0.1955" stop-color="#C3E46F"/>
<stop offset="0.3591" stop-color="#B8E26E"/>
<stop offset="0.5111" stop-color="#A7DF6C"/>
<stop offset="0.6561" stop-color="#8FDA69"/>
<stop offset="0.7962" stop-color="#6FD566"/>
<stop offset="0.9308" stop-color="#49CD61"/>
<stop offset="1" stop-color="#32C95F"/>
</linearGradient>
<linearGradient id="paint16_linear_0_835" x1="323.761" y1="196.233" x2="502.347" y2="196.233" gradientUnits="userSpaceOnUse">
<stop stop-color="#C6E56F"/>
<stop offset="0.3371" stop-color="#C4E56F"/>
<stop offset="0.4953" stop-color="#BCE36E"/>
<stop offset="0.6162" stop-color="#AFE16D"/>
<stop offset="0.7182" stop-color="#9DDD6B"/>
<stop offset="0.8083" stop-color="#85D968"/>
<stop offset="0.8899" stop-color="#68D365"/>
<stop offset="0.9635" stop-color="#46CD61"/>
<stop offset="1" stop-color="#32C95F"/>
</linearGradient>
<linearGradient id="paint17_linear_0_835" x1="426.956" y1="227.99" x2="403.014" y2="174.948" gradientUnits="userSpaceOnUse">
<stop offset="0.0029" stop-color="#00E7B2" stop-opacity="0"/>
<stop offset="0.4308" stop-color="#1BC4B7" stop-opacity="0.427451"/>
<stop offset="1" stop-color="#3B9ABE"/>
</linearGradient>
<linearGradient id="paint18_linear_0_835" x1="410.256" y1="253.106" x2="385.209" y2="198.223" gradientUnits="userSpaceOnUse">
<stop stop-color="#C6E56F"/>
<stop offset="0.3371" stop-color="#C4E56F"/>
<stop offset="0.4953" stop-color="#BCE36E"/>
<stop offset="0.6162" stop-color="#AFE16D"/>
<stop offset="0.7182" stop-color="#9DDD6B"/>
<stop offset="0.8083" stop-color="#85D968"/>
<stop offset="0.8899" stop-color="#68D365"/>
<stop offset="0.9635" stop-color="#46CD61"/>
<stop offset="1" stop-color="#32C95F"/>
</linearGradient>
<linearGradient id="paint19_linear_0_835" x1="124.976" y1="224.306" x2="179.432" y2="224.306" gradientUnits="userSpaceOnUse">
<stop stop-color="#FF6E3A"/>
<stop offset="0.1596" stop-color="#FF6440"/>
<stop offset="0.4266" stop-color="#FF4B52"/>
<stop offset="0.7662" stop-color="#FF216E"/>
<stop offset="1" stop-color="#FF0084"/>
</linearGradient>
<linearGradient id="paint20_linear_0_835" x1="147.934" y1="224.849" x2="107.503" y2="197.597" gradientUnits="userSpaceOnUse">
<stop offset="0.0013" stop-color="#E7EEED" stop-opacity="0"/>
<stop offset="0.7731" stop-color="#F9FBFA" stop-opacity="0.772549"/>
<stop offset="1" stop-color="white"/>
</linearGradient>
</defs>
</svg>
