<svg width="512" height="512" viewBox="0 0 512 512" fill="none" xmlns="http://www.w3.org/2000/svg">
<path d="M441.727 371.398C441.727 339.344 358.574 313.355 256 313.355C153.426 313.355 70.2734 339.344 70.2734 371.398C70.2734 403.449 153.426 429.438 256 429.438C358.574 429.438 441.727 403.449 441.727 371.398Z" fill="url(#paint0_radial_0_949)"/>
<path d="M512 352.793C512 320.438 397.387 294.207 256 294.207C114.613 294.207 0 320.438 0 352.793C0 385.148 114.613 411.379 256 411.379C397.387 411.379 512 385.148 512 352.793Z" fill="url(#paint1_linear_0_949)"/>
<path d="M478.66 344.148C478.66 354.207 459.355 363.434 427.27 370.602C410.863 374.273 391.117 377.406 368.902 379.836C335.793 383.461 297.199 385.551 256 385.551C133.031 385.551 33.3398 367.016 33.3398 344.148C33.3398 321.277 133.031 302.734 256 302.734C308.414 302.734 356.613 306.109 394.652 311.75C419.207 315.383 439.535 319.961 454.035 325.203C469.773 330.875 478.66 337.32 478.66 344.148Z" fill="url(#paint2_linear_0_949)"/>
<path d="M512 352.793C512 320.438 397.387 294.207 256 294.207C170.645 294.207 95.0586 303.77 48.5469 318.465C47.8438 325.422 47.4844 332.48 47.4844 339.621C47.4844 342.199 49.1094 344.73 52.1484 347.191L105.07 400.113C147.391 407.195 199.559 411.375 256 411.375C397.387 411.375 512 385.148 512 352.793Z" fill="url(#paint3_linear_0_949)"/>
<path d="M464.516 339.621C464.516 360.074 361.906 378.527 256 378.449C153.441 378.379 47.4844 360.445 47.4844 339.621C47.4844 224.461 140.84 131.105 256 131.105C371.16 131.105 464.516 224.461 464.516 339.621Z" fill="url(#paint4_radial_0_949)"/>
<path d="M369.07 264.672H383.871C396.348 264.773 401.926 261.613 399.707 258.555C399.227 256.738 399.242 254.941 399.59 253.16L278.84 132.406L278.86 132.359C271.352 131.539 263.727 131.105 256 131.105C248.168 131.105 240.438 131.551 232.828 132.395C233.235 134.273 233.27 136.168 232.766 138.082C231.727 139.512 232.414 140.961 234.692 142.09L352.797 260.18C353.234 262.637 358.817 264.758 369.07 264.672Z" fill="url(#paint5_linear_0_949)"/>
<path d="M258.18 83H253.82C243.18 83 234.555 91.625 234.555 102.266V112.559H277.445V102.266C277.445 91.625 268.82 83 258.18 83Z" fill="url(#paint6_linear_0_949)"/>
<path d="M279.234 138.082C281.457 141.141 275.879 144.305 263.399 144.199C257.481 144.199 254.52 144.199 248.602 144.199C236.121 144.305 230.543 141.141 232.766 138.082C235.981 125.891 217.289 114.5 220.504 102.313C223.43 98.8008 236.024 96.3555 248.598 96.1953H263.399C275.977 96.3555 288.567 98.8008 291.496 102.313C294.711 114.5 276.02 125.891 279.234 138.082Z" fill="url(#paint7_linear_0_949)"/>
<defs>
<radialGradient id="paint0_radial_0_949" cx="0" cy="0" r="1" gradientUnits="userSpaceOnUse" gradientTransform="translate(254.214 353.526) scale(287.519 103.392)">
<stop stop-color="#FFFCF8"/>
<stop offset="0.2378" stop-color="#FCF9F7"/>
<stop offset="0.4365" stop-color="#F1F2F3"/>
<stop offset="0.621" stop-color="#E0E5ED"/>
<stop offset="0.797" stop-color="#C8D2E5"/>
<stop offset="0.9655" stop-color="#A8BBDB"/>
<stop offset="1" stop-color="#A1B5D8"/>
</radialGradient>
<linearGradient id="paint1_linear_0_949" x1="256" y1="298.201" x2="256" y2="457.314" gradientUnits="userSpaceOnUse">
<stop stop-color="#FFFCF8"/>
<stop offset="0.1875" stop-color="#FAF8F6"/>
<stop offset="0.4041" stop-color="#ECEEF2"/>
<stop offset="0.6353" stop-color="#D5DCEA"/>
<stop offset="0.875" stop-color="#B5C4DF"/>
<stop offset="1" stop-color="#A1B5D8"/>
</linearGradient>
<linearGradient id="paint2_linear_0_949" x1="256" y1="364.062" x2="256" y2="50.6438" gradientUnits="userSpaceOnUse">
<stop stop-color="#A1B5D8" stop-opacity="0"/>
<stop offset="0.0343" stop-color="#9FB3D5" stop-opacity="0.035294"/>
<stop offset="0.4515" stop-color="#8898AF" stop-opacity="0.45098"/>
<stop offset="0.788" stop-color="#798898" stop-opacity="0.788235"/>
<stop offset="1" stop-color="#748290"/>
</linearGradient>
<linearGradient id="paint3_linear_0_949" x1="285.88" y1="394.211" x2="252.416" y2="131.183" gradientUnits="userSpaceOnUse">
<stop stop-color="#A1B5D8" stop-opacity="0"/>
<stop offset="0.0343" stop-color="#9FB3D5" stop-opacity="0.035294"/>
<stop offset="0.4515" stop-color="#8898AF" stop-opacity="0.45098"/>
<stop offset="0.788" stop-color="#798898" stop-opacity="0.788235"/>
<stop offset="1" stop-color="#748290"/>
</linearGradient>
<radialGradient id="paint4_radial_0_949" cx="0" cy="0" r="1" gradientUnits="userSpaceOnUse" gradientTransform="translate(204.418 139.973) scale(298.195)">
<stop stop-color="#FFFCF8"/>
<stop offset="0.308" stop-color="#FCFAF7"/>
<stop offset="0.4963" stop-color="#F4F4F4"/>
<stop offset="0.6525" stop-color="#E6E9EF"/>
<stop offset="0.791" stop-color="#D1D9E8"/>
<stop offset="0.9167" stop-color="#B7C6DF"/>
<stop offset="1" stop-color="#A1B5D8"/>
</radialGradient>
<linearGradient id="paint5_linear_0_949" x1="291.055" y1="149.744" x2="249.644" y2="71.9401" gradientUnits="userSpaceOnUse">
<stop stop-color="#A1B5D8" stop-opacity="0"/>
<stop offset="0.0343" stop-color="#9FB3D5" stop-opacity="0.035294"/>
<stop offset="0.4515" stop-color="#8898AF" stop-opacity="0.45098"/>
<stop offset="0.788" stop-color="#798898" stop-opacity="0.788235"/>
<stop offset="1" stop-color="#748290"/>
</linearGradient>
<linearGradient id="paint6_linear_0_949" x1="251.061" y1="97.7661" x2="263.602" y2="97.7661" gradientUnits="userSpaceOnUse">
<stop stop-color="#45425A"/>
<stop offset="1" stop-color="#2D3251"/>
</linearGradient>
<linearGradient id="paint7_linear_0_949" x1="238.264" y1="120.199" x2="269.117" y2="120.199" gradientUnits="userSpaceOnUse">
<stop stop-color="#FFD459"/>
<stop offset="0.2296" stop-color="#FFD355"/>
<stop offset="0.4362" stop-color="#FFCF4A"/>
<stop offset="0.634" stop-color="#FFC838"/>
<stop offset="0.825" stop-color="#FFBF1F"/>
<stop offset="1" stop-color="#FFB400"/>
</linearGradient>
</defs>
</svg>
