<svg width="512" height="512" viewBox="0 0 512 512" fill="none" xmlns="http://www.w3.org/2000/svg">
<path d="M424.156 259.508C424.156 362.082 341.004 445.23 238.434 445.23C135.859 445.23 52.707 362.082 52.707 259.508C52.707 156.934 135.859 73.7812 238.434 73.7812C341.004 73.7812 424.156 156.934 424.156 259.508Z" fill="url(#paint0_linear_0_958)"/>
<path d="M404.648 259.508C404.648 351.305 330.23 425.723 238.434 425.723C146.637 425.723 72.2188 351.305 72.2188 259.508C72.2188 167.711 146.637 93.293 238.434 93.293C330.23 93.293 404.648 167.711 404.648 259.508Z" fill="url(#paint1_linear_0_958)"/>
<path d="M392.715 259.508C392.715 344.715 323.641 413.789 238.434 413.789C153.227 413.789 84.1523 344.715 84.1523 259.508C84.1523 174.301 153.227 105.227 238.434 105.227C323.641 105.227 392.715 174.301 392.715 259.508Z" fill="url(#paint2_radial_0_958)"/>
<path d="M238.434 155.441C232.824 155.441 228.277 150.895 228.277 145.285V129.172C228.277 123.562 232.824 119.016 238.434 119.016C244.043 119.016 248.59 123.562 248.59 129.172V145.285C248.59 150.895 244.043 155.441 238.434 155.441Z" fill="url(#paint3_linear_0_958)"/>
<path d="M238.434 399.996C232.824 399.996 228.277 395.449 228.277 389.84V373.73C228.277 368.121 232.824 363.574 238.434 363.574C244.043 363.574 248.59 368.121 248.59 373.73V389.84C248.59 395.449 244.043 399.996 238.434 399.996Z" fill="url(#paint4_linear_0_958)"/>
<path d="M342.496 259.508C342.496 253.898 347.047 249.352 352.656 249.352H368.766C374.375 249.352 378.922 253.898 378.922 259.508C378.922 265.117 374.375 269.664 368.766 269.664H352.656C347.047 269.664 342.496 265.117 342.496 259.508Z" fill="url(#paint5_linear_0_958)"/>
<path d="M97.9414 259.508C97.9414 253.898 102.488 249.352 108.098 249.352H124.211C129.816 249.352 134.367 253.898 134.367 259.508C134.367 265.117 129.816 269.664 124.211 269.664H108.098C102.488 269.664 97.9414 265.117 97.9414 259.508Z" fill="url(#paint6_linear_0_958)"/>
<path d="M391.176 281.289L254.254 144.367C250.055 139.223 244.512 136.09 238.434 136.09C225.328 136.09 214.699 150.629 214.699 168.57C214.699 180.5 219.41 190.906 226.418 196.551C227.156 197.457 227.937 198.297 228.754 199.07L225.336 254.297L188.258 296.266C178.809 293.965 166.66 297.918 157.293 307.285C150.113 314.465 141.879 327.516 141.437 335.496C141.316 337.668 143.621 338.953 145.367 338.043C145.305 338.473 145.258 338.891 145.238 339.297C145.117 341.469 147.418 342.754 149.164 341.84C149.105 342.27 149.059 342.691 149.035 343.094C148.98 344.086 149.434 344.883 150.102 345.383C150.297 345.973 150.609 346.531 151.078 347C151.086 347.012 151.098 347.02 151.109 347.031C151.117 347.039 151.129 347.051 151.141 347.062L216.277 412.199C223.512 413.238 230.906 413.789 238.434 413.789C316.246 413.789 380.59 356.18 391.176 281.289Z" fill="url(#paint7_linear_0_958)"/>
<path d="M262.164 168.566C262.164 150.629 251.539 136.086 238.434 136.086C225.328 136.086 214.699 150.629 214.699 168.566C214.699 181.812 220.496 193.199 228.805 198.254L225.105 258.023C224.633 265.707 230.734 272.199 238.434 272.199C246.129 272.199 252.23 265.707 251.758 258.023L248.059 198.254C256.367 193.199 262.164 181.812 262.164 168.566Z" fill="url(#paint8_linear_0_958)"/>
<path d="M157.293 307.285C150.113 314.465 141.879 327.516 141.437 335.496C141.301 337.965 144.297 339.293 146.047 337.543L169.707 313.879C170.879 312.707 172.805 312.59 174.012 313.727C175.258 314.902 175.281 316.867 174.078 318.07L151.141 341.004C149.492 342.652 149.433 345.348 151.078 347C151.086 347.008 151.098 347.02 151.109 347.031C151.121 347.043 151.129 347.051 151.141 347.062C152.793 348.707 155.484 348.645 157.133 346.996L179.98 324.148C181.152 322.98 183.074 322.859 184.281 323.996C185.531 325.172 185.555 327.137 184.348 328.34L160.598 352.09C158.848 353.84 160.176 356.836 162.641 356.699C170.625 356.258 183.676 348.023 190.855 340.844C200.223 331.477 204.176 319.328 201.875 309.879L246.754 270.23C252.523 265.133 252.797 256.227 247.355 250.785C241.914 245.34 233.008 245.617 227.91 251.387L188.262 296.266C178.812 293.965 166.66 297.918 157.293 307.285Z" fill="url(#paint9_linear_0_958)"/>
<path d="M252.52 259.508C252.52 267.289 246.215 273.594 238.434 273.594C230.652 273.594 224.344 267.289 224.344 259.508C224.344 251.727 230.652 245.418 238.434 245.418C246.215 245.418 252.52 251.727 252.52 259.508Z" fill="url(#paint10_linear_0_958)"/>
<path d="M294.25 403.371L295.297 404.426L277.895 417.09C270.059 422.832 263.457 429.227 258.102 436.273C255.996 439.047 254.313 441.84 253.035 444.66C307.906 440.395 356.086 412.285 387.223 370.68L364.703 348.156C347.316 372.883 322.848 392.266 294.25 403.371Z" fill="url(#paint11_linear_0_958)"/>
<path d="M364.703 348.16L343.836 327.293C342.809 326.191 341.727 325.121 340.57 324.09C330.309 314.938 317.871 310.367 303.262 310.367C289.469 310.367 277.605 314.43 267.676 322.555C257.742 330.684 252.777 341.148 252.777 353.953C252.777 360.145 254.395 364.344 257.609 366.578L294.25 403.371C322.848 392.266 347.316 372.883 364.703 348.16Z" fill="url(#paint12_linear_0_958)"/>
<path d="M250.066 481.777V457.922C250.066 450.539 252.746 443.324 258.102 436.277C263.461 429.227 270.059 422.832 277.898 417.09L301.535 399.883C309.418 394.148 316.105 387.84 321.609 380.957C327.105 374.074 329.859 367.191 329.859 360.305C329.859 353.426 327.602 347.406 323.086 342.238C318.566 337.078 311.961 334.5 303.262 334.5C295.871 334.5 289.879 336.539 285.285 340.613C280.684 344.688 278.387 350.719 278.387 358.703C278.387 361.312 277.113 363.594 274.57 365.551C272.023 367.504 268.699 368.484 264.598 368.484C256.719 368.484 252.777 363.645 252.777 353.953C252.777 341.148 257.742 330.684 267.676 322.555C277.609 314.426 289.473 310.363 303.262 310.363C317.871 310.363 330.309 314.938 340.57 324.09C350.828 333.238 355.961 345.062 355.961 359.57C355.961 369.406 353.211 378.621 347.715 387.227C342.211 395.828 335.562 403.121 327.766 409.102C319.965 415.082 312.168 420.734 304.371 426.062C296.57 431.387 289.922 436.754 284.422 442.16C278.922 447.574 276.172 452.816 276.172 457.895V467.234H348.574C350.875 467.234 352.887 468.34 354.609 470.559C356.332 472.773 357.195 475.445 357.195 478.562C357.195 481.684 356.336 484.434 354.625 486.812C352.914 489.191 350.914 490.383 348.633 490.383H261.562C258.953 490.383 256.383 489.562 253.859 487.922C251.332 486.289 250.066 484.238 250.066 481.777Z" fill="url(#paint13_linear_0_958)"/>
<path d="M358.18 440.242C358.18 438.441 358.672 436.637 359.66 434.832L419.254 317.5C421.719 312.742 425.492 310.367 430.582 310.367C433.371 310.367 436.246 311.348 439.203 313.32C442.156 315.289 443.637 317.672 443.637 320.461C443.637 321.445 443.223 322.762 442.402 324.402L391.672 425.617H427.875V391.438C427.875 385.656 432.223 382.766 440.926 382.766C444.535 382.766 447.613 383.516 450.16 385C452.703 386.484 453.977 388.629 453.977 391.438V425.617H466.043C468.836 425.617 471.008 426.836 472.57 429.277C474.129 431.715 474.91 434.562 474.91 437.809C474.91 440.73 474.004 443.457 472.199 445.973C470.391 448.492 468.34 449.75 466.043 449.75H453.977V481.711C453.977 484.359 452.66 486.465 450.035 488.035C447.41 489.605 444.371 490.387 440.926 490.387C437.312 490.387 434.234 489.605 431.688 488.035C429.141 486.465 427.871 484.359 427.871 481.711V449.75H367.289C364.664 449.75 362.488 448.902 360.766 447.191C359.043 445.484 358.18 443.168 358.18 440.242Z" fill="url(#paint14_linear_0_958)"/>
<path d="M495.309 224.988H471.496C454.965 110.363 356.102 22 236.973 22C106.305 22 0 128.305 0 258.973C0 312.887 18.5977 365.66 52.3633 407.562C85.625 448.836 132.234 478.078 183.605 489.906C185.016 490.23 186.418 490.387 187.805 490.387C196.285 490.387 203.957 484.551 205.941 475.934C208.25 465.906 201.992 455.906 191.965 453.598C148.695 443.637 109.418 418.984 81.375 384.184C52.5156 348.371 37.2578 305.074 37.2578 258.973C37.2578 148.848 126.848 59.2578 236.973 59.2578C335.512 59.2578 417.602 130.996 433.781 224.988H414.129C399.289 224.988 391.855 242.934 402.352 253.426L442.941 294.016C449.445 300.52 459.992 300.52 466.5 294.016L507.086 253.426C517.582 242.93 510.148 224.988 495.309 224.988Z" fill="url(#paint15_linear_0_958)"/>
<defs>
<linearGradient id="paint0_linear_0_958" x1="169.068" y1="190.142" x2="466.909" y2="487.983" gradientUnits="userSpaceOnUse">
<stop stop-color="#FF6E3A"/>
<stop offset="0.1596" stop-color="#FF6440"/>
<stop offset="0.4266" stop-color="#FF4B52"/>
<stop offset="0.7662" stop-color="#FF216E"/>
<stop offset="1" stop-color="#FF0084"/>
</linearGradient>
<linearGradient id="paint1_linear_0_958" x1="300.509" y1="321.584" x2="33.9567" y2="55.0315" gradientUnits="userSpaceOnUse">
<stop stop-color="#FF6E3A"/>
<stop offset="0.1596" stop-color="#FF6440"/>
<stop offset="0.4266" stop-color="#FF4B52"/>
<stop offset="0.7662" stop-color="#FF216E"/>
<stop offset="1" stop-color="#FF0084"/>
</linearGradient>
<radialGradient id="paint2_radial_0_958" cx="0" cy="0" r="1" gradientUnits="userSpaceOnUse" gradientTransform="translate(215.17 175.293) scale(276.917)">
<stop stop-color="#FFFCF8"/>
<stop offset="0.2881" stop-color="#FCFAF7"/>
<stop offset="0.4791" stop-color="#F3F3F4"/>
<stop offset="0.642" stop-color="#E4E8EF"/>
<stop offset="0.789" stop-color="#CFD8E8"/>
<stop offset="0.9241" stop-color="#B4C3DE"/>
<stop offset="1" stop-color="#A1B5D8"/>
</radialGradient>
<linearGradient id="paint3_linear_0_958" x1="233.076" y1="137.228" x2="247.907" y2="137.228" gradientUnits="userSpaceOnUse">
<stop stop-color="#3B395F"/>
<stop offset="0.0633" stop-color="#37355A"/>
<stop offset="0.4033" stop-color="#232543"/>
<stop offset="0.7232" stop-color="#171B35"/>
<stop offset="1" stop-color="#131830"/>
</linearGradient>
<linearGradient id="paint4_linear_0_958" x1="233.076" y1="381.785" x2="247.907" y2="381.785" gradientUnits="userSpaceOnUse">
<stop stop-color="#3B395F"/>
<stop offset="0.0633" stop-color="#37355A"/>
<stop offset="0.4033" stop-color="#232543"/>
<stop offset="0.7232" stop-color="#171B35"/>
<stop offset="1" stop-color="#131830"/>
</linearGradient>
<linearGradient id="paint5_linear_0_958" x1="360.71" y1="254.151" x2="360.71" y2="268.982" gradientUnits="userSpaceOnUse">
<stop stop-color="#3B395F"/>
<stop offset="0.0633" stop-color="#37355A"/>
<stop offset="0.4033" stop-color="#232543"/>
<stop offset="0.7232" stop-color="#171B35"/>
<stop offset="1" stop-color="#131830"/>
</linearGradient>
<linearGradient id="paint6_linear_0_958" x1="116.153" y1="254.151" x2="116.153" y2="268.982" gradientUnits="userSpaceOnUse">
<stop stop-color="#3B395F"/>
<stop offset="0.0633" stop-color="#37355A"/>
<stop offset="0.4033" stop-color="#232543"/>
<stop offset="0.7232" stop-color="#171B35"/>
<stop offset="1" stop-color="#131830"/>
</linearGradient>
<linearGradient id="paint7_linear_0_958" x1="287.708" y1="302.409" x2="-23.2913" y2="151.643" gradientUnits="userSpaceOnUse">
<stop stop-color="#A1B5D8" stop-opacity="0"/>
<stop offset="0.0343" stop-color="#9FB3D5" stop-opacity="0.035294"/>
<stop offset="0.4515" stop-color="#8898AF" stop-opacity="0.45098"/>
<stop offset="0.788" stop-color="#798898" stop-opacity="0.788235"/>
<stop offset="1" stop-color="#748290"/>
</linearGradient>
<linearGradient id="paint8_linear_0_958" x1="214.701" y1="204.144" x2="262.163" y2="204.144" gradientUnits="userSpaceOnUse">
<stop stop-color="#FFD459"/>
<stop offset="0.2296" stop-color="#FFD355"/>
<stop offset="0.4362" stop-color="#FFCF4A"/>
<stop offset="0.634" stop-color="#FFC838"/>
<stop offset="0.825" stop-color="#FFBF1F"/>
<stop offset="1" stop-color="#FFB400"/>
</linearGradient>
<linearGradient id="paint9_linear_0_958" x1="191.371" y1="291.047" x2="217.229" y2="316.905" gradientUnits="userSpaceOnUse">
<stop stop-color="#FFD459"/>
<stop offset="0.2296" stop-color="#FFD355"/>
<stop offset="0.4362" stop-color="#FFCF4A"/>
<stop offset="0.634" stop-color="#FFC838"/>
<stop offset="0.825" stop-color="#FFBF1F"/>
<stop offset="1" stop-color="#FFB400"/>
</linearGradient>
<linearGradient id="paint10_linear_0_958" x1="226.405" y1="247.48" x2="260.091" y2="281.166" gradientUnits="userSpaceOnUse">
<stop stop-color="#3B395F"/>
<stop offset="0.0633" stop-color="#37355A"/>
<stop offset="0.4033" stop-color="#232543"/>
<stop offset="0.7232" stop-color="#171B35"/>
<stop offset="1" stop-color="#131830"/>
</linearGradient>
<linearGradient id="paint11_linear_0_958" x1="340.477" y1="428.019" x2="282.604" y2="370.146" gradientUnits="userSpaceOnUse">
<stop stop-color="#E58200" stop-opacity="0"/>
<stop offset="0.4384" stop-color="#C4602C" stop-opacity="0.439216"/>
<stop offset="0.7953" stop-color="#AE4948" stop-opacity="0.796078"/>
<stop offset="1" stop-color="#A64153"/>
</linearGradient>
<linearGradient id="paint12_linear_0_958" x1="353.321" y1="399.613" x2="234.116" y2="280.408" gradientUnits="userSpaceOnUse">
<stop stop-color="#A1B5D8" stop-opacity="0"/>
<stop offset="0.0343" stop-color="#9FB3D5" stop-opacity="0.035294"/>
<stop offset="0.4515" stop-color="#8898AF" stop-opacity="0.45098"/>
<stop offset="0.788" stop-color="#798898" stop-opacity="0.788235"/>
<stop offset="1" stop-color="#748290"/>
</linearGradient>
<linearGradient id="paint13_linear_0_958" x1="303.631" y1="383.984" x2="303.631" y2="474.383" gradientUnits="userSpaceOnUse">
<stop stop-color="#FFD459"/>
<stop offset="0.2296" stop-color="#FFD355"/>
<stop offset="0.4362" stop-color="#FFCF4A"/>
<stop offset="0.634" stop-color="#FFC838"/>
<stop offset="0.825" stop-color="#FFBF1F"/>
<stop offset="1" stop-color="#FFB400"/>
</linearGradient>
<linearGradient id="paint14_linear_0_958" x1="416.546" y1="383.984" x2="416.546" y2="474.383" gradientUnits="userSpaceOnUse">
<stop stop-color="#FFD459"/>
<stop offset="0.2296" stop-color="#FFD355"/>
<stop offset="0.4362" stop-color="#FFCF4A"/>
<stop offset="0.634" stop-color="#FFC838"/>
<stop offset="0.825" stop-color="#FFBF1F"/>
<stop offset="1" stop-color="#FFB400"/>
</linearGradient>
<linearGradient id="paint15_linear_0_958" x1="153.149" y1="175.224" x2="333.787" y2="355.861" gradientUnits="userSpaceOnUse">
<stop stop-color="#8BE1E2"/>
<stop offset="0.1873" stop-color="#87E1E1"/>
<stop offset="0.3558" stop-color="#7CE2DD"/>
<stop offset="0.5172" stop-color="#6AE2D7"/>
<stop offset="0.6741" stop-color="#50E4CE"/>
<stop offset="0.8278" stop-color="#2FE5C2"/>
<stop offset="0.9772" stop-color="#07E7B4"/>
<stop offset="1" stop-color="#00E7B2"/>
</linearGradient>
</defs>
</svg>
