<svg width="511" height="511" viewBox="0 0 511 511" fill="none" xmlns="http://www.w3.org/2000/svg">
<g clip-path="url(#clip0_0_1023)">
<path d="M280.549 384.772L285.901 500.105C286.174 506.039 281.438 511.002 275.5 511.002H237.274C231.332 511.002 226.595 506.039 226.872 500.105L232.225 384.772C232.779 372.819 228.728 361.041 220.677 352.187C207.679 337.883 199.356 315.949 199.356 291.349C199.356 266.936 207.535 230.768 220.354 216.456C224.323 212.027 231.668 214.873 231.668 220.807V301.532C231.668 305.622 235.036 308.92 239.161 308.799C243.141 308.686 246.206 305.216 246.206 301.224V223.575C246.206 217.918 250.833 213.29 256.49 213.29C262.057 213.29 266.572 217.805 266.572 223.372V301.528C266.572 305.622 269.94 308.92 274.065 308.795C278.042 308.682 281.106 305.212 281.106 301.224V220.807C281.106 214.873 288.451 212.023 292.42 216.456C305.235 230.764 313.418 266.932 313.418 291.345C313.418 315.949 305.094 337.883 292.096 352.183C284.046 361.041 279.991 372.819 280.549 384.772Z" fill="url(#paint0_linear_0_1023)"/>
<path d="M292.42 216.456C288.451 212.027 281.106 214.877 281.106 220.811V301.224C281.106 305.216 278.042 308.686 274.065 308.799C269.937 308.924 266.568 305.622 266.568 301.532V223.376C266.568 217.809 262.057 213.294 256.486 213.294C250.829 213.294 246.202 217.922 246.202 223.579V301.228C246.202 305.216 243.141 308.686 239.161 308.799C235.036 308.924 231.668 305.622 231.668 301.532V220.811C231.668 214.877 224.323 212.027 220.354 216.46C209.831 228.207 202.436 254.678 200.124 277.29L285.192 362.359C286.997 358.694 289.297 355.263 292.093 352.187C305.091 337.883 313.418 315.949 313.418 291.349C313.418 266.936 305.235 230.768 292.42 216.456Z" fill="url(#paint1_linear_0_1023)"/>
<path d="M256.385 280.039C327.812 280.039 394.085 267.076 448.771 244.939C487.578 229.228 498.366 179.403 469.305 149.263C448.576 127.762 414.923 124.522 391.024 142.433C359.722 165.895 311.052 180.971 256.385 180.971C201.722 180.971 153.052 165.895 121.75 142.433C97.851 124.522 64.1941 127.762 43.465 149.263C14.4046 179.403 25.196 229.232 64.003 244.939C118.689 267.076 184.958 280.039 256.385 280.039Z" fill="url(#paint2_radial_0_1023)"/>
<path d="M168.225 166.604C147.859 185.715 128.486 196.815 123.481 191.809C119.13 187.454 126.939 172.253 141.621 154.975C149.804 159.333 158.709 163.236 168.225 166.604Z" fill="url(#paint3_linear_0_1023)"/>
<path d="M235.297 180.21C214.646 199.743 194.857 211.189 189.792 206.129C186.003 202.339 191.43 190.327 202.576 175.895C213.063 177.93 224.015 179.396 235.297 180.21Z" fill="url(#paint4_linear_0_1023)"/>
<path d="M305.087 176.819C283.239 198.405 261.449 211.474 256.093 206.129C252.748 202.784 256.599 193.006 265.235 180.823C279.013 180.425 292.362 179.049 305.087 176.819Z" fill="url(#paint5_linear_0_1023)"/>
<path d="M407.792 133.711C402.256 142.043 394.217 151.762 384.545 161.439C362.323 183.657 339.902 197.255 334.463 191.809C331.165 188.507 334.849 179.002 343.188 167.076C361.636 160.678 377.866 152.292 391.02 142.437C396.233 138.538 401.894 135.633 407.792 133.711Z" fill="url(#paint6_linear_0_1023)"/>
<path d="M236.767 184.795C235.929 185.248 234.88 184.982 234.362 184.187C230.186 177.77 226.085 171.314 221.937 164.881L216.989 157.08C216.709 156.628 216.447 156.261 216.155 155.735L215.282 154.171C212.982 149.961 211.812 145.107 211.668 140.195C211.559 135.275 212.646 130.277 214.826 125.723C215.426 124.62 215.956 123.458 216.685 122.417L217.695 120.889C217.722 120.846 217.753 120.803 217.785 120.764L218.919 119.322C219.683 118.288 220.623 117.419 221.5 116.479C221.952 116.019 222.451 115.622 222.931 115.193L223.66 114.561L224.03 114.246L224.33 114L233.886 106.238L238.666 102.355L239.859 101.384L240.837 100.503C241.469 99.9142 242.136 99.3723 242.74 98.7602C252.603 89.1656 256.919 75.0409 254.72 62.4288C254.529 60.8694 254.085 59.3528 253.73 57.8362C253.718 57.7816 253.703 57.731 253.687 57.6764C253.165 56.1988 252.775 54.69 252.081 53.2865C251.769 52.5887 251.492 51.883 251.173 51.193C251.149 51.1462 251.122 51.0955 251.095 51.0448L249.995 49.0604L249.481 48.1169C249.449 48.0624 249.418 48.0039 249.379 47.9532L248.771 47.0682L247.531 45.2047C247.496 45.154 247.461 45.1033 247.422 45.0604L246.007 43.3294L245.352 42.5029C245.313 42.4483 245.266 42.3976 245.219 42.3508L244.471 41.5984L242.935 40.0039C242.892 39.961 242.849 39.922 242.802 39.883L241.118 38.4483L240.323 37.7583C240.276 37.7193 240.225 37.6803 240.174 37.6413L239.309 37.037L237.523 35.7583C237.477 35.7271 237.426 35.6959 237.379 35.6647L235.481 34.5614C235.149 34.3742 234.837 34.1559 234.498 33.9883L233.469 33.5087C230.81 32.113 227.909 31.3138 225.056 30.651C225.001 30.6355 224.946 30.6277 224.892 30.6199C223.442 30.4288 222.026 30.113 220.572 30.1208C219.835 30.1013 219.11 30.0117 218.381 30.0234L216.194 30.1208C215.469 30.1091 214.748 30.2261 214.03 30.3431C213.344 30.4561 212.658 30.5263 211.98 30.6394C211.921 30.651 211.867 30.6627 211.808 30.6744L209.792 31.1735L208.748 31.4113L207.258 31.7972L201.29 33.3099L198.303 34.0624L197.559 34.2495C197.348 34.3119 197.266 34.3587 197.118 34.4132L196.319 34.7056C192.089 36.269 188.588 38.9746 185.964 42.3664C184.662 44.0662 183.578 45.9259 182.767 47.9142C182.334 48.9006 182.046 49.9415 181.757 50.9941C181.664 51.5282 181.453 52.0546 181.399 52.6043L181.282 53.4308L181.215 53.844L181.176 54.0546C181.165 54.1325 181.161 54.2963 181.153 54.4132L180.728 60.5536L180.607 62.0896L180.568 62.5575L180.529 62.8577C180.432 63.267 180.459 63.6647 180.408 64.0779C180.323 65.7232 180.658 67.4386 181.34 69.1579C182.787 72.5302 185.89 75.7037 190.463 76.9434C192.689 77.5711 195.196 77.7777 197.812 77.306C200.401 76.8109 203.087 75.7193 205.531 73.9454C208.011 72.1949 210.116 69.7037 211.753 66.6432C211.956 66.2495 212.167 65.8908 212.369 65.4464L212.97 63.9844L214.202 61.0604C214.872 59.5243 215.543 57.9883 216.256 56.46C216.599 55.731 217.387 55.3177 218.178 55.4347L218.841 55.5282C219.636 55.6452 220.272 56.269 220.389 57.0643C220.638 58.7329 220.837 60.3976 221.04 62.0584L221.383 65.2124L221.539 66.7875C221.57 67.3528 221.562 67.9961 221.566 68.6081C221.586 73.5594 220.315 78.7758 217.683 83.4425C215.052 88.0974 211.196 92.2573 206.412 95.3294C205.208 96.0662 203.964 96.7992 202.666 97.4191L200.677 98.2729L199.664 98.69L198.627 99.0292C197.239 99.4736 195.828 99.9142 194.373 100.171C193.648 100.312 192.919 100.472 192.182 100.581L189.964 100.784C178.097 101.914 165.212 96.5263 157.126 86.5692C153.083 81.614 150.128 75.5867 148.787 69.1306C148.471 67.5165 148.182 65.8869 148.073 64.2456L147.789 60.4093L147.418 54.2651L147.403 53.8557V53.2943L147.41 52.1754L147.445 49.9337C147.473 48.4366 147.687 46.9473 147.831 45.4503C148.225 42.4678 148.896 39.5126 149.816 36.6316C151.656 30.8772 154.541 25.4425 158.284 20.6978C162.015 15.9454 166.615 11.8791 171.761 8.73682C176.907 5.59452 182.615 3.40349 188.447 2.2456L190.642 1.86353L191.703 1.69199L192.467 1.61012L195.527 1.27484L201.652 0.615967L203.188 0.456122L205.188 0.29238L209.114 0.0116779C209.157 0.00777918 209.196 0.00777918 209.239 0.00777918C210.549 -0.0156126 211.867 0.0272724 213.173 0.0467655C214.502 0.0701573 215.828 0.0857519 217.145 0.257291L221.095 0.686142C222.405 0.86158 223.695 1.16177 224.989 1.40739C227.59 1.84014 230.085 2.72513 232.599 3.42298C233.843 3.82454 235.052 4.33526 236.272 4.7953C237.488 5.25924 238.701 5.73487 239.863 6.32747L243.364 8.03117C244.502 8.65105 245.601 9.34111 246.716 9.99998L248.373 10.998C248.919 11.345 249.434 11.7388 249.96 12.1091L253.036 14.347C253.071 14.3703 253.106 14.3976 253.141 14.4288C254.12 15.2319 255.067 16.0702 256.022 16.8967L257.418 18.1247C257.453 18.1559 257.488 18.1871 257.52 18.2183L258.822 19.5438L261.43 22.269C261.465 22.3041 261.5 22.3431 261.531 22.382L263.902 25.3099L265.048 26.7524C265.079 26.7914 265.106 26.8304 265.134 26.8694L266.163 28.4015L268.229 31.5243C268.256 31.5711 268.284 31.614 268.311 31.6608L270.097 34.9512L270.954 36.5731C270.974 36.6121 270.993 36.6549 271.013 36.6978L271.742 38.382L273.188 41.8245C273.204 41.8635 273.219 41.9025 273.231 41.9415C273.648 43.1111 274.003 44.3002 274.385 45.4776C275.204 47.8362 275.656 50.3041 276.19 52.729C276.198 52.768 276.206 52.8109 276.213 52.8499C276.572 55.3177 276.97 57.77 277.048 60.2534C277.317 65.2436 277.017 70.2495 276.042 75.0994C275.083 79.9415 273.683 84.6939 271.57 89.115C269.484 93.5321 266.981 97.7387 263.941 101.505C260.888 105.255 257.469 108.674 253.683 111.594C252.744 112.324 251.734 112.975 250.763 113.657L249.309 114.647L248.003 115.458L242.775 118.71L232.319 125.209L231.995 125.407L231.761 125.567L231.282 125.887C230.97 126.101 230.627 126.288 230.327 126.526C229.753 127.029 229.083 127.446 228.56 128.019L227.785 128.76C227.738 128.803 227.699 128.846 227.656 128.893L226.958 129.708C226.428 130.257 226.046 130.912 225.586 131.52C225.551 131.563 225.52 131.61 225.488 131.657C224.681 132.975 223.909 134.359 223.403 135.86C222.802 137.364 222.463 138.967 222.229 140.596C221.87 143.852 222.132 147.29 223.344 150.495L223.804 151.7C223.948 152.101 224.21 152.616 224.408 153.068L225.679 155.871L228.225 161.481C231.336 168.472 234.49 175.442 237.57 182.448C237.956 183.322 237.605 184.343 236.767 184.795Z" fill="url(#paint7_linear_0_1023)"/>
<path d="M262.615 163.883C261.305 157.349 261.102 150.479 261.859 143.641C262.003 141.918 262.358 140.23 262.631 138.515C263.024 136.834 263.348 135.111 263.839 133.438C264.323 131.762 264.79 130.07 265.414 128.429C265.714 127.602 265.987 126.76 266.323 125.945L267.352 123.501C270.174 117.002 274.104 110.916 278.849 105.438C280.007 104.039 281.325 102.795 282.588 101.477L286.124 97.996L287.882 96.2923C288.74 95.5633 289.601 94.8186 290.506 94.1247C291.453 93.4892 292.385 92.8147 293.387 92.2494C294.408 91.727 295.406 91.1227 296.49 90.7056C300.755 88.8927 305.445 87.9258 310.217 88.0194C311.414 88.0038 312.596 88.1792 313.8 88.2806C314.993 88.4365 316.174 88.7017 317.371 88.9473C318.533 89.2903 319.718 89.6217 320.865 90.0623C321.991 90.5496 323.169 90.9707 324.245 91.5866C328.642 93.9102 332.475 97.4268 335.137 101.653C337.835 105.879 339.387 110.889 339.582 115.86C339.792 120.838 338.67 125.75 336.533 130.027C334.393 134.308 331.196 137.957 327.422 140.479C326.506 141.134 325.469 141.63 324.506 142.164C323.504 142.643 322.475 143.045 321.461 143.419C319.777 143.891 318.147 144.245 316.459 144.616C313.087 145.306 309.664 145.906 306.011 146.121L304.865 144.183C306.818 141.088 309.001 138.382 311.235 135.762C312.346 134.476 313.531 133.185 314.638 131.984C314.97 131.442 315.332 130.99 315.633 130.499C315.898 129.969 316.19 129.505 316.42 129.006C317.336 127.014 317.761 125.06 317.851 123.224C317.933 121.392 317.714 119.688 317.212 118.187C316.712 116.682 316.065 115.396 315.289 114.117C314.498 112.83 313.625 111.622 312.498 110.503C310.334 108.187 306.451 106.698 302.728 107.583C302.252 107.645 301.827 107.867 301.356 107.977C300.896 108.129 300.475 108.366 300.011 108.542C299.578 108.776 299.161 109.041 298.709 109.275L296.716 110.698L292.771 113.497C291.625 114.37 290.397 115.166 289.309 116.129L287.609 117.509L285.983 118.982C284.868 119.945 283.886 121.037 282.837 122.082C281.804 123.142 280.865 124.288 279.878 125.411C278.989 126.6 277.987 127.731 277.169 128.986C270.104 138.752 265.851 150.85 264.861 163.762L262.615 163.883Z" fill="url(#paint8_linear_0_1023)"/>
</g>
<defs>
<linearGradient id="paint0_linear_0_1023" x1="199.354" y1="362.147" x2="313.418" y2="362.147" gradientUnits="userSpaceOnUse">
<stop stop-color="#FFFCF8"/>
<stop offset="0.1875" stop-color="#FAF8F6"/>
<stop offset="0.4041" stop-color="#ECEEF2"/>
<stop offset="0.6353" stop-color="#D5DCEA"/>
<stop offset="0.875" stop-color="#B5C4DF"/>
<stop offset="1" stop-color="#A1B5D8"/>
</linearGradient>
<linearGradient id="paint1_linear_0_1023" x1="333.1" y1="333.695" x2="181.199" y2="181.795" gradientUnits="userSpaceOnUse">
<stop stop-color="#A1B5D8" stop-opacity="0"/>
<stop offset="0.3544" stop-color="#93A5C2" stop-opacity="0.352941"/>
<stop offset="1" stop-color="#748290"/>
</linearGradient>
<radialGradient id="paint2_radial_0_1023" cx="0" cy="0" r="1" gradientUnits="userSpaceOnUse" gradientTransform="translate(256.386 148.915) scale(308.581 131.826)">
<stop stop-color="#FF6E3A"/>
<stop offset="0.3837" stop-color="#FF6C3B"/>
<stop offset="0.5518" stop-color="#FF6540"/>
<stop offset="0.6777" stop-color="#FF5849"/>
<stop offset="0.7826" stop-color="#FF4655"/>
<stop offset="0.8745" stop-color="#FF2F64"/>
<stop offset="0.9559" stop-color="#FF1377"/>
<stop offset="1" stop-color="#FF0084"/>
</radialGradient>
<linearGradient id="paint3_linear_0_1023" x1="145.253" y1="224.483" x2="145.253" y2="144.672" gradientUnits="userSpaceOnUse">
<stop stop-color="#E58200" stop-opacity="0"/>
<stop offset="0.4384" stop-color="#C4602C" stop-opacity="0.439216"/>
<stop offset="0.7953" stop-color="#AE4948" stop-opacity="0.796078"/>
<stop offset="1" stop-color="#A64153"/>
</linearGradient>
<linearGradient id="paint4_linear_0_1023" x1="211.944" y1="224.483" x2="211.944" y2="144.672" gradientUnits="userSpaceOnUse">
<stop stop-color="#E58200" stop-opacity="0"/>
<stop offset="0.4384" stop-color="#C4602C" stop-opacity="0.439216"/>
<stop offset="0.7953" stop-color="#AE4948" stop-opacity="0.796078"/>
<stop offset="1" stop-color="#A64153"/>
</linearGradient>
<linearGradient id="paint5_linear_0_1023" x1="279.991" y1="224.483" x2="279.991" y2="144.672" gradientUnits="userSpaceOnUse">
<stop stop-color="#E58200" stop-opacity="0"/>
<stop offset="0.4384" stop-color="#C4602C" stop-opacity="0.439216"/>
<stop offset="0.7953" stop-color="#AE4948" stop-opacity="0.796078"/>
<stop offset="1" stop-color="#A64153"/>
</linearGradient>
<linearGradient id="paint6_linear_0_1023" x1="370.528" y1="224.483" x2="370.528" y2="144.672" gradientUnits="userSpaceOnUse">
<stop stop-color="#E58200" stop-opacity="0"/>
<stop offset="0.4384" stop-color="#C4602C" stop-opacity="0.439216"/>
<stop offset="0.7953" stop-color="#AE4948" stop-opacity="0.796078"/>
<stop offset="1" stop-color="#A64153"/>
</linearGradient>
<linearGradient id="paint7_linear_0_1023" x1="230.843" y1="203.97" x2="152.016" y2="-409.448" gradientUnits="userSpaceOnUse">
<stop stop-color="#E58200" stop-opacity="0"/>
<stop offset="0.0396" stop-color="#E27F04" stop-opacity="0.039216"/>
<stop offset="0.4671" stop-color="#C15D2F" stop-opacity="0.466667"/>
<stop offset="0.8016" stop-color="#AD4949" stop-opacity="0.8"/>
<stop offset="1" stop-color="#A64153"/>
</linearGradient>
<linearGradient id="paint8_linear_0_1023" x1="278.349" y1="204.969" x2="365.947" y2="-85.8128" gradientUnits="userSpaceOnUse">
<stop stop-color="#E58200" stop-opacity="0"/>
<stop offset="0.0396" stop-color="#E27F04" stop-opacity="0.039216"/>
<stop offset="0.4671" stop-color="#C15D2F" stop-opacity="0.466667"/>
<stop offset="0.8016" stop-color="#AD4949" stop-opacity="0.8"/>
<stop offset="1" stop-color="#A64153"/>
</linearGradient>
<clipPath id="clip0_0_1023">
<rect width="511" height="511" fill="white"/>
</clipPath>
</defs>
</svg>
