<svg width="512" height="512" viewBox="0 0 512 512" fill="none" xmlns="http://www.w3.org/2000/svg">
<g clip-path="url(#clip0_0_1033)">
<path d="M112.738 119.449C92.1836 119.449 75.5234 136.109 75.5234 156.664C75.5234 177.219 92.1836 193.879 112.738 193.879C133.293 193.879 149.953 177.219 149.953 156.664C149.953 136.109 133.293 119.449 112.738 119.449ZM112.738 175.512C102.328 175.512 93.8906 167.074 93.8906 156.664C93.8906 146.254 102.328 137.816 112.738 137.816C123.148 137.816 131.586 146.254 131.586 156.664C131.586 167.074 123.148 175.512 112.738 175.512Z" fill="url(#paint0_linear_0_1033)"/>
<path d="M112.738 119.449C112.598 119.449 112.457 119.457 112.316 119.461V137.84C112.457 137.836 112.598 137.816 112.738 137.816C123.148 137.816 131.586 146.254 131.586 156.664C131.586 167.074 123.148 175.512 112.738 175.512C112.598 175.512 112.457 175.492 112.316 175.492V193.871C112.457 193.871 112.598 193.883 112.738 193.883C133.293 193.883 149.953 177.219 149.953 156.664C149.953 136.109 133.293 119.449 112.738 119.449Z" fill="url(#paint1_linear_0_1033)"/>
<path d="M112.738 148.23C105.809 148.23 100.191 142.613 100.191 135.684V52.2578C100.191 45.3281 105.809 39.7109 112.738 39.7109C119.668 39.7109 125.285 45.3281 125.285 52.2578V135.684C125.285 142.613 119.668 148.23 112.738 148.23Z" fill="url(#paint2_linear_0_1033)"/>
<path d="M112.738 39.7109C105.809 39.7109 100.191 45.3281 100.191 52.2578V70.9141L125.285 96.0078V52.2578C125.285 45.3281 119.668 39.7109 112.738 39.7109Z" fill="url(#paint3_linear_0_1033)"/>
<path d="M399.262 119.449C378.707 119.449 362.047 136.109 362.047 156.664C362.047 177.219 378.707 193.879 399.262 193.879C419.816 193.879 436.477 177.219 436.477 156.664C436.477 136.109 419.816 119.449 399.262 119.449ZM399.262 175.512C388.852 175.512 380.414 167.074 380.414 156.664C380.414 146.254 388.852 137.816 399.262 137.816C409.672 137.816 418.109 146.254 418.109 156.664C418.109 167.074 409.672 175.512 399.262 175.512Z" fill="url(#paint4_linear_0_1033)"/>
<path d="M399.262 119.449C399.121 119.449 398.98 119.457 398.84 119.461V137.84C398.98 137.836 399.117 137.816 399.262 137.816C409.672 137.816 418.109 146.254 418.109 156.664C418.109 167.074 409.672 175.512 399.262 175.512C399.117 175.512 398.98 175.492 398.84 175.492V193.871C398.98 193.871 399.121 193.883 399.262 193.883C419.816 193.883 436.477 177.219 436.477 156.664C436.477 136.109 419.816 119.449 399.262 119.449Z" fill="url(#paint5_linear_0_1033)"/>
<path d="M399.262 148.23C392.332 148.23 386.715 142.613 386.715 135.684V52.2578C386.715 45.3281 392.332 39.7109 399.262 39.7109C406.191 39.7109 411.809 45.3281 411.809 52.2578V135.684C411.809 142.613 406.191 148.23 399.262 148.23Z" fill="url(#paint6_linear_0_1033)"/>
<path d="M399.262 39.7109C392.332 39.7109 386.715 45.3281 386.715 52.2578V70.9141L411.809 96.0078V52.2578C411.809 45.3281 406.191 39.7109 399.262 39.7109Z" fill="url(#paint7_linear_0_1033)"/>
<path d="M485.27 485.547H26.7305C11.9688 485.547 0 473.582 0 458.816V227.836C0 213.07 11.9688 201.105 26.7305 201.105H60.457C69.3242 201.105 77.5781 196.68 82.582 189.355C94.3477 172.141 114.125 160.84 136.551 160.84C139.652 160.84 142.703 161.059 145.691 161.477C153.797 162.617 162.062 160.324 168.004 154.695C190.941 132.965 221.91 119.633 256 119.633C290.09 119.633 321.059 132.965 343.996 154.695C349.938 160.324 358.203 162.617 366.309 161.477C369.297 161.059 372.348 160.84 375.449 160.84C397.875 160.84 417.656 172.141 429.418 189.355C434.422 196.68 442.676 201.105 451.543 201.105H485.27C500.031 201.105 512 213.07 512 227.836V458.816C512 473.582 500.031 485.547 485.27 485.547Z" fill="url(#paint8_linear_0_1033)"/>
<path d="M256 149.355C231.996 149.355 209.184 158.609 191.762 175.418C179.43 187.312 163.09 193.867 145.746 193.867C142.523 193.867 139.27 193.633 136.07 193.176C134.754 192.988 133.41 192.891 132.066 192.891C122.668 192.891 113.875 197.629 108.555 205.559C96 224.262 75.2734 235.43 53.1133 235.43H42.0039C35.2266 235.43 29.7305 241.027 29.7305 247.926V443.336C29.7305 450.234 35.2227 455.832 42.0039 455.832H469.996C476.773 455.832 482.27 450.234 482.27 443.336V247.926C482.27 241.023 476.777 235.43 469.996 235.43H458.887C436.727 235.43 416 224.262 403.445 205.559C398.125 197.625 389.332 192.891 379.934 192.891C378.59 192.891 377.246 192.988 375.945 193.172C372.73 193.633 369.477 193.867 366.254 193.867C348.91 193.867 332.57 187.312 320.238 175.414C302.816 158.609 280.004 149.355 256 149.355Z" fill="url(#paint9_linear_0_1033)"/>
<path d="M256 157.555C232.867 157.555 210.879 166.316 194.086 182.223C182.199 193.484 166.453 199.688 149.738 199.688C146.633 199.688 143.496 199.465 140.41 199.031C139.141 198.855 137.848 198.766 136.551 198.766C127.492 198.766 119.02 203.246 113.891 210.754C101.793 228.457 81.8164 239.027 60.457 239.027H49.75C43.2188 239.027 37.9219 244.32 37.9219 250.852V435.801C37.9219 442.332 43.2188 447.629 49.75 447.629H462.25C468.781 447.629 474.078 442.332 474.078 435.801V250.852C474.078 244.32 468.781 239.027 462.25 239.027H451.543C430.184 239.027 410.207 228.457 398.109 210.754C392.98 203.246 384.508 198.766 375.449 198.766C374.152 198.766 372.859 198.855 371.605 199.031C368.504 199.465 365.367 199.688 362.266 199.688C345.551 199.688 329.801 193.484 317.914 182.223C301.121 166.316 279.133 157.555 256 157.555Z" fill="url(#paint10_linear_0_1033)"/>
<path d="M308.977 447.633H147.324L88.8281 389.121C88.457 388.82 88.0859 388.52 87.7344 388.207C80.8477 382.105 77.4023 372.566 77.4023 359.586V310.293C77.4023 297.312 80.8477 287.766 87.7344 281.672C94.6211 275.578 103.824 272.527 115.34 272.527C126.855 272.527 136.09 275.578 143.027 281.672C144.184 282.676 145.227 283.793 146.18 284.984L174.453 313.227L308.977 447.633Z" fill="url(#paint11_linear_0_1033)"/>
<path d="M407.383 447.633H230.07L177.16 394.723C175.355 393.66 174.453 392.215 174.453 390.406V278.289C174.453 276.703 175.094 275.348 176.398 274.223C177.695 273.09 179.359 272.527 181.387 272.527H214.418C225.711 272.527 234.719 275.52 241.434 281.504C242.508 282.457 243.48 283.5 244.375 284.633L266.754 307.012L407.383 447.633Z" fill="url(#paint12_linear_0_1033)"/>
<path d="M474.082 409.562V435.805C474.082 442.332 468.781 447.633 462.254 447.633H322.609L269.133 394.723C267.547 393.66 266.754 392.215 266.754 390.406V278.449C266.754 276.652 267.547 275.207 269.133 274.133C270.707 273.059 272.566 272.527 274.715 272.527H335.008C336.926 272.527 338.402 273.32 339.414 274.895L474.082 409.562Z" fill="url(#paint13_linear_0_1033)"/>
<path d="M474.082 318.156V435.805C474.082 442.332 468.781 447.633 462.254 447.633H411.469L358.047 394.723C356.242 393.66 355.34 392.215 355.34 390.406V278.449C355.34 274.504 358.328 272.527 364.312 272.527C367.477 272.527 370.016 273.23 371.934 274.645C373.008 275.438 374.102 276.645 375.215 278.23L415.465 318.105V278.289C415.465 276.363 416.336 274.926 418.082 273.961C419.84 273.008 421.957 272.527 424.438 272.527C426.918 272.527 429.035 273.008 430.793 273.961C432.258 274.777 433.113 275.93 433.344 277.418L474.082 318.156Z" fill="url(#paint14_linear_0_1033)"/>
<path d="M77.4023 359.582V310.297C77.4023 297.312 80.8438 287.77 87.7344 281.672C94.6211 275.574 103.824 272.527 115.34 272.527C126.859 272.527 136.09 275.574 143.031 281.672C149.977 287.77 153.449 297.312 153.449 310.297V359.582C153.449 372.57 149.977 382.109 143.031 388.207C136.09 394.305 126.859 397.352 115.34 397.352C103.824 397.352 94.6211 394.305 87.7344 388.207C80.8438 382.109 77.4023 372.57 77.4023 359.582ZM95.3555 359.582C95.3555 374.148 102.016 381.43 115.34 381.43C121.777 381.43 126.742 379.625 130.246 376.012C133.742 372.398 135.496 366.926 135.496 359.586V310.297C135.496 302.957 133.742 297.484 130.246 293.867C126.742 290.254 121.777 288.449 115.34 288.449C102.016 288.449 95.3555 295.73 95.3555 310.297V359.582Z" fill="url(#paint15_linear_0_1033)"/>
<path d="M174.449 390.41V278.285C174.449 276.707 175.098 275.352 176.398 274.223C177.695 273.094 179.363 272.527 181.395 272.527H214.422C225.711 272.527 234.715 275.52 241.434 281.504C248.152 287.488 251.512 296.914 251.512 309.789V311.145C251.512 324.016 248.039 333.473 241.098 339.512C234.152 345.555 224.922 348.574 213.406 348.574H192.402V390.406C192.402 392.215 191.527 393.656 189.777 394.727C188.027 395.801 185.91 396.336 183.426 396.336C181.055 396.336 178.965 395.801 177.16 394.727C175.352 393.656 174.449 392.215 174.449 390.41ZM192.402 334.348H213.402C219.84 334.348 224.809 332.512 228.309 328.844C231.809 325.176 233.559 319.672 233.559 312.328V310.297C233.559 302.957 231.809 297.484 228.309 293.871C224.809 290.258 219.84 288.449 213.402 288.449H192.402V334.348Z" fill="url(#paint16_linear_0_1033)"/>
<path d="M266.754 390.41V278.457C266.754 276.648 267.543 275.211 269.125 274.137C270.707 273.062 272.57 272.527 274.715 272.527H335.012C336.93 272.527 338.398 273.316 339.414 274.898C340.43 276.48 340.938 278.285 340.938 280.316C340.938 282.578 340.402 284.496 339.328 286.074C338.254 287.656 336.816 288.445 335.012 288.445H284.707V327.23H310.793C312.598 327.23 314.035 327.938 315.109 329.348C316.184 330.762 316.719 332.48 316.719 334.516C316.719 336.32 316.211 337.93 315.195 339.34C314.18 340.754 312.711 341.457 310.793 341.457H284.707V380.414H335.012C336.816 380.414 338.254 381.203 339.328 382.785C340.402 384.367 340.938 386.285 340.938 388.543C340.938 390.574 340.43 392.383 339.414 393.961C338.398 395.543 336.93 396.332 335.012 396.332H274.715C272.57 396.332 270.707 395.797 269.125 394.723C267.543 393.656 266.754 392.215 266.754 390.41Z" fill="url(#paint17_linear_0_1033)"/>
<path d="M355.336 390.41V278.457C355.336 274.504 358.324 272.527 364.312 272.527C367.469 272.527 370.012 273.234 371.934 274.645C373.852 276.059 375.828 278.738 377.859 282.691L415.461 356.027V278.285C415.461 276.367 416.336 274.926 418.086 273.965C419.836 273.008 421.953 272.527 424.438 272.527C426.922 272.527 429.039 273.008 430.789 273.965C432.539 274.926 433.418 276.367 433.418 278.285V390.41C433.418 392.215 432.539 393.656 430.789 394.727C429.039 395.801 426.922 396.336 424.438 396.336C419.695 396.336 416.141 394.137 413.77 389.73L373.289 312.668V390.41C373.289 392.219 372.414 393.656 370.664 394.73C368.914 395.805 366.797 396.34 364.312 396.34C361.941 396.34 359.852 395.805 358.047 394.73C356.238 393.656 355.336 392.215 355.336 390.41Z" fill="url(#paint18_linear_0_1033)"/>
<path d="M485.938 70.7148H26.0625C13.9922 70.7148 4.20703 60.9297 4.20703 48.8555C4.20703 36.7852 13.9922 27 26.0625 27H485.934C498.008 27 507.793 36.7852 507.793 48.8555C507.793 60.9297 498.008 70.7148 485.938 70.7148Z" fill="url(#paint19_linear_0_1033)"/>
</g>
<defs>
<linearGradient id="paint0_linear_0_1033" x1="97.8427" y1="121.819" x2="128.267" y2="192.99" gradientUnits="userSpaceOnUse">
<stop stop-color="#45425A"/>
<stop offset="1" stop-color="#2D3251"/>
</linearGradient>
<linearGradient id="paint1_linear_0_1033" x1="134.244" y1="170.668" x2="98.4148" y2="134.839" gradientUnits="userSpaceOnUse">
<stop stop-color="#3B395F" stop-opacity="0"/>
<stop offset="0.3793" stop-color="#252746" stop-opacity="0.380392"/>
<stop offset="0.7281" stop-color="#181C36" stop-opacity="0.729412"/>
<stop offset="1" stop-color="#131830"/>
</linearGradient>
<linearGradient id="paint2_linear_0_1033" x1="100.206" y1="93.9597" x2="125.301" y2="93.9597" gradientUnits="userSpaceOnUse">
<stop stop-color="#FFFCF8"/>
<stop offset="0.1875" stop-color="#FAF8F6"/>
<stop offset="0.4041" stop-color="#ECEEF2"/>
<stop offset="0.6353" stop-color="#D5DCEA"/>
<stop offset="0.875" stop-color="#B5C4DF"/>
<stop offset="1" stop-color="#A1B5D8"/>
</linearGradient>
<linearGradient id="paint3_linear_0_1033" x1="199.978" y1="146.227" x2="92.218" y2="38.4669" gradientUnits="userSpaceOnUse">
<stop stop-color="#A1B5D8" stop-opacity="0"/>
<stop offset="0.0343" stop-color="#9FB3D5" stop-opacity="0.035294"/>
<stop offset="0.4515" stop-color="#8898AF" stop-opacity="0.45098"/>
<stop offset="0.788" stop-color="#798898" stop-opacity="0.788235"/>
<stop offset="1" stop-color="#748290"/>
</linearGradient>
<linearGradient id="paint4_linear_0_1033" x1="384.366" y1="121.819" x2="414.79" y2="192.99" gradientUnits="userSpaceOnUse">
<stop stop-color="#45425A"/>
<stop offset="1" stop-color="#2D3251"/>
</linearGradient>
<linearGradient id="paint5_linear_0_1033" x1="420.767" y1="170.668" x2="384.938" y2="134.839" gradientUnits="userSpaceOnUse">
<stop stop-color="#3B395F" stop-opacity="0"/>
<stop offset="0.3793" stop-color="#252746" stop-opacity="0.380392"/>
<stop offset="0.7281" stop-color="#181C36" stop-opacity="0.729412"/>
<stop offset="1" stop-color="#131830"/>
</linearGradient>
<linearGradient id="paint6_linear_0_1033" x1="386.732" y1="93.9597" x2="411.827" y2="93.9597" gradientUnits="userSpaceOnUse">
<stop stop-color="#FFFCF8"/>
<stop offset="0.1875" stop-color="#FAF8F6"/>
<stop offset="0.4041" stop-color="#ECEEF2"/>
<stop offset="0.6353" stop-color="#D5DCEA"/>
<stop offset="0.875" stop-color="#B5C4DF"/>
<stop offset="1" stop-color="#A1B5D8"/>
</linearGradient>
<linearGradient id="paint7_linear_0_1033" x1="486.501" y1="146.227" x2="378.741" y2="38.4669" gradientUnits="userSpaceOnUse">
<stop stop-color="#A1B5D8" stop-opacity="0"/>
<stop offset="0.0343" stop-color="#9FB3D5" stop-opacity="0.035294"/>
<stop offset="0.4515" stop-color="#8898AF" stop-opacity="0.45098"/>
<stop offset="0.788" stop-color="#798898" stop-opacity="0.788235"/>
<stop offset="1" stop-color="#748290"/>
</linearGradient>
<linearGradient id="paint8_linear_0_1033" x1="235.961" y1="363.365" x2="590.979" y2="8.34667" gradientUnits="userSpaceOnUse">
<stop stop-color="#45425A"/>
<stop offset="1" stop-color="#2D3251"/>
</linearGradient>
<linearGradient id="paint9_linear_0_1033" x1="548.001" y1="302.591" x2="-320.155" y2="302.591" gradientUnits="userSpaceOnUse">
<stop stop-color="#45425A"/>
<stop offset="1" stop-color="#2D3251"/>
</linearGradient>
<linearGradient id="paint10_linear_0_1033" x1="195.156" y1="282.483" x2="609.917" y2="697.243" gradientUnits="userSpaceOnUse">
<stop stop-color="#FF6E3A"/>
<stop offset="0.1596" stop-color="#FF6440"/>
<stop offset="0.4266" stop-color="#FF4B52"/>
<stop offset="0.7662" stop-color="#FF216E"/>
<stop offset="1" stop-color="#FF0084"/>
</linearGradient>
<linearGradient id="paint11_linear_0_1033" x1="203.5" y1="423.054" x2="34.1141" y2="253.668" gradientUnits="userSpaceOnUse">
<stop stop-color="#E58200" stop-opacity="0"/>
<stop offset="0.4384" stop-color="#C4602C" stop-opacity="0.439216"/>
<stop offset="0.7953" stop-color="#AE4948" stop-opacity="0.796078"/>
<stop offset="1" stop-color="#A64153"/>
</linearGradient>
<linearGradient id="paint12_linear_0_1033" x1="275.574" y1="404.522" x2="150.858" y2="279.806" gradientUnits="userSpaceOnUse">
<stop stop-color="#E58200" stop-opacity="0"/>
<stop offset="0.4384" stop-color="#C4602C" stop-opacity="0.439216"/>
<stop offset="0.7953" stop-color="#AE4948" stop-opacity="0.796078"/>
<stop offset="1" stop-color="#A64153"/>
</linearGradient>
<linearGradient id="paint13_linear_0_1033" x1="384.015" y1="414.544" x2="228.313" y2="258.841" gradientUnits="userSpaceOnUse">
<stop stop-color="#E58200" stop-opacity="0"/>
<stop offset="0.4384" stop-color="#C4602C" stop-opacity="0.439216"/>
<stop offset="0.7953" stop-color="#AE4948" stop-opacity="0.796078"/>
<stop offset="1" stop-color="#A64153"/>
</linearGradient>
<linearGradient id="paint14_linear_0_1033" x1="457.766" y1="397.682" x2="332.919" y2="272.836" gradientUnits="userSpaceOnUse">
<stop stop-color="#E58200" stop-opacity="0"/>
<stop offset="0.4384" stop-color="#C4602C" stop-opacity="0.439216"/>
<stop offset="0.7953" stop-color="#AE4948" stop-opacity="0.796078"/>
<stop offset="1" stop-color="#A64153"/>
</linearGradient>
<linearGradient id="paint15_linear_0_1033" x1="106.07" y1="226.947" x2="122.634" y2="418.185" gradientUnits="userSpaceOnUse">
<stop stop-color="#8BE1E2"/>
<stop offset="0.1873" stop-color="#87E1E1"/>
<stop offset="0.3558" stop-color="#7CE2DD"/>
<stop offset="0.5172" stop-color="#6AE2D7"/>
<stop offset="0.6741" stop-color="#50E4CE"/>
<stop offset="0.8278" stop-color="#2FE5C2"/>
<stop offset="0.9772" stop-color="#07E7B4"/>
<stop offset="1" stop-color="#00E7B2"/>
</linearGradient>
<linearGradient id="paint16_linear_0_1033" x1="201.714" y1="218.663" x2="218.278" y2="409.9" gradientUnits="userSpaceOnUse">
<stop stop-color="#8BE1E2"/>
<stop offset="0.1873" stop-color="#87E1E1"/>
<stop offset="0.3558" stop-color="#7CE2DD"/>
<stop offset="0.5172" stop-color="#6AE2D7"/>
<stop offset="0.6741" stop-color="#50E4CE"/>
<stop offset="0.8278" stop-color="#2FE5C2"/>
<stop offset="0.9772" stop-color="#07E7B4"/>
<stop offset="1" stop-color="#00E7B2"/>
</linearGradient>
<linearGradient id="paint17_linear_0_1033" x1="293.065" y1="210.75" x2="309.629" y2="401.988" gradientUnits="userSpaceOnUse">
<stop stop-color="#8BE1E2"/>
<stop offset="0.1873" stop-color="#87E1E1"/>
<stop offset="0.3558" stop-color="#7CE2DD"/>
<stop offset="0.5172" stop-color="#6AE2D7"/>
<stop offset="0.6741" stop-color="#50E4CE"/>
<stop offset="0.8278" stop-color="#2FE5C2"/>
<stop offset="0.9772" stop-color="#07E7B4"/>
<stop offset="1" stop-color="#00E7B2"/>
</linearGradient>
<linearGradient id="paint18_linear_0_1033" x1="382.997" y1="202.961" x2="399.561" y2="394.199" gradientUnits="userSpaceOnUse">
<stop stop-color="#8BE1E2"/>
<stop offset="0.1873" stop-color="#87E1E1"/>
<stop offset="0.3558" stop-color="#7CE2DD"/>
<stop offset="0.5172" stop-color="#6AE2D7"/>
<stop offset="0.6741" stop-color="#50E4CE"/>
<stop offset="0.8278" stop-color="#2FE5C2"/>
<stop offset="0.9772" stop-color="#07E7B4"/>
<stop offset="1" stop-color="#00E7B2"/>
</linearGradient>
<linearGradient id="paint19_linear_0_1033" x1="256" y1="30.9923" x2="256" y2="74.0501" gradientUnits="userSpaceOnUse">
<stop stop-color="#FFD459"/>
<stop offset="0.2296" stop-color="#FFD355"/>
<stop offset="0.4362" stop-color="#FFCF4A"/>
<stop offset="0.634" stop-color="#FFC838"/>
<stop offset="0.825" stop-color="#FFBF1F"/>
<stop offset="1" stop-color="#FFB400"/>
</linearGradient>
<clipPath id="clip0_0_1033">
<rect width="512" height="512" fill="white"/>
</clipPath>
</defs>
</svg>
