<svg width="512" height="512" viewBox="0 0 512 512" fill="none" xmlns="http://www.w3.org/2000/svg">
<path d="M432.812 364.613H79.1875C67.3711 364.613 57.793 355.035 57.793 343.219V169.113C57.793 157.297 67.3711 147.719 79.1875 147.719H432.812C444.633 147.719 454.211 157.297 454.211 169.113V343.219C454.211 355.035 444.629 364.613 432.812 364.613Z" fill="url(#paint0_linear_0_1054)"/>
<path d="M454.207 169.109V343.219C454.207 353.527 446.934 362.113 437.238 364.152C435.805 364.457 434.324 364.613 432.812 364.613H79.1875C67.3672 364.613 57.793 355.039 57.793 343.219V169.109C57.793 157.289 67.3672 147.719 79.1875 147.719H432.812C444.633 147.719 454.207 157.293 454.207 169.109Z" fill="url(#paint1_linear_0_1054)"/>
<path d="M438.039 360.395C437.852 361.719 437.59 362.969 437.238 364.152C435.805 364.461 434.324 364.613 432.812 364.613H290.004L227.246 301.855C223.586 298.789 221.746 295.668 221.746 292.488C221.746 290.562 222.445 288.621 223.871 286.695C225.285 284.758 226.906 283.793 228.734 283.793C229.937 283.793 231.539 284.68 233.5 286.465C235.473 288.25 238.176 290.156 241.617 292.184C245.055 294.223 249.031 295.391 253.559 295.699V270.109L233.992 250.512C233.918 250.438 233.828 250.371 233.754 250.293C232.273 248.926 230.719 247.27 229.086 245.332C227.453 243.402 226.281 241.137 225.57 238.539C224.859 235.941 224.496 233.074 224.496 229.918C224.496 221.066 227.277 214.34 232.832 209.75C238.387 205.16 245.297 202.414 253.559 201.492V197.055C253.559 196.137 253.984 195.324 254.852 194.613C255.719 193.902 256.77 193.539 257.996 193.539C259.113 193.539 260.156 193.902 261.129 194.613C261.961 195.227 262.422 195.938 262.531 196.707L268.02 201.602C272.184 202.105 276.105 203.004 279.785 204.32C283.367 205.613 285.734 207.242 286.871 209.227L438.039 360.395Z" fill="url(#paint2_linear_0_1054)"/>
<path d="M57.7891 293.207V343.215C57.7891 355.031 67.3711 364.613 79.1875 364.613H432.812C444.629 364.613 454.207 355.031 454.207 343.215V293.207H57.7891Z" fill="url(#paint3_linear_0_1054)"/>
<path d="M423.539 339.168H88.4609C83.0977 339.168 78.7344 334.805 78.7344 329.441V182.887C78.7344 177.523 83.0977 173.16 88.4609 173.16H423.539C428.902 173.16 433.266 177.523 433.266 182.887V329.441C433.266 334.805 428.902 339.168 423.539 339.168ZM91.6406 326.262H420.359V186.066H91.6406V326.262Z" fill="url(#paint4_linear_0_1054)"/>
<path d="M161.32 219.125H110.695C107.551 219.125 105 216.574 105 213.426V203.797C105 200.652 107.551 198.102 110.695 198.102H161.32C164.469 198.102 167.02 200.652 167.02 203.797V213.426C167.02 216.574 164.469 219.125 161.32 219.125Z" fill="url(#paint5_linear_0_1054)"/>
<path d="M401.305 314.23H350.68C347.531 314.23 344.98 311.68 344.98 308.531V298.902C344.98 295.758 347.531 293.207 350.68 293.207H401.305C404.449 293.207 407.004 295.758 407.004 298.902V308.531C407.004 311.68 404.449 314.23 401.305 314.23Z" fill="url(#paint6_linear_0_1054)"/>
<path d="M287.977 265.555C286.457 261.844 284.199 258.766 281.207 256.324C278.215 253.883 275.375 251.973 272.687 250.598C270.004 249.227 266.633 247.773 262.578 246.25V215.258C266.652 215.562 270.52 216.582 274.176 218.316C277.824 220.051 280.059 220.914 280.871 220.914C282.926 220.914 284.574 219.922 285.805 217.934C287.039 215.945 287.656 214.035 287.656 212.199C287.656 208.836 285.031 206.211 279.781 204.324C274.531 202.438 268.793 201.395 262.574 201.188V197.059C262.574 196.141 262.09 195.324 261.125 194.613C260.152 193.898 259.109 193.543 257.988 193.543C256.766 193.543 255.719 193.898 254.855 194.613C253.988 195.328 253.555 196.141 253.555 197.059V201.492C245.297 202.41 238.387 205.164 232.832 209.75C227.273 214.34 224.496 221.062 224.496 229.918C224.496 233.074 224.855 235.949 225.566 238.543C226.281 241.137 227.453 243.402 229.086 245.332C230.715 247.266 232.27 248.922 233.75 250.293C235.227 251.668 237.316 252.992 240.02 254.262C242.719 255.535 244.887 256.5 246.52 257.16C248.148 257.824 250.496 258.715 253.555 259.832V295.695C249.035 295.391 245.055 294.223 241.613 292.188C238.176 290.152 235.473 288.246 233.504 286.465C231.535 284.684 229.945 283.793 228.738 283.793C226.91 283.793 225.289 284.762 223.871 286.691C222.453 288.625 221.746 290.559 221.746 292.492C221.746 296.605 224.828 300.637 230.996 304.594C237.164 308.551 244.684 310.582 253.555 310.684V315.336C253.555 316.238 253.988 317.039 254.855 317.742C255.719 318.438 256.766 318.789 257.988 318.789C259.109 318.789 260.152 318.438 261.125 317.738C262.09 317.035 262.574 316.234 262.574 315.336V310.227C271.094 309 277.832 305.699 282.805 300.328C287.773 294.957 290.258 287.715 290.258 278.605C290.258 273.621 289.496 269.27 287.977 265.555ZM254.469 243.352C249.523 241.52 245.816 239.559 243.344 237.473C240.871 235.391 239.637 232.363 239.637 228.395C239.637 221.055 244.582 216.77 254.473 215.547V243.352H254.469ZM261.66 295.391V263.191C265.941 265.023 269.254 267.211 271.598 269.754C273.941 272.297 275.117 275.805 275.117 280.281C275.117 288.727 270.629 293.766 261.66 295.391Z" fill="url(#paint7_linear_0_1054)"/>
<path d="M497.246 116.211C486.891 112.422 475.559 116.746 470.168 125.934C453.184 97.8984 430.758 73.3672 403.746 53.5469C360.465 21.7891 309.133 5 255.305 5C201.477 5 150.145 21.7891 106.863 53.5469C64.4727 84.6484 33.3555 127.344 16.875 177.016C12.9688 188.789 19.3477 201.504 31.125 205.414C42.9062 209.32 55.6172 202.941 59.5234 191.164C73.0508 150.391 98.6133 115.332 133.445 89.7734C168.965 63.7109 211.102 49.9336 255.305 49.9336C299.504 49.9336 341.645 63.7109 377.164 89.7734C397.906 104.996 415.363 123.586 428.945 144.746C418.609 143.195 408.262 149.055 404.527 159.25C400.266 170.902 406.254 183.809 417.906 188.07L464.688 205.188C464.801 205.23 464.914 205.258 465.027 205.297C465.418 205.434 465.813 205.555 466.215 205.672C466.43 205.734 466.641 205.797 466.855 205.852C467.258 205.953 467.668 206.043 468.074 206.121C468.285 206.164 468.492 206.211 468.703 206.246C469.137 206.32 469.574 206.371 470.016 206.418C470.195 206.438 470.375 206.469 470.555 206.484C471.168 206.535 471.781 206.562 472.402 206.562H472.406C472.988 206.562 473.566 206.539 474.145 206.492C474.281 206.484 474.418 206.461 474.559 206.445C475 206.402 475.445 206.359 475.883 206.289C476.055 206.262 476.223 206.223 476.395 206.191C476.801 206.117 477.211 206.039 477.613 205.941C477.801 205.898 477.988 205.84 478.18 205.789C478.559 205.688 478.938 205.586 479.313 205.465C479.371 205.445 479.426 205.434 479.48 205.414C479.594 205.379 479.695 205.328 479.809 205.289C480.305 205.113 480.793 204.926 481.273 204.719C481.48 204.629 481.688 204.543 481.891 204.449C482.359 204.23 482.82 203.992 483.273 203.742C483.418 203.66 483.57 203.59 483.711 203.508C484.258 203.191 484.785 202.848 485.305 202.484C485.508 202.34 485.703 202.188 485.898 202.043C486.246 201.781 486.582 201.512 486.918 201.234C487.098 201.078 487.277 200.926 487.457 200.766C487.832 200.426 488.199 200.07 488.555 199.699C488.652 199.598 488.758 199.5 488.855 199.398C489.316 198.902 489.762 198.379 490.18 197.84C490.211 197.801 490.234 197.762 490.266 197.723C490.637 197.23 490.992 196.723 491.328 196.195C491.414 196.055 491.5 195.914 491.586 195.77C491.844 195.344 492.09 194.91 492.324 194.461C492.418 194.277 492.516 194.094 492.605 193.906C492.809 193.488 492.992 193.062 493.172 192.625C493.258 192.422 493.344 192.223 493.422 192.02C493.449 191.949 493.48 191.883 493.508 191.812L510.625 145.031C514.891 133.375 508.898 120.473 497.246 116.211Z" fill="url(#paint8_linear_0_1054)"/>
<path d="M14.7539 396.121C25.1094 399.91 36.4453 395.586 41.832 386.395C58.8164 414.434 81.2422 438.965 108.254 458.785C151.535 490.543 202.867 507.332 256.695 507.332C310.523 507.332 361.855 490.543 405.137 458.785C447.527 427.68 478.645 384.984 495.125 335.316C499.031 323.539 492.652 310.824 480.875 306.918C469.094 303.008 456.383 309.391 452.477 321.168C438.949 361.937 413.387 397 378.555 422.555C343.035 448.617 300.898 462.395 256.695 462.395C212.496 462.395 170.359 448.621 134.84 422.555C114.094 407.336 96.6406 388.742 83.0586 367.586C93.3945 369.137 103.742 363.277 107.473 353.078C111.738 341.426 105.746 328.523 94.0938 324.262L47.3125 307.145C47.2031 307.102 47.0899 307.074 46.9766 307.035C46.582 306.898 46.1875 306.773 45.7852 306.66C45.5742 306.598 45.3594 306.535 45.1484 306.48C44.7422 306.375 44.3359 306.289 43.9258 306.207C43.7188 306.168 43.5078 306.121 43.3008 306.086C42.8633 306.012 42.4258 305.961 41.9844 305.91C41.8047 305.891 41.625 305.863 41.4492 305.848C40.8359 305.797 40.2188 305.77 39.5977 305.77H39.5938C39.0117 305.77 38.4297 305.793 37.8555 305.836C37.7188 305.848 37.5781 305.871 37.4414 305.883C37 305.926 36.5547 305.977 36.1172 306.043C35.9453 306.07 35.7774 306.109 35.6055 306.141C35.1992 306.215 34.7891 306.293 34.3867 306.387C34.1992 306.434 34.0117 306.492 33.8203 306.543C33.4414 306.645 33.0586 306.746 32.6875 306.867C32.6289 306.887 32.5742 306.898 32.5156 306.918C32.4063 306.953 32.3008 307.004 32.1914 307.043C31.6953 307.215 31.207 307.406 30.7266 307.613C30.5195 307.699 30.3125 307.789 30.1094 307.883C29.6406 308.102 29.1797 308.34 28.7227 308.59C28.582 308.668 28.4297 308.738 28.2891 308.82C27.7422 309.141 27.2109 309.484 26.6953 309.848C26.4922 309.992 26.2969 310.141 26.1016 310.289C25.7539 310.551 25.4141 310.816 25.082 311.098C24.9024 311.25 24.7227 311.406 24.543 311.566C24.1641 311.906 23.8008 312.262 23.4453 312.629C23.3477 312.734 23.2422 312.828 23.1445 312.934C22.6836 313.43 22.2383 313.949 21.8203 314.492C21.7891 314.531 21.7656 314.57 21.7344 314.609C21.3633 315.098 21.0078 315.609 20.6719 316.133C20.582 316.273 20.5 316.418 20.4141 316.562C20.1524 316.988 19.9102 317.422 19.6758 317.871C19.582 318.055 19.4844 318.238 19.3945 318.422C19.1914 318.844 19.0039 319.27 18.8242 319.707C18.7422 319.906 18.6524 320.105 18.5781 320.312C18.5508 320.383 18.5156 320.449 18.4922 320.52L1.37501 367.301C-2.89062 378.953 3.10157 391.855 14.7539 396.121Z" fill="url(#paint9_linear_0_1054)"/>
<defs>
<linearGradient id="paint0_linear_0_1054" x1="256" y1="225.64" x2="256" y2="421.802" gradientUnits="userSpaceOnUse">
<stop stop-color="#8BE1E2"/>
<stop offset="0.1873" stop-color="#87E1E1"/>
<stop offset="0.3558" stop-color="#7CE2DD"/>
<stop offset="0.5172" stop-color="#6AE2D7"/>
<stop offset="0.6741" stop-color="#50E4CE"/>
<stop offset="0.8278" stop-color="#2FE5C2"/>
<stop offset="0.9772" stop-color="#07E7B4"/>
<stop offset="1" stop-color="#00E7B2"/>
</linearGradient>
<linearGradient id="paint1_linear_0_1054" x1="256" y1="225.64" x2="256" y2="421.802" gradientUnits="userSpaceOnUse">
<stop stop-color="#8BE1E2"/>
<stop offset="0.1873" stop-color="#87E1E1"/>
<stop offset="0.3558" stop-color="#7CE2DD"/>
<stop offset="0.5172" stop-color="#6AE2D7"/>
<stop offset="0.6741" stop-color="#50E4CE"/>
<stop offset="0.8278" stop-color="#2FE5C2"/>
<stop offset="0.9772" stop-color="#07E7B4"/>
<stop offset="1" stop-color="#00E7B2"/>
</linearGradient>
<linearGradient id="paint2_linear_0_1054" x1="354.347" y1="352.731" x2="216.882" y2="215.265" gradientUnits="userSpaceOnUse">
<stop offset="0.0029" stop-color="#00E7B2" stop-opacity="0"/>
<stop offset="0.4308" stop-color="#1BC4B7" stop-opacity="0.427451"/>
<stop offset="1" stop-color="#3B9ABE"/>
</linearGradient>
<linearGradient id="paint3_linear_0_1054" x1="256" y1="313.347" x2="256" y2="368.457" gradientUnits="userSpaceOnUse">
<stop offset="0.0029" stop-color="#00E7B2" stop-opacity="0"/>
<stop offset="0.4308" stop-color="#1BC4B7" stop-opacity="0.427451"/>
<stop offset="1" stop-color="#3B9ABE"/>
</linearGradient>
<linearGradient id="paint4_linear_0_1054" x1="78.7344" y1="256.165" x2="433.266" y2="256.165" gradientUnits="userSpaceOnUse">
<stop stop-color="#3B395F"/>
<stop offset="0.8022" stop-color="#1B1F3A"/>
<stop offset="1" stop-color="#131830"/>
</linearGradient>
<linearGradient id="paint5_linear_0_1054" x1="122.215" y1="151.679" x2="141.696" y2="232.088" gradientUnits="userSpaceOnUse">
<stop offset="0.0029" stop-color="#00E7B2" stop-opacity="0"/>
<stop offset="0.4308" stop-color="#1BC4B7" stop-opacity="0.427451"/>
<stop offset="1" stop-color="#3B9ABE"/>
</linearGradient>
<linearGradient id="paint6_linear_0_1054" x1="362.199" y1="246.784" x2="381.68" y2="327.193" gradientUnits="userSpaceOnUse">
<stop offset="0.0029" stop-color="#00E7B2" stop-opacity="0"/>
<stop offset="0.4308" stop-color="#1BC4B7" stop-opacity="0.427451"/>
<stop offset="1" stop-color="#3B9ABE"/>
</linearGradient>
<linearGradient id="paint7_linear_0_1054" x1="241.358" y1="242.159" x2="296.741" y2="288.36" gradientUnits="userSpaceOnUse">
<stop stop-color="#45425A"/>
<stop offset="1" stop-color="#2D3251"/>
</linearGradient>
<linearGradient id="paint8_linear_0_1054" x1="199.793" y1="96.628" x2="374.561" y2="271.396" gradientUnits="userSpaceOnUse">
<stop stop-color="#FF6E3A"/>
<stop offset="0.1596" stop-color="#FF6440"/>
<stop offset="0.4266" stop-color="#FF4B52"/>
<stop offset="0.7662" stop-color="#FF216E"/>
<stop offset="1" stop-color="#FF0084"/>
</linearGradient>
<linearGradient id="paint9_linear_0_1054" x1="248.137" y1="360.037" x2="248.137" y2="574.623" gradientUnits="userSpaceOnUse">
<stop stop-color="#FF6E3A"/>
<stop offset="0.1596" stop-color="#FF6440"/>
<stop offset="0.4266" stop-color="#FF4B52"/>
<stop offset="0.7662" stop-color="#FF216E"/>
<stop offset="1" stop-color="#FF0084"/>
</linearGradient>
</defs>
</svg>
