<svg width="512" height="512" viewBox="0 0 512 512" fill="none" xmlns="http://www.w3.org/2000/svg">
<path d="M500.91 195.68C506.875 195.68 511.711 190.848 511.711 184.883L511.715 134.52C511.715 124.293 503.426 116 493.195 116L18.8242 115.965C8.59375 115.965 0.304688 124.258 0.300781 134.484V184.844C0.300781 190.809 5.13281 195.645 11.0977 195.648C17.0664 195.648 21.8984 200.484 21.8984 206.449L21.8906 305.699C21.8906 311.664 17.0547 316.5 11.0898 316.5C5.125 316.5 0.289062 321.336 0.289062 327.301L0.285156 377.664C0.285156 387.891 8.57812 396.18 18.8047 396.184L493.18 396.215C503.406 396.215 511.699 387.926 511.699 377.699L511.703 327.336C511.703 321.371 506.867 316.535 500.902 316.535C494.938 316.535 490.102 311.699 490.102 305.73L490.109 206.48C490.109 200.516 494.945 195.68 500.91 195.68Z" fill="url(#paint0_linear_0_1095)"/>
<path d="M0.289062 330.82L0.285156 377.664C0.285156 387.891 8.57422 396.18 18.8008 396.184L493.176 396.215C503.406 396.215 511.695 387.926 511.695 377.699L511.699 330.824H0.289062V330.82Z" fill="url(#paint1_linear_0_1095)"/>
<path d="M21.1055 259.23L55.1094 293.234V259.23H21.1055Z" fill="url(#paint2_linear_0_1095)"/>
<path d="M159.289 116.996L196.105 153.812H159.289V116.996Z" fill="url(#paint3_linear_0_1095)"/>
<path d="M459.648 361.953H56.9766C50.2695 361.953 44.832 356.52 44.832 349.809V162.375C44.832 155.664 50.2695 150.227 56.9766 150.227H459.648C466.355 150.227 471.793 155.664 471.793 162.375V349.809C471.793 356.516 466.355 361.953 459.648 361.953Z" fill="url(#paint4_linear_0_1095)"/>
<path d="M212.773 182.813C205.836 175.027 194.305 172.02 184.02 176.613C173.961 181.113 164.293 186.992 155.449 191.906C150.102 194.879 145.719 197.879 141.809 200.867C137.578 198.91 132.867 197.813 127.902 197.813C122.688 197.813 117.762 199.016 113.371 201.156C109.508 198.277 105.176 195.395 99.9336 192.543C91.043 187.711 81.3242 181.922 71.2227 177.52C57.1172 171.371 40.7969 179.422 37.1367 194.367C34.5117 205.09 46.4336 215.703 46.3203 226.367C46.3203 226.367 34.3828 250.477 37.457 262.543C38.7266 267.531 41.4141 271.727 44.9492 274.875L145.141 375.066C145.781 375.793 146.469 376.473 147.184 377.113C149.184 379.367 151.566 381.223 154.195 382.609C154.594 382.824 155 383.023 155.41 383.211C155.426 383.219 155.441 383.227 155.457 383.23C155.852 383.414 156.25 383.586 156.656 383.746C156.688 383.758 156.719 383.77 156.75 383.781C157.137 383.934 157.527 384.078 157.922 384.211C157.973 384.227 158.02 384.242 158.07 384.258C158.445 384.383 158.828 384.496 159.211 384.605C159.277 384.621 159.344 384.641 159.41 384.656C159.777 384.758 160.148 384.848 160.52 384.93C160.602 384.949 160.684 384.965 160.766 384.984C161.125 385.059 161.484 385.125 161.844 385.184C161.941 385.199 162.039 385.215 162.137 385.23C162.484 385.285 162.832 385.328 163.184 385.367C163.293 385.379 163.406 385.391 163.52 385.402C163.855 385.438 164.191 385.457 164.531 385.477C164.656 385.484 164.781 385.492 164.91 385.496C165.234 385.512 165.559 385.516 165.887 385.516C166.023 385.516 166.164 385.516 166.305 385.512C166.617 385.508 166.934 385.492 167.246 385.477C167.398 385.465 167.551 385.461 167.703 385.449C168.008 385.426 168.309 385.395 168.613 385.359C168.777 385.34 168.938 385.324 169.098 385.305C169.395 385.266 169.691 385.215 169.984 385.164C170.156 385.137 170.324 385.113 170.492 385.078C170.781 385.023 171.07 384.957 171.363 384.891C171.535 384.852 171.707 384.816 171.879 384.773C172.172 384.699 172.461 384.613 172.75 384.527C172.918 384.48 173.09 384.438 173.258 384.383C173.57 384.285 173.879 384.172 174.184 384.063C174.332 384.012 174.48 383.965 174.625 383.91C175.078 383.738 175.531 383.551 175.98 383.352C182.266 380.543 188.398 377.191 194.277 373.871C195.449 373.207 196.617 372.547 197.77 371.891C200.078 370.578 202.34 369.289 204.551 368.059C207.66 366.328 210.449 364.59 213.008 362.852C213.133 362.766 213.25 362.68 213.375 362.594C218.719 366.281 225.199 368.445 232.184 368.445C239.387 368.445 246.051 366.141 251.488 362.242C254.082 363.977 256.91 365.707 260.066 367.422C261.18 368.027 262.305 368.648 263.445 369.281C270.262 373.055 277.512 377.203 285.008 380.734C286.258 381.324 287.516 381.898 288.777 382.445C289.23 382.645 289.684 382.824 290.137 382.992C290.281 383.047 290.426 383.09 290.57 383.141C290.582 383.145 290.594 383.148 290.605 383.152C290.75 383.203 290.891 383.25 291.035 383.297C291.195 383.348 291.352 383.406 291.508 383.453C291.676 383.504 291.844 383.547 292.008 383.594C292.293 383.672 292.574 383.754 292.859 383.824C292.887 383.832 292.906 383.836 292.934 383.844C293.09 383.879 293.246 383.906 293.402 383.941C293.695 384.008 293.988 384.07 294.281 384.125C294.441 384.156 294.598 384.176 294.758 384.203C294.891 384.223 295.02 384.246 295.152 384.266C295.328 384.289 295.504 384.316 295.676 384.336C295.836 384.355 295.996 384.371 296.156 384.387C296.438 384.414 296.719 384.445 296.996 384.465C297.043 384.469 297.086 384.473 297.133 384.473C297.266 384.48 297.395 384.484 297.527 384.488C297.844 384.504 298.156 384.516 298.473 384.52C298.613 384.52 298.75 384.52 298.891 384.516H298.934C299.043 384.516 299.148 384.516 299.258 384.512C299.461 384.508 299.664 384.5 299.867 384.492C299.992 384.484 300.121 384.477 300.246 384.469C300.535 384.449 300.82 384.43 301.109 384.402C301.172 384.395 301.238 384.387 301.301 384.379C301.398 384.371 301.496 384.359 301.59 384.344C301.941 384.305 302.289 384.258 302.637 384.199C302.734 384.184 302.828 384.168 302.926 384.152C302.98 384.141 303.039 384.133 303.094 384.121C303.152 384.113 303.215 384.102 303.273 384.09C303.52 384.047 303.762 383.992 304.008 383.938C304.086 383.922 304.168 383.902 304.246 383.883C304.539 383.816 304.832 383.746 305.125 383.668C305.191 383.648 305.262 383.629 305.328 383.609C305.34 383.605 305.352 383.602 305.359 383.602C305.426 383.582 305.488 383.563 305.551 383.547C305.938 383.438 306.32 383.316 306.699 383.188C306.746 383.172 306.793 383.156 306.836 383.141C307.23 383.004 307.621 382.855 308.012 382.699C308.043 382.688 308.074 382.676 308.105 382.66C308.395 382.543 308.68 382.422 308.961 382.293C309.008 382.27 309.055 382.25 309.102 382.23C309.168 382.199 309.23 382.168 309.297 382.137C309.312 382.129 309.328 382.125 309.344 382.117C310.449 381.594 311.512 380.992 312.531 380.313C312.555 380.297 312.578 380.281 312.602 380.266C313.711 379.523 314.762 378.688 315.742 377.773C315.75 377.766 315.758 377.758 315.766 377.75C319.129 374.598 321.668 370.469 322.859 365.602C325.82 353.512 313.66 329.512 313.66 329.512C313.449 318.848 325.27 308.125 322.543 297.43C321.266 292.418 318.562 288.207 315.012 285.051L212.773 182.813Z" fill="url(#paint5_linear_0_1095)"/>
<path d="M0 249.234V206.449C0 200.93 4.47266 196.457 9.99609 196.457H502.004C507.523 196.457 512 200.93 512 206.449V249.234C512 254.754 507.527 259.23 502.004 259.23H9.99609C4.47266 259.23 0 254.754 0 249.234H0Z" fill="url(#paint6_linear_0_1095)"/>
<path d="M180.492 259.23H280.938L218.16 196.457H180.492V259.23Z" fill="url(#paint7_linear_0_1095)"/>
<path d="M149.293 405.184H106.508C100.988 405.184 96.5156 400.707 96.5156 395.188V116.996C96.5156 111.477 100.988 107 106.508 107H149.293C154.812 107 159.289 111.473 159.289 116.996V395.188C159.289 400.707 154.812 405.184 149.293 405.184Z" fill="url(#paint8_linear_0_1095)"/>
<path d="M96.5117 265.582L159.289 328.359V238.305H96.5117V265.582Z" fill="url(#paint9_linear_0_1095)"/>
<path d="M119.813 206.242C114.313 201.695 108.27 197.074 99.9336 192.543C91.043 187.707 81.3203 181.918 71.2188 177.516C57.1133 171.371 40.7969 179.422 37.1367 194.367C34.5117 205.09 46.4336 215.703 46.3203 226.367C46.3203 226.367 34.3828 250.477 37.457 262.539C41.2539 277.449 57.6484 285.348 71.6953 279.07C81.7539 274.574 91.4219 268.695 100.266 263.777C108.559 259.164 114.559 254.488 120.02 249.891C133.582 238.469 133.484 217.535 119.813 206.242Z" fill="url(#paint10_linear_0_1095)"/>
<path d="M209.375 225.23C209.164 214.566 220.984 203.84 218.258 193.145C214.461 178.234 198.066 170.336 184.019 176.613C173.961 181.109 164.293 186.988 155.449 191.906C147.156 196.52 141.156 201.195 135.699 205.789C122.133 217.215 122.234 238.148 135.902 249.441C141.402 253.984 147.445 258.605 155.785 263.141C164.676 267.977 174.394 273.762 184.496 278.164C198.602 284.313 214.922 276.262 218.578 261.316C221.539 249.227 209.375 225.23 209.375 225.23Z" fill="url(#paint11_linear_0_1095)"/>
<path d="M120.02 249.895C124.34 246.254 127.266 241.648 128.816 236.699C103.73 239.066 64.5625 247.754 49.9102 278.328C56.3945 281.758 64.3633 282.348 71.6953 279.07C81.7539 274.574 91.4219 268.695 100.266 263.781C108.562 259.168 114.559 254.488 120.02 249.895Z" fill="url(#paint12_linear_0_1095)"/>
<path d="M56.7031 226.383C56.7499 236.422 58.0703 264.035 85.7617 271.953C90.7812 269.187 95.6367 266.352 100.266 263.777C108.562 259.168 114.559 254.488 120.019 249.894C127.621 243.492 130.93 234.102 129.965 225.094C129.965 225.094 115.43 217.332 108.977 214.246C74.1132 197.559 56.6367 212.258 56.7031 226.383Z" fill="url(#paint13_linear_0_1095)"/>
<path d="M135.902 249.445C131.547 245.844 128.578 241.27 126.98 236.332C152.086 238.465 191.336 246.785 206.273 277.223C199.82 280.711 191.859 281.375 184.496 278.168C174.395 273.766 164.672 267.977 155.785 263.145C147.445 258.609 141.402 253.988 135.902 249.445Z" fill="url(#paint14_linear_0_1095)"/>
<path d="M198.992 225.34C199.039 235.379 197.98 263.004 170.363 271.18C165.32 268.461 160.437 265.672 155.781 263.141C147.445 258.609 141.402 253.988 135.902 249.441C128.238 243.113 124.844 233.754 125.723 224.734C125.723 224.734 140.184 216.84 146.609 213.691C181.316 196.68 198.926 211.219 198.992 225.34Z" fill="url(#paint15_linear_0_1095)"/>
<path d="M214.227 270.43L152.141 208.348C149.23 205.23 145.719 202.684 141.801 200.867C139.648 202.516 137.637 204.16 135.695 205.793C122.133 217.215 122.23 238.148 135.902 249.445C141.402 253.988 147.445 258.609 155.785 263.145C164.672 267.977 174.394 273.766 184.496 278.168C195.359 282.902 207.531 279.207 214.227 270.43Z" fill="url(#paint16_linear_0_1095)"/>
<path d="M161.078 230.988C161.078 249.309 146.223 264.164 127.902 264.164C109.578 264.164 94.7227 249.309 94.7227 230.988C94.7227 212.664 109.578 197.812 127.902 197.812C146.223 197.812 161.078 212.664 161.078 230.988Z" fill="url(#paint17_linear_0_1095)"/>
<path d="M170.551 292.984C170.551 292.086 171.078 291.313 172.125 290.66C173.176 290.012 174.301 289.688 175.5 289.688C177 289.688 177.922 290.238 178.273 291.336L190.641 334.059L202.934 291.336C203.277 290.238 204.172 289.688 205.613 289.688C206.805 289.688 207.934 290.012 209.004 290.66C210.07 291.305 210.605 292.078 210.605 292.973C210.605 293.121 210.555 293.348 210.457 293.645L195.625 342.219C195.375 343.07 194.777 343.738 193.836 344.215C192.895 344.691 191.828 344.93 190.641 344.93C187.891 344.93 186.219 344.027 185.617 342.23L170.625 293.66C170.578 293.508 170.551 293.285 170.551 292.984Z" fill="url(#paint18_linear_0_1095)"/>
<path d="M216.051 328.215V306.402C216.051 300.656 217.574 296.434 220.621 293.734C223.668 291.035 227.742 289.688 232.84 289.688C237.938 289.688 242.02 291.035 245.094 293.734C248.168 296.434 249.703 300.656 249.703 306.402V328.215C249.703 333.961 248.168 338.184 245.094 340.879C242.02 343.578 237.938 344.93 232.84 344.93C227.742 344.93 223.668 343.578 220.621 340.879C217.57 338.184 216.051 333.961 216.051 328.215ZM223.992 328.215C223.992 334.66 226.941 337.883 232.84 337.883C235.688 337.883 237.887 337.082 239.434 335.484C240.98 333.887 241.758 331.461 241.758 328.215V306.402C241.758 303.152 240.984 300.73 239.434 299.133C237.887 297.531 235.688 296.734 232.84 296.734C226.941 296.734 223.992 299.957 223.992 306.402V328.215Z" fill="url(#paint19_linear_0_1095)"/>
<path d="M258.773 328.215V292.234C258.773 291.387 259.16 290.746 259.934 290.324C260.707 289.898 261.645 289.688 262.746 289.688C263.844 289.688 264.781 289.898 265.555 290.324C266.332 290.746 266.719 291.387 266.719 292.234V328.215C266.719 331.461 267.516 333.887 269.117 335.484C270.715 337.082 272.965 337.883 275.863 337.883C282.008 337.883 285.082 334.66 285.082 328.211V292.234C285.082 291.383 285.469 290.746 286.246 290.32C287.02 289.898 287.953 289.684 289.055 289.684C290.152 289.684 291.09 289.898 291.867 290.32C292.641 290.746 293.027 291.383 293.027 292.234V328.211C293.027 333.961 291.465 338.18 288.344 340.879C285.219 343.578 281.059 344.926 275.863 344.926C270.715 344.926 266.582 343.578 263.457 340.879C260.332 338.184 258.773 333.961 258.773 328.215Z" fill="url(#paint20_linear_0_1095)"/>
<path d="M302.172 328.215V306.402C302.172 300.656 303.707 296.434 306.781 293.734C309.855 291.035 313.863 289.688 318.812 289.688C323.91 289.688 328.02 290.949 331.141 293.469C334.266 295.996 335.824 299.254 335.824 303.25C335.824 304.852 335.527 305.938 334.926 306.512C334.328 307.086 333.301 307.375 331.852 307.375C329.254 307.375 327.93 306.5 327.879 304.75C327.582 299.406 324.656 296.73 319.109 296.73C313.113 296.73 310.117 299.953 310.117 306.402V328.215C310.117 334.66 313.164 337.883 319.262 337.883C321.059 337.883 322.559 337.621 323.758 337.098C324.957 336.57 325.82 335.809 326.344 334.809C326.867 333.812 327.23 332.938 327.43 332.188C327.629 331.438 327.781 330.512 327.879 329.414C328.031 327.664 329.328 326.789 331.777 326.789C333.227 326.789 334.266 327.078 334.891 327.652C335.512 328.227 335.824 329.312 335.824 330.914C335.824 335.062 334.25 338.434 331.105 341.031C327.957 343.629 323.832 344.93 318.738 344.93C313.789 344.93 309.793 343.578 306.746 340.879C303.695 338.184 302.172 333.961 302.172 328.215Z" fill="url(#paint21_linear_0_1095)"/>
<path d="M343.246 341.855V292.234C343.246 291.387 343.633 290.75 344.406 290.324C345.18 289.902 346.117 289.688 347.219 289.688C348.316 289.688 349.254 289.898 350.027 290.324C350.801 290.75 351.191 291.387 351.191 292.234V312.922H369.855V292.234C369.855 291.387 370.242 290.75 371.016 290.324C371.789 289.902 372.727 289.688 373.828 289.688C374.926 289.688 375.863 289.898 376.637 290.324C377.41 290.75 377.797 291.387 377.797 292.234V341.855C377.797 342.656 377.41 343.293 376.637 343.766C375.863 344.242 374.926 344.48 373.828 344.48C372.777 344.48 371.852 344.242 371.055 343.766C370.254 343.293 369.855 342.656 369.855 341.855V319.219H351.191V341.855C351.191 342.656 350.801 343.293 350.027 343.766C349.254 344.242 348.316 344.48 347.219 344.48C346.168 344.48 345.242 344.242 344.445 343.766C343.645 343.293 343.246 342.656 343.246 341.855Z" fill="url(#paint22_linear_0_1095)"/>
<path d="M387.691 341.855V292.309C387.691 291.512 388.043 290.875 388.742 290.398C389.441 289.922 390.266 289.688 391.215 289.688H417.898C418.75 289.688 419.398 290.035 419.848 290.734C420.297 291.434 420.523 292.234 420.523 293.133C420.523 294.133 420.285 294.984 419.812 295.684C419.336 296.383 418.699 296.73 417.898 296.73H395.637V313.898H407.18C407.98 313.898 408.617 314.211 409.094 314.832C409.566 315.461 409.805 316.219 409.805 317.121C409.805 317.918 409.578 318.633 409.129 319.258C408.68 319.883 408.031 320.191 407.18 320.191H395.637V337.434H417.898C418.699 337.434 419.336 337.781 419.812 338.48C420.285 339.184 420.523 340.031 420.523 341.031C420.523 341.93 420.297 342.73 419.848 343.43C419.398 344.129 418.75 344.477 417.898 344.477H391.215C390.266 344.477 389.441 344.242 388.742 343.766C388.043 343.293 387.691 342.656 387.691 341.855Z" fill="url(#paint23_linear_0_1095)"/>
<path d="M426.895 341.855V292.234C426.895 291.535 427.141 290.938 427.645 290.438C428.141 289.938 428.77 289.688 429.516 289.688H443.758C455.25 289.688 460.996 294.785 460.996 304.977C460.996 309.207 460.047 312.527 458.148 314.941C456.25 317.355 453.676 318.961 450.43 319.758L460.922 339.516C461.121 339.867 461.223 340.242 461.223 340.645C461.223 341.645 460.711 342.57 459.688 343.426C458.66 344.277 457.574 344.703 456.426 344.703C455.125 344.703 454.078 343.926 453.277 342.375L442.332 320.867H434.762V341.848C434.762 342.648 434.375 343.289 433.602 343.766C432.828 344.242 431.891 344.48 430.789 344.48C429.742 344.48 428.828 344.242 428.055 343.766C427.281 343.293 426.895 342.656 426.895 341.855ZM434.766 314.57H443.758C449.953 314.57 453.055 311.602 453.055 305.652C453.055 299.707 449.953 296.73 443.758 296.73H434.766V314.57Z" fill="url(#paint24_linear_0_1095)"/>
<defs>
<linearGradient id="paint0_linear_0_1095" x1="123.366" y1="123.458" x2="469.508" y2="469.599" gradientUnits="userSpaceOnUse">
<stop stop-color="#FFD459"/>
<stop offset="0.2296" stop-color="#FFD355"/>
<stop offset="0.4362" stop-color="#FFCF4A"/>
<stop offset="0.634" stop-color="#FFC838"/>
<stop offset="0.825" stop-color="#FFBF1F"/>
<stop offset="1" stop-color="#FFB400"/>
</linearGradient>
<linearGradient id="paint1_linear_0_1095" x1="255.993" y1="359.724" x2="255.993" y2="411.115" gradientUnits="userSpaceOnUse">
<stop stop-color="#E58200" stop-opacity="0"/>
<stop offset="0.0396" stop-color="#E27F04" stop-opacity="0.039216"/>
<stop offset="0.4671" stop-color="#C15D2F" stop-opacity="0.466667"/>
<stop offset="0.8016" stop-color="#AD4949" stop-opacity="0.8"/>
<stop offset="1" stop-color="#A64153"/>
</linearGradient>
<linearGradient id="paint2_linear_0_1095" x1="47.6162" y1="280.965" x2="34.0836" y2="250.034" gradientUnits="userSpaceOnUse">
<stop stop-color="#E58200" stop-opacity="0"/>
<stop offset="0.0396" stop-color="#E27F04" stop-opacity="0.039216"/>
<stop offset="0.4671" stop-color="#C15D2F" stop-opacity="0.466667"/>
<stop offset="0.8016" stop-color="#AD4949" stop-opacity="0.8"/>
<stop offset="1" stop-color="#A64153"/>
</linearGradient>
<linearGradient id="paint3_linear_0_1095" x1="184.911" y1="153.509" x2="106.438" y2="98.0551" gradientUnits="userSpaceOnUse">
<stop stop-color="#E58200" stop-opacity="0"/>
<stop offset="0.0396" stop-color="#E27F04" stop-opacity="0.039216"/>
<stop offset="0.4671" stop-color="#C15D2F" stop-opacity="0.466667"/>
<stop offset="0.8016" stop-color="#AD4949" stop-opacity="0.8"/>
<stop offset="1" stop-color="#A64153"/>
</linearGradient>
<linearGradient id="paint4_linear_0_1095" x1="150.751" y1="148.515" x2="431.459" y2="429.263" gradientUnits="userSpaceOnUse">
<stop stop-color="#FFFCF8"/>
<stop offset="0.1875" stop-color="#FAF8F6"/>
<stop offset="0.4041" stop-color="#ECEEF2"/>
<stop offset="0.6353" stop-color="#D5DCEA"/>
<stop offset="0.875" stop-color="#B5C4DF"/>
<stop offset="1" stop-color="#A1B5D8"/>
</linearGradient>
<linearGradient id="paint5_linear_0_1095" x1="201.205" y1="328.456" x2="113.316" y2="127.565" gradientUnits="userSpaceOnUse">
<stop stop-color="#A1B5D8" stop-opacity="0"/>
<stop offset="0.0343" stop-color="#9FB3D5" stop-opacity="0.035294"/>
<stop offset="0.4515" stop-color="#8898AF" stop-opacity="0.45098"/>
<stop offset="0.788" stop-color="#798898" stop-opacity="0.788235"/>
<stop offset="1" stop-color="#748290"/>
</linearGradient>
<linearGradient id="paint6_linear_0_1095" x1="256" y1="215.286" x2="256" y2="283.295" gradientUnits="userSpaceOnUse">
<stop stop-color="#FF6E3A"/>
<stop offset="0.1596" stop-color="#FF6440"/>
<stop offset="0.4266" stop-color="#FF4B52"/>
<stop offset="0.7662" stop-color="#FF216E"/>
<stop offset="1" stop-color="#FF0084"/>
</linearGradient>
<linearGradient id="paint7_linear_0_1095" x1="241.178" y1="269.693" x2="167.587" y2="196.102" gradientUnits="userSpaceOnUse">
<stop stop-color="#E58200" stop-opacity="0"/>
<stop offset="0.4384" stop-color="#C4602C" stop-opacity="0.439216"/>
<stop offset="0.7953" stop-color="#AE4948" stop-opacity="0.796078"/>
<stop offset="1" stop-color="#A64153"/>
</linearGradient>
<linearGradient id="paint8_linear_0_1095" x1="127.901" y1="238.789" x2="127.901" y2="473.118" gradientUnits="userSpaceOnUse">
<stop stop-color="#FF6E3A"/>
<stop offset="0.1596" stop-color="#FF6440"/>
<stop offset="0.4266" stop-color="#FF4B52"/>
<stop offset="0.7662" stop-color="#FF216E"/>
<stop offset="1" stop-color="#FF0084"/>
</linearGradient>
<linearGradient id="paint9_linear_0_1095" x1="168.086" y1="292.129" x2="99.1808" y2="223.223" gradientUnits="userSpaceOnUse">
<stop stop-color="#E58200" stop-opacity="0"/>
<stop offset="0.4384" stop-color="#C4602C" stop-opacity="0.439216"/>
<stop offset="0.7953" stop-color="#AE4948" stop-opacity="0.796078"/>
<stop offset="1" stop-color="#A64153"/>
</linearGradient>
<linearGradient id="paint10_linear_0_1095" x1="95.7384" y1="288.649" x2="67.7596" y2="182.875" gradientUnits="userSpaceOnUse">
<stop stop-color="#FF0084"/>
<stop offset="0.2338" stop-color="#FF216E"/>
<stop offset="0.5734" stop-color="#FF4B52"/>
<stop offset="0.8404" stop-color="#FF6440"/>
<stop offset="1" stop-color="#FF6E3A"/>
</linearGradient>
<linearGradient id="paint11_linear_0_1095" x1="168.519" y1="293.67" x2="178.072" y2="164.012" gradientUnits="userSpaceOnUse">
<stop stop-color="#FF0084"/>
<stop offset="0.2338" stop-color="#FF216E"/>
<stop offset="0.5734" stop-color="#FF4B52"/>
<stop offset="0.8404" stop-color="#FF6440"/>
<stop offset="1" stop-color="#FF6E3A"/>
</linearGradient>
<linearGradient id="paint12_linear_0_1095" x1="89.8875" y1="269.866" x2="87.9151" y2="229.738" gradientUnits="userSpaceOnUse">
<stop stop-color="#E58200" stop-opacity="0"/>
<stop offset="0.4384" stop-color="#C4602C" stop-opacity="0.439216"/>
<stop offset="0.7953" stop-color="#AE4948" stop-opacity="0.796078"/>
<stop offset="1" stop-color="#A64153"/>
</linearGradient>
<linearGradient id="paint13_linear_0_1095" x1="80.4836" y1="240.085" x2="147.625" y2="185.852" gradientUnits="userSpaceOnUse">
<stop stop-color="#E58200" stop-opacity="0"/>
<stop offset="0.4384" stop-color="#C4602C" stop-opacity="0.439216"/>
<stop offset="0.7953" stop-color="#AE4948" stop-opacity="0.796078"/>
<stop offset="1" stop-color="#A64153"/>
</linearGradient>
<linearGradient id="paint14_linear_0_1095" x1="166.032" y1="269.128" x2="167.628" y2="228.976" gradientUnits="userSpaceOnUse">
<stop stop-color="#E58200" stop-opacity="0"/>
<stop offset="0.4384" stop-color="#C4602C" stop-opacity="0.439216"/>
<stop offset="0.7953" stop-color="#AE4948" stop-opacity="0.796078"/>
<stop offset="1" stop-color="#A64153"/>
</linearGradient>
<linearGradient id="paint15_linear_0_1095" x1="175.158" y1="239.258" x2="107.509" y2="185.658" gradientUnits="userSpaceOnUse">
<stop stop-color="#E58200" stop-opacity="0"/>
<stop offset="0.4384" stop-color="#C4602C" stop-opacity="0.439216"/>
<stop offset="0.7953" stop-color="#AE4948" stop-opacity="0.796078"/>
<stop offset="1" stop-color="#A64153"/>
</linearGradient>
<linearGradient id="paint16_linear_0_1095" x1="181.78" y1="266.733" x2="130.095" y2="215.048" gradientUnits="userSpaceOnUse">
<stop stop-color="#E58200" stop-opacity="0"/>
<stop offset="0.4384" stop-color="#C4602C" stop-opacity="0.439216"/>
<stop offset="0.7953" stop-color="#AE4948" stop-opacity="0.796078"/>
<stop offset="1" stop-color="#A64153"/>
</linearGradient>
<linearGradient id="paint17_linear_0_1095" x1="108.718" y1="211.805" x2="156.238" y2="259.324" gradientUnits="userSpaceOnUse">
<stop stop-color="#FF6E3A"/>
<stop offset="0.1596" stop-color="#FF6440"/>
<stop offset="0.4266" stop-color="#FF4B52"/>
<stop offset="0.7662" stop-color="#FF216E"/>
<stop offset="1" stop-color="#FF0084"/>
</linearGradient>
<linearGradient id="paint18_linear_0_1095" x1="190.58" y1="306.073" x2="190.58" y2="357.128" gradientUnits="userSpaceOnUse">
<stop stop-color="#45425A"/>
<stop offset="1" stop-color="#2D3251"/>
</linearGradient>
<linearGradient id="paint19_linear_0_1095" x1="232.876" y1="306.073" x2="232.876" y2="357.128" gradientUnits="userSpaceOnUse">
<stop stop-color="#45425A"/>
<stop offset="1" stop-color="#2D3251"/>
</linearGradient>
<linearGradient id="paint20_linear_0_1095" x1="275.9" y1="306.073" x2="275.9" y2="357.128" gradientUnits="userSpaceOnUse">
<stop stop-color="#45425A"/>
<stop offset="1" stop-color="#2D3251"/>
</linearGradient>
<linearGradient id="paint21_linear_0_1095" x1="318.998" y1="306.073" x2="318.998" y2="357.128" gradientUnits="userSpaceOnUse">
<stop stop-color="#45425A"/>
<stop offset="1" stop-color="#2D3251"/>
</linearGradient>
<linearGradient id="paint22_linear_0_1095" x1="360.522" y1="306.073" x2="360.522" y2="357.128" gradientUnits="userSpaceOnUse">
<stop stop-color="#45425A"/>
<stop offset="1" stop-color="#2D3251"/>
</linearGradient>
<linearGradient id="paint23_linear_0_1095" x1="404.108" y1="306.073" x2="404.108" y2="357.128" gradientUnits="userSpaceOnUse">
<stop stop-color="#45425A"/>
<stop offset="1" stop-color="#2D3251"/>
</linearGradient>
<linearGradient id="paint24_linear_0_1095" x1="444.059" y1="306.073" x2="444.059" y2="357.128" gradientUnits="userSpaceOnUse">
<stop stop-color="#45425A"/>
<stop offset="1" stop-color="#2D3251"/>
</linearGradient>
</defs>
</svg>
