<svg width="512" height="512" viewBox="0 0 512 512" fill="none" xmlns="http://www.w3.org/2000/svg">
<g clip-path="url(#clip0_0_1136)">
<path d="M112.738 119.449C92.1836 119.449 75.5234 136.109 75.5234 156.664C75.5234 177.219 92.1836 193.879 112.738 193.879C133.293 193.879 149.953 177.219 149.953 156.664C149.953 136.109 133.293 119.449 112.738 119.449ZM112.738 175.512C102.328 175.512 93.8906 167.074 93.8906 156.664C93.8906 146.254 102.328 137.816 112.738 137.816C123.148 137.816 131.586 146.254 131.586 156.664C131.586 167.074 123.148 175.512 112.738 175.512Z" fill="url(#paint0_linear_0_1136)"/>
<path d="M112.738 119.449C112.598 119.449 112.457 119.457 112.316 119.461V137.84C112.457 137.836 112.598 137.816 112.738 137.816C123.148 137.816 131.586 146.254 131.586 156.664C131.586 167.074 123.148 175.512 112.738 175.512C112.598 175.512 112.457 175.492 112.316 175.492V193.871C112.457 193.871 112.598 193.883 112.738 193.883C133.293 193.883 149.953 177.219 149.953 156.664C149.953 136.109 133.293 119.449 112.738 119.449Z" fill="url(#paint1_linear_0_1136)"/>
<path d="M112.738 148.23C105.809 148.23 100.191 142.613 100.191 135.684V52.2578C100.191 45.3281 105.809 39.7109 112.738 39.7109C119.668 39.7109 125.285 45.3281 125.285 52.2578V135.684C125.285 142.613 119.668 148.23 112.738 148.23Z" fill="url(#paint2_linear_0_1136)"/>
<path d="M112.738 39.7109C105.809 39.7109 100.191 45.3281 100.191 52.2578V70.9141L125.285 96.0078V52.2578C125.285 45.3281 119.668 39.7109 112.738 39.7109Z" fill="url(#paint3_linear_0_1136)"/>
<path d="M399.262 119.449C378.707 119.449 362.047 136.109 362.047 156.664C362.047 177.219 378.707 193.879 399.262 193.879C419.816 193.879 436.477 177.219 436.477 156.664C436.477 136.109 419.816 119.449 399.262 119.449ZM399.262 175.512C388.852 175.512 380.414 167.074 380.414 156.664C380.414 146.254 388.852 137.816 399.262 137.816C409.672 137.816 418.109 146.254 418.109 156.664C418.109 167.074 409.672 175.512 399.262 175.512Z" fill="url(#paint4_linear_0_1136)"/>
<path d="M399.262 119.449C399.121 119.449 398.98 119.457 398.84 119.461V137.84C398.98 137.836 399.117 137.816 399.262 137.816C409.672 137.816 418.109 146.254 418.109 156.664C418.109 167.074 409.672 175.512 399.262 175.512C399.117 175.512 398.98 175.492 398.84 175.492V193.871C398.98 193.871 399.121 193.883 399.262 193.883C419.816 193.883 436.477 177.219 436.477 156.664C436.477 136.109 419.816 119.449 399.262 119.449Z" fill="url(#paint5_linear_0_1136)"/>
<path d="M399.262 148.23C392.332 148.23 386.715 142.613 386.715 135.684V52.2578C386.715 45.3281 392.332 39.7109 399.262 39.7109C406.191 39.7109 411.809 45.3281 411.809 52.2578V135.684C411.809 142.613 406.191 148.23 399.262 148.23Z" fill="url(#paint6_linear_0_1136)"/>
<path d="M399.262 39.7109C392.332 39.7109 386.715 45.3281 386.715 52.2578V70.9141L411.809 96.0078V52.2578C411.809 45.3281 406.191 39.7109 399.262 39.7109Z" fill="url(#paint7_linear_0_1136)"/>
<path d="M485.27 485.547H26.7305C11.9688 485.547 0 473.582 0 458.816V227.836C0 213.07 11.9688 201.105 26.7305 201.105H60.457C69.3242 201.105 77.5781 196.68 82.582 189.355C94.3477 172.141 114.125 160.84 136.551 160.84C139.652 160.84 142.703 161.059 145.691 161.477C153.797 162.617 162.062 160.324 168.004 154.695C190.941 132.965 221.91 119.633 256 119.633C290.09 119.633 321.059 132.965 343.996 154.695C349.938 160.324 358.203 162.617 366.309 161.477C369.297 161.059 372.348 160.84 375.449 160.84C397.875 160.84 417.656 172.141 429.418 189.355C434.422 196.68 442.676 201.105 451.543 201.105H485.27C500.031 201.105 512 213.07 512 227.836V458.816C512 473.582 500.031 485.547 485.27 485.547Z" fill="url(#paint8_linear_0_1136)"/>
<path d="M256 149.355C231.996 149.355 209.184 158.609 191.762 175.418C179.43 187.312 163.09 193.867 145.746 193.867C142.523 193.867 139.27 193.633 136.07 193.176C134.754 192.988 133.41 192.891 132.066 192.891C122.668 192.891 113.875 197.629 108.555 205.559C96 224.262 75.2734 235.43 53.1133 235.43H42.0039C35.2266 235.43 29.7305 241.027 29.7305 247.926V443.336C29.7305 450.234 35.2227 455.832 42.0039 455.832H469.996C476.773 455.832 482.27 450.234 482.27 443.336V247.926C482.27 241.023 476.777 235.43 469.996 235.43H458.887C436.727 235.43 416 224.262 403.445 205.559C398.125 197.625 389.332 192.891 379.934 192.891C378.59 192.891 377.246 192.988 375.945 193.172C372.73 193.633 369.477 193.867 366.254 193.867C348.91 193.867 332.57 187.312 320.238 175.414C302.816 158.609 280.004 149.355 256 149.355Z" fill="url(#paint9_linear_0_1136)"/>
<path d="M256 157.555C232.867 157.555 210.879 166.316 194.086 182.223C182.199 193.484 166.453 199.688 149.738 199.688C146.633 199.688 143.496 199.465 140.41 199.031C139.141 198.855 137.848 198.766 136.551 198.766C127.492 198.766 119.02 203.246 113.891 210.754C101.793 228.457 81.8164 239.027 60.457 239.027H49.75C43.2188 239.027 37.9219 244.32 37.9219 250.852V435.801C37.9219 442.332 43.2188 447.629 49.75 447.629H462.25C468.781 447.629 474.078 442.332 474.078 435.801V250.852C474.078 244.32 468.781 239.027 462.25 239.027H451.543C430.184 239.027 410.207 228.457 398.109 210.754C392.98 203.246 384.508 198.766 375.449 198.766C374.152 198.766 372.859 198.855 371.605 199.031C368.504 199.465 365.367 199.688 362.266 199.688C345.551 199.688 329.801 193.484 317.914 182.223C301.121 166.316 279.133 157.555 256 157.555Z" fill="url(#paint10_linear_0_1136)"/>
<path d="M259.645 447.633H133.43L63.168 377.355C62.7734 377.047 62.375 376.754 62.0039 376.434C56.6406 371.676 53.9492 364.246 53.9492 354.125V315.715C53.9492 305.598 56.6602 298.168 62.0742 293.41C67.4844 288.66 74.543 286.281 83.2539 286.281C92.2305 286.281 99.4688 288.508 104.969 292.945C106.438 294.141 107.699 295.426 108.773 296.793C108.816 296.82 108.855 296.852 108.895 296.883L126.285 314.27L259.645 447.633Z" fill="url(#paint11_linear_0_1136)"/>
<path d="M297.371 447.633H195.082L128.129 381.512C126.895 380.68 126.285 379.555 126.285 378.148V290.77C126.285 289.281 126.957 288.156 128.32 287.406C129.688 286.664 131.332 286.281 133.27 286.281C135.207 286.281 136.855 286.664 138.219 287.406L186.73 336.246L297.371 447.633Z" fill="url(#paint12_linear_0_1136)"/>
<path d="M391.859 447.633H266.18L194.781 376.434C189.41 371.676 186.73 364.246 186.73 354.125V315.715C186.73 305.598 189.41 298.168 194.781 293.41C200.141 288.66 207.32 286.281 216.293 286.281C225.27 286.281 232.457 288.66 237.871 293.41C238.914 294.332 239.855 295.355 240.711 296.48L391.859 447.633Z" fill="url(#paint13_linear_0_1136)"/>
<path d="M467.023 446.629C466.973 446.648 466.914 446.676 466.855 446.699C466.844 446.699 466.844 446.699 466.844 446.699C465.438 447.301 463.883 447.633 462.254 447.633H333.855L262.926 376.695C259.293 373.953 257.465 371.133 257.465 368.25C257.465 366.574 258.09 364.906 259.312 363.23C260.547 361.566 261.953 360.723 263.539 360.723C264.504 360.723 265.68 361.285 267.043 362.418C268.398 363.543 269.742 364.758 271.059 366.074C272.383 367.379 274.383 368.594 277.074 369.727C279.754 370.852 282.766 371.414 286.109 371.414C291.129 371.414 295.152 370.219 298.184 367.828C299.691 366.645 300.824 365.188 301.59 363.453L269.09 330.805C267.324 329.359 265.719 327.684 264.262 325.766C262.176 323.004 260.82 319.742 260.215 315.988C259.965 314.461 259.844 312.855 259.844 311.168C259.844 306.52 260.75 302.484 262.555 299.062C264.352 295.637 266.793 292.996 269.875 291.16C272.957 289.313 276.188 287.977 279.57 287.145C282.965 286.313 286.551 285.891 290.336 285.891C292.715 285.891 295.191 286.039 297.793 286.352C300.383 286.652 302.953 287.152 305.512 287.848C308.062 288.551 310.172 289.543 311.848 290.848C312.941 291.711 313.676 292.645 314.047 293.648L467.023 446.629Z" fill="url(#paint14_linear_0_1136)"/>
<path d="M474.082 376.605V435.805C474.082 440.633 471.18 444.789 467.023 446.629C466.973 446.648 466.914 446.676 466.855 446.699C466.844 446.699 466.844 446.699 466.844 446.699C465.438 447.301 463.883 447.633 462.254 447.633H398.496L331.777 381.512C330.543 380.68 329.93 379.555 329.93 378.148V290.91C329.93 289.492 330.543 288.379 331.777 287.535C333.012 286.703 334.457 286.281 336.133 286.281H383.117C384.613 286.281 385.758 286.902 386.551 288.137L398.957 300.676L474.082 376.605Z" fill="url(#paint15_linear_0_1136)"/>
<path d="M474.082 317.633V435.805C474.082 440.633 471.18 444.789 467.023 446.629C466.973 446.648 466.914 446.676 466.855 446.699C466.844 446.699 466.844 446.699 466.844 446.699L400.734 381.441C399.652 380.641 399.059 379.688 398.977 378.582C398.957 378.48 398.957 378.379 398.957 378.281V290.77C398.957 289.543 399.551 288.488 400.734 287.605C401.922 286.723 403.395 286.281 405.152 286.281H428.516C437.488 286.281 444.688 288.66 450.098 293.41C451.141 294.332 452.086 295.355 452.93 296.48L474.082 317.633Z" fill="url(#paint16_linear_0_1136)"/>
<path d="M53.9531 354.125V315.719C53.9531 305.602 56.6602 298.164 62.0742 293.414C67.4844 288.66 74.5469 286.285 83.2578 286.285C92.2305 286.285 99.4688 288.508 104.969 292.953C110.465 297.395 113.215 303.137 113.215 310.176C113.215 312.992 112.688 314.906 111.633 315.918C110.574 316.93 108.773 317.434 106.223 317.434C101.645 317.434 99.3125 315.895 99.2266 312.816C98.6992 303.402 93.5508 298.691 83.7852 298.691C73.2266 298.691 67.9453 304.367 67.9453 315.719V354.125C67.9453 365.477 73.3125 371.152 84.0469 371.152C87.2148 371.152 89.8555 370.691 91.9688 369.766C94.0781 368.844 95.5977 367.504 96.5195 365.738C97.4453 363.98 98.082 362.441 98.4336 361.121C98.7852 359.801 99.0508 358.172 99.2266 356.238C99.4922 353.16 101.777 351.617 106.09 351.617C108.641 351.617 110.465 352.125 111.566 353.137C112.664 354.148 113.219 356.062 113.219 358.879C113.219 366.184 110.445 372.121 104.902 376.695C99.3594 381.27 92.0977 383.559 83.125 383.559C74.4141 383.559 67.375 381.184 62.0078 376.434C56.6367 371.68 53.9531 364.246 53.9531 354.125Z" fill="url(#paint17_linear_0_1136)"/>
<path d="M126.277 378.145V290.773C126.277 289.277 126.957 288.156 128.324 287.41C129.687 286.664 131.336 286.285 133.273 286.285C135.207 286.285 136.859 286.66 138.223 287.41C139.586 288.156 140.27 289.277 140.27 290.773V370.359H174.582C175.902 370.359 176.938 370.977 177.688 372.207C178.434 373.441 178.809 374.891 178.809 376.562C178.809 378.234 178.434 379.688 177.688 380.918C176.938 382.148 175.902 382.766 174.582 382.766H132.48C130.809 382.766 129.355 382.348 128.125 381.512C126.895 380.676 126.277 379.555 126.277 378.145Z" fill="url(#paint18_linear_0_1136)"/>
<path d="M186.727 354.125V315.719C186.727 305.602 189.41 298.164 194.777 293.414C200.145 288.66 207.316 286.285 216.293 286.285C225.266 286.285 232.461 288.664 237.871 293.414C243.281 298.164 245.988 305.602 245.988 315.719V354.125C245.988 364.242 243.281 371.68 237.871 376.43C232.461 381.18 225.266 383.559 216.293 383.559C207.316 383.559 200.145 381.18 194.777 376.43C189.41 371.68 186.727 364.246 186.727 354.125ZM200.719 354.125C200.719 365.477 205.906 371.148 216.293 371.148C221.305 371.148 225.176 369.742 227.906 366.926C230.633 364.113 232 359.844 232 354.125V315.719C232 310 230.633 305.734 227.906 302.914C225.176 300.102 221.309 298.691 216.293 298.691C205.91 298.691 200.719 304.367 200.719 315.719V354.125Z" fill="url(#paint19_linear_0_1136)"/>
<path d="M257.469 368.246C257.469 366.578 258.086 364.902 259.316 363.23C260.547 361.562 261.957 360.723 263.543 360.723C264.508 360.723 265.672 361.289 267.039 362.418C268.402 363.543 269.746 364.762 271.066 366.07C272.383 367.375 274.387 368.594 277.07 369.723C279.754 370.852 282.766 371.414 286.113 371.414C291.125 371.414 295.152 370.223 298.188 367.832C301.223 365.445 302.742 361.949 302.742 357.348C302.742 353.105 301.266 349.566 298.32 346.734C295.371 343.906 291.809 341.648 287.629 339.965C283.449 338.285 279.246 336.473 275.023 334.523C270.801 332.578 267.215 329.66 264.266 325.766C261.32 321.875 259.844 317.012 259.844 311.172C259.844 306.52 260.746 302.48 262.551 299.059C264.355 295.633 266.797 293 269.875 291.156C272.953 289.312 276.188 287.973 279.574 287.141C282.961 286.309 286.547 285.891 290.332 285.891C292.707 285.891 295.191 286.043 297.789 286.348C300.383 286.652 302.957 287.152 305.512 287.848C308.062 288.547 310.172 289.547 311.848 290.852C313.516 292.156 314.355 293.637 314.355 295.289C314.355 296.945 313.824 298.609 312.77 300.289C311.715 301.969 310.305 302.809 308.547 302.809C307.664 302.809 306.477 302.391 304.984 301.551C303.484 300.707 301.484 299.871 298.977 299.027C296.469 298.188 293.586 297.77 290.332 297.77C285.316 297.77 281.312 298.762 278.32 300.754C275.332 302.746 273.836 305.777 273.836 309.844C273.836 312.5 274.629 314.777 276.211 316.68C277.797 318.578 279.84 320.152 282.348 321.391C284.855 322.629 287.648 323.844 290.73 325.039C293.809 326.234 296.867 327.625 299.902 329.219C302.938 330.809 305.711 332.648 308.219 334.727C310.727 336.805 312.773 339.66 314.355 343.285C315.938 346.91 316.73 351.113 316.73 355.891C316.73 364.984 313.98 371.914 308.484 376.676C302.984 381.441 295.699 383.82 286.641 383.82C278.543 383.82 271.66 382.129 265.984 378.742C260.309 375.355 257.469 371.855 257.469 368.246Z" fill="url(#paint20_linear_0_1136)"/>
<path d="M329.93 378.145V290.906C329.93 289.5 330.543 288.379 331.773 287.539C333.008 286.703 334.457 286.285 336.129 286.285H383.117C384.613 286.285 385.754 286.902 386.547 288.133C387.34 289.367 387.734 290.773 387.734 292.359C387.734 294.117 387.316 295.613 386.48 296.844C385.645 298.078 384.523 298.691 383.113 298.691H343.918V328.918H364.242C365.648 328.918 366.77 329.469 367.609 330.566C368.441 331.668 368.863 333.008 368.863 334.594C368.863 336 368.465 337.254 367.676 338.352C366.883 339.453 365.738 340.004 364.242 340.004H343.918V370.359H383.117C384.523 370.359 385.645 370.977 386.48 372.207C387.316 373.441 387.734 374.934 387.734 376.695C387.734 378.277 387.34 379.688 386.547 380.918C385.758 382.152 384.613 382.766 383.117 382.766H336.133C334.457 382.766 333.008 382.348 331.777 381.512C330.543 380.676 329.93 379.555 329.93 378.145Z" fill="url(#paint21_linear_0_1136)"/>
<path d="M398.953 378.277V290.773C398.953 289.543 399.547 288.484 400.734 287.605C401.922 286.727 403.398 286.285 405.156 286.285H428.52C437.492 286.285 444.688 288.66 450.098 293.41C455.508 298.164 458.215 305.598 458.215 315.719V353.332C458.215 363.453 455.508 370.887 450.098 375.637C444.688 380.387 437.492 382.766 428.52 382.766H405.156C403.398 382.766 401.922 382.324 400.734 381.445C399.547 380.566 398.953 379.512 398.953 378.277ZM412.945 370.359H428.516C438.988 370.359 444.223 364.684 444.223 353.332V315.719C444.223 304.367 438.988 298.691 428.516 298.691H412.945V370.359Z" fill="url(#paint22_linear_0_1136)"/>
<path d="M485.938 70.7148H26.0625C13.9922 70.7148 4.20703 60.9297 4.20703 48.8555C4.20703 36.7852 13.9922 27 26.0625 27H485.934C498.008 27 507.793 36.7852 507.793 48.8555C507.793 60.9297 498.008 70.7148 485.938 70.7148Z" fill="url(#paint23_linear_0_1136)"/>
</g>
<defs>
<linearGradient id="paint0_linear_0_1136" x1="97.8427" y1="121.819" x2="128.267" y2="192.99" gradientUnits="userSpaceOnUse">
<stop stop-color="#45425A"/>
<stop offset="1" stop-color="#2D3251"/>
</linearGradient>
<linearGradient id="paint1_linear_0_1136" x1="134.244" y1="170.668" x2="98.4148" y2="134.839" gradientUnits="userSpaceOnUse">
<stop stop-color="#3B395F" stop-opacity="0"/>
<stop offset="0.3793" stop-color="#252746" stop-opacity="0.380392"/>
<stop offset="0.7281" stop-color="#181C36" stop-opacity="0.729412"/>
<stop offset="1" stop-color="#131830"/>
</linearGradient>
<linearGradient id="paint2_linear_0_1136" x1="100.206" y1="93.9597" x2="125.301" y2="93.9597" gradientUnits="userSpaceOnUse">
<stop stop-color="#FFFCF8"/>
<stop offset="0.1875" stop-color="#FAF8F6"/>
<stop offset="0.4041" stop-color="#ECEEF2"/>
<stop offset="0.6353" stop-color="#D5DCEA"/>
<stop offset="0.875" stop-color="#B5C4DF"/>
<stop offset="1" stop-color="#A1B5D8"/>
</linearGradient>
<linearGradient id="paint3_linear_0_1136" x1="199.978" y1="146.227" x2="92.218" y2="38.4669" gradientUnits="userSpaceOnUse">
<stop stop-color="#A1B5D8" stop-opacity="0"/>
<stop offset="0.0343" stop-color="#9FB3D5" stop-opacity="0.035294"/>
<stop offset="0.4515" stop-color="#8898AF" stop-opacity="0.45098"/>
<stop offset="0.788" stop-color="#798898" stop-opacity="0.788235"/>
<stop offset="1" stop-color="#748290"/>
</linearGradient>
<linearGradient id="paint4_linear_0_1136" x1="384.366" y1="121.819" x2="414.79" y2="192.99" gradientUnits="userSpaceOnUse">
<stop stop-color="#45425A"/>
<stop offset="1" stop-color="#2D3251"/>
</linearGradient>
<linearGradient id="paint5_linear_0_1136" x1="420.767" y1="170.668" x2="384.938" y2="134.839" gradientUnits="userSpaceOnUse">
<stop stop-color="#3B395F" stop-opacity="0"/>
<stop offset="0.3793" stop-color="#252746" stop-opacity="0.380392"/>
<stop offset="0.7281" stop-color="#181C36" stop-opacity="0.729412"/>
<stop offset="1" stop-color="#131830"/>
</linearGradient>
<linearGradient id="paint6_linear_0_1136" x1="386.731" y1="93.9597" x2="411.826" y2="93.9597" gradientUnits="userSpaceOnUse">
<stop stop-color="#FFFCF8"/>
<stop offset="0.1875" stop-color="#FAF8F6"/>
<stop offset="0.4041" stop-color="#ECEEF2"/>
<stop offset="0.6353" stop-color="#D5DCEA"/>
<stop offset="0.875" stop-color="#B5C4DF"/>
<stop offset="1" stop-color="#A1B5D8"/>
</linearGradient>
<linearGradient id="paint7_linear_0_1136" x1="486.501" y1="146.227" x2="378.741" y2="38.4669" gradientUnits="userSpaceOnUse">
<stop stop-color="#A1B5D8" stop-opacity="0"/>
<stop offset="0.0343" stop-color="#9FB3D5" stop-opacity="0.035294"/>
<stop offset="0.4515" stop-color="#8898AF" stop-opacity="0.45098"/>
<stop offset="0.788" stop-color="#798898" stop-opacity="0.788235"/>
<stop offset="1" stop-color="#748290"/>
</linearGradient>
<linearGradient id="paint8_linear_0_1136" x1="235.961" y1="363.365" x2="590.979" y2="8.34667" gradientUnits="userSpaceOnUse">
<stop stop-color="#45425A"/>
<stop offset="1" stop-color="#2D3251"/>
</linearGradient>
<linearGradient id="paint9_linear_0_1136" x1="548.001" y1="302.591" x2="-320.155" y2="302.591" gradientUnits="userSpaceOnUse">
<stop stop-color="#45425A"/>
<stop offset="1" stop-color="#2D3251"/>
</linearGradient>
<linearGradient id="paint10_linear_0_1136" x1="195.156" y1="282.483" x2="609.917" y2="697.243" gradientUnits="userSpaceOnUse">
<stop stop-color="#8BE1E2"/>
<stop offset="0.1873" stop-color="#87E1E1"/>
<stop offset="0.3558" stop-color="#7CE2DD"/>
<stop offset="0.5172" stop-color="#6AE2D7"/>
<stop offset="0.6741" stop-color="#50E4CE"/>
<stop offset="0.8278" stop-color="#2FE5C2"/>
<stop offset="0.9772" stop-color="#07E7B4"/>
<stop offset="1" stop-color="#00E7B2"/>
</linearGradient>
<linearGradient id="paint11_linear_0_1136" x1="142.366" y1="393.5" x2="57.7444" y2="308.878" gradientUnits="userSpaceOnUse">
<stop offset="0.0029" stop-color="#00E7B2" stop-opacity="0"/>
<stop offset="0.4308" stop-color="#1BC4B7" stop-opacity="0.427451"/>
<stop offset="1" stop-color="#3B9ABE"/>
</linearGradient>
<linearGradient id="paint12_linear_0_1136" x1="192.356" y1="393.706" x2="87.2433" y2="288.594" gradientUnits="userSpaceOnUse">
<stop offset="0.0029" stop-color="#00E7B2" stop-opacity="0"/>
<stop offset="0.4308" stop-color="#1BC4B7" stop-opacity="0.427451"/>
<stop offset="1" stop-color="#3B9ABE"/>
</linearGradient>
<linearGradient id="paint13_linear_0_1136" x1="263.349" y1="381.944" x2="160.841" y2="279.436" gradientUnits="userSpaceOnUse">
<stop offset="0.0029" stop-color="#00E7B2" stop-opacity="0"/>
<stop offset="0.4308" stop-color="#1BC4B7" stop-opacity="0.427451"/>
<stop offset="1" stop-color="#3B9ABE"/>
</linearGradient>
<linearGradient id="paint14_linear_0_1136" x1="336.042" y1="382.538" x2="245.954" y2="292.45" gradientUnits="userSpaceOnUse">
<stop offset="0.0029" stop-color="#00E7B2" stop-opacity="0"/>
<stop offset="0.4308" stop-color="#1BC4B7" stop-opacity="0.427451"/>
<stop offset="1" stop-color="#3B9ABE"/>
</linearGradient>
<linearGradient id="paint15_linear_0_1136" x1="416.64" y1="392.293" x2="315.715" y2="291.368" gradientUnits="userSpaceOnUse">
<stop offset="0.0029" stop-color="#00E7B2" stop-opacity="0"/>
<stop offset="0.4308" stop-color="#1BC4B7" stop-opacity="0.427451"/>
<stop offset="1" stop-color="#3B9ABE"/>
</linearGradient>
<linearGradient id="paint16_linear_0_1136" x1="472.547" y1="384.575" x2="393.078" y2="305.106" gradientUnits="userSpaceOnUse">
<stop offset="0.0029" stop-color="#00E7B2" stop-opacity="0"/>
<stop offset="0.4308" stop-color="#1BC4B7" stop-opacity="0.427451"/>
<stop offset="1" stop-color="#3B9ABE"/>
</linearGradient>
<linearGradient id="paint17_linear_0_1136" x1="83.5852" y1="305.968" x2="83.5852" y2="471.051" gradientUnits="userSpaceOnUse">
<stop stop-color="#FF6E3A"/>
<stop offset="0.1596" stop-color="#FF6440"/>
<stop offset="0.4266" stop-color="#FF4B52"/>
<stop offset="0.7662" stop-color="#FF216E"/>
<stop offset="1" stop-color="#FF0084"/>
</linearGradient>
<linearGradient id="paint18_linear_0_1136" x1="152.544" y1="305.968" x2="152.544" y2="471.051" gradientUnits="userSpaceOnUse">
<stop stop-color="#FF6E3A"/>
<stop offset="0.1596" stop-color="#FF6440"/>
<stop offset="0.4266" stop-color="#FF4B52"/>
<stop offset="0.7662" stop-color="#FF216E"/>
<stop offset="1" stop-color="#FF0084"/>
</linearGradient>
<linearGradient id="paint19_linear_0_1136" x1="216.358" y1="305.968" x2="216.358" y2="471.051" gradientUnits="userSpaceOnUse">
<stop stop-color="#FF6E3A"/>
<stop offset="0.1596" stop-color="#FF6440"/>
<stop offset="0.4266" stop-color="#FF4B52"/>
<stop offset="0.7662" stop-color="#FF216E"/>
<stop offset="1" stop-color="#FF0084"/>
</linearGradient>
<linearGradient id="paint20_linear_0_1136" x1="287.1" y1="305.968" x2="287.1" y2="471.051" gradientUnits="userSpaceOnUse">
<stop stop-color="#FF6E3A"/>
<stop offset="0.1596" stop-color="#FF6440"/>
<stop offset="0.4266" stop-color="#FF4B52"/>
<stop offset="0.7662" stop-color="#FF216E"/>
<stop offset="1" stop-color="#FF0084"/>
</linearGradient>
<linearGradient id="paint21_linear_0_1136" x1="358.832" y1="305.968" x2="358.832" y2="471.051" gradientUnits="userSpaceOnUse">
<stop stop-color="#FF6E3A"/>
<stop offset="0.1596" stop-color="#FF6440"/>
<stop offset="0.4266" stop-color="#FF4B52"/>
<stop offset="0.7662" stop-color="#FF216E"/>
<stop offset="1" stop-color="#FF0084"/>
</linearGradient>
<linearGradient id="paint22_linear_0_1136" x1="428.584" y1="305.968" x2="428.584" y2="471.051" gradientUnits="userSpaceOnUse">
<stop stop-color="#FF6E3A"/>
<stop offset="0.1596" stop-color="#FF6440"/>
<stop offset="0.4266" stop-color="#FF4B52"/>
<stop offset="0.7662" stop-color="#FF216E"/>
<stop offset="1" stop-color="#FF0084"/>
</linearGradient>
<linearGradient id="paint23_linear_0_1136" x1="256" y1="30.9923" x2="256" y2="74.0501" gradientUnits="userSpaceOnUse">
<stop stop-color="#FFD459"/>
<stop offset="0.2296" stop-color="#FFD355"/>
<stop offset="0.4362" stop-color="#FFCF4A"/>
<stop offset="0.634" stop-color="#FFC838"/>
<stop offset="0.825" stop-color="#FFBF1F"/>
<stop offset="1" stop-color="#FFB400"/>
</linearGradient>
<clipPath id="clip0_0_1136">
<rect width="512" height="512" fill="white"/>
</clipPath>
</defs>
</svg>
