<svg width="512" height="512" viewBox="0 0 512 512" fill="none" xmlns="http://www.w3.org/2000/svg">
<path d="M496.465 254.656L416.395 133.078H96.0703L16 254.656V490.281C16 502.277 25.7227 512 37.7188 512H474.746C486.742 512 496.465 502.277 496.465 490.281V254.656Z" fill="url(#paint0_linear_0_1201)"/>
<path d="M416.395 133.078H360.84L440.906 254.656V490.281C440.906 502.277 431.184 512 419.191 512H474.75C486.742 512 496.465 502.277 496.465 490.281V254.656L416.395 133.078Z" fill="url(#paint1_linear_0_1201)"/>
<path d="M416.395 133.078H96.0703L16 254.656H496.465L416.395 133.078Z" fill="url(#paint2_linear_0_1201)"/>
<path d="M369.52 0H142.945C117.059 0 96.0703 20.9922 96.0703 46.8789V133.078H416.395V46.8789C416.395 20.9922 395.406 0 369.52 0ZM313.941 62.2695C310.168 66.0312 304.957 68.3633 299.203 68.3633H163.129C151.617 68.3633 142.297 59.0391 142.297 47.5273C142.297 41.7734 144.625 36.5625 148.391 32.7852C152.164 29.0234 157.375 26.6914 163.129 26.6914H299.203C310.715 26.6914 320.039 36.0156 320.039 47.5273C320.039 53.2812 317.707 58.4922 313.941 62.2695Z" fill="url(#paint3_linear_0_1201)"/>
<path d="M369.52 0H316.781C342.672 0 363.66 20.9883 363.66 46.8789V133.078H416.395V46.8789C416.395 20.9883 395.406 0 369.52 0Z" fill="url(#paint4_linear_0_1201)"/>
<path d="M16 411.477V490.281C16 502.277 25.7227 512 37.7188 512H474.746C486.742 512 496.465 502.277 496.465 490.281V411.477H16Z" fill="url(#paint5_linear_0_1201)"/>
<path d="M197.289 335.254L374.031 512H451.656C463.652 512 473.375 502.277 473.375 490.281V330.773L275.68 133.078H190.605V325.012C190.605 329.59 193.355 333.52 197.289 335.254Z" fill="url(#paint6_linear_0_1201)"/>
<path d="M264.48 336.211H201.805C195.621 336.211 190.605 331.199 190.605 325.012V133.078H275.68V325.012C275.68 331.199 270.664 336.211 264.48 336.211Z" fill="url(#paint7_linear_0_1201)"/>
<path d="M49.543 351.078H164.156V370.906H49.543V351.078Z" fill="url(#paint8_linear_0_1201)"/>
<path d="M49.543 400.074H164.156V419.902H49.543V400.074Z" fill="url(#paint9_linear_0_1201)"/>
<path d="M49.543 449.07H140.809V468.898H49.543V449.07Z" fill="url(#paint10_linear_0_1201)"/>
<defs>
<linearGradient id="paint0_linear_0_1201" x1="148.021" y1="229.591" x2="592.156" y2="789.03" gradientUnits="userSpaceOnUse">
<stop stop-color="#FFD459"/>
<stop offset="0.2296" stop-color="#FFD355"/>
<stop offset="0.4362" stop-color="#FFCF4A"/>
<stop offset="0.634" stop-color="#FFC838"/>
<stop offset="0.825" stop-color="#FFBF1F"/>
<stop offset="1" stop-color="#FFB400"/>
</linearGradient>
<linearGradient id="paint1_linear_0_1201" x1="428.652" y1="99.8932" x2="428.652" y2="1285.63" gradientUnits="userSpaceOnUse">
<stop stop-color="#E58200" stop-opacity="0"/>
<stop offset="0.0396" stop-color="#E27F04" stop-opacity="0.039216"/>
<stop offset="0.4671" stop-color="#C15D2F" stop-opacity="0.466667"/>
<stop offset="0.8016" stop-color="#AD4949" stop-opacity="0.8"/>
<stop offset="1" stop-color="#A64153"/>
</linearGradient>
<linearGradient id="paint2_linear_0_1201" x1="188.513" y1="166.534" x2="804.86" y2="775.068" gradientUnits="userSpaceOnUse">
<stop stop-color="#E58200" stop-opacity="0"/>
<stop offset="0.0396" stop-color="#E27F04" stop-opacity="0.039216"/>
<stop offset="0.4671" stop-color="#C15D2F" stop-opacity="0.466667"/>
<stop offset="0.8016" stop-color="#AD4949" stop-opacity="0.8"/>
<stop offset="1" stop-color="#A64153"/>
</linearGradient>
<linearGradient id="paint3_linear_0_1201" x1="131.966" y1="-43.9957" x2="345.501" y2="169.539" gradientUnits="userSpaceOnUse">
<stop stop-color="#FFD459"/>
<stop offset="0.2296" stop-color="#FFD355"/>
<stop offset="0.4362" stop-color="#FFCF4A"/>
<stop offset="0.634" stop-color="#FFC838"/>
<stop offset="0.825" stop-color="#FFBF1F"/>
<stop offset="1" stop-color="#FFB400"/>
</linearGradient>
<linearGradient id="paint4_linear_0_1201" x1="366.589" y1="86.5924" x2="366.589" y2="279.965" gradientUnits="userSpaceOnUse">
<stop stop-color="#E58200" stop-opacity="0"/>
<stop offset="0.0396" stop-color="#E27F04" stop-opacity="0.039216"/>
<stop offset="0.4671" stop-color="#C15D2F" stop-opacity="0.466667"/>
<stop offset="0.8016" stop-color="#AD4949" stop-opacity="0.8"/>
<stop offset="1" stop-color="#A64153"/>
</linearGradient>
<linearGradient id="paint5_linear_0_1201" x1="256.233" y1="483.528" x2="256.233" y2="611.165" gradientUnits="userSpaceOnUse">
<stop stop-color="#E58200" stop-opacity="0"/>
<stop offset="0.0396" stop-color="#E27F04" stop-opacity="0.039216"/>
<stop offset="0.4671" stop-color="#C15D2F" stop-opacity="0.466667"/>
<stop offset="0.8016" stop-color="#AD4949" stop-opacity="0.8"/>
<stop offset="1" stop-color="#A64153"/>
</linearGradient>
<linearGradient id="paint6_linear_0_1201" x1="326.993" y1="323.259" x2="-240.74" y2="131.845" gradientUnits="userSpaceOnUse">
<stop stop-color="#E58200" stop-opacity="0"/>
<stop offset="0.0396" stop-color="#E27F04" stop-opacity="0.039216"/>
<stop offset="0.4671" stop-color="#C15D2F" stop-opacity="0.466667"/>
<stop offset="0.8016" stop-color="#AD4949" stop-opacity="0.8"/>
<stop offset="1" stop-color="#A64153"/>
</linearGradient>
<linearGradient id="paint7_linear_0_1201" x1="193.271" y1="186.449" x2="395.301" y2="413.096" gradientUnits="userSpaceOnUse">
<stop stop-color="#FF6E3A"/>
<stop offset="0.1596" stop-color="#FF6440"/>
<stop offset="0.4266" stop-color="#FF4B52"/>
<stop offset="0.7662" stop-color="#FF216E"/>
<stop offset="1" stop-color="#FF0084"/>
</linearGradient>
<linearGradient id="paint8_linear_0_1201" x1="49.5424" y1="360.991" x2="164.159" y2="360.991" gradientUnits="userSpaceOnUse">
<stop stop-color="#45425A"/>
<stop offset="1" stop-color="#2D3251"/>
</linearGradient>
<linearGradient id="paint9_linear_0_1201" x1="49.5424" y1="409.988" x2="164.159" y2="409.988" gradientUnits="userSpaceOnUse">
<stop stop-color="#45425A"/>
<stop offset="1" stop-color="#2D3251"/>
</linearGradient>
<linearGradient id="paint10_linear_0_1201" x1="49.5424" y1="458.986" x2="140.811" y2="458.986" gradientUnits="userSpaceOnUse">
<stop stop-color="#45425A"/>
<stop offset="1" stop-color="#2D3251"/>
</linearGradient>
</defs>
</svg>
