<svg width="512" height="512" viewBox="0 0 512 512" fill="none" xmlns="http://www.w3.org/2000/svg">
<g clip-path="url(#clip0_0_1213)">
<path d="M478.602 195.637L247.926 426.313C232.453 441.785 213.641 451.887 193.809 456.606L56.3906 319.188C61.1094 299.356 71.2109 280.543 86.6836 265.071L317.359 34.3948C350.195 1.55886 398.086 -7.06614 438.832 8.53542C439.047 8.62527 439.27 8.7073 439.5 8.79714C440.719 9.2698 441.934 9.7698 443.145 10.2932C453.199 14.6214 462.766 20.4729 471.477 27.8401C473.215 29.3089 474.918 30.8362 476.59 32.43C477.266 33.0784 477.938 33.7268 478.605 34.3987C480.297 36.0901 481.926 37.8206 483.48 39.5862C491.652 48.8128 498.055 59.0471 502.711 69.8596C503.23 71.0667 503.723 72.2815 504.207 73.5042C504.289 73.7268 504.379 73.9417 504.461 74.1643C520.066 114.907 511.445 162.797 478.602 195.637Z" fill="url(#paint0_linear_0_1213)"/>
<path d="M478.601 195.637L247.926 426.313C232.453 441.785 213.641 451.887 193.808 456.606L123.113 385.906L141.785 367.235C141.801 367.235 141.805 367.231 141.801 367.223L335.629 173.391C335.644 173.391 335.648 173.387 335.644 173.379L400.246 108.774C400.254 108.77 400.262 108.762 400.262 108.762L464.871 44.1487C464.871 44.1487 464.875 44.1448 464.883 44.137L476.594 32.4299C477.266 33.0784 477.941 33.7268 478.609 34.3948C480.301 36.0862 481.93 37.8167 483.48 39.5823C491.652 48.8127 498.058 59.0432 502.711 69.8557C503.234 71.0667 503.723 72.2815 504.207 73.5002C504.289 73.7229 504.379 73.9417 504.461 74.1643C520.066 114.906 511.445 162.797 478.601 195.637Z" fill="url(#paint1_linear_0_1213)"/>
<path d="M478.601 195.637L247.926 426.313C232.453 441.785 213.641 451.887 193.808 456.606L123.113 385.906L141.785 367.235C141.801 367.235 141.805 367.231 141.801 367.223L335.629 173.391C335.644 173.391 335.648 173.387 335.644 173.379L400.246 108.774C400.254 108.77 400.262 108.762 400.262 108.762L464.871 44.1487C464.871 44.1487 464.875 44.1448 464.883 44.137L476.594 32.4299C477.266 33.0784 477.941 33.7268 478.609 34.3948C480.301 36.0862 481.93 37.8167 483.48 39.5823C491.652 48.8127 498.058 59.0432 502.711 69.8557C503.234 71.0667 503.723 72.2815 504.207 73.5002C504.289 73.7229 504.379 73.9417 504.461 74.1643C520.066 114.906 511.445 162.797 478.601 195.637Z" fill="url(#paint2_linear_0_1213)"/>
<path d="M447.168 6.26587L95.3202 358.117L77.9647 340.762C85.8866 327.774 99.3007 316.332 112.723 311.906L118.543 309.992C121.957 308.867 125.359 307.293 128.648 305.367C144.605 296.063 158.168 278.477 160.152 263.035L161.223 254.664C163.969 233.297 188.43 208.836 209.793 206.094L209.812 206.09C231.18 203.356 255.648 178.887 258.383 157.52C259.75 146.828 266.547 135.371 275.676 126.246C284.808 117.114 296.269 110.309 306.953 108.949L315.308 107.879C333.945 105.489 355.683 86.219 362.258 66.2581L364.187 60.4417C369.848 43.2698 387.012 26.1018 404.183 20.4417L437.23 9.54321L439.5 8.79712L447.168 6.26587Z" fill="url(#paint3_linear_0_1213)"/>
<path d="M249.973 352.844C234.527 354.821 216.949 368.395 207.637 384.356C205.715 387.649 204.144 391.039 203.019 394.457L201.105 400.274C196.68 413.696 185.23 427.114 172.238 435.031L154.887 417.684L506.738 65.8323L504.207 73.5002L503.48 75.7151C503.48 75.7307 503.476 75.7346 503.469 75.7424L492.566 108.813C486.906 125.985 469.742 143.149 452.57 148.809L446.746 150.731C426.789 157.305 407.523 179.051 405.133 197.684L404.058 206.047C401.324 227.418 376.863 251.879 355.488 254.621L355.48 254.625C334.109 257.36 309.644 281.828 306.91 303.196C305.543 313.887 298.742 325.34 289.617 334.469C280.484 343.602 269.023 350.406 258.34 351.766L249.973 352.844Z" fill="url(#paint4_linear_0_1213)"/>
<path d="M497.203 83.4572L158.933 421.727L91.2694 354.063L429.539 15.7932C431.93 13.4025 434.508 11.3205 437.23 9.53925C437.758 9.19159 438.293 8.85956 438.832 8.53534C457.211 -2.45294 481.371 -0.0310631 497.203 15.7971C501.406 20.0002 504.664 24.7853 506.973 29.9064C506.973 29.9182 506.984 29.9299 506.984 29.9416C507.48 31.0236 507.933 32.1369 508.332 33.2502C508.531 33.8049 508.719 34.3517 508.906 34.9025C508.906 34.9182 508.91 34.9338 508.918 34.9533C509.273 36.0353 509.578 37.1291 509.848 38.2346C509.859 38.301 509.871 38.3517 509.883 38.4025C510.019 38.9689 510.144 39.5392 510.262 40.1135C510.262 40.1252 510.266 40.1447 510.277 40.1682C510.387 40.7463 510.496 41.3283 510.59 41.9064C510.777 43.0822 510.922 44.258 511.023 45.4416C511.082 46.0314 511.125 46.6252 511.152 47.2228C511.156 47.2541 511.156 47.2932 511.156 47.3322C511.183 47.8791 511.195 48.426 511.207 48.9728V49.0353C511.215 49.2307 511.215 49.4221 511.215 49.6252C511.215 49.715 511.215 49.8166 511.207 49.8986C511.207 50.1916 511.207 50.4728 511.203 50.7697C511.203 50.7697 511.203 50.7697 511.195 50.7775C511.183 51.2971 511.164 51.8244 511.133 52.3517C511.133 52.4533 511.129 52.5627 511.121 52.6721C511.082 53.1799 511.043 53.6916 510.992 54.2111C510.992 54.2502 510.988 54.2814 510.98 54.3244C510.922 54.9182 510.851 55.508 510.777 56.0939C510.695 56.6838 510.605 57.2697 510.504 57.8557C510.402 58.4416 510.289 59.0236 510.164 59.6057C510.09 59.9611 510.012 60.3166 509.93 60.6642C509.875 60.8869 509.816 61.1252 509.758 61.3478C509.695 61.6369 509.613 61.926 509.535 62.2189C509.383 62.7775 509.219 63.3361 509.047 63.8908C509.039 63.9221 509.035 63.9533 509.019 63.9924C508.933 64.258 508.844 64.5275 508.754 64.7932C508.664 65.0744 508.57 65.3596 508.461 65.6447C507.863 67.3361 507.164 69.0041 506.363 70.6447C506.234 70.9103 506.101 71.1838 505.957 71.4572C505.836 71.6916 505.707 71.9338 505.586 72.1682C505.223 72.8361 504.848 73.5041 504.461 74.1603C504.144 74.6838 503.824 75.2033 503.48 75.7111C503.48 75.7268 503.476 75.7307 503.469 75.7385C503.367 75.8908 503.266 76.0432 503.164 76.1955C502.883 76.6291 502.59 77.0471 502.285 77.4689C502.152 77.6525 502.012 77.8439 501.871 78.0353C501.668 78.3127 501.453 78.5939 501.242 78.8674C501.101 79.0432 500.961 79.2228 500.824 79.4025C500.683 79.5783 500.539 79.7619 500.391 79.9338C500.168 80.2072 499.937 80.4885 499.703 80.7502C499.441 81.0588 499.176 81.3674 498.902 81.6643C498.621 81.9689 498.351 82.2697 498.062 82.5666C497.781 82.8635 497.496 83.1643 497.203 83.4572Z" fill="url(#paint5_linear_0_1213)"/>
<path d="M497.203 83.4574L158.933 421.727L119.043 381.836L129.41 379.614L130.656 379.344C130.93 379.2 131.195 379.047 131.465 378.895C131.723 378.746 131.984 378.586 132.246 378.414C132.769 378.086 133.262 377.743 133.758 377.371C134.223 377.035 134.676 376.672 135.109 376.293C135.172 376.254 135.223 376.203 135.281 376.145C135.504 375.95 135.723 375.75 135.933 375.555C137.258 374.321 138.433 372.942 139.465 371.438C139.902 370.809 140.305 370.168 140.68 369.5C140.687 369.493 140.687 369.481 140.687 369.481C140.875 369.149 141.055 368.805 141.226 368.457C141.43 368.063 141.621 367.657 141.785 367.235C141.918 366.938 142.039 366.637 142.16 366.34C142.586 365.239 142.937 364.114 143.199 362.95C143.465 361.789 143.648 360.602 143.75 359.395C143.785 358.993 143.801 358.578 143.816 358.172V358.047C143.871 356.336 144.039 354.645 144.293 352.989C144.449 352.004 144.637 351.016 144.863 350.051C144.933 349.727 145.016 349.403 145.098 349.09C145.094 349.082 145.094 349.082 145.098 349.078C145.238 348.555 145.379 348.035 145.531 347.512C145.691 346.985 145.863 346.457 146.047 345.942C146.433 344.801 146.875 343.688 147.351 342.602C147.617 342.004 147.891 341.414 148.183 340.84C148.426 340.344 148.687 339.856 148.953 339.371C149.469 338.438 150.016 337.52 150.601 336.629C151.238 335.664 151.91 334.723 152.617 333.813C152.859 333.508 153.094 333.211 153.344 332.91C153.414 332.828 153.48 332.735 153.566 332.649C153.922 332.215 154.289 331.797 154.672 331.391L154.664 331.383C154.898 331.125 155.137 330.875 155.379 330.621C156.363 329.598 157.394 328.618 158.469 327.696C159.57 326.75 160.723 325.864 161.918 325.039C166.687 321.754 172.164 319.434 178.058 318.348C178.555 318.258 179.043 318.176 179.547 318.106C179.582 318.09 179.629 318.086 179.672 318.078C179.691 318.075 179.711 318.067 179.734 318.067C181.328 317.723 190.605 315.731 194.019 315C194.726 314.84 195.183 314.739 195.262 314.727C196.914 313.836 198.461 312.762 199.867 311.535C199.941 311.473 200.012 311.414 200.09 311.352C200.484 310.993 200.863 310.625 201.246 310.243C201.355 310.137 201.457 310.035 201.558 309.918C201.902 309.563 202.23 309.196 202.551 308.813C202.683 308.668 202.805 308.508 202.937 308.348C203.219 307.993 203.496 307.637 203.766 307.27C203.922 307.047 204.074 306.817 204.223 306.594C204.43 306.27 204.656 305.946 204.863 305.621C204.871 305.618 204.871 305.618 204.871 305.602C205.215 305.032 205.543 304.446 205.844 303.84C206.047 303.434 206.23 303.035 206.41 302.614C206.687 301.965 206.949 301.297 207.18 300.621C207.426 299.879 207.637 299.11 207.816 298.332C208.082 297.176 208.266 295.985 208.367 294.778C208.402 294.375 208.422 293.965 208.433 293.555V293.43C208.488 291.719 208.656 290.028 208.91 288.375C209.066 287.387 209.254 286.403 209.48 285.434C209.551 285.11 209.633 284.785 209.715 284.473C209.711 284.469 209.711 284.469 209.715 284.461C209.851 283.934 209.996 283.418 210.148 282.899C210.308 282.368 210.48 281.84 210.664 281.325C210.828 280.805 211.019 280.297 211.219 279.782C211.422 279.258 211.629 278.743 211.859 278.235C213.226 275.086 214.969 272.149 217.031 269.465C217.328 269.067 217.641 268.676 217.957 268.293C218.812 267.25 219.719 266.254 220.676 265.301C221.062 264.91 221.449 264.535 221.855 264.168C222.215 263.836 222.574 263.512 222.945 263.196C223.082 263.067 223.234 262.942 223.383 262.821C223.758 262.508 224.133 262.196 224.527 261.891C225.34 261.254 226.176 260.649 227.039 260.078C227.433 259.809 227.832 259.547 228.234 259.301C228.328 259.243 228.43 259.18 228.535 259.118C228.973 258.856 229.426 258.594 229.867 258.34C229.875 258.332 229.887 258.321 229.906 258.317C230.379 258.059 230.855 257.801 231.336 257.559C231.648 257.399 231.953 257.246 232.273 257.094C233.215 256.649 234.172 256.235 235.152 255.852C235.808 255.606 236.465 255.371 237.133 255.149C237.801 254.926 238.473 254.723 239.16 254.532C239.566 254.414 239.98 254.309 240.394 254.211C241.641 253.918 242.906 253.672 244.183 253.489C244.223 253.473 244.266 253.469 244.312 253.461C244.324 253.45 244.336 253.45 244.355 253.457C245.875 253.118 255.219 251.129 258.613 250.403C259.316 250.25 259.766 250.157 259.836 250.137C260.637 249.703 261.406 249.239 262.152 248.723C262.187 248.7 262.223 248.68 262.258 248.653C262.558 248.446 262.855 248.231 263.144 248.012C263.379 247.832 263.621 247.66 263.851 247.473C264.039 247.321 264.219 247.168 264.402 247.008C267.234 244.559 269.512 241.493 271.004 238.016C271.336 237.278 271.621 236.52 271.875 235.743C271.957 235.485 272.043 235.223 272.109 234.961C272.117 234.957 272.109 234.95 272.109 234.95C272.328 234.2 272.504 233.434 272.644 232.66C272.723 232.266 272.777 231.875 272.836 231.477C272.937 230.688 273.012 229.887 273.039 229.071V228.934C273.238 222.743 274.773 216.895 277.391 211.66C277.484 211.461 277.582 211.266 277.687 211.067C277.777 210.891 277.875 210.703 277.969 210.532C278.504 209.543 279.074 208.575 279.687 207.621C279.769 207.489 279.851 207.368 279.933 207.246C282.098 203.965 284.719 201.012 287.695 198.469C292.012 194.785 297.082 191.957 302.633 190.258C303.008 190.137 303.379 190.035 303.754 189.926C305.394 189.485 307.058 189.125 308.769 188.879C308.781 188.879 308.801 188.871 308.812 188.86H308.828C309.902 188.559 320.504 184.75 326.297 182.723C328.34 182.004 329.785 181.516 330.019 181.469C332.066 179.496 333.785 177.184 335.062 174.621C335.242 174.278 335.398 173.926 335.558 173.578C335.582 173.512 335.617 173.457 335.629 173.391C335.762 173.094 335.883 172.793 336.004 172.496C336.43 171.395 336.781 170.27 337.043 169.106C337.308 167.95 337.492 166.758 337.594 165.551C337.625 165.149 337.644 164.735 337.656 164.328C337.766 160.891 338.293 157.551 339.18 154.364C339.332 153.844 339.488 153.317 339.656 152.793C340.223 151.043 340.902 149.332 341.691 147.692C342.07 146.879 342.484 146.082 342.922 145.301C343.355 144.524 343.82 143.754 344.305 143.004C344.375 142.895 344.449 142.782 344.527 142.668C346.098 140.293 347.898 138.09 349.902 136.086C350.289 135.696 350.683 135.313 351.09 134.946C351.492 134.571 351.891 134.207 352.312 133.852C352.73 133.496 353.156 133.145 353.59 132.801C354.238 132.293 354.898 131.797 355.578 131.321C356.941 130.379 358.351 129.516 359.816 128.727C360.547 128.34 361.297 127.969 362.055 127.621C363.07 127.149 364.101 126.731 365.152 126.34C366.207 125.961 367.281 125.61 368.371 125.313C370.004 124.86 371.676 124.512 373.387 124.262C373.406 124.258 373.426 124.25 373.445 124.243C374.527 123.95 385.121 120.137 390.922 118.098C392.957 117.387 394.402 116.899 394.637 116.852C396.683 114.879 398.402 112.567 399.68 110.004C399.859 109.66 400.016 109.309 400.176 108.961C400.203 108.895 400.234 108.84 400.246 108.774C400.379 108.477 400.5 108.176 400.621 107.879C401.609 105.328 402.18 102.582 402.273 99.7113C402.465 93.5199 404.012 87.6605 406.621 82.4339C406.766 82.1331 406.91 81.848 407.066 81.5667C407.066 81.5667 407.066 81.555 407.07 81.5472C407.375 80.9769 407.68 80.4144 408.012 79.8714C408.375 79.2425 408.762 78.6214 409.172 78.012C409.558 77.4222 409.965 76.8363 410.391 76.2699C410.805 75.7034 411.238 75.1449 411.683 74.598C411.683 74.598 411.683 74.598 411.687 74.5902C413.926 71.8558 416.504 69.4066 419.359 67.3167C419.973 66.8519 420.609 66.4066 421.258 65.9886C421.305 65.9534 421.348 65.9222 421.398 65.8988C421.805 65.6292 422.226 65.3753 422.644 65.1214C423.492 64.6214 424.351 64.1409 425.226 63.6956C425.668 63.473 426.113 63.2581 426.562 63.0472C426.594 63.0277 426.641 63.012 426.683 62.9925C427.016 62.8402 427.351 62.6917 427.687 62.5472C428.371 62.262 429.055 61.9808 429.75 61.7308C430.101 61.598 430.449 61.4769 430.805 61.3636C430.84 61.3441 430.867 61.3402 430.906 61.3245C431.34 61.1878 431.785 61.0472 432.223 60.9105C432.242 60.9066 432.262 60.8988 432.281 60.8949C433.242 60.6214 434.207 60.3636 435.191 60.1566C435.23 60.1409 435.281 60.1292 435.332 60.1175C436.867 59.6644 448.617 56.2699 454.449 54.5706C456.363 54.0042 457.648 53.637 457.707 53.6175C457.879 53.4847 458.039 53.3519 458.195 53.2035C458.367 53.0706 458.519 52.93 458.68 52.7855C458.844 52.6449 458.996 52.5042 459.144 52.3441C459.594 51.9183 460.039 51.473 460.453 51.012C461.211 50.1761 461.902 49.2933 462.539 48.3636C462.762 48.055 462.976 47.7347 463.176 47.3988C463.582 46.7503 463.957 46.0706 464.301 45.3831C464.504 44.9886 464.695 44.5824 464.867 44.1527C465.016 43.8285 465.148 43.4925 465.273 43.1644C465.402 42.8324 465.523 42.4964 465.637 42.1527C465.808 41.6488 465.961 41.1292 466.094 40.598C466.262 39.9769 466.398 39.3519 466.508 38.7113C466.726 37.5277 466.851 36.3324 466.891 35.098C466.992 31.9183 468.828 29.2035 471.476 27.8402C472.711 27.2035 474.121 26.8753 475.601 26.9183L476.621 27.0199L506.969 29.9066C506.969 29.9222 506.984 29.9339 506.984 29.9456C507.473 31.0316 507.93 32.141 508.332 33.2542C508.531 33.805 508.719 34.3519 508.902 34.9066C508.902 34.9183 508.91 34.9378 508.918 34.9574C509.266 36.0433 509.574 37.141 509.844 38.2386C509.859 38.3011 509.871 38.3558 509.883 38.4066C510.016 38.973 510.144 39.5433 510.258 40.1175C510.258 40.1292 510.266 40.1488 510.277 40.1722C510.387 40.7503 510.492 41.3324 510.59 41.9105C510.773 43.0863 510.922 44.262 511.023 45.4456C511.082 46.0355 511.125 46.6253 511.152 47.2269C511.156 47.2581 511.156 47.2972 511.156 47.3324C511.183 47.8792 511.195 48.43 511.207 48.973V49.0394C511.207 49.3285 511.215 49.6175 511.207 49.9027C511.207 50.1956 511.207 50.4769 511.203 50.7738C511.203 50.7738 511.203 50.7738 511.195 50.7816C511.183 51.3011 511.164 51.8285 511.133 52.3558C511.133 52.4574 511.125 52.5667 511.121 52.6761C511.082 53.1839 511.043 53.6956 510.992 54.2152C510.992 54.2542 510.984 54.2855 510.98 54.3285C510.922 54.9222 510.851 55.512 510.773 56.098C510.691 56.6878 510.605 57.2738 510.504 57.8597C510.402 58.4456 510.285 59.0316 510.164 59.6097C510.09 59.9652 510.012 60.3206 509.93 60.6683C509.871 60.8949 509.816 61.1292 509.758 61.3519C509.695 61.6409 509.613 61.93 509.535 62.223C509.383 62.7816 509.219 63.3402 509.047 63.8949C509.039 63.9261 509.031 63.9574 509.019 63.9964C508.93 64.262 508.844 64.5316 508.754 64.7972C508.664 65.0784 508.57 65.3636 508.461 65.6488C507.863 67.3402 507.164 69.0081 506.363 70.6488C506.234 70.9144 506.101 71.1878 505.953 71.4613C505.832 71.6956 505.707 71.9378 505.586 72.1722C505.223 72.8402 504.848 73.5081 504.461 74.1644C504.141 74.6878 503.824 75.2074 503.48 75.7152C503.48 75.7308 503.476 75.7347 503.469 75.7425C503.367 75.8949 503.266 76.0472 503.164 76.1995C502.875 76.6253 502.59 77.0511 502.285 77.473C502.152 77.6566 502.012 77.848 501.871 78.0394C501.668 78.3167 501.453 78.598 501.242 78.8714C501.101 79.0472 500.961 79.2269 500.824 79.4066C500.683 79.5824 500.535 79.7659 500.391 79.9378C500.168 80.2113 499.937 80.4925 499.703 80.7542C499.441 81.0628 499.176 81.3714 498.902 81.6683C498.621 81.973 498.348 82.2738 498.062 82.5745C497.781 82.8636 497.496 83.1644 497.203 83.4574Z" fill="url(#paint6_linear_0_1213)"/>
<path d="M184.644 334.578C177.437 334.852 171.012 338.203 166.633 343.352C163.09 347.508 160.891 352.848 160.707 358.692V358.821C160.121 376.055 149.062 390.676 133.711 396.504L119.5 382.293C119.562 382.293 119.621 382.289 119.683 382.289H119.812C122.973 382.18 125.988 381.469 128.75 380.274C129.406 380 130.047 379.688 130.656 379.344C130.937 379.203 131.199 379.059 131.465 378.891C131.726 378.746 131.988 378.586 132.246 378.414C132.769 378.098 133.277 377.743 133.762 377.371C134.226 377.035 134.676 376.672 135.109 376.289C135.172 376.254 135.223 376.203 135.281 376.145C136.871 374.77 138.277 373.188 139.465 371.438C139.906 370.809 140.305 370.164 140.68 369.5C140.687 369.493 140.687 369.481 140.687 369.481C140.879 369.149 141.055 368.805 141.226 368.453C141.43 368.059 141.621 367.653 141.785 367.235C141.801 367.235 141.805 367.227 141.801 367.223C141.926 366.93 142.055 366.637 142.164 366.336C142.59 365.239 142.937 364.11 143.199 362.946C143.465 361.789 143.652 360.598 143.754 359.391C143.785 358.993 143.805 358.578 143.816 358.172V358.043C143.871 356.332 144.039 354.641 144.293 352.989C144.496 351.664 144.769 350.36 145.101 349.09C145.094 349.082 145.094 349.082 145.101 349.075C145.242 348.555 145.383 348.032 145.535 347.512C145.691 346.985 145.863 346.453 146.047 345.942C146.43 344.797 146.867 343.684 147.351 342.602C147.621 342.004 147.894 341.41 148.187 340.84C148.43 340.344 148.687 339.852 148.957 339.371C149.473 338.438 150.019 337.52 150.601 336.629C151.449 335.34 152.359 334.098 153.344 332.91C153.414 332.828 153.484 332.731 153.566 332.649C153.922 332.215 154.285 331.789 154.668 331.383C155.851 330.071 157.121 328.84 158.469 327.692C164.348 322.657 171.641 319.215 179.676 318.078C179.691 318.071 179.711 318.063 179.738 318.063C181.238 317.848 182.758 317.711 184.305 317.668H184.496C187.629 317.547 190.621 316.848 193.355 315.664C198.781 313.332 203.226 309.114 205.844 303.836C206.055 303.438 206.254 303.012 206.43 302.59C206.711 301.942 206.957 301.285 207.18 300.618C207.43 299.875 207.637 299.106 207.816 298.328C208.082 297.172 208.269 295.981 208.371 294.774C208.402 294.371 208.422 293.961 208.433 293.551V293.426C208.492 291.715 208.656 290.024 208.91 288.371C209.113 287.047 209.387 285.743 209.719 284.473C209.711 284.465 209.711 284.465 209.719 284.457C209.851 283.93 210 283.414 210.152 282.895C210.308 282.368 210.48 281.836 210.664 281.325C210.832 280.801 211.023 280.293 211.219 279.778C211.422 279.254 211.633 278.743 211.863 278.235C213.23 275.086 214.973 272.145 217.031 269.461C217.332 269.063 217.641 268.676 217.961 268.293C218.812 267.25 219.723 266.25 220.676 265.297C221.062 264.91 221.453 264.532 221.859 264.164C222.215 263.832 222.578 263.508 222.945 263.192C223.086 263.063 223.238 262.938 223.383 262.817C223.762 262.504 224.137 262.192 224.527 261.887C225.344 261.25 226.176 260.649 227.039 260.075C227.433 259.805 227.836 259.547 228.238 259.297C228.332 259.243 228.433 259.176 228.535 259.114C228.973 258.852 229.426 258.594 229.871 258.336C229.879 258.332 229.891 258.317 229.91 258.313C230.379 258.059 230.855 257.797 231.34 257.555C233.812 256.289 236.433 255.274 239.164 254.528C240.836 254.063 242.558 253.7 244.312 253.457C244.328 253.446 244.34 253.446 244.359 253.453C245.844 253.239 247.371 253.11 248.91 253.059L249.109 253.051C252.242 252.934 255.234 252.231 257.969 251.047C260.328 250.039 262.496 248.672 264.402 247.004C267.254 244.563 269.535 241.477 271.039 237.977C271.465 237.004 271.824 235.993 272.113 234.957C272.117 234.953 272.113 234.946 272.113 234.946C272.328 234.196 272.508 233.43 272.648 232.657C272.723 232.262 272.781 231.871 272.836 231.473C272.937 230.684 273.016 229.883 273.043 229.067V228.93C273.238 222.739 274.777 216.891 277.391 211.657C277.488 211.457 277.582 211.262 277.691 211.063C277.781 210.887 277.875 210.7 277.973 210.528C278.5 209.532 279.078 208.559 279.687 207.618C279.769 207.485 279.855 207.364 279.937 207.243C282.098 203.961 284.719 201.008 287.695 198.465C292.289 194.524 297.758 191.571 303.754 189.922C305.402 189.461 307.094 189.102 308.816 188.856H308.832C310.375 188.633 311.941 188.493 313.531 188.442L313.664 188.438C316.824 188.328 319.84 187.618 322.594 186.426C328.379 183.934 333.023 179.317 335.562 173.575C335.586 173.508 335.617 173.453 335.633 173.387C335.644 173.387 335.648 173.383 335.644 173.375C335.773 173.082 335.898 172.789 336.008 172.493C336.433 171.391 336.781 170.266 337.043 169.102C337.312 167.942 337.496 166.754 337.598 165.547C337.629 165.145 337.648 164.731 337.66 164.325C337.769 160.883 338.297 157.547 339.18 154.36C339.332 153.836 339.492 153.309 339.656 152.789C340.223 151.039 340.902 149.328 341.691 147.688C342.461 146.067 343.332 144.496 344.305 143C344.375 142.891 344.453 142.778 344.527 142.66C346.16 140.192 348.043 137.907 350.144 135.84C350.844 135.153 351.566 134.485 352.312 133.848C352.734 133.493 353.16 133.141 353.59 132.797C356.18 130.746 359.016 129 362.055 127.614C364.078 126.672 366.183 125.907 368.371 125.305C370.008 124.856 371.68 124.504 373.391 124.258C373.41 124.25 373.426 124.243 373.445 124.239C374.992 124.016 376.562 123.883 378.152 123.832L378.223 123.825C381.41 123.719 384.445 123.012 387.215 121.801C392.992 119.321 397.641 114.7 400.18 108.957C400.203 108.891 400.234 108.836 400.25 108.77C400.254 108.766 400.262 108.758 400.262 108.758C400.391 108.465 400.508 108.168 400.625 107.875C401.609 105.325 402.183 102.575 402.277 99.7074C402.469 93.512 404.016 87.6566 406.621 82.4261C406.769 82.1292 406.914 81.8441 407.066 81.5628C407.066 81.5628 407.066 81.5511 407.074 81.5433C407.379 80.973 407.683 80.4105 408.016 79.8636C408.379 79.2347 408.766 78.6175 409.172 78.0081C412.332 73.2191 416.453 69.1214 421.262 65.9808C421.308 65.9495 421.351 65.9183 421.402 65.8909C423.043 64.8245 424.773 63.8675 426.566 63.0433C426.598 63.0238 426.641 63.0042 426.687 62.9847C428.016 62.3675 429.394 61.8284 430.808 61.3558C430.84 61.3363 430.871 61.3324 430.91 61.3167C431.344 61.18 431.785 61.0394 432.226 60.9066C432.246 60.8988 432.262 60.8909 432.281 60.887C433.238 60.6058 434.211 60.3597 435.195 60.1488C435.234 60.1331 435.285 60.1214 435.336 60.1097C437.738 59.6019 440.219 59.2972 442.758 59.2152C445.976 59.1136 449.039 58.3988 451.832 57.1839C453.961 56.2738 455.941 55.0589 457.707 53.6097C457.879 53.4769 458.039 53.3441 458.199 53.1956C458.371 53.0628 458.523 52.9222 458.683 52.7777C458.848 52.637 459 52.4964 459.144 52.3402C460.418 51.141 461.562 49.805 462.543 48.3558C462.766 48.0472 462.98 47.7269 463.18 47.391C463.586 46.7425 463.961 46.0628 464.305 45.3753C464.508 44.9808 464.699 44.5745 464.871 44.1449C464.871 44.1449 464.875 44.141 464.883 44.1331C465.164 43.4847 465.418 42.8245 465.641 42.141C465.812 41.641 465.965 41.1175 466.098 40.5902C466.262 39.9691 466.402 39.3441 466.512 38.6995C466.726 37.5199 466.855 36.3245 466.894 35.0902C466.996 31.9105 468.832 29.1917 471.48 27.8324C472.711 27.1956 474.125 26.8675 475.605 26.9105C475.949 26.9222 476.293 26.9495 476.625 27.012C480.789 27.641 483.926 31.2972 483.793 35.6175C483.754 36.9534 483.641 38.2738 483.48 39.5785C482.285 49.0042 477.945 57.4652 471.551 63.8597C464.262 71.1488 454.308 75.762 443.305 76.1058C430.164 76.512 419.57 87.1058 419.164 100.223C418.488 122.254 400.699 140.039 378.676 140.723H378.598C365.516 141.172 354.961 151.743 354.551 164.844C353.871 186.868 336.09 204.653 314.066 205.332L313.93 205.336C300.914 205.801 290.414 216.301 289.941 229.317L289.937 229.461C289.254 251.485 271.473 269.266 249.449 269.95L249.25 269.953C236.219 270.457 225.726 281.016 225.328 294.071L225.32 294.203C224.574 316.164 206.816 333.887 184.832 334.567L184.644 334.578Z" fill="url(#paint7_linear_0_1213)"/>
<path d="M311.867 90.594C310.043 88.7698 307.082 88.7698 305.257 90.594C303.429 92.4221 303.429 95.3792 305.257 97.2073C307.082 99.0315 310.043 99.0315 311.867 97.2073C313.691 95.3792 313.691 92.4221 311.867 90.594Z" fill="#FFB211"/>
<path d="M352.511 61.0237C349.621 58.1331 344.933 58.1331 342.042 61.0237C339.152 63.9143 339.152 68.6018 342.042 71.4924C344.933 74.3831 349.621 74.3831 352.511 71.4924C355.402 68.6018 355.402 63.9143 352.511 61.0237Z" fill="#FFB211"/>
<path d="M327.312 57.0041C322.863 52.5549 315.652 52.5549 311.207 57.0041C306.757 61.4495 306.757 68.6604 311.207 73.1096C315.652 77.5549 322.863 77.5549 327.312 73.1096C331.757 68.6604 331.757 61.4495 327.312 57.0041Z" fill="#FFB211"/>
<path d="M209.641 145.652L288.484 386.773C289.141 388.777 288.613 390.981 287.121 392.473L222.711 456.883C214.809 464.785 201.992 464.785 194.09 456.883L54.8086 317.602C46.9023 309.699 46.9023 296.887 54.8086 288.984L200.359 143.434C203.309 140.481 208.34 141.684 209.641 145.652Z" fill="url(#paint8_linear_0_1213)"/>
<path d="M395.551 272.547L154.43 193.699C152.426 193.043 150.223 193.57 148.73 195.063L34.7734 309.016C-11.5898 355.383 -11.5898 430.555 34.7734 476.918C81.1406 523.285 156.312 523.285 202.676 476.918L397.77 281.828C400.723 278.875 399.52 273.844 395.551 272.547Z" fill="url(#paint9_linear_0_1213)"/>
<path d="M148.73 200.141L149.355 412.148L194.09 456.883C201.992 464.785 214.805 464.785 222.707 456.883L397.769 281.824C398.203 281.391 398.535 280.906 398.797 280.398C399.258 279.5 399.445 278.516 399.391 277.551C399.387 277.523 399.387 277.5 399.387 277.473C399.375 277.309 399.355 277.145 399.328 276.98C399.32 276.934 399.312 276.887 399.305 276.84C399.273 276.691 399.242 276.539 399.203 276.391C399.187 276.336 399.168 276.281 399.152 276.223C399.109 276.082 399.066 275.945 399.012 275.805C398.988 275.746 398.957 275.691 398.933 275.633C398.844 275.418 398.738 275.215 398.621 275.016C398.562 274.918 398.508 274.82 398.445 274.727C398.394 274.645 398.332 274.57 398.273 274.492C398.199 274.395 398.129 274.297 398.047 274.203C397.984 274.129 397.918 274.062 397.851 273.992C397.766 273.902 397.672 273.809 397.578 273.723C397.508 273.66 397.437 273.602 397.367 273.543C397.262 273.457 397.152 273.375 397.039 273.293C396.965 273.242 396.894 273.191 396.82 273.145C396.691 273.062 396.555 272.988 396.418 272.914C396.348 272.879 396.281 272.84 396.211 272.809C396 272.707 395.781 272.617 395.551 272.543C395.551 272.543 395.551 272.543 395.547 272.539L234.027 219.723L154.426 193.695C154.039 193.566 153.641 193.496 153.242 193.457C152.996 193.434 152.75 193.426 152.508 193.434C151.617 193.461 150.746 193.687 149.965 194.121C149.519 194.371 149.101 194.684 148.726 195.059L149.433 199.551C149.187 199.73 148.949 199.922 148.73 200.141Z" fill="url(#paint10_linear_0_1213)"/>
<path d="M395.551 272.547L154.43 193.699C152.426 193.043 150.223 193.57 148.73 195.063L166.582 308.985C167.664 315.91 174.16 320.649 181.086 319.57L393.051 286.547L397.769 281.828C400.723 278.875 399.519 273.844 395.551 272.547Z" fill="url(#paint11_linear_0_1213)"/>
<path d="M47.4883 296.305L34.7734 309.016C-11.5898 355.383 -11.5898 430.555 34.7734 476.918C81.1406 523.285 156.312 523.285 202.676 476.918L215.387 464.207L47.4883 296.305Z" fill="url(#paint12_linear_0_1213)"/>
</g>
<defs>
<linearGradient id="paint0_linear_0_1213" x1="284.195" y1="-120.459" x2="284.195" y2="260.889" gradientUnits="userSpaceOnUse">
<stop stop-color="#FFD459"/>
<stop offset="0.2296" stop-color="#FFD355"/>
<stop offset="0.4362" stop-color="#FFCF4A"/>
<stop offset="0.634" stop-color="#FFC838"/>
<stop offset="0.825" stop-color="#FFBF1F"/>
<stop offset="1" stop-color="#FFB400"/>
</linearGradient>
<linearGradient id="paint1_linear_0_1213" x1="317.556" y1="608.524" x2="317.556" y2="172.238" gradientUnits="userSpaceOnUse">
<stop stop-color="#FFB211" stop-opacity="0"/>
<stop offset="0.1624" stop-color="#FFAA14" stop-opacity="0.160784"/>
<stop offset="0.4095" stop-color="#FF951E" stop-opacity="0.407843"/>
<stop offset="0.7088" stop-color="#FF732D" stop-opacity="0.709804"/>
<stop offset="1" stop-color="#FF4B3E"/>
</linearGradient>
<linearGradient id="paint2_linear_0_1213" x1="317.556" y1="316.688" x2="317.556" y2="523.24" gradientUnits="userSpaceOnUse">
<stop stop-color="#E58200" stop-opacity="0"/>
<stop offset="0.0396" stop-color="#E27F04" stop-opacity="0.039216"/>
<stop offset="0.4671" stop-color="#C15D2F" stop-opacity="0.466667"/>
<stop offset="0.8016" stop-color="#AD4949" stop-opacity="0.8"/>
<stop offset="1" stop-color="#A64153"/>
</linearGradient>
<linearGradient id="paint3_linear_0_1213" x1="228.829" y1="198.846" x2="13.1597" y2="414.515" gradientUnits="userSpaceOnUse">
<stop stop-color="#C6E56F"/>
<stop offset="0.3371" stop-color="#C4E56F"/>
<stop offset="0.4953" stop-color="#BCE36E"/>
<stop offset="0.6162" stop-color="#AFE16D"/>
<stop offset="0.7182" stop-color="#9DDD6B"/>
<stop offset="0.8083" stop-color="#85D968"/>
<stop offset="0.8899" stop-color="#68D365"/>
<stop offset="0.9635" stop-color="#46CD61"/>
<stop offset="1" stop-color="#32C95F"/>
</linearGradient>
<linearGradient id="paint4_linear_0_1213" x1="314.153" y1="284.17" x2="98.4836" y2="499.839" gradientUnits="userSpaceOnUse">
<stop stop-color="#C6E56F"/>
<stop offset="0.0271" stop-color="#BDDA6B"/>
<stop offset="0.115" stop-color="#A4BE60"/>
<stop offset="0.2136" stop-color="#8FA657"/>
<stop offset="0.3252" stop-color="#7F9450"/>
<stop offset="0.4576" stop-color="#74874B"/>
<stop offset="0.6309" stop-color="#6E7F48"/>
<stop offset="1" stop-color="#6C7D47"/>
</linearGradient>
<linearGradient id="paint5_linear_0_1213" x1="301.241" y1="-168.027" x2="301.241" y2="565.199" gradientUnits="userSpaceOnUse">
<stop stop-color="#FF6E3A"/>
<stop offset="0.1596" stop-color="#FF6440"/>
<stop offset="0.4266" stop-color="#FF4B52"/>
<stop offset="0.7662" stop-color="#FF216E"/>
<stop offset="1" stop-color="#FF0084"/>
</linearGradient>
<linearGradient id="paint6_linear_0_1213" x1="315.126" y1="348.988" x2="315.126" y2="-122.259" gradientUnits="userSpaceOnUse">
<stop stop-color="#972E07" stop-opacity="0"/>
<stop offset="1" stop-color="#582707"/>
</linearGradient>
<linearGradient id="paint7_linear_0_1213" x1="381.921" y1="128.769" x2="105.39" y2="405.301" gradientUnits="userSpaceOnUse">
<stop stop-color="#FFD459"/>
<stop offset="0.2296" stop-color="#FFD355"/>
<stop offset="0.4362" stop-color="#FFCF4A"/>
<stop offset="0.634" stop-color="#FFC838"/>
<stop offset="0.825" stop-color="#FFBF1F"/>
<stop offset="1" stop-color="#FFB400"/>
</linearGradient>
<linearGradient id="paint8_linear_0_1213" x1="215.557" y1="167.353" x2="196.477" y2="239.855" gradientUnits="userSpaceOnUse">
<stop stop-color="#FFFCF8"/>
<stop offset="0.1875" stop-color="#FAF8F6"/>
<stop offset="0.4041" stop-color="#ECEEF2"/>
<stop offset="0.6353" stop-color="#D5DCEA"/>
<stop offset="0.875" stop-color="#B5C4DF"/>
<stop offset="1" stop-color="#A1B5D8"/>
</linearGradient>
<linearGradient id="paint9_linear_0_1213" x1="84.0604" y1="243.193" x2="288.583" y2="447.715" gradientUnits="userSpaceOnUse">
<stop stop-color="#FFFCF8"/>
<stop offset="0.1875" stop-color="#FAF8F6"/>
<stop offset="0.4041" stop-color="#ECEEF2"/>
<stop offset="0.6353" stop-color="#D5DCEA"/>
<stop offset="0.875" stop-color="#B5C4DF"/>
<stop offset="1" stop-color="#A1B5D8"/>
</linearGradient>
<linearGradient id="paint10_linear_0_1213" x1="172.963" y1="379.724" x2="500.178" y2="-81.0475" gradientUnits="userSpaceOnUse">
<stop stop-color="#A1B5D8" stop-opacity="0"/>
<stop offset="0.0343" stop-color="#9FB3D5" stop-opacity="0.035294"/>
<stop offset="0.4515" stop-color="#8898AF" stop-opacity="0.45098"/>
<stop offset="0.788" stop-color="#798898" stop-opacity="0.788235"/>
<stop offset="1" stop-color="#748290"/>
</linearGradient>
<linearGradient id="paint11_linear_0_1213" x1="279.412" y1="207.157" x2="247.613" y2="383.113" gradientUnits="userSpaceOnUse">
<stop stop-color="#FFFCF8"/>
<stop offset="0.1875" stop-color="#FAF8F6"/>
<stop offset="0.4041" stop-color="#ECEEF2"/>
<stop offset="0.6353" stop-color="#D5DCEA"/>
<stop offset="0.875" stop-color="#B5C4DF"/>
<stop offset="1" stop-color="#A1B5D8"/>
</linearGradient>
<linearGradient id="paint12_linear_0_1213" x1="80.012" y1="431.677" x2="-29.507" y2="541.196" gradientUnits="userSpaceOnUse">
<stop stop-color="#A1B5D8" stop-opacity="0"/>
<stop offset="0.0343" stop-color="#9FB3D5" stop-opacity="0.035294"/>
<stop offset="0.4515" stop-color="#8898AF" stop-opacity="0.45098"/>
<stop offset="0.788" stop-color="#798898" stop-opacity="0.788235"/>
<stop offset="1" stop-color="#748290"/>
</linearGradient>
<clipPath id="clip0_0_1213">
<rect width="512" height="512" fill="white"/>
</clipPath>
</defs>
</svg>
