<svg width="512" height="512" viewBox="0 0 512 512" fill="none" xmlns="http://www.w3.org/2000/svg">
<g id="correctSymbolFilled">
<g id="Group">
<path id="Vector" d="M426.1 61.0999C424.3 61.6999 420.9 63.2999 418.7 64.6999C416.5 66.0999 365.6 116.5 305.6 176.7L196.6 286.1L145.6 235.2C88.2999 178.1 90.2999 179.8 76.3999 179.8C63.6999 179.8 61.3999 181.4 33.2999 209.3C19.8999 222.6 7.3999 235.7 5.5999 238.5C-0.700104 248.1 -1.6001 259.8 3.0999 269.7C6.4999 276.9 175.3 445.7 182.5 449.1C189.7 452.5 199.6 452.9 207.5 450C213.3 447.8 217.6 443.7 359.8 301.6C522.2 139.4 511.5 151 511.5 137C511.5 123.5 511.1 122.9 481.1 92.6999C450.9 62.1999 449.1 60.8999 437 60.3999C432.9 60.1999 428 60.4999 426.1 61.0999Z" fill="black"/>
</g>
</g>
</svg>
