<svg width="512" height="512" viewBox="0 0 512 512" fill="none" xmlns="http://www.w3.org/2000/svg">
<g id="envelopFilled">
<g id="Group">
<path id="Vector" d="M34.7002 55.9999C9.70016 60.1999 -6.69983 94.3999 2.90017 122.3C8.40016 138.3 24.6002 159.6 41.4002 172.9C44.8002 175.6 77.9002 198.9 115 224.7C152.1 250.5 188.8 276.2 196.5 281.6C228.3 304.2 240.9 310.3 256 310.3C271.1 310.3 283.6 304.2 315.5 281.7C323.2 276.2 359.6 250.8 396.5 225.2C433.3 199.6 466.4 176.4 470 173.5C505 145.5 520.3 107.3 507.2 80.6999C503.6 73.4999 494.9 64.3999 488.1 60.5999C477.1 54.5999 491.7 54.9999 255.5 55.0999C136.7 55.1999 37.3002 55.5999 34.7002 55.9999Z" fill="black"/>
<path id="Vector_2" d="M0 299.7C0 373.8 0.4 416.6 1 420.1C3.4 432.7 13.3 446.1 24.2 451.6C35.5 457.3 21.6 457 256 457C490.4 457 476.5 457.3 487.8 451.6C498.7 446.1 508.6 432.7 511 420.1C511.6 416.6 512 373.8 512 299.7V184.7L503.7 192.7C493.4 202.6 493.5 202.5 440 239.1C415.5 255.9 377.8 282.1 356.2 297.4C334.6 312.7 314 326.9 310.5 329.1C302 334.2 288.7 340.3 278.6 343.7C271.3 346.2 269.1 346.4 256 346.4C242.8 346.4 240.8 346.2 233 343.6C214.5 337.5 202.6 330.5 162.5 302C141.6 287.2 103.4 260.6 77.5 242.9C20.2 203.5 17.5 201.6 7.8 192.2L0 184.7V299.7Z" fill="black"/>
</g>
</g>
</svg>
