<svg width="512" height="512" viewBox="0 0 512 512" fill="none" xmlns="http://www.w3.org/2000/svg">
<g id="photoCameraFilled">
<g id="Group">
<path id="Vector" d="M177.5 35.6C166.2 38.3 152.8 47.8 146.3 57.6C144.4 60.4 139.6 71.5 135.6 82.1L128.3 101.5L93.4002 102.1C71.3002 102.5 56.5002 103.1 53.0002 103.9C50.0002 104.6 43.5002 107.1 38.5002 109.5C22.3002 117.2 9.00017 132.3 3.30017 149.3L0.500174 157.5L0.200174 286.5C-0.0998261 431.6 -0.399826 424.3 7.30017 440C10.6002 446.7 13.2002 450.3 20.0002 457.1C29.5002 466.7 37.2002 471.5 49.0002 475.2L56.5002 477.5H256H455.5L463 475.2C474.8 471.5 482.5 466.7 492 457.1C498.8 450.3 501.4 446.7 504.7 440C512.4 424.3 512.1 431.6 511.8 286.5L511.5 157.5L508.7 149.3C503 132.3 489.7 117.2 473.5 109.5C468.6 107.1 462 104.6 459 103.9C455.5 103.1 440.7 102.5 418.6 102.1L383.7 101.5L376.5 82.3C372.5 71.7 367.8 60.8 366 58C359.4 47.8 346.1 38.4 334 35.6C324.6 33.4 186.7 33.4 177.5 35.6ZM283.5 173.8C304.2 178.7 321.7 188.3 338.2 203.8C353.5 218.2 366.3 239.5 371.7 259.5C374.2 268.8 374.4 270.9 374.4 290C374.4 309 374.2 311.2 371.8 320.2C366.2 340.7 357 356.9 341.7 372.6C323.5 391.5 302.1 403.3 278.3 407.5C266.9 409.6 245.1 409.6 233.7 407.5C209.9 403.3 188.5 391.5 170.3 372.6C155 356.9 145.8 340.7 140.2 320.2C137.8 311.2 137.6 309 137.6 290C137.6 270.9 137.8 268.8 140.3 259.5C151.7 217.3 188.6 182 230 173.6C234.1 172.7 238.6 171.9 240 171.6C241.4 171.4 249.7 171.3 258.5 171.4C270.5 171.6 276.7 172.2 283.5 173.8Z" fill="black"/>
<path id="Vector_2" d="M246 214C220.6 217.2 197.8 233.9 186.5 257.5C181.4 267.9 179.7 276.5 179.6 290.5C179.6 299.9 180.1 304.2 181.8 310.3C191.2 343.6 221.8 366.9 256 366.9C290.2 366.9 320.8 343.6 330.2 310.3C333 300.3 333.2 282.1 330.6 271.5C325.8 251.8 311.1 232.9 292.5 222.5C280.3 215.7 260.9 212.1 246 214Z" fill="black"/>
</g>
</g>
</svg>
