<svg width="512" height="512" viewBox="0 0 512 512" fill="none" xmlns="http://www.w3.org/2000/svg">
<g id="speechBubblesCommentOptionFilled">
<g id="Group">
<path id="Vector" d="M180 55.6C178.1 55.8 172.2 56.5 167 57C136.4 60.3 98.0002 73 73.7002 87.6C46.4002 104.2 24.1002 127 12.2002 150.6C-0.599775 176 -3.29977 204.6 4.60022 231.7C13.1002 261.2 35.5002 289.4 66.5002 309.6C71.5002 312.8 75.6002 315.5 75.8002 315.6C76.0002 315.7 74.3002 319.5 72.0002 324C66.9002 334.5 61.5002 342.1 50.3002 354.4C38.3002 367.7 37.0002 369.7 37.0002 374.3C37.0002 377.3 37.7002 378.9 40.1002 381.2C43.0002 384.1 43.4002 384.2 48.8002 383.6C65.2002 381.7 87.3002 375.3 107.3 366.9C122.7 360.3 128.3 357.3 141.7 348.7L151 342.8L157.2 343.8C172.5 346.4 188.1 347.2 209.4 346.7C233.3 346.1 245.5 344.6 264.8 339.9C322 326 366.9 294.9 388.9 254C394.1 244.3 399.5 227.8 401.1 217.1C402.7 205.7 401.7 184.8 399.1 174.7C383.5 115.1 322.8 70.4 240 57.5C230 55.9 188.3 54.6 180 55.6Z" fill="black"/>
<path id="Vector_2" d="M433 159C433 159.5 433.9 163.6 435 168.2C449.8 231.3 420.8 296.1 359.2 337.8C334.4 354.6 309.3 365.8 278.5 373.9C252.3 380.9 231 383.4 200.2 383.4H176.9L182.2 386.7C190.2 391.8 210.3 401.4 221.5 405.6C234.6 410.4 254.6 415.4 269.4 417.5C293.9 421 327.8 421 350.7 417.6L360.9 416L369.2 421.4C393.5 437.1 424.7 449.7 452.3 454.9C466.8 457.7 468.5 457.6 472.1 454.1C474.3 451.8 475 450.2 475 447.3C475 442.8 473.5 440.6 461.9 427.8C449.7 414.3 444.3 406.8 439.2 395.7L436.1 388.9L443.3 384.3C460.5 373.3 478.9 356.3 489.3 341.7C513.2 308.3 518.4 268.3 503.5 232.5C493.6 208.4 474.1 185.4 449.2 168.2C439.8 161.7 433 157.9 433 159Z" fill="black"/>
</g>
</g>
</svg>
