<svg width="512" height="512" viewBox="0 0 512 512" fill="none" xmlns="http://www.w3.org/2000/svg">
<g id="telephoneHandleSilhouetteFilled">
<g id="Group">
<path id="Vector" d="M98.4999 0.69989C85.3999 2.2999 62.9999 8.3999 54.5999 12.6999C34.8999 22.6999 9.1999 65.4999 2.2999 99.9999C-0.100102 111.9 -0.100102 137.4 2.3999 149C6.0999 166.1 14.3999 190.9 29.9999 231.2C48.1999 278.3 81.8999 325.9 134 378C179 423.1 218.5 452.9 259 472.4C273.2 479.2 278.8 481.5 311.7 493.6C352.4 508.6 364.6 511.5 388 511.4C406.6 511.4 414.9 510.1 431.4 504.3C460.6 494.2 491.5 472.8 499.3 457.4C504.4 447.4 510.2 424.7 511.5 409.9C513 393.6 513 393.6 470 370C436.4 351.6 425.1 345 414.1 337.7C396 325.6 390.3 324 381.3 328.2C375.2 331.1 362.8 343.5 349.9 359.5C337.8 374.7 325.9 387 321.1 389.5C313.1 393.6 306.1 391.1 277.8 374.1C241.7 352.5 221.2 337 198.2 314.1C175.4 291.3 159.6 270.4 137.9 234.2C120.9 205.9 118.4 198.9 122.5 190.9C125 186.1 137.3 174.2 152.5 162C168.5 149.2 181 136.6 183.9 130.6C188 121.7 186.3 115.9 174.3 97.8999C167 86.8999 160.3 75.3999 142 41.9999C123.6 8.49991 121.2 4.8999 115.7 1.69989C112.7 0.099884 106.4 -0.30011 98.4999 0.69989Z" fill="black"/>
</g>
</g>
</svg>
