<svg width="512" height="512" viewBox="0 0 512 512" fill="none" xmlns="http://www.w3.org/2000/svg">
<g id="thumbsUpHandSymbolFilled" clip-path="url(#clip0_6_28)">
<g id="Group">
<path id="Vector" d="M311.7 11.3001C306.4 13.0001 301.9 16.9001 297.2 23.9001C290.8 33.6001 287.2 43.6001 282.4 65.8001C275.4 98.5001 271.9 107.1 260.6 120C257 124.1 244.9 138.7 233.8 152.5C192.8 202.9 183.2 212.6 171.6 215C164.6 216.4 158.8 220.6 156.1 226.2L154 230.6V337.8C154 425.5 154.2 445.7 155.3 448.3C157.7 453.8 164 458.7 170.6 460C190.1 463.9 199 466.4 231.5 477C297.5 498.7 321.2 502.7 375.5 501.7C408.9 501.1 417.2 499.7 431.5 492.6C455.4 480.7 468 458.9 468.1 429.2L468.2 419L472.5 413.9C484.8 399.5 490.9 374.7 486.6 356.5C485.5 351.5 485.5 351.4 489.6 344.7C496.4 333.7 498.5 325.7 498.5 311C498.5 302 498 296.4 496.6 290.9L494.7 283.2L498.2 278.4C503 271.8 506.3 264.9 509.1 256C512.4 245.4 512.5 227.6 509.3 217.5C503.7 199.7 488.2 183.9 470 177.2L462.5 174.5L412.2 174.2L361.9 173.9L362.5 171.7C362.8 170.5 367.1 161.6 372 151.9C384.7 126.6 389 110.6 389 88.6001C388.9 68.1001 386.1 53.9001 379.6 41.6001C372.6 28.2001 362.5 19.8001 348 15.2001C335 11.1001 318.1 9.30008 311.7 11.3001Z" fill="black"/>
<path id="Vector_2" d="M12.5 216.9C10.3 217.9 7.29996 220 5.79996 221.6C-0.300035 228.1 -3.55255e-05 221.9 -3.55255e-05 338.2C-3.55255e-05 438.9 0.0999645 444.7 1.89996 448.5C4.19996 453.6 9.79996 458.6 14.7 459.9C19.9 461.4 113.1 461.4 118.3 459.9C123.2 458.6 128.8 453.6 131.1 448.5C132.9 444.7 133 438.9 133 338.2C133 221.9 133.3 228.1 127.2 221.6C125.7 220 122.7 217.9 120.5 216.9C116.8 215.2 113.1 215 66.5 215C19.9 215 16.2 215.2 12.5 216.9ZM68.8 380.6C83.2 386.6 86.3 404.5 74.7 414.7C66.9 421.5 56.1 421.5 48.3 414.7C41.3 408.6 39.2 399.5 43 391.2C47.7 380.9 58.6 376.3 68.8 380.6Z" fill="black"/>
</g>
</g>
<defs>
<clipPath id="clip0_6_28">
<rect width="512" height="512" fill="white"/>
</clipPath>
</defs>
</svg>
